G04 #@! TF.FileFunction,Legend,Bot*
%FSLAX46Y46*%
G04 Gerber Fmt 4.6, Leading zero omitted, Abs format (unit mm)*
G04 Created by KiCad (PCBNEW 4.0.1-stable) date 2018/06/25 22:31:08*
%MOMM*%
G01*
G04 APERTURE LIST*
%ADD10C,0.100000*%
G04 APERTURE END LIST*
D10*
X104600000Y-92400000D02*
X104600000Y-94600000D01*
X104600000Y-94600000D02*
X105400000Y-94600000D01*
X105400000Y-94600000D02*
X105400000Y-92400000D01*
X105400000Y-92400000D02*
X104600000Y-92400000D01*
X104600000Y-97400000D02*
X104600000Y-99600000D01*
X104600000Y-99600000D02*
X105400000Y-99600000D01*
X105400000Y-99600000D02*
X105400000Y-97400000D01*
X105400000Y-97400000D02*
X104600000Y-97400000D01*
X106400000Y-97100000D02*
X106400000Y-94900000D01*
X106400000Y-94900000D02*
X105600000Y-94900000D01*
X105600000Y-94900000D02*
X105600000Y-97100000D01*
X105600000Y-97100000D02*
X106400000Y-97100000D01*
X106400000Y-99600000D02*
X106400000Y-97400000D01*
X106400000Y-97400000D02*
X105600000Y-97400000D01*
X105600000Y-97400000D02*
X105600000Y-99600000D01*
X105600000Y-99600000D02*
X106400000Y-99600000D01*
X106400000Y-94600000D02*
X106400000Y-92400000D01*
X106400000Y-92400000D02*
X105600000Y-92400000D01*
X105600000Y-92400000D02*
X105600000Y-94600000D01*
X105600000Y-94600000D02*
X106400000Y-94600000D01*
X119659231Y-66938060D02*
X121281241Y-65451762D01*
X121281241Y-65451762D02*
X120740769Y-64861940D01*
X120740769Y-64861940D02*
X119118759Y-66348238D01*
X119118759Y-66348238D02*
X119659231Y-66938060D01*
X116118606Y-62906589D02*
X117503111Y-61196868D01*
X117503111Y-61196868D02*
X116881394Y-60693411D01*
X116881394Y-60693411D02*
X115496889Y-62403132D01*
X115496889Y-62403132D02*
X116118606Y-62906589D01*
X111986359Y-59450807D02*
X113102944Y-57555223D01*
X113102944Y-57555223D02*
X112413641Y-57149193D01*
X112413641Y-57149193D02*
X111297056Y-59044777D01*
X111297056Y-59044777D02*
X111986359Y-59450807D01*
X126465013Y-81404131D02*
X128568884Y-80760913D01*
X128568884Y-80760913D02*
X128334987Y-79995869D01*
X128334987Y-79995869D02*
X126231116Y-80639087D01*
X126231116Y-80639087D02*
X126465013Y-81404131D01*
X124979361Y-76234596D02*
X126965048Y-75287472D01*
X126965048Y-75287472D02*
X126620639Y-74565404D01*
X126620639Y-74565404D02*
X124634952Y-75512528D01*
X124634952Y-75512528D02*
X124979361Y-76234596D01*
X122711736Y-71346727D02*
X124535618Y-70116503D01*
X124535618Y-70116503D02*
X124088264Y-69453273D01*
X124088264Y-69453273D02*
X122264382Y-70683497D01*
X122264382Y-70683497D02*
X122711736Y-71346727D01*
X126252959Y-97333016D02*
X128428794Y-97658197D01*
X128428794Y-97658197D02*
X128547041Y-96866984D01*
X128547041Y-96866984D02*
X126371206Y-96541803D01*
X126371206Y-96541803D02*
X126252959Y-97333016D01*
X127100000Y-92100000D02*
X129300000Y-92100000D01*
X129300000Y-92100000D02*
X129300000Y-91300000D01*
X129300000Y-91300000D02*
X127100000Y-91300000D01*
X127100000Y-91300000D02*
X127100000Y-92100000D01*
X127171206Y-86758197D02*
X129347041Y-86433016D01*
X129347041Y-86433016D02*
X129228794Y-85641803D01*
X129228794Y-85641803D02*
X127052959Y-85966984D01*
X127052959Y-85966984D02*
X127171206Y-86758197D01*
X104600000Y-94900000D02*
X104600000Y-97100000D01*
X104600000Y-97100000D02*
X105400000Y-97100000D01*
X105400000Y-97100000D02*
X105400000Y-94900000D01*
X105400000Y-94900000D02*
X104600000Y-94900000D01*
X104600000Y-99900000D02*
X104600000Y-102100000D01*
X104600000Y-102100000D02*
X105400000Y-102100000D01*
X105400000Y-102100000D02*
X105400000Y-99900000D01*
X105400000Y-99900000D02*
X104600000Y-99900000D01*
X104600000Y-102400000D02*
X104600000Y-104600000D01*
X104600000Y-104600000D02*
X105400000Y-104600000D01*
X105400000Y-104600000D02*
X105400000Y-102400000D01*
X105400000Y-102400000D02*
X104600000Y-102400000D01*
X106400000Y-102100000D02*
X106400000Y-99900000D01*
X106400000Y-99900000D02*
X105600000Y-99900000D01*
X105600000Y-99900000D02*
X105600000Y-102100000D01*
X105600000Y-102100000D02*
X106400000Y-102100000D01*
X106400000Y-104600000D02*
X106400000Y-102400000D01*
X106400000Y-102400000D02*
X105600000Y-102400000D01*
X105600000Y-102400000D02*
X105600000Y-104600000D01*
X105600000Y-104600000D02*
X106400000Y-104600000D01*
X123700000Y-97400000D02*
X123700000Y-99600000D01*
X123700000Y-99600000D02*
X124500000Y-99600000D01*
X124500000Y-99600000D02*
X124500000Y-97400000D01*
X124500000Y-97400000D02*
X123700000Y-97400000D01*
X116100000Y-110500000D02*
X116100000Y-112700000D01*
X116100000Y-112700000D02*
X116900000Y-112700000D01*
X116900000Y-112700000D02*
X116900000Y-110500000D01*
X116900000Y-110500000D02*
X116100000Y-110500000D01*
X119164382Y-111716503D02*
X120988264Y-112946727D01*
X120988264Y-112946727D02*
X121435618Y-112283497D01*
X121435618Y-112283497D02*
X119611736Y-111053273D01*
X119611736Y-111053273D02*
X119164382Y-111716503D01*
X122234952Y-107287472D02*
X124220639Y-108234596D01*
X124220639Y-108234596D02*
X124565048Y-107512528D01*
X124565048Y-107512528D02*
X122579361Y-106565404D01*
X122579361Y-106565404D02*
X122234952Y-107287472D01*
X124631116Y-102560913D02*
X126734987Y-103204131D01*
X126734987Y-103204131D02*
X126968884Y-102439087D01*
X126968884Y-102439087D02*
X124865013Y-101795869D01*
X124865013Y-101795869D02*
X124631116Y-102560913D01*
X106597056Y-121755223D02*
X107713641Y-123650807D01*
X107713641Y-123650807D02*
X108402944Y-123244777D01*
X108402944Y-123244777D02*
X107286359Y-121349193D01*
X107286359Y-121349193D02*
X106597056Y-121755223D01*
X111296889Y-118996868D02*
X112681394Y-120706589D01*
X112681394Y-120706589D02*
X113303111Y-120203132D01*
X113303111Y-120203132D02*
X111918606Y-118493411D01*
X111918606Y-118493411D02*
X111296889Y-118996868D01*
X115518759Y-115651762D02*
X117140769Y-117138060D01*
X117140769Y-117138060D02*
X117681241Y-116548238D01*
X117681241Y-116548238D02*
X116059231Y-115061940D01*
X116059231Y-115061940D02*
X115518759Y-115651762D01*
X109200000Y-94300000D02*
X109200000Y-92700000D01*
X109200000Y-92700000D02*
X106800000Y-92700000D01*
X106800000Y-92700000D02*
X106800000Y-94300000D01*
X106800000Y-94300000D02*
X109200000Y-94300000D01*
X109200000Y-96800000D02*
X109200000Y-95200000D01*
X109200000Y-95200000D02*
X106800000Y-95200000D01*
X106800000Y-95200000D02*
X106800000Y-96800000D01*
X106800000Y-96800000D02*
X109200000Y-96800000D01*
X109200000Y-99300000D02*
X109200000Y-97700000D01*
X109200000Y-97700000D02*
X106800000Y-97700000D01*
X106800000Y-97700000D02*
X106800000Y-99300000D01*
X106800000Y-99300000D02*
X109200000Y-99300000D01*
X109200000Y-101800000D02*
X109200000Y-100200000D01*
X109200000Y-100200000D02*
X106800000Y-100200000D01*
X106800000Y-100200000D02*
X106800000Y-101800000D01*
X106800000Y-101800000D02*
X109200000Y-101800000D01*
X109200000Y-104300000D02*
X109200000Y-102700000D01*
X109200000Y-102700000D02*
X106800000Y-102700000D01*
X106800000Y-102700000D02*
X106800000Y-104300000D01*
X106800000Y-104300000D02*
X109200000Y-104300000D01*
M02*
