G04 #@! TF.FileFunction,Legend,Top*
%FSLAX46Y46*%
G04 Gerber Fmt 4.6, Leading zero omitted, Abs format (unit mm)*
G04 Created by KiCad (PCBNEW 4.0.1-stable) date 2018/06/25 22:31:08*
%MOMM*%
G01*
G04 APERTURE LIST*
%ADD10C,0.100000*%
%ADD11C,0.150000*%
%ADD12C,0.120000*%
G04 APERTURE END LIST*
D10*
D11*
X69000000Y-82500000D02*
X69000000Y-78500000D01*
X69000000Y-78500000D02*
X71500000Y-78500000D01*
X71500000Y-82500000D02*
X69000000Y-82500000D01*
X71500000Y-77500000D02*
X71500000Y-78500000D01*
X71500000Y-83500000D02*
X71500000Y-82500000D01*
X59800000Y-83500000D02*
X59800000Y-77500000D01*
X59800000Y-83500000D02*
X71500000Y-83500000D01*
X59800000Y-77500000D02*
X71500000Y-77500000D01*
D10*
X75650000Y-96800000D02*
X75650000Y-96200000D01*
X70350000Y-92350000D02*
X70350000Y-93800000D01*
X70350000Y-97650000D02*
X74800000Y-97650000D01*
X74800000Y-97650000D02*
X75650000Y-96800000D01*
X75650000Y-93800000D02*
X75650000Y-93200000D01*
X75650000Y-93200000D02*
X74800000Y-92350000D01*
X74800000Y-92350000D02*
X70350000Y-92350000D01*
X70350000Y-96200000D02*
X70350000Y-97650000D01*
X72300000Y-81400000D02*
X79700000Y-81400000D01*
X79700000Y-81400000D02*
X79700000Y-86600000D01*
X79700000Y-86600000D02*
X72300000Y-86600000D01*
X72300000Y-86600000D02*
X72300000Y-81400000D01*
X75600000Y-82200000D02*
G75*
G03X75600000Y-82200000I-400000J0D01*
G01*
X112200000Y-89700000D02*
X112200000Y-91900000D01*
X112200000Y-91900000D02*
X111400000Y-91900000D01*
X111400000Y-91900000D02*
X111400000Y-89700000D01*
X111400000Y-89700000D02*
X112200000Y-89700000D01*
X111200000Y-89700000D02*
X111200000Y-91900000D01*
X111200000Y-91900000D02*
X110400000Y-91900000D01*
X110400000Y-91900000D02*
X110400000Y-89700000D01*
X110400000Y-89700000D02*
X111200000Y-89700000D01*
X108400000Y-93000000D02*
X108400000Y-95200000D01*
X108400000Y-95200000D02*
X107600000Y-95200000D01*
X107600000Y-95200000D02*
X107600000Y-93000000D01*
X107600000Y-93000000D02*
X108400000Y-93000000D01*
X103200000Y-83100000D02*
X105400000Y-83100000D01*
X105400000Y-83100000D02*
X105400000Y-83900000D01*
X105400000Y-83900000D02*
X103200000Y-83900000D01*
X103200000Y-83900000D02*
X103200000Y-83100000D01*
X105900000Y-97400000D02*
X105900000Y-99600000D01*
X105900000Y-99600000D02*
X105100000Y-99600000D01*
X105100000Y-99600000D02*
X105100000Y-97400000D01*
X105100000Y-97400000D02*
X105900000Y-97400000D01*
X100600000Y-76900000D02*
X100600000Y-74700000D01*
X100600000Y-74700000D02*
X101400000Y-74700000D01*
X101400000Y-74700000D02*
X101400000Y-76900000D01*
X101400000Y-76900000D02*
X100600000Y-76900000D01*
X80100000Y-72350000D02*
X80100000Y-75350000D01*
X80100000Y-75350000D02*
X78900000Y-75350000D01*
X78900000Y-75350000D02*
X78900000Y-72350000D01*
X78900000Y-72350000D02*
X80100000Y-72350000D01*
X93900000Y-83900000D02*
X96100000Y-83900000D01*
X96100000Y-83900000D02*
X96100000Y-84700000D01*
X96100000Y-84700000D02*
X93900000Y-84700000D01*
X93900000Y-84700000D02*
X93900000Y-83900000D01*
X90700000Y-77650000D02*
X91300000Y-77650000D01*
X95150000Y-72350000D02*
X93700000Y-72350000D01*
X89850000Y-72350000D02*
X89850000Y-76800000D01*
X89850000Y-76800000D02*
X90700000Y-77650000D01*
X93700000Y-77650000D02*
X94300000Y-77650000D01*
X94300000Y-77650000D02*
X95150000Y-76800000D01*
X95150000Y-76800000D02*
X95150000Y-72350000D01*
X91300000Y-72350000D02*
X89850000Y-72350000D01*
X96100000Y-85800000D02*
X93900000Y-85800000D01*
X93900000Y-85800000D02*
X93900000Y-85000000D01*
X93900000Y-85000000D02*
X96100000Y-85000000D01*
X96100000Y-85000000D02*
X96100000Y-85800000D01*
X93000000Y-97200000D02*
X95200000Y-97200000D01*
X95200000Y-97200000D02*
X95200000Y-98000000D01*
X95200000Y-98000000D02*
X93000000Y-98000000D01*
X93000000Y-98000000D02*
X93000000Y-97200000D01*
X95200000Y-96800000D02*
X93000000Y-96800000D01*
X93000000Y-96800000D02*
X93000000Y-96000000D01*
X93000000Y-96000000D02*
X95200000Y-96000000D01*
X95200000Y-96000000D02*
X95200000Y-96800000D01*
X99000000Y-81100000D02*
X96000000Y-81100000D01*
X96000000Y-81100000D02*
X96000000Y-79900000D01*
X96000000Y-79900000D02*
X99000000Y-79900000D01*
X99000000Y-79900000D02*
X99000000Y-81100000D01*
X68400000Y-95000000D02*
X68400000Y-97200000D01*
X68400000Y-97200000D02*
X67600000Y-97200000D01*
X67600000Y-97200000D02*
X67600000Y-95000000D01*
X67600000Y-95000000D02*
X68400000Y-95000000D01*
X102100000Y-76000000D02*
X104300000Y-76000000D01*
X104300000Y-76000000D02*
X104300000Y-76800000D01*
X104300000Y-76800000D02*
X102100000Y-76800000D01*
X102100000Y-76800000D02*
X102100000Y-76000000D01*
X109900000Y-101400000D02*
X109900000Y-103600000D01*
X109900000Y-103600000D02*
X109100000Y-103600000D01*
X109100000Y-103600000D02*
X109100000Y-101400000D01*
X109100000Y-101400000D02*
X109900000Y-101400000D01*
X104300000Y-75600000D02*
X102100000Y-75600000D01*
X102100000Y-75600000D02*
X102100000Y-74800000D01*
X102100000Y-74800000D02*
X104300000Y-74800000D01*
X104300000Y-74800000D02*
X104300000Y-75600000D01*
X74100000Y-88800000D02*
X71900000Y-88800000D01*
X71900000Y-88800000D02*
X71900000Y-88000000D01*
X71900000Y-88000000D02*
X74100000Y-88000000D01*
X74100000Y-88000000D02*
X74100000Y-88800000D01*
X93900000Y-82800000D02*
X96100000Y-82800000D01*
X96100000Y-82800000D02*
X96100000Y-83600000D01*
X96100000Y-83600000D02*
X93900000Y-83600000D01*
X93900000Y-83600000D02*
X93900000Y-82800000D01*
X94900000Y-99400000D02*
X94900000Y-101600000D01*
X94900000Y-101600000D02*
X94100000Y-101600000D01*
X94100000Y-101600000D02*
X94100000Y-99400000D01*
X94100000Y-99400000D02*
X94900000Y-99400000D01*
X96400000Y-99400000D02*
X96400000Y-101600000D01*
X96400000Y-101600000D02*
X95600000Y-101600000D01*
X95600000Y-101600000D02*
X95600000Y-99400000D01*
X95600000Y-99400000D02*
X96400000Y-99400000D01*
X97900000Y-99400000D02*
X97900000Y-101600000D01*
X97900000Y-101600000D02*
X97100000Y-101600000D01*
X97100000Y-101600000D02*
X97100000Y-99400000D01*
X97100000Y-99400000D02*
X97900000Y-99400000D01*
X119400000Y-71300000D02*
X119400000Y-69100000D01*
X119400000Y-69100000D02*
X120200000Y-69100000D01*
X120200000Y-69100000D02*
X120200000Y-71300000D01*
X120200000Y-71300000D02*
X119400000Y-71300000D01*
X124600000Y-85400000D02*
X124600000Y-83200000D01*
X124600000Y-83200000D02*
X125400000Y-83200000D01*
X125400000Y-83200000D02*
X125400000Y-85400000D01*
X125400000Y-85400000D02*
X124600000Y-85400000D01*
X109000000Y-59500000D02*
X106800000Y-59500000D01*
X106800000Y-59500000D02*
X106800000Y-58700000D01*
X106800000Y-58700000D02*
X109000000Y-58700000D01*
X109000000Y-58700000D02*
X109000000Y-59500000D01*
X99100000Y-74900000D02*
X99100000Y-79100000D01*
X99100000Y-79100000D02*
X95900000Y-79100000D01*
X95900000Y-79100000D02*
X95900000Y-74900000D01*
X95900000Y-74900000D02*
X99100000Y-74900000D01*
X101250000Y-100000000D02*
X108750000Y-100000000D01*
X108750000Y-100000000D02*
X108750000Y-105000000D01*
X108750000Y-105000000D02*
X101250000Y-105000000D01*
X101250000Y-105000000D02*
X101250000Y-100000000D01*
X106250000Y-102500000D02*
G75*
G03X106250000Y-102500000I-1250000J0D01*
G01*
X66750000Y-91000000D02*
X66750000Y-100000000D01*
X66750000Y-100000000D02*
X61250000Y-100000000D01*
X61250000Y-100000000D02*
X61250000Y-91000000D01*
X61250000Y-91000000D02*
X66750000Y-91000000D01*
X105100000Y-74800000D02*
X105100000Y-76800000D01*
X105100000Y-76800000D02*
X107900000Y-76800000D01*
X107900000Y-76800000D02*
X107900000Y-74800000D01*
X107900000Y-74800000D02*
X105100000Y-74800000D01*
X105000000Y-95500000D02*
G75*
G03X105000000Y-95500000I-500000J0D01*
G01*
D11*
X105500000Y-96500000D02*
X95500000Y-96500000D01*
X95500000Y-96500000D02*
X95500000Y-86500000D01*
X95500000Y-86500000D02*
X105500000Y-86500000D01*
X105500000Y-86500000D02*
X105500000Y-96500000D01*
D10*
X89200000Y-71500000D02*
X80800000Y-71500000D01*
X89200000Y-78500000D02*
X89200000Y-71500000D01*
X80800000Y-78500000D02*
X89200000Y-78500000D01*
X80800000Y-71500000D02*
X80800000Y-78500000D01*
X79550000Y-97150000D02*
X79550000Y-100850000D01*
X79550000Y-100850000D02*
X76450000Y-100850000D01*
X76450000Y-100850000D02*
X76450000Y-97150000D01*
X76450000Y-97150000D02*
X79550000Y-97150000D01*
X80700000Y-94400000D02*
X80700000Y-96600000D01*
X80700000Y-96600000D02*
X79900000Y-96600000D01*
X79900000Y-96600000D02*
X79900000Y-94400000D01*
X79900000Y-94400000D02*
X80700000Y-94400000D01*
X78900000Y-96600000D02*
X78900000Y-94400000D01*
X78900000Y-94400000D02*
X79700000Y-94400000D01*
X79700000Y-94400000D02*
X79700000Y-96600000D01*
X79700000Y-96600000D02*
X78900000Y-96600000D01*
D12*
X62010000Y-73670000D02*
X62010000Y-76330000D01*
X72230000Y-73670000D02*
X62010000Y-73670000D01*
X72230000Y-76330000D02*
X62010000Y-76330000D01*
X72230000Y-73670000D02*
X72230000Y-76330000D01*
X73500000Y-73670000D02*
X74830000Y-73670000D01*
X74830000Y-73670000D02*
X74830000Y-75000000D01*
X39010000Y-73670000D02*
X39010000Y-76330000D01*
X49230000Y-73670000D02*
X39010000Y-73670000D01*
X49230000Y-76330000D02*
X39010000Y-76330000D01*
X49230000Y-73670000D02*
X49230000Y-76330000D01*
X50500000Y-73670000D02*
X51830000Y-73670000D01*
X51830000Y-73670000D02*
X51830000Y-75000000D01*
X39010000Y-101670000D02*
X39010000Y-104330000D01*
X49230000Y-101670000D02*
X39010000Y-101670000D01*
X49230000Y-104330000D02*
X39010000Y-104330000D01*
X49230000Y-101670000D02*
X49230000Y-104330000D01*
X50500000Y-101670000D02*
X51830000Y-101670000D01*
X51830000Y-101670000D02*
X51830000Y-103000000D01*
X62010000Y-101670000D02*
X62010000Y-104330000D01*
X72230000Y-101670000D02*
X62010000Y-101670000D01*
X72230000Y-104330000D02*
X62010000Y-104330000D01*
X72230000Y-101670000D02*
X72230000Y-104330000D01*
X73500000Y-101670000D02*
X74830000Y-101670000D01*
X74830000Y-101670000D02*
X74830000Y-103000000D01*
D11*
X42700000Y-100000000D02*
X42700000Y-90000000D01*
X42700000Y-90000000D02*
X57700000Y-90000000D01*
X57700000Y-90000000D02*
X57700000Y-100000000D01*
X57700000Y-100000000D02*
X42700000Y-100000000D01*
X42700000Y-88000000D02*
X42700000Y-78000000D01*
X42700000Y-78000000D02*
X57700000Y-78000000D01*
X57700000Y-78000000D02*
X57700000Y-88000000D01*
X57700000Y-88000000D02*
X42700000Y-88000000D01*
D10*
X71080000Y-124350000D02*
X60920000Y-124350000D01*
X60920000Y-124350000D02*
X60920000Y-111650000D01*
X60920000Y-111650000D02*
X71080000Y-111650000D01*
X71080000Y-111650000D02*
X71080000Y-124350000D01*
D11*
X79300000Y-105750000D02*
X79300000Y-101250000D01*
X75800000Y-105750000D02*
X79300000Y-105750000D01*
X75800000Y-101250000D02*
X79300000Y-101250000D01*
X75800000Y-105750000D02*
X75800000Y-101250000D01*
X83300000Y-105750000D02*
X83300000Y-101250000D01*
X79800000Y-105750000D02*
X83300000Y-105750000D01*
X79800000Y-101250000D02*
X83300000Y-101250000D01*
X79800000Y-105750000D02*
X79800000Y-101250000D01*
X69000000Y-89500000D02*
X69000000Y-85500000D01*
X69000000Y-85500000D02*
X71500000Y-85500000D01*
X71500000Y-89500000D02*
X69000000Y-89500000D01*
X71500000Y-84500000D02*
X71500000Y-85500000D01*
X71500000Y-90500000D02*
X71500000Y-89500000D01*
X59800000Y-90500000D02*
X59800000Y-84500000D01*
X59800000Y-90500000D02*
X71500000Y-90500000D01*
X59800000Y-84500000D02*
X71500000Y-84500000D01*
D12*
X82129600Y-79670000D02*
X82129600Y-82330000D01*
X87269600Y-79670000D02*
X82129600Y-79670000D01*
X87269600Y-82330000D02*
X82129600Y-82330000D01*
X87269600Y-79670000D02*
X87269600Y-82330000D01*
X88539600Y-79670000D02*
X89869600Y-79670000D01*
X89869600Y-79670000D02*
X89869600Y-81000000D01*
X62130000Y-108670000D02*
X62130000Y-111330000D01*
X67270000Y-108670000D02*
X62130000Y-108670000D01*
X67270000Y-111330000D02*
X62130000Y-111330000D01*
X67270000Y-108670000D02*
X67270000Y-111330000D01*
X68540000Y-108670000D02*
X69870000Y-108670000D01*
X69870000Y-108670000D02*
X69870000Y-110000000D01*
X62130000Y-124670000D02*
X62130000Y-127330000D01*
X67270000Y-124670000D02*
X62130000Y-124670000D01*
X67270000Y-127330000D02*
X62130000Y-127330000D01*
X67270000Y-124670000D02*
X67270000Y-127330000D01*
X68540000Y-124670000D02*
X69870000Y-124670000D01*
X69870000Y-124670000D02*
X69870000Y-126000000D01*
X82129600Y-95670000D02*
X82129600Y-98330000D01*
X87269600Y-95670000D02*
X82129600Y-95670000D01*
X87269600Y-98330000D02*
X82129600Y-98330000D01*
X87269600Y-95670000D02*
X87269600Y-98330000D01*
X88539600Y-95670000D02*
X89869600Y-95670000D01*
X89869600Y-95670000D02*
X89869600Y-97000000D01*
D11*
X38000000Y-85950000D02*
X38000000Y-80050000D01*
X42500000Y-85950000D02*
X38000000Y-85950000D01*
X42500000Y-80050000D02*
X38000000Y-80050000D01*
X42500000Y-85950000D02*
X42500000Y-80050000D01*
X38000000Y-97950000D02*
X38000000Y-92050000D01*
X42500000Y-97950000D02*
X38000000Y-97950000D01*
X42500000Y-92050000D02*
X38000000Y-92050000D01*
X42500000Y-97950000D02*
X42500000Y-92050000D01*
X91950000Y-103800000D02*
X91950000Y-99300000D01*
X84050000Y-103800000D02*
X91950000Y-103800000D01*
X84050000Y-99300000D02*
X84050000Y-103800000D01*
X91950000Y-99300000D02*
X84050000Y-99300000D01*
D10*
X92600000Y-103200000D02*
X93000000Y-103800000D01*
X93000000Y-103800000D02*
X93400000Y-103200000D01*
X93400000Y-103200000D02*
X92600000Y-103200000D01*
X92600000Y-103800000D02*
X93400000Y-103800000D01*
X92400000Y-105000000D02*
X92400000Y-102000000D01*
X92400000Y-102000000D02*
X93600000Y-102000000D01*
X93600000Y-102000000D02*
X93600000Y-105000000D01*
X93600000Y-105000000D02*
X92400000Y-105000000D01*
X94100000Y-103200000D02*
X94500000Y-103800000D01*
X94500000Y-103800000D02*
X94900000Y-103200000D01*
X94900000Y-103200000D02*
X94100000Y-103200000D01*
X94100000Y-103800000D02*
X94900000Y-103800000D01*
X93900000Y-105000000D02*
X93900000Y-102000000D01*
X93900000Y-102000000D02*
X95100000Y-102000000D01*
X95100000Y-102000000D02*
X95100000Y-105000000D01*
X95100000Y-105000000D02*
X93900000Y-105000000D01*
X95600000Y-103200000D02*
X96000000Y-103800000D01*
X96000000Y-103800000D02*
X96400000Y-103200000D01*
X96400000Y-103200000D02*
X95600000Y-103200000D01*
X95600000Y-103800000D02*
X96400000Y-103800000D01*
X95400000Y-105000000D02*
X95400000Y-102000000D01*
X95400000Y-102000000D02*
X96600000Y-102000000D01*
X96600000Y-102000000D02*
X96600000Y-105000000D01*
X96600000Y-105000000D02*
X95400000Y-105000000D01*
X97100000Y-103200000D02*
X97500000Y-103800000D01*
X97500000Y-103800000D02*
X97900000Y-103200000D01*
X97900000Y-103200000D02*
X97100000Y-103200000D01*
X97100000Y-103800000D02*
X97900000Y-103800000D01*
X96900000Y-105000000D02*
X96900000Y-102000000D01*
X96900000Y-102000000D02*
X98100000Y-102000000D01*
X98100000Y-102000000D02*
X98100000Y-105000000D01*
X98100000Y-105000000D02*
X96900000Y-105000000D01*
X93400000Y-99400000D02*
X93400000Y-101600000D01*
X93400000Y-101600000D02*
X92600000Y-101600000D01*
X92600000Y-101600000D02*
X92600000Y-99400000D01*
X92600000Y-99400000D02*
X93400000Y-99400000D01*
D11*
X81300000Y-93750000D02*
X81300000Y-89250000D01*
X77800000Y-93750000D02*
X81300000Y-93750000D01*
X77800000Y-89250000D02*
X81300000Y-89250000D01*
X77800000Y-93750000D02*
X77800000Y-89250000D01*
D10*
X72600000Y-90200000D02*
X73000000Y-90800000D01*
X73000000Y-90800000D02*
X73400000Y-90200000D01*
X73400000Y-90200000D02*
X72600000Y-90200000D01*
X72600000Y-90800000D02*
X73400000Y-90800000D01*
X72400000Y-92000000D02*
X72400000Y-89000000D01*
X72400000Y-89000000D02*
X73600000Y-89000000D01*
X73600000Y-89000000D02*
X73600000Y-92000000D01*
X73600000Y-92000000D02*
X72400000Y-92000000D01*
M02*
