G04 #@! TF.FileFunction,Copper,L2,Bot,Signal*
%FSLAX46Y46*%
G04 Gerber Fmt 4.6, Leading zero omitted, Abs format (unit mm)*
G04 Created by KiCad (PCBNEW 4.0.1-stable) date 2018/06/25 22:31:08*
%MOMM*%
G01*
G04 APERTURE LIST*
%ADD10C,0.100000*%
%ADD11C,1.500000*%
%ADD12R,0.500000X0.700000*%
%ADD13R,0.700000X0.500000*%
%ADD14C,1.524000*%
%ADD15R,1.800000X1.800000*%
%ADD16R,0.700000X0.420000*%
%ADD17R,1.700000X1.700000*%
%ADD18O,1.700000X1.700000*%
%ADD19C,1.600000*%
%ADD20C,1.100000*%
%ADD21C,1.300000*%
%ADD22C,0.600000*%
%ADD23C,0.250000*%
%ADD24C,0.200000*%
%ADD25C,1.500000*%
%ADD26C,1.000000*%
%ADD27C,0.500000*%
%ADD28C,0.800000*%
%ADD29C,0.254000*%
G04 APERTURE END LIST*
D10*
D11*
X68000000Y-81500000D03*
X68000000Y-79500000D03*
D12*
X105000000Y-92900000D03*
X105000000Y-94100000D03*
X105000000Y-97900000D03*
X105000000Y-99100000D03*
X106000000Y-96600000D03*
X106000000Y-95400000D03*
X106000000Y-99100000D03*
X106000000Y-97900000D03*
X106000000Y-94100000D03*
X106000000Y-92900000D03*
D10*
G36*
X119668484Y-66726130D02*
X119330689Y-66357491D01*
X119846784Y-65884578D01*
X120184579Y-66253217D01*
X119668484Y-66726130D01*
X119668484Y-66726130D01*
G37*
G36*
X120553216Y-65915422D02*
X120215421Y-65546783D01*
X120731516Y-65073870D01*
X121069311Y-65442509D01*
X120553216Y-65915422D01*
X120553216Y-65915422D01*
G37*
G36*
X116096432Y-62695619D02*
X115707859Y-62380959D01*
X116148384Y-61836957D01*
X116536957Y-62151617D01*
X116096432Y-62695619D01*
X116096432Y-62695619D01*
G37*
G36*
X116851616Y-61763043D02*
X116463043Y-61448383D01*
X116903568Y-60904381D01*
X117292141Y-61219041D01*
X116851616Y-61763043D01*
X116851616Y-61763043D01*
G37*
G36*
X111933246Y-59245432D02*
X111502431Y-58991663D01*
X111857708Y-58388522D01*
X112288523Y-58642291D01*
X111933246Y-59245432D01*
X111933246Y-59245432D01*
G37*
G36*
X112542292Y-58211478D02*
X112111477Y-57957709D01*
X112466754Y-57354568D01*
X112897569Y-57608337D01*
X112542292Y-58211478D01*
X112542292Y-58211478D01*
G37*
G36*
X126564603Y-81216829D02*
X126418417Y-80738677D01*
X127087831Y-80534017D01*
X127234017Y-81012169D01*
X126564603Y-81216829D01*
X126564603Y-81216829D01*
G37*
G36*
X127712169Y-80865983D02*
X127565983Y-80387831D01*
X128235397Y-80183171D01*
X128381583Y-80661323D01*
X127712169Y-80865983D01*
X127712169Y-80865983D01*
G37*
G36*
X125050172Y-76034632D02*
X124834916Y-75583340D01*
X125466726Y-75281982D01*
X125681982Y-75733274D01*
X125050172Y-76034632D01*
X125050172Y-76034632D01*
G37*
G36*
X126133274Y-75518018D02*
X125918018Y-75066726D01*
X126549828Y-74765368D01*
X126765084Y-75216660D01*
X126133274Y-75518018D01*
X126133274Y-75518018D01*
G37*
G36*
X122752212Y-71138493D02*
X122472616Y-70723974D01*
X123052942Y-70332539D01*
X123332538Y-70747058D01*
X122752212Y-71138493D01*
X122752212Y-71138493D01*
G37*
G36*
X123747058Y-70467461D02*
X123467462Y-70052942D01*
X124047788Y-69661507D01*
X124327384Y-70076026D01*
X123747058Y-70467461D01*
X123747058Y-70467461D01*
G37*
G36*
X126423482Y-97206835D02*
X126497387Y-96712327D01*
X127189698Y-96815793D01*
X127115793Y-97310301D01*
X126423482Y-97206835D01*
X126423482Y-97206835D01*
G37*
G36*
X127610302Y-97384207D02*
X127684207Y-96889699D01*
X128376518Y-96993165D01*
X128302613Y-97487673D01*
X127610302Y-97384207D01*
X127610302Y-97384207D01*
G37*
D13*
X127600000Y-91700000D03*
X128800000Y-91700000D03*
D10*
G36*
X127297387Y-86587673D02*
X127223482Y-86093165D01*
X127915793Y-85989699D01*
X127989698Y-86484207D01*
X127297387Y-86587673D01*
X127297387Y-86587673D01*
G37*
G36*
X128484207Y-86410301D02*
X128410302Y-85915793D01*
X129102613Y-85812327D01*
X129176518Y-86306835D01*
X128484207Y-86410301D01*
X128484207Y-86410301D01*
G37*
D12*
X105000000Y-95400000D03*
X105000000Y-96600000D03*
X105000000Y-100400000D03*
X105000000Y-101600000D03*
X105000000Y-102900000D03*
X105000000Y-104100000D03*
X106000000Y-101600000D03*
X106000000Y-100400000D03*
X106000000Y-104100000D03*
X106000000Y-102900000D03*
X124100000Y-97900000D03*
X124100000Y-99100000D03*
X116500000Y-111000000D03*
X116500000Y-112200000D03*
D10*
G36*
X119372616Y-111676026D02*
X119652212Y-111261507D01*
X120232538Y-111652942D01*
X119952942Y-112067461D01*
X119372616Y-111676026D01*
X119372616Y-111676026D01*
G37*
G36*
X120367462Y-112347058D02*
X120647058Y-111932539D01*
X121227384Y-112323974D01*
X120947788Y-112738493D01*
X120367462Y-112347058D01*
X120367462Y-112347058D01*
G37*
G36*
X122434916Y-107216660D02*
X122650172Y-106765368D01*
X123281982Y-107066726D01*
X123066726Y-107518018D01*
X122434916Y-107216660D01*
X122434916Y-107216660D01*
G37*
G36*
X123518018Y-107733274D02*
X123733274Y-107281982D01*
X124365084Y-107583340D01*
X124149828Y-108034632D01*
X123518018Y-107733274D01*
X123518018Y-107733274D01*
G37*
G36*
X124818417Y-102461323D02*
X124964603Y-101983171D01*
X125634017Y-102187831D01*
X125487831Y-102665983D01*
X124818417Y-102461323D01*
X124818417Y-102461323D01*
G37*
G36*
X125965983Y-102812169D02*
X126112169Y-102334017D01*
X126781583Y-102538677D01*
X126635397Y-103016829D01*
X125965983Y-102812169D01*
X125965983Y-102812169D01*
G37*
G36*
X106802431Y-121808337D02*
X107233246Y-121554568D01*
X107588523Y-122157709D01*
X107157708Y-122411478D01*
X106802431Y-121808337D01*
X106802431Y-121808337D01*
G37*
G36*
X107411477Y-122842291D02*
X107842292Y-122588522D01*
X108197569Y-123191663D01*
X107766754Y-123445432D01*
X107411477Y-122842291D01*
X107411477Y-122842291D01*
G37*
G36*
X111507859Y-119019041D02*
X111896432Y-118704381D01*
X112336957Y-119248383D01*
X111948384Y-119563043D01*
X111507859Y-119019041D01*
X111507859Y-119019041D01*
G37*
G36*
X112263043Y-119951617D02*
X112651616Y-119636957D01*
X113092141Y-120180959D01*
X112703568Y-120495619D01*
X112263043Y-119951617D01*
X112263043Y-119951617D01*
G37*
G36*
X115730689Y-115642509D02*
X116068484Y-115273870D01*
X116584579Y-115746783D01*
X116246784Y-116115422D01*
X115730689Y-115642509D01*
X115730689Y-115642509D01*
G37*
G36*
X116615421Y-116453217D02*
X116953216Y-116084578D01*
X117469311Y-116557491D01*
X117131516Y-116926130D01*
X116615421Y-116453217D01*
X116615421Y-116453217D01*
G37*
D14*
X120073203Y-64081505D03*
X118357204Y-62208820D03*
X118200518Y-65797504D03*
X116484519Y-63924819D03*
X116070666Y-60057861D03*
X114096716Y-58459387D03*
X114472192Y-62031811D03*
X112498242Y-60433337D03*
X111517362Y-56670026D03*
X109328824Y-55380878D03*
X110228214Y-58858564D03*
X108039676Y-57569416D03*
X127968695Y-79025442D03*
X127226071Y-76596428D03*
X125539681Y-79768066D03*
X124797057Y-77339052D03*
X126088288Y-73670623D03*
X124994790Y-71378057D03*
X123795722Y-74764121D03*
X122702224Y-72471555D03*
X123437043Y-68652566D03*
X122016693Y-66546810D03*
X121331287Y-70072916D03*
X119910937Y-67967160D03*
X128661519Y-95912716D03*
X129036955Y-93400616D03*
X126149419Y-95537280D03*
X126524855Y-93025180D03*
X129269600Y-90270000D03*
X129269600Y-87730000D03*
X126729600Y-90270000D03*
X126729600Y-87730000D03*
X129036955Y-84599384D03*
X128661519Y-82087284D03*
X126524855Y-84974820D03*
X126149419Y-82462720D03*
X122016693Y-111453370D03*
X123437043Y-109347614D03*
X119910937Y-110033020D03*
X121331287Y-107927264D03*
X124994790Y-106621943D03*
X126088288Y-104329377D03*
X122702224Y-105528445D03*
X123795722Y-103235879D03*
X127226071Y-101403572D03*
X127968695Y-98974558D03*
X124797057Y-100660948D03*
X125539681Y-98231934D03*
X109328824Y-122619122D03*
X111517362Y-121329974D03*
X108039676Y-120430584D03*
X110228214Y-119141436D03*
X114096716Y-119540613D03*
X116070666Y-117942139D03*
X112498242Y-117566663D03*
X114472192Y-115968189D03*
X118357204Y-115791180D03*
X120073203Y-113918495D03*
X116484519Y-114075181D03*
X118200518Y-112202496D03*
D15*
X88100000Y-90450000D03*
X83900000Y-90450000D03*
X88100000Y-84950000D03*
X83900000Y-84950000D03*
X83900000Y-93050000D03*
X88100000Y-93050000D03*
X83899600Y-87550000D03*
X88099600Y-87550000D03*
D16*
X108650000Y-93500000D03*
X107350000Y-93900000D03*
X107350000Y-93100000D03*
X108650000Y-96000000D03*
X107350000Y-96400000D03*
X107350000Y-95600000D03*
X108650000Y-98500000D03*
X107350000Y-98900000D03*
X107350000Y-98100000D03*
X108650000Y-101000000D03*
X107350000Y-101400000D03*
X107350000Y-100600000D03*
X108650000Y-103500000D03*
X107350000Y-103900000D03*
X107350000Y-103100000D03*
D17*
X73500000Y-75000000D03*
D18*
X70960000Y-75000000D03*
X68420000Y-75000000D03*
X65880000Y-75000000D03*
X63340000Y-75000000D03*
D17*
X50500000Y-75000000D03*
D18*
X47960000Y-75000000D03*
X45420000Y-75000000D03*
X42880000Y-75000000D03*
X40340000Y-75000000D03*
D17*
X50500000Y-103000000D03*
D18*
X47960000Y-103000000D03*
X45420000Y-103000000D03*
X42880000Y-103000000D03*
X40340000Y-103000000D03*
D17*
X73500000Y-103000000D03*
D18*
X70960000Y-103000000D03*
X68420000Y-103000000D03*
X65880000Y-103000000D03*
X63340000Y-103000000D03*
D19*
X43850000Y-98810000D03*
X46390000Y-98810000D03*
X48930000Y-98810000D03*
X51470000Y-98810000D03*
X54010000Y-98810000D03*
X56550000Y-98810000D03*
X56550000Y-91190000D03*
X54010000Y-91190000D03*
X51470000Y-91190000D03*
X48930000Y-91190000D03*
X46390000Y-91190000D03*
X43850000Y-91190000D03*
X43850000Y-86810000D03*
X46390000Y-86810000D03*
X48930000Y-86810000D03*
X51470000Y-86810000D03*
X54010000Y-86810000D03*
X56550000Y-86810000D03*
X56550000Y-79190000D03*
X54010000Y-79190000D03*
X51470000Y-79190000D03*
X48930000Y-79190000D03*
X46390000Y-79190000D03*
X43850000Y-79190000D03*
D14*
X69810000Y-118000000D03*
X69810000Y-120540000D03*
X69810000Y-123080000D03*
X69810000Y-115460000D03*
X69810000Y-112920000D03*
X62190000Y-112920000D03*
X62190000Y-115460000D03*
X62190000Y-118000000D03*
X62190000Y-120540000D03*
X62190000Y-123080000D03*
D20*
X78000000Y-104250000D03*
X78000000Y-102750000D03*
X82000000Y-104250000D03*
X82000000Y-102750000D03*
D11*
X68000000Y-88500000D03*
X68000000Y-86500000D03*
D17*
X88539600Y-81000000D03*
D18*
X85999600Y-81000000D03*
X83459600Y-81000000D03*
D17*
X68540000Y-110000000D03*
D18*
X66000000Y-110000000D03*
X63460000Y-110000000D03*
D17*
X68540000Y-126000000D03*
D18*
X66000000Y-126000000D03*
X63460000Y-126000000D03*
D17*
X88539600Y-97000000D03*
D18*
X85999600Y-97000000D03*
X83459600Y-97000000D03*
D11*
X40800000Y-84000000D03*
X40800000Y-82000000D03*
X40800000Y-96000000D03*
X40800000Y-94000000D03*
D21*
X90000000Y-101000000D03*
X88000000Y-101000000D03*
X86000000Y-101000000D03*
D20*
X80000000Y-92250000D03*
X80000000Y-90750000D03*
D22*
X113100000Y-90000000D03*
X103500000Y-87700000D03*
X103700000Y-82800000D03*
X81400000Y-95800000D03*
X109000000Y-78300000D03*
X125900000Y-89000000D03*
X99400000Y-80500000D03*
X76700000Y-82900000D03*
X82100000Y-89900000D03*
X81200000Y-86700000D03*
X102600000Y-89300000D03*
X103900000Y-90800000D03*
X98800000Y-87800000D03*
X100300000Y-88700000D03*
X101900000Y-87800000D03*
X93800000Y-98800000D03*
X94400000Y-82400000D03*
X86100000Y-104000000D03*
X87800000Y-105900000D03*
X89000000Y-104000000D03*
X77000000Y-107900000D03*
X79200000Y-107900000D03*
X84200000Y-105900000D03*
X77000000Y-106200000D03*
X79900000Y-106300000D03*
X92800000Y-108000000D03*
X95000000Y-108000000D03*
X95000000Y-106200000D03*
X91400000Y-105900000D03*
X91400000Y-102800000D03*
X83200000Y-100400000D03*
X80500000Y-100000000D03*
X80500000Y-101000000D03*
X84200000Y-102200000D03*
X108000000Y-102400000D03*
X103400000Y-99100000D03*
X77850000Y-93150000D03*
X77850000Y-91950000D03*
X77850000Y-90750000D03*
X80000000Y-89000000D03*
X67800000Y-98200000D03*
X69700000Y-97200000D03*
X67400000Y-101000000D03*
X63340000Y-101000000D03*
X69700000Y-99500000D03*
X71500000Y-101000000D03*
X71500000Y-97600000D03*
X71400000Y-91100000D03*
X68000000Y-91200000D03*
X84500000Y-72200000D03*
X84500000Y-75000000D03*
X84500000Y-73600000D03*
X85700000Y-72200000D03*
X85700000Y-73600000D03*
X90200000Y-75000000D03*
X90200000Y-72300000D03*
X85700000Y-75000000D03*
X87900000Y-72300000D03*
X95300000Y-80500000D03*
X124200000Y-79000000D03*
X89900000Y-92500000D03*
X120400000Y-85600000D03*
X119200000Y-85600000D03*
X117200000Y-85600000D03*
X123000000Y-87600000D03*
X122800000Y-86700000D03*
X120500000Y-86600000D03*
X125700000Y-91700000D03*
X123300000Y-88500000D03*
X117400000Y-109400000D03*
X106300000Y-119600000D03*
X110500000Y-115300000D03*
X99100000Y-91700000D03*
X99100000Y-90800000D03*
X98100000Y-93300000D03*
X98700000Y-92600000D03*
X121000000Y-73600000D03*
X121100000Y-72700000D03*
X125000000Y-88200000D03*
X68000000Y-93100000D03*
X73400000Y-87100000D03*
X98400000Y-82200000D03*
X105300000Y-77100000D03*
X96500000Y-93400000D03*
X90500000Y-83500000D03*
X101100000Y-94300000D03*
X101100000Y-93100000D03*
X103250000Y-95800000D03*
X99600000Y-100000000D03*
X99100000Y-102500000D03*
X114200000Y-112100000D03*
X76700000Y-79200000D03*
X82200000Y-83300000D03*
X76700000Y-80100000D03*
X82200000Y-84400000D03*
X82200000Y-85500000D03*
X76700000Y-81000000D03*
X76700000Y-82000000D03*
X82200000Y-86600000D03*
X52750000Y-88000000D03*
X52300000Y-83300000D03*
X85400000Y-94500000D03*
X92300000Y-94300000D03*
X49800000Y-94800000D03*
X50600000Y-93300000D03*
X56600000Y-94200000D03*
X54700000Y-95000000D03*
X48300000Y-93300000D03*
X52100000Y-94800000D03*
X56550000Y-96250000D03*
X39300000Y-88600000D03*
X39300000Y-97900000D03*
X41800000Y-97900000D03*
X42000000Y-100900000D03*
X39300000Y-100900000D03*
X39700000Y-92000000D03*
X39700000Y-90400000D03*
X40500000Y-99400000D03*
X123900000Y-95800000D03*
X120400000Y-105700000D03*
X122600000Y-100700000D03*
D23*
X104000000Y-88200000D02*
X103500000Y-87700000D01*
X104000000Y-88200000D02*
X113000000Y-88200000D01*
X113000000Y-88200000D02*
X113500000Y-88700000D01*
X113500000Y-88700000D02*
X113500000Y-89600000D01*
X113500000Y-89600000D02*
X113100000Y-90000000D01*
X103100000Y-80500000D02*
X103700000Y-81100000D01*
X103700000Y-81100000D02*
X103700000Y-82800000D01*
X82100000Y-89900000D02*
X82100000Y-93100000D01*
X81400000Y-93800000D02*
X81400000Y-95800000D01*
X82100000Y-93100000D02*
X81400000Y-93800000D01*
X103000000Y-80500000D02*
X103100000Y-80500000D01*
X103100000Y-80500000D02*
X108200000Y-80500000D01*
X109000000Y-79700000D02*
X109000000Y-78300000D01*
X108200000Y-80500000D02*
X109000000Y-79700000D01*
D24*
X128000000Y-89000000D02*
X125900000Y-89000000D01*
X128000000Y-89000000D02*
X129269600Y-87730400D01*
X129269600Y-87730000D02*
X129269600Y-87730400D01*
D23*
X103000000Y-80500000D02*
X99400000Y-80500000D01*
X83900000Y-90450000D02*
X88099600Y-87550000D01*
X77400000Y-82900000D02*
X81200000Y-86700000D01*
X77400000Y-82900000D02*
X76700000Y-82900000D01*
X82650000Y-90450000D02*
X83900000Y-90450000D01*
X82100000Y-89900000D02*
X82650000Y-90450000D01*
X101000000Y-88700000D02*
X100300000Y-88700000D01*
X101900000Y-87800000D02*
X101000000Y-88700000D01*
X89100000Y-105900000D02*
X86100000Y-104000000D01*
X91400000Y-105900000D02*
X89100000Y-105900000D01*
X87800000Y-104700000D02*
X87800000Y-105900000D01*
X89000000Y-104000000D02*
X87800000Y-104700000D01*
X79200000Y-107900000D02*
X79200000Y-107000000D01*
X77000000Y-107900000D02*
X79200000Y-107900000D01*
X84200000Y-105900000D02*
X77300000Y-105900000D01*
X91400000Y-105900000D02*
X84200000Y-105900000D01*
X77300000Y-105900000D02*
X77000000Y-106200000D01*
X79200000Y-107000000D02*
X79900000Y-106300000D01*
X95000000Y-106200000D02*
X95000000Y-108000000D01*
X91400000Y-102800000D02*
X91400000Y-105900000D01*
X84200000Y-102200000D02*
X83200000Y-100400000D01*
X80500000Y-101000000D02*
X80500000Y-100000000D01*
X85100000Y-100000000D02*
X80500000Y-100000000D01*
X85100000Y-100000000D02*
X86000000Y-100900000D01*
X86000000Y-101000000D02*
X86000000Y-100900000D01*
D24*
X108000000Y-102400000D02*
X108000000Y-103100000D01*
D23*
X77850000Y-93150000D02*
X77850000Y-91950000D01*
X71500000Y-101000000D02*
X67400000Y-101000000D01*
X67400000Y-101000000D02*
X63340000Y-101000000D01*
X71500000Y-101000000D02*
X71200000Y-101000000D01*
X71200000Y-101000000D02*
X69700000Y-99500000D01*
X68000000Y-91200000D02*
X68000000Y-90800000D01*
X68000000Y-90800000D02*
X68000000Y-91200000D01*
X90200000Y-72300000D02*
X90200000Y-75000000D01*
X87900000Y-72300000D02*
X90200000Y-72300000D01*
X85700000Y-72200000D02*
X87900000Y-72300000D01*
X85700000Y-73600000D02*
X85700000Y-75000000D01*
D25*
X68000000Y-91200000D02*
X68000000Y-90800000D01*
D26*
X68000000Y-88500000D02*
X70400000Y-88500000D01*
X68000000Y-88500000D02*
X66600000Y-88500000D01*
X66600000Y-88500000D02*
X65500000Y-87400000D01*
D27*
X80000000Y-90750000D02*
X78550000Y-90750000D01*
X78550000Y-90750000D02*
X78500000Y-90700000D01*
D25*
X68420000Y-103000000D02*
X68420000Y-100580000D01*
X68420000Y-100580000D02*
X68500000Y-100500000D01*
X65880000Y-103000000D02*
X65880000Y-100620000D01*
X65880000Y-100620000D02*
X66000000Y-100500000D01*
X63340000Y-103000000D02*
X63340000Y-100510000D01*
X63340000Y-100510000D02*
X63350000Y-100500000D01*
D24*
X106000000Y-102900000D02*
X106000000Y-102600000D01*
X106000000Y-102600000D02*
X105650000Y-102250000D01*
X104100000Y-102250000D02*
X103600000Y-101750000D01*
X105650000Y-102250000D02*
X104100000Y-102250000D01*
X106000000Y-100100000D02*
X105650000Y-99750000D01*
X104450000Y-99750000D02*
X103850000Y-99150000D01*
X105650000Y-99750000D02*
X104450000Y-99750000D01*
X127700000Y-77700000D02*
X127400000Y-78000000D01*
X127400000Y-78000000D02*
X126200000Y-78000000D01*
X126200000Y-78000000D02*
X125600000Y-78600000D01*
X125600000Y-78600000D02*
X124600000Y-78600000D01*
X124600000Y-78600000D02*
X124200000Y-79000000D01*
X128400000Y-77700000D02*
X127700000Y-77700000D01*
D23*
X89900000Y-91000000D02*
X89900000Y-92500000D01*
X89350000Y-90450000D02*
X89900000Y-91000000D01*
X88100000Y-90450000D02*
X89350000Y-90450000D01*
D24*
X108587546Y-123800000D02*
X107804523Y-123016977D01*
X109800000Y-123800000D02*
X108587546Y-123800000D01*
X111100000Y-122500000D02*
X109800000Y-123800000D01*
X112000000Y-122500000D02*
X111100000Y-122500000D01*
X112800000Y-121700000D02*
X112000000Y-122500000D01*
X112800000Y-120700000D02*
X112800000Y-121700000D01*
X112677592Y-120577592D02*
X112800000Y-120700000D01*
X112677592Y-120066288D02*
X112677592Y-120577592D01*
X113311304Y-120700000D02*
X112677592Y-120066288D01*
X114600000Y-120700000D02*
X113311304Y-120700000D01*
X116000000Y-119300000D02*
X114600000Y-120700000D01*
X116400000Y-119300000D02*
X116000000Y-119300000D01*
X117300000Y-118400000D02*
X116400000Y-119300000D01*
X117300000Y-117200000D02*
X117300000Y-118400000D01*
X117042366Y-116942366D02*
X117300000Y-117200000D01*
X117042366Y-116505354D02*
X117042366Y-116942366D01*
X120797423Y-112335516D02*
X120797423Y-112797423D01*
X117537012Y-117000000D02*
X117042366Y-116505354D01*
X118800000Y-117000000D02*
X117537012Y-117000000D01*
X119800000Y-116000000D02*
X118800000Y-117000000D01*
X119800000Y-115900000D02*
X119800000Y-116000000D01*
X121300000Y-114400000D02*
X119800000Y-115900000D01*
X121300000Y-114300000D02*
X121300000Y-114400000D01*
X121300000Y-113300000D02*
X121300000Y-114300000D01*
X120797423Y-112797423D02*
X121300000Y-113300000D01*
X123941551Y-107658307D02*
X123941551Y-108041551D01*
X121161907Y-112700000D02*
X120797423Y-112335516D01*
X122500000Y-112700000D02*
X121161907Y-112700000D01*
X123200000Y-112000000D02*
X122500000Y-112700000D01*
X123200000Y-111000000D02*
X123200000Y-112000000D01*
X123500000Y-110700000D02*
X123200000Y-111000000D01*
X123800000Y-110700000D02*
X123500000Y-110700000D01*
X124700000Y-109800000D02*
X123800000Y-110700000D01*
X124700000Y-108800000D02*
X124700000Y-109800000D01*
X123941551Y-108041551D02*
X124700000Y-108800000D01*
X126373783Y-102675423D02*
X126373783Y-102873783D01*
X126373783Y-102873783D02*
X127300000Y-103800000D01*
X124283244Y-108000000D02*
X123941551Y-107658307D01*
X125300000Y-108000000D02*
X124283244Y-108000000D01*
X126200000Y-107100000D02*
X125300000Y-108000000D01*
X126200000Y-105900000D02*
X126200000Y-107100000D01*
X127300000Y-104800000D02*
X126200000Y-105900000D01*
X127300000Y-103800000D02*
X127300000Y-104800000D01*
X127993410Y-97188686D02*
X127993410Y-97193410D01*
X127993410Y-97193410D02*
X129200000Y-98400000D01*
X127624577Y-102675423D02*
X126373783Y-102675423D01*
X128400000Y-101900000D02*
X127624577Y-102675423D01*
X128400000Y-100200000D02*
X128400000Y-101900000D01*
X129200000Y-99400000D02*
X128400000Y-100200000D01*
X129200000Y-98400000D02*
X129200000Y-99400000D01*
X128800000Y-91700000D02*
X129300000Y-91700000D01*
X129111314Y-97188686D02*
X127993410Y-97188686D01*
X129900000Y-96400000D02*
X129111314Y-97188686D01*
X129900000Y-94200000D02*
X129900000Y-96400000D01*
X130200000Y-93900000D02*
X129900000Y-94200000D01*
X130200000Y-92600000D02*
X130200000Y-93900000D01*
X129300000Y-91700000D02*
X130200000Y-92600000D01*
X128793410Y-86111314D02*
X129611314Y-86111314D01*
X129700000Y-91700000D02*
X128800000Y-91700000D01*
X130500000Y-90900000D02*
X129700000Y-91700000D01*
X130500000Y-87000000D02*
X130500000Y-90900000D01*
X129611314Y-86111314D02*
X130500000Y-87000000D01*
X127973783Y-80524577D02*
X128824577Y-80524577D01*
X129388686Y-86111314D02*
X128793410Y-86111314D01*
X130200000Y-85300000D02*
X129388686Y-86111314D01*
X130200000Y-83700000D02*
X130200000Y-85300000D01*
X129900000Y-83400000D02*
X130200000Y-83700000D01*
X129900000Y-83100000D02*
X129900000Y-83400000D01*
X129900000Y-81600000D02*
X129900000Y-83100000D01*
X128824577Y-80524577D02*
X129900000Y-81600000D01*
X123897423Y-70064484D02*
X125364484Y-70064484D01*
X127300000Y-74183244D02*
X126341551Y-75141693D01*
X127300000Y-73200000D02*
X127300000Y-74183244D01*
X126200000Y-72100000D02*
X127300000Y-73200000D01*
X126200000Y-70900000D02*
X126200000Y-72100000D01*
X125364484Y-70064484D02*
X126200000Y-70900000D01*
X120642366Y-65494646D02*
X121405354Y-65494646D01*
X124600000Y-69361907D02*
X123897423Y-70064484D01*
X124600000Y-68100000D02*
X124600000Y-69361907D01*
X123200000Y-66700000D02*
X124600000Y-68100000D01*
X123200000Y-66000000D02*
X123200000Y-66700000D01*
X122500000Y-65300000D02*
X123200000Y-66000000D01*
X121600000Y-65300000D02*
X122500000Y-65300000D01*
X121405354Y-65494646D02*
X121600000Y-65300000D01*
X116877592Y-61333712D02*
X117466288Y-61333712D01*
X121400000Y-64737012D02*
X120642366Y-65494646D01*
X121400000Y-63800000D02*
X121400000Y-64737012D01*
X119900000Y-62300000D02*
X121400000Y-63800000D01*
X119900000Y-62100000D02*
X119900000Y-62300000D01*
X118800000Y-61000000D02*
X119900000Y-62100000D01*
X117800000Y-61000000D02*
X118800000Y-61000000D01*
X117466288Y-61333712D02*
X117800000Y-61000000D01*
X112504523Y-57783023D02*
X112716977Y-57783023D01*
X112716977Y-57783023D02*
X113200000Y-57300000D01*
X113200000Y-57300000D02*
X114600000Y-57300000D01*
X114600000Y-57300000D02*
X115800000Y-58500000D01*
X115800000Y-58500000D02*
X116200000Y-58500000D01*
X116200000Y-58500000D02*
X117500000Y-59800000D01*
X117500000Y-59800000D02*
X117500000Y-60711304D01*
X117500000Y-60711304D02*
X116877592Y-61333712D01*
X129100000Y-79800000D02*
X129100000Y-80200000D01*
X129100000Y-80200000D02*
X128775423Y-80524577D01*
X128775423Y-80524577D02*
X127973783Y-80524577D01*
X128500000Y-77800000D02*
X129100000Y-78400000D01*
X129100000Y-78400000D02*
X129100000Y-79800000D01*
X128400000Y-77700000D02*
X128500000Y-77800000D01*
X126341551Y-75141693D02*
X127541693Y-75141693D01*
X128400000Y-76000000D02*
X128400000Y-77700000D01*
X127541693Y-75141693D02*
X128400000Y-76000000D01*
X108000000Y-94600000D02*
X108000000Y-95600000D01*
X107350000Y-93100000D02*
X108000000Y-93100000D01*
X108000000Y-93100000D02*
X108000000Y-94600000D01*
X108000000Y-95600000D02*
X108000000Y-98100000D01*
X108000000Y-100600000D02*
X108000000Y-98100000D01*
X106000000Y-100400000D02*
X106000000Y-100100000D01*
X107350000Y-95600000D02*
X108000000Y-95600000D01*
X107350000Y-98100000D02*
X108000000Y-98100000D01*
X107350000Y-100600000D02*
X108000000Y-100600000D01*
X108000000Y-103100000D02*
X107350000Y-103100000D01*
X108000000Y-100600000D02*
X108000000Y-102400000D01*
X106000000Y-92900000D02*
X107150000Y-92900000D01*
X107150000Y-92900000D02*
X107350000Y-93100000D01*
X106000000Y-95400000D02*
X107150000Y-95400000D01*
X107150000Y-95400000D02*
X107350000Y-95600000D01*
X106000000Y-97900000D02*
X106900000Y-97900000D01*
X106900000Y-97900000D02*
X107150000Y-97900000D01*
X107150000Y-97900000D02*
X107350000Y-98100000D01*
X106000000Y-100400000D02*
X107150000Y-100400000D01*
X107150000Y-100400000D02*
X107350000Y-100600000D01*
X106000000Y-102900000D02*
X107150000Y-102900000D01*
X107150000Y-102900000D02*
X107350000Y-103100000D01*
X121959994Y-84040006D02*
X120400000Y-85600000D01*
X121959994Y-77409610D02*
X121959994Y-84040006D01*
X120360004Y-75809620D02*
X120360004Y-75300000D01*
X120360004Y-75809620D02*
X121279992Y-76729608D01*
X121959994Y-77409610D02*
X121279992Y-76729608D01*
X120360004Y-75300000D02*
X120360004Y-74485196D01*
X117500000Y-70925192D02*
X119260004Y-72685196D01*
X117500000Y-70612212D02*
X117500000Y-68562988D01*
X117500000Y-68562988D02*
X119757634Y-66305354D01*
X117500000Y-70612212D02*
X117500000Y-70925192D01*
X119260004Y-73385196D02*
X119260004Y-72685196D01*
X120360004Y-74485196D02*
X119260004Y-73385196D01*
X120360004Y-75285196D02*
X120360004Y-75300000D01*
X119757634Y-66305354D02*
X119757634Y-64397074D01*
X119757634Y-64397074D02*
X120073203Y-64081505D01*
X121579992Y-83200000D02*
X121579992Y-83220008D01*
X121579992Y-83220008D02*
X119200000Y-85600000D01*
X119980002Y-75442598D02*
X119980002Y-74642598D01*
X117119998Y-71082594D02*
X118880002Y-72842598D01*
X119980002Y-75442598D02*
X119980002Y-75967022D01*
X119980002Y-75967022D02*
X120899990Y-76887010D01*
X117119998Y-69800000D02*
X117119998Y-69794806D01*
X117119998Y-69794806D02*
X113900000Y-66574808D01*
X116122408Y-62266288D02*
X113900000Y-64488696D01*
X113900000Y-66574808D02*
X113900000Y-64488696D01*
X121579992Y-77567012D02*
X120899990Y-76887010D01*
X117119998Y-70769614D02*
X117119998Y-69800000D01*
X117119998Y-70769614D02*
X117119998Y-71082594D01*
X118880002Y-73542598D02*
X118880002Y-72842598D01*
X119980002Y-74642598D02*
X118880002Y-73542598D01*
X121579992Y-77567012D02*
X121579992Y-83200000D01*
X116122408Y-62266288D02*
X116122408Y-62122408D01*
X116122408Y-62122408D02*
X115600000Y-61600000D01*
X115600000Y-61600000D02*
X115600000Y-60528527D01*
X115600000Y-60528527D02*
X116070666Y-60057861D01*
X121199990Y-82500000D02*
X121199990Y-82500010D01*
X121199990Y-82500010D02*
X118100000Y-85600000D01*
X118100000Y-85600000D02*
X117200000Y-85600000D01*
X118500000Y-73700000D02*
X119600000Y-74800000D01*
X119600000Y-74800000D02*
X119600000Y-75600000D01*
X116739996Y-70927016D02*
X116739996Y-71239996D01*
X113519998Y-64419998D02*
X111100000Y-62000000D01*
X111100000Y-62000000D02*
X111100000Y-59900000D01*
X111895477Y-59104523D02*
X111100000Y-59900000D01*
X121199990Y-77724414D02*
X120519988Y-77044412D01*
X116739996Y-70927016D02*
X116739996Y-69952208D01*
X116739996Y-69952208D02*
X113519998Y-66732210D01*
X113519998Y-66732210D02*
X113519998Y-65719998D01*
X113519998Y-65719998D02*
X113519998Y-64419998D01*
X119600000Y-76124424D02*
X120519988Y-77044412D01*
X119600000Y-75600000D02*
X119600000Y-76124424D01*
X116739996Y-71239996D02*
X118500000Y-73000000D01*
X118500000Y-73000000D02*
X118500000Y-73700000D01*
X121199990Y-77724414D02*
X121199990Y-82500000D01*
X111895477Y-58816977D02*
X111816977Y-58816977D01*
X111816977Y-58816977D02*
X111400000Y-58400000D01*
X111400000Y-58400000D02*
X111400000Y-56787388D01*
X111400000Y-56787388D02*
X111517362Y-56670026D01*
X111895477Y-59104523D02*
X111895477Y-58816977D01*
X126224577Y-80875423D02*
X126826217Y-80875423D01*
X123900000Y-86700000D02*
X123000000Y-87600000D01*
X123900000Y-81800000D02*
X123900000Y-86700000D01*
X124500000Y-81200000D02*
X123900000Y-81800000D01*
X125900000Y-81200000D02*
X124500000Y-81200000D01*
X126224577Y-80875423D02*
X125900000Y-81200000D01*
X126826217Y-80875423D02*
X126826217Y-80167920D01*
X126826217Y-80167920D02*
X127968695Y-79025442D01*
X123480002Y-86019998D02*
X122800000Y-86700000D01*
X124916756Y-76000000D02*
X125258449Y-75658307D01*
X124200000Y-76000000D02*
X124916756Y-76000000D01*
X123480002Y-76719998D02*
X124200000Y-76000000D01*
X123480002Y-76719998D02*
X123480002Y-86019998D01*
X125258449Y-75658307D02*
X125258449Y-74500462D01*
X125258449Y-74500462D02*
X126088288Y-73670623D01*
X122339996Y-77252208D02*
X122339996Y-84760004D01*
X120743894Y-74331682D02*
X120300000Y-73887788D01*
X120300000Y-73887788D02*
X120300000Y-72500000D01*
X120300000Y-72500000D02*
X121500000Y-71300000D01*
X121500000Y-71300000D02*
X122338093Y-71300000D01*
X122338093Y-71300000D02*
X122902577Y-70735516D01*
X121659994Y-76572206D02*
X120743894Y-75656106D01*
X122339996Y-77252208D02*
X121659994Y-76572206D01*
X120743894Y-75656106D02*
X120743894Y-75131682D01*
X120743894Y-75131682D02*
X120743894Y-74331682D01*
X122339996Y-84760004D02*
X120500000Y-86600000D01*
X122902577Y-70735516D02*
X122902577Y-69187032D01*
X122902577Y-69187032D02*
X123437043Y-68652566D01*
X125700000Y-91700000D02*
X127600000Y-91700000D01*
X127600000Y-91700000D02*
X127600000Y-91200000D01*
X127600000Y-91200000D02*
X128530000Y-90270000D01*
X128530000Y-90270000D02*
X129269600Y-90270000D01*
X125511314Y-86288686D02*
X123300000Y-88500000D01*
X125511314Y-86288686D02*
X127606590Y-86288686D01*
X127606590Y-86288686D02*
X127606590Y-86029749D01*
X127606590Y-86029749D02*
X129036955Y-84599384D01*
X127595276Y-86300000D02*
X127606590Y-86288686D01*
X119664484Y-111664484D02*
X117400000Y-109400000D01*
X119802577Y-111664484D02*
X119835516Y-111664484D01*
X119835516Y-111664484D02*
X120300000Y-111200000D01*
X120300000Y-111200000D02*
X121763323Y-111200000D01*
X121763323Y-111200000D02*
X122016693Y-111453370D01*
X119664484Y-111664484D02*
X119802577Y-111664484D01*
X106300000Y-119600000D02*
X106300000Y-120800000D01*
X106300000Y-120800000D02*
X106300000Y-121000000D01*
X107195477Y-121895477D02*
X106300000Y-121000000D01*
X107195477Y-121983023D02*
X108692725Y-121983023D01*
X108692725Y-121983023D02*
X109328824Y-122619122D01*
X107195477Y-121895477D02*
X107195477Y-121983023D01*
X110500000Y-115300000D02*
X110500000Y-117100000D01*
X110500000Y-117100000D02*
X110500000Y-117400000D01*
X111922408Y-118822408D02*
X110500000Y-117400000D01*
X111922408Y-119133712D02*
X112166288Y-119133712D01*
X112166288Y-119133712D02*
X112400000Y-118900000D01*
X113456103Y-118900000D02*
X114096716Y-119540613D01*
X112400000Y-118900000D02*
X113456103Y-118900000D01*
X111922408Y-118822408D02*
X111922408Y-119133712D01*
D23*
X88100000Y-84950000D02*
X89550000Y-84950000D01*
X91200000Y-91700000D02*
X99100000Y-91700000D01*
X90400000Y-90900000D02*
X91200000Y-91700000D01*
X90400000Y-85800000D02*
X90400000Y-90900000D01*
X89550000Y-84950000D02*
X90400000Y-85800000D01*
X99100000Y-90800000D02*
X98200000Y-90800000D01*
X91400000Y-91200000D02*
X90900000Y-90700000D01*
X90900000Y-90700000D02*
X90900000Y-85100000D01*
X90900000Y-85100000D02*
X89200000Y-83400000D01*
X89200000Y-83400000D02*
X85450000Y-83400000D01*
X83900000Y-84950000D02*
X85450000Y-83400000D01*
X97800000Y-91200000D02*
X91400000Y-91200000D01*
X98200000Y-90800000D02*
X97800000Y-91200000D01*
X85150000Y-93050000D02*
X83900000Y-93050000D01*
X86600000Y-94500000D02*
X85150000Y-93050000D01*
X90300000Y-94500000D02*
X86600000Y-94500000D01*
X92100000Y-92700000D02*
X90300000Y-94500000D01*
X97500000Y-92700000D02*
X92100000Y-92700000D01*
X98100000Y-93300000D02*
X97500000Y-92700000D01*
X91050000Y-93050000D02*
X90500000Y-93600000D01*
X98700000Y-92600000D02*
X98300000Y-92200000D01*
X98300000Y-92200000D02*
X91900000Y-92200000D01*
X91900000Y-92200000D02*
X91050000Y-93050000D01*
X90500000Y-93600000D02*
X88650000Y-93600000D01*
X88650000Y-93600000D02*
X88100000Y-93050000D01*
D26*
X43850000Y-98810000D02*
X43850000Y-93950000D01*
X41800000Y-88860000D02*
X43850000Y-86810000D01*
X41800000Y-91900000D02*
X41800000Y-88860000D01*
X43850000Y-93950000D02*
X41800000Y-91900000D01*
D24*
X106000000Y-94100000D02*
X107150000Y-94100000D01*
X107150000Y-94100000D02*
X107350000Y-93900000D01*
X105000000Y-94100000D02*
X106000000Y-94100000D01*
X122719998Y-85180002D02*
X122719998Y-77094806D01*
X123400000Y-91600000D02*
X123400000Y-90800000D01*
X123400000Y-90800000D02*
X121700000Y-89100000D01*
X121700000Y-89100000D02*
X121700000Y-86200000D01*
X121700000Y-86200000D02*
X122719998Y-85180002D01*
X111170392Y-92879992D02*
X122120008Y-92879992D01*
X121162596Y-73762596D02*
X121000000Y-73600000D01*
X122039996Y-76414804D02*
X121162596Y-75537404D01*
X110550384Y-93500000D02*
X111170392Y-92879992D01*
X122719998Y-77094806D02*
X122039996Y-76414804D01*
X108650000Y-93500000D02*
X110550384Y-93500000D01*
X121162596Y-75537404D02*
X121162596Y-73762596D01*
X122120008Y-92879992D02*
X123400000Y-91600000D01*
X108650000Y-93500000D02*
X108720008Y-93500000D01*
X106000000Y-96600000D02*
X107150000Y-96600000D01*
X107150000Y-96600000D02*
X107350000Y-96400000D01*
X105000000Y-96600000D02*
X106000000Y-96600000D01*
X123800000Y-91800000D02*
X123800000Y-90600000D01*
X123800000Y-91800000D02*
X122340006Y-93259994D01*
X122340006Y-93259994D02*
X111327794Y-93259994D01*
X121581298Y-73181298D02*
X121100000Y-72700000D01*
X111327794Y-93259994D02*
X108650000Y-95937788D01*
X121581298Y-75418702D02*
X121581298Y-73181298D01*
X123100000Y-76937404D02*
X121581298Y-75418702D01*
X123100000Y-85400000D02*
X123100000Y-76937404D01*
X122100000Y-86400000D02*
X123100000Y-85400000D01*
X122100000Y-88900000D02*
X122100000Y-86400000D01*
X123800000Y-90600000D02*
X122100000Y-88900000D01*
X108650000Y-96000000D02*
X108650000Y-95937788D01*
X106000000Y-99100000D02*
X107150000Y-99100000D01*
X107150000Y-99100000D02*
X107350000Y-98900000D01*
X105000000Y-99100000D02*
X106000000Y-99100000D01*
X122560004Y-93639996D02*
X125000000Y-91200000D01*
X109739996Y-98000000D02*
X109739996Y-98260004D01*
X109739996Y-98000000D02*
X109739996Y-95385196D01*
X109739996Y-95385196D02*
X111485196Y-93639996D01*
X109500000Y-98500000D02*
X108650000Y-98500000D01*
X109739996Y-98260004D02*
X109500000Y-98500000D01*
X111485196Y-93639996D02*
X122560004Y-93639996D01*
X125000000Y-88200000D02*
X125000000Y-91200000D01*
X106000000Y-101600000D02*
X107150000Y-101600000D01*
X107150000Y-101600000D02*
X107350000Y-101400000D01*
X105000000Y-101600000D02*
X106000000Y-101600000D01*
X124100000Y-97900000D02*
X124100000Y-97600000D01*
X124100000Y-97600000D02*
X120519998Y-94019998D01*
X120519998Y-94019998D02*
X120157402Y-94019998D01*
X108650000Y-101000000D02*
X109519998Y-101000000D01*
X109519998Y-101000000D02*
X110119998Y-100400000D01*
X110119998Y-100400000D02*
X110119998Y-95542598D01*
X110119998Y-95542598D02*
X111642598Y-94019998D01*
X111642598Y-94019998D02*
X120157402Y-94019998D01*
X105000000Y-104100000D02*
X106000000Y-104100000D01*
X106000000Y-104100000D02*
X107150000Y-104100000D01*
X107150000Y-104100000D02*
X107350000Y-103900000D01*
X116500000Y-111000000D02*
X116500000Y-108300000D01*
X117600000Y-107200000D02*
X116700000Y-108100000D01*
X110200000Y-103500000D02*
X108650000Y-103500000D01*
X117600000Y-105700000D02*
X117600000Y-106600000D01*
X120300000Y-103000000D02*
X117600000Y-105700000D01*
X120300000Y-100200000D02*
X120300000Y-103000000D01*
X121300000Y-99200000D02*
X120300000Y-100200000D01*
X121300000Y-95700000D02*
X121300000Y-99200000D01*
X121200000Y-95600000D02*
X121300000Y-95700000D01*
X120000000Y-94400000D02*
X121200000Y-95600000D01*
X111800000Y-94400000D02*
X120000000Y-94400000D01*
X110500000Y-95700000D02*
X111800000Y-94400000D01*
X110500000Y-103200000D02*
X110500000Y-95700000D01*
X110200000Y-103500000D02*
X110500000Y-103200000D01*
X117600000Y-106600000D02*
X117600000Y-107200000D01*
X116500000Y-108300000D02*
X116700000Y-108100000D01*
D23*
X68800000Y-92300000D02*
X68000000Y-93100000D01*
X72600000Y-92300000D02*
X68800000Y-92300000D01*
X73400000Y-91500000D02*
X72600000Y-92300000D01*
X73400000Y-90300000D02*
X73400000Y-91500000D01*
X73400000Y-87100000D02*
X73400000Y-90300000D01*
X98400000Y-80400000D02*
X98400000Y-82200000D01*
X99100000Y-79700000D02*
X98400000Y-80400000D01*
X104200000Y-79700000D02*
X99100000Y-79700000D01*
X104900000Y-79000000D02*
X104200000Y-79700000D01*
X104900000Y-77500000D02*
X104900000Y-79000000D01*
X105300000Y-77100000D02*
X104900000Y-77500000D01*
X86700000Y-95500000D02*
X85999600Y-96200400D01*
X92300000Y-95500000D02*
X86700000Y-95500000D01*
X93900000Y-93900000D02*
X92300000Y-95500000D01*
X96000000Y-93900000D02*
X93900000Y-93900000D01*
X96500000Y-93400000D02*
X96000000Y-93900000D01*
X85999600Y-96200400D02*
X85999600Y-97000000D01*
X85259600Y-82800000D02*
X83459600Y-81000000D01*
X89800000Y-82800000D02*
X85259600Y-82800000D01*
X90500000Y-83500000D02*
X89800000Y-82800000D01*
X104000000Y-95400000D02*
X105000000Y-95400000D01*
X102600000Y-94000000D02*
X104000000Y-95400000D01*
X101400000Y-94000000D02*
X102600000Y-94000000D01*
X101100000Y-94300000D02*
X101400000Y-94000000D01*
X101300000Y-92900000D02*
X105000000Y-92900000D01*
X101100000Y-93100000D02*
X101300000Y-92900000D01*
X104350000Y-97900000D02*
X105000000Y-97900000D01*
X103900000Y-97450000D02*
X104350000Y-97900000D01*
X103900000Y-96450000D02*
X103900000Y-97450000D01*
X103250000Y-95800000D02*
X103900000Y-96450000D01*
X100000000Y-100400000D02*
X105000000Y-100400000D01*
X99600000Y-100000000D02*
X100000000Y-100400000D01*
X99500000Y-102900000D02*
X105000000Y-102900000D01*
X99100000Y-102500000D02*
X99500000Y-102900000D01*
D24*
X124100000Y-99100000D02*
X124671615Y-99100000D01*
X124671615Y-99100000D02*
X125539681Y-98231934D01*
X116500000Y-112200000D02*
X118198022Y-112200000D01*
X118198022Y-112200000D02*
X118200518Y-112202496D01*
X114200000Y-112100000D02*
X114200000Y-113500000D01*
X114200000Y-113500000D02*
X114200000Y-113700000D01*
X116157634Y-115657634D02*
X114200000Y-113700000D01*
X116157634Y-115694646D02*
X116405354Y-115694646D01*
X116405354Y-115694646D02*
X116800000Y-115300000D01*
X116800000Y-115300000D02*
X117866024Y-115300000D01*
X117866024Y-115300000D02*
X118357204Y-115791180D01*
X116157634Y-115657634D02*
X116157634Y-115694646D01*
X124936153Y-100100000D02*
X125009183Y-100026970D01*
X124936153Y-100100000D02*
X125009183Y-100026970D01*
D23*
X78100000Y-79200000D02*
X76700000Y-79200000D01*
X82200000Y-83300000D02*
X78100000Y-79200000D01*
X77900000Y-80100000D02*
X76700000Y-80100000D01*
X82200000Y-84400000D02*
X77900000Y-80100000D01*
X82200000Y-85500000D02*
X77700000Y-81000000D01*
X77700000Y-81000000D02*
X76700000Y-81000000D01*
X77600000Y-82000000D02*
X76700000Y-82000000D01*
X82200000Y-86600000D02*
X77600000Y-82000000D01*
X52750000Y-83750000D02*
X52750000Y-88000000D01*
X52300000Y-83300000D02*
X52750000Y-83750000D01*
D28*
X46390000Y-98810000D02*
X46390000Y-97810000D01*
X51470000Y-97870000D02*
X51470000Y-98810000D01*
X50500000Y-96900000D02*
X51470000Y-97870000D01*
X47300000Y-96900000D02*
X50500000Y-96900000D01*
X46390000Y-97810000D02*
X47300000Y-96900000D01*
D23*
X85900000Y-95000000D02*
X85400000Y-94500000D01*
X91600000Y-95000000D02*
X85900000Y-95000000D01*
X92300000Y-94300000D02*
X91600000Y-95000000D01*
D25*
X40340000Y-103000000D02*
X40340000Y-100640000D01*
D23*
X56550000Y-96250000D02*
X56550000Y-96300000D01*
X56550000Y-96300000D02*
X56600000Y-96300000D01*
X56600000Y-96300000D02*
X56550000Y-96300000D01*
X40340000Y-100640000D02*
X40080000Y-100900000D01*
X40080000Y-100900000D02*
X39300000Y-100900000D01*
D25*
X56550000Y-98810000D02*
X56550000Y-100750000D01*
X56550000Y-86810000D02*
X56550000Y-88850000D01*
X56550000Y-88850000D02*
X56500000Y-88900000D01*
X46390000Y-91190000D02*
X46390000Y-89310000D01*
X46390000Y-89310000D02*
X46400000Y-89300000D01*
X46390000Y-91190000D02*
X46390000Y-93590000D01*
X46390000Y-93590000D02*
X46400000Y-93600000D01*
X56550000Y-98810000D02*
X56550000Y-96300000D01*
X56550000Y-96300000D02*
X56550000Y-96150000D01*
X56550000Y-96150000D02*
X56500000Y-96100000D01*
X46390000Y-79190000D02*
X46390000Y-81890000D01*
X46390000Y-81890000D02*
X46400000Y-81900000D01*
X46390000Y-79190000D02*
X46390000Y-77410000D01*
X46390000Y-77410000D02*
X46400000Y-77400000D01*
X56550000Y-86810000D02*
X56550000Y-84150000D01*
X56550000Y-84150000D02*
X56500000Y-84100000D01*
X45420000Y-103000000D02*
X45420000Y-100980000D01*
X45420000Y-100980000D02*
X45500000Y-100900000D01*
X42880000Y-103000000D02*
X42880000Y-101020000D01*
X42880000Y-101020000D02*
X42900000Y-101000000D01*
X40340000Y-100640000D02*
X40300000Y-100600000D01*
D24*
X126806590Y-97011314D02*
X125111314Y-97011314D01*
X125111314Y-97011314D02*
X123900000Y-95800000D01*
X126806590Y-97011314D02*
X126806590Y-96693410D01*
X126806590Y-96693410D02*
X127587284Y-95912716D01*
X127587284Y-95912716D02*
X128661519Y-95912716D01*
X122858449Y-107141693D02*
X122441693Y-107141693D01*
X121800000Y-106500000D02*
X122441693Y-107141693D01*
X121200000Y-106500000D02*
X121800000Y-106500000D01*
X120400000Y-105700000D02*
X121200000Y-106500000D01*
X122858449Y-107141693D02*
X122858449Y-107141551D01*
X122858449Y-107141551D02*
X123600000Y-106400000D01*
X123600000Y-106400000D02*
X124772847Y-106400000D01*
X124772847Y-106400000D02*
X124994790Y-106621943D01*
X125226217Y-102324577D02*
X124724577Y-102324577D01*
X124100000Y-101700000D02*
X124724577Y-102324577D01*
X123600000Y-101700000D02*
X124100000Y-101700000D01*
X122600000Y-100700000D02*
X123600000Y-101700000D01*
X125226217Y-102324577D02*
X125226217Y-101973783D01*
X125796428Y-101403572D02*
X127226071Y-101403572D01*
X125226217Y-101973783D02*
X125796428Y-101403572D01*
D29*
G36*
X47023000Y-77673000D02*
X42500000Y-77673000D01*
X42453841Y-77681685D01*
X42411447Y-77708965D01*
X42383006Y-77750590D01*
X42373000Y-77800000D01*
X42373000Y-80500000D01*
X42381685Y-80546159D01*
X42408965Y-80588553D01*
X42450590Y-80616994D01*
X42500000Y-80627000D01*
X46145499Y-80627000D01*
X46173223Y-80636965D01*
X46382233Y-80627000D01*
X57700000Y-80627000D01*
X57746159Y-80618315D01*
X57788553Y-80591035D01*
X57816994Y-80549410D01*
X57827000Y-80500000D01*
X57827000Y-79856595D01*
X57873000Y-79745814D01*
X57873000Y-81340262D01*
X57737862Y-81367143D01*
X57515632Y-81515632D01*
X57367143Y-81737862D01*
X57315000Y-82000000D01*
X57315000Y-85373000D01*
X56794501Y-85373000D01*
X56766777Y-85363035D01*
X56557767Y-85373000D01*
X53510000Y-85373000D01*
X53510000Y-83750000D01*
X53452148Y-83459161D01*
X53287401Y-83212599D01*
X53235122Y-83160320D01*
X53235162Y-83114833D01*
X53093117Y-82771057D01*
X52830327Y-82507808D01*
X52486799Y-82365162D01*
X52114833Y-82364838D01*
X51771057Y-82506883D01*
X51507808Y-82769673D01*
X51365162Y-83113201D01*
X51364838Y-83485167D01*
X51506883Y-83828943D01*
X51769673Y-84092192D01*
X51990000Y-84183680D01*
X51990000Y-85373000D01*
X42500000Y-85373000D01*
X42453841Y-85381685D01*
X42411447Y-85408965D01*
X42383006Y-85450590D01*
X42373000Y-85500000D01*
X42373000Y-86681868D01*
X40997434Y-88057434D01*
X40751397Y-88425654D01*
X40665000Y-88860000D01*
X40665000Y-91900000D01*
X40673000Y-91940219D01*
X40673000Y-92614889D01*
X40525715Y-92614760D01*
X40016485Y-92825169D01*
X39626539Y-93214436D01*
X39415241Y-93723298D01*
X39414760Y-94274285D01*
X39423000Y-94294227D01*
X39423000Y-95704612D01*
X39415241Y-95723298D01*
X39414760Y-96274285D01*
X39625169Y-96783515D01*
X40014436Y-97173461D01*
X40523298Y-97384759D01*
X41074285Y-97385240D01*
X41215237Y-97327000D01*
X42373000Y-97327000D01*
X42373000Y-100100000D01*
X42381685Y-100146159D01*
X42408965Y-100188553D01*
X42450590Y-100216994D01*
X42500000Y-100227000D01*
X43520562Y-100227000D01*
X43563309Y-100244750D01*
X44134187Y-100245248D01*
X44178351Y-100227000D01*
X46060562Y-100227000D01*
X46103309Y-100244750D01*
X46674187Y-100245248D01*
X46718351Y-100227000D01*
X48600562Y-100227000D01*
X48643309Y-100244750D01*
X49214187Y-100245248D01*
X49258351Y-100227000D01*
X51140562Y-100227000D01*
X51183309Y-100244750D01*
X51754187Y-100245248D01*
X51798351Y-100227000D01*
X53680562Y-100227000D01*
X53723309Y-100244750D01*
X54294187Y-100245248D01*
X54338351Y-100227000D01*
X56249857Y-100227000D01*
X56333223Y-100256965D01*
X56903454Y-100229778D01*
X56910161Y-100227000D01*
X57315000Y-100227000D01*
X57315000Y-101473000D01*
X38685000Y-101473000D01*
X38685000Y-82274285D01*
X39414760Y-82274285D01*
X39423000Y-82294227D01*
X39423000Y-83704612D01*
X39415241Y-83723298D01*
X39414760Y-84274285D01*
X39625169Y-84783515D01*
X40014436Y-85173461D01*
X40523298Y-85384759D01*
X41074285Y-85385240D01*
X41583515Y-85174831D01*
X41973461Y-84785564D01*
X42184759Y-84276702D01*
X42185240Y-83725715D01*
X42177000Y-83705773D01*
X42177000Y-82295388D01*
X42184759Y-82276702D01*
X42185240Y-81725715D01*
X41974831Y-81216485D01*
X41585564Y-80826539D01*
X41076702Y-80615241D01*
X40525715Y-80614760D01*
X40016485Y-80825169D01*
X39626539Y-81214436D01*
X39415241Y-81723298D01*
X39414760Y-82274285D01*
X38685000Y-82274285D01*
X38685000Y-76527000D01*
X47023000Y-76527000D01*
X47023000Y-77673000D01*
X47023000Y-77673000D01*
G37*
X47023000Y-77673000D02*
X42500000Y-77673000D01*
X42453841Y-77681685D01*
X42411447Y-77708965D01*
X42383006Y-77750590D01*
X42373000Y-77800000D01*
X42373000Y-80500000D01*
X42381685Y-80546159D01*
X42408965Y-80588553D01*
X42450590Y-80616994D01*
X42500000Y-80627000D01*
X46145499Y-80627000D01*
X46173223Y-80636965D01*
X46382233Y-80627000D01*
X57700000Y-80627000D01*
X57746159Y-80618315D01*
X57788553Y-80591035D01*
X57816994Y-80549410D01*
X57827000Y-80500000D01*
X57827000Y-79856595D01*
X57873000Y-79745814D01*
X57873000Y-81340262D01*
X57737862Y-81367143D01*
X57515632Y-81515632D01*
X57367143Y-81737862D01*
X57315000Y-82000000D01*
X57315000Y-85373000D01*
X56794501Y-85373000D01*
X56766777Y-85363035D01*
X56557767Y-85373000D01*
X53510000Y-85373000D01*
X53510000Y-83750000D01*
X53452148Y-83459161D01*
X53287401Y-83212599D01*
X53235122Y-83160320D01*
X53235162Y-83114833D01*
X53093117Y-82771057D01*
X52830327Y-82507808D01*
X52486799Y-82365162D01*
X52114833Y-82364838D01*
X51771057Y-82506883D01*
X51507808Y-82769673D01*
X51365162Y-83113201D01*
X51364838Y-83485167D01*
X51506883Y-83828943D01*
X51769673Y-84092192D01*
X51990000Y-84183680D01*
X51990000Y-85373000D01*
X42500000Y-85373000D01*
X42453841Y-85381685D01*
X42411447Y-85408965D01*
X42383006Y-85450590D01*
X42373000Y-85500000D01*
X42373000Y-86681868D01*
X40997434Y-88057434D01*
X40751397Y-88425654D01*
X40665000Y-88860000D01*
X40665000Y-91900000D01*
X40673000Y-91940219D01*
X40673000Y-92614889D01*
X40525715Y-92614760D01*
X40016485Y-92825169D01*
X39626539Y-93214436D01*
X39415241Y-93723298D01*
X39414760Y-94274285D01*
X39423000Y-94294227D01*
X39423000Y-95704612D01*
X39415241Y-95723298D01*
X39414760Y-96274285D01*
X39625169Y-96783515D01*
X40014436Y-97173461D01*
X40523298Y-97384759D01*
X41074285Y-97385240D01*
X41215237Y-97327000D01*
X42373000Y-97327000D01*
X42373000Y-100100000D01*
X42381685Y-100146159D01*
X42408965Y-100188553D01*
X42450590Y-100216994D01*
X42500000Y-100227000D01*
X43520562Y-100227000D01*
X43563309Y-100244750D01*
X44134187Y-100245248D01*
X44178351Y-100227000D01*
X46060562Y-100227000D01*
X46103309Y-100244750D01*
X46674187Y-100245248D01*
X46718351Y-100227000D01*
X48600562Y-100227000D01*
X48643309Y-100244750D01*
X49214187Y-100245248D01*
X49258351Y-100227000D01*
X51140562Y-100227000D01*
X51183309Y-100244750D01*
X51754187Y-100245248D01*
X51798351Y-100227000D01*
X53680562Y-100227000D01*
X53723309Y-100244750D01*
X54294187Y-100245248D01*
X54338351Y-100227000D01*
X56249857Y-100227000D01*
X56333223Y-100256965D01*
X56903454Y-100229778D01*
X56910161Y-100227000D01*
X57315000Y-100227000D01*
X57315000Y-101473000D01*
X38685000Y-101473000D01*
X38685000Y-82274285D01*
X39414760Y-82274285D01*
X39423000Y-82294227D01*
X39423000Y-83704612D01*
X39415241Y-83723298D01*
X39414760Y-84274285D01*
X39625169Y-84783515D01*
X40014436Y-85173461D01*
X40523298Y-85384759D01*
X41074285Y-85385240D01*
X41583515Y-85174831D01*
X41973461Y-84785564D01*
X42184759Y-84276702D01*
X42185240Y-83725715D01*
X42177000Y-83705773D01*
X42177000Y-82295388D01*
X42184759Y-82276702D01*
X42185240Y-81725715D01*
X41974831Y-81216485D01*
X41585564Y-80826539D01*
X41076702Y-80615241D01*
X40525715Y-80614760D01*
X40016485Y-80825169D01*
X39626539Y-81214436D01*
X39415241Y-81723298D01*
X39414760Y-82274285D01*
X38685000Y-82274285D01*
X38685000Y-76527000D01*
X47023000Y-76527000D01*
X47023000Y-77673000D01*
G36*
X46173223Y-92636965D02*
X46382233Y-92627000D01*
X57315000Y-92627000D01*
X57315000Y-96000000D01*
X57367143Y-96262138D01*
X57515632Y-96484368D01*
X57737862Y-96632857D01*
X57873000Y-96659738D01*
X57873000Y-98222904D01*
X57827000Y-98111850D01*
X57827000Y-97500000D01*
X57818315Y-97453841D01*
X57791035Y-97411447D01*
X57749410Y-97383006D01*
X57700000Y-97373000D01*
X56794501Y-97373000D01*
X56766777Y-97363035D01*
X56557767Y-97373000D01*
X52358781Y-97373000D01*
X52201856Y-97138144D01*
X52201853Y-97138142D01*
X51231856Y-96168144D01*
X50896077Y-95943785D01*
X50500000Y-95864999D01*
X50499995Y-95865000D01*
X47300000Y-95865000D01*
X47259781Y-95873000D01*
X45777000Y-95873000D01*
X45777000Y-92627000D01*
X46145499Y-92627000D01*
X46173223Y-92636965D01*
X46173223Y-92636965D01*
G37*
X46173223Y-92636965D02*
X46382233Y-92627000D01*
X57315000Y-92627000D01*
X57315000Y-96000000D01*
X57367143Y-96262138D01*
X57515632Y-96484368D01*
X57737862Y-96632857D01*
X57873000Y-96659738D01*
X57873000Y-98222904D01*
X57827000Y-98111850D01*
X57827000Y-97500000D01*
X57818315Y-97453841D01*
X57791035Y-97411447D01*
X57749410Y-97383006D01*
X57700000Y-97373000D01*
X56794501Y-97373000D01*
X56766777Y-97363035D01*
X56557767Y-97373000D01*
X52358781Y-97373000D01*
X52201856Y-97138144D01*
X52201853Y-97138142D01*
X51231856Y-96168144D01*
X50896077Y-95943785D01*
X50500000Y-95864999D01*
X50499995Y-95865000D01*
X47300000Y-95865000D01*
X47259781Y-95873000D01*
X45777000Y-95873000D01*
X45777000Y-92627000D01*
X46145499Y-92627000D01*
X46173223Y-92636965D01*
G36*
X51956883Y-88528943D02*
X52219673Y-88792192D01*
X52563201Y-88934838D01*
X52935167Y-88935162D01*
X53278943Y-88793117D01*
X53542192Y-88530327D01*
X53626621Y-88327000D01*
X57315000Y-88327000D01*
X57315000Y-89673000D01*
X45777000Y-89673000D01*
X45777000Y-88327000D01*
X51873442Y-88327000D01*
X51956883Y-88528943D01*
X51956883Y-88528943D01*
G37*
X51956883Y-88528943D02*
X52219673Y-88792192D01*
X52563201Y-88934838D01*
X52935167Y-88935162D01*
X53278943Y-88793117D01*
X53542192Y-88530327D01*
X53626621Y-88327000D01*
X57315000Y-88327000D01*
X57315000Y-89673000D01*
X45777000Y-89673000D01*
X45777000Y-88327000D01*
X51873442Y-88327000D01*
X51956883Y-88528943D01*
G36*
X79815000Y-66583736D02*
X79815000Y-69300000D01*
X79867143Y-69562138D01*
X80015632Y-69784368D01*
X81015632Y-70784368D01*
X81237862Y-70932857D01*
X81500000Y-70985000D01*
X90499200Y-70985000D01*
X90761338Y-70932857D01*
X90983568Y-70784368D01*
X91983568Y-69784368D01*
X92132057Y-69562138D01*
X92184200Y-69300000D01*
X92184200Y-68123795D01*
X92363916Y-68123795D01*
X92612306Y-68724943D01*
X93071837Y-69185278D01*
X93672552Y-69434716D01*
X94322995Y-69435284D01*
X94924143Y-69186894D01*
X95384478Y-68727363D01*
X95633916Y-68126648D01*
X95634484Y-67476205D01*
X95386094Y-66875057D01*
X94926563Y-66414722D01*
X94325848Y-66165284D01*
X93675405Y-66164716D01*
X93074257Y-66413106D01*
X92613922Y-66872637D01*
X92364484Y-67473352D01*
X92363916Y-68123795D01*
X92184200Y-68123795D01*
X92184200Y-66583736D01*
X92782936Y-65985000D01*
X95215464Y-65985000D01*
X95814200Y-66583736D01*
X95814200Y-72000000D01*
X95866343Y-72262138D01*
X96014832Y-72484368D01*
X97014832Y-73484368D01*
X97237062Y-73632857D01*
X97499200Y-73685000D01*
X109715464Y-73685000D01*
X110314200Y-74283736D01*
X110314200Y-82000000D01*
X110366343Y-82262138D01*
X110514832Y-82484368D01*
X111514832Y-83484368D01*
X111737062Y-83632857D01*
X111999200Y-83685000D01*
X118975554Y-83685000D01*
X117795554Y-84865000D01*
X117787419Y-84865000D01*
X117730327Y-84807808D01*
X117386799Y-84665162D01*
X117014833Y-84664838D01*
X116671057Y-84806883D01*
X116407808Y-85069673D01*
X116265162Y-85413201D01*
X116264838Y-85785167D01*
X116406883Y-86128943D01*
X116669673Y-86392192D01*
X117013201Y-86534838D01*
X117385167Y-86535162D01*
X117728943Y-86393117D01*
X117787162Y-86335000D01*
X118100000Y-86335000D01*
X118381272Y-86279051D01*
X118486524Y-86208724D01*
X118669673Y-86392192D01*
X119013201Y-86534838D01*
X119385167Y-86535162D01*
X119565121Y-86460807D01*
X119564838Y-86785167D01*
X119706883Y-87128943D01*
X119969673Y-87392192D01*
X120313201Y-87534838D01*
X120573000Y-87535064D01*
X120573000Y-92144992D01*
X111170392Y-92144992D01*
X111029588Y-92173000D01*
X107600000Y-92173000D01*
X107553841Y-92181685D01*
X107511447Y-92208965D01*
X107483006Y-92250590D01*
X107473000Y-92300000D01*
X107473000Y-92400000D01*
X107477000Y-92421259D01*
X107477000Y-92995000D01*
X107497000Y-92995000D01*
X107497000Y-93042560D01*
X107203000Y-93042560D01*
X107203000Y-92995000D01*
X107223000Y-92995000D01*
X107223000Y-92519752D01*
X107227000Y-92500000D01*
X107227000Y-92000000D01*
X107218315Y-91953841D01*
X107191035Y-91911447D01*
X107149410Y-91883006D01*
X107100000Y-91873000D01*
X106300000Y-91873000D01*
X106229875Y-91894116D01*
X106194205Y-91929741D01*
X106175205Y-91976436D01*
X106175818Y-92022932D01*
X106125000Y-92073750D01*
X106125000Y-92773000D01*
X106147000Y-92773000D01*
X106147000Y-93027000D01*
X106125000Y-93027000D01*
X106125000Y-93047000D01*
X105897440Y-93047000D01*
X105897440Y-92550000D01*
X105875000Y-92430742D01*
X105875000Y-92073750D01*
X105716250Y-91915000D01*
X105623690Y-91915000D01*
X105512717Y-91960967D01*
X105501890Y-91953569D01*
X105250000Y-91902560D01*
X104750000Y-91902560D01*
X104514683Y-91946838D01*
X104298559Y-92085910D01*
X104261601Y-92140000D01*
X101300000Y-92140000D01*
X101173997Y-92165064D01*
X100914833Y-92164838D01*
X100571057Y-92306883D01*
X100307808Y-92569673D01*
X100165162Y-92913201D01*
X100164838Y-93285167D01*
X100306883Y-93628943D01*
X100377710Y-93699893D01*
X100307808Y-93769673D01*
X100165162Y-94113201D01*
X100164838Y-94485167D01*
X100306883Y-94828943D01*
X100569673Y-95092192D01*
X100913201Y-95234838D01*
X101285167Y-95235162D01*
X101334976Y-95214582D01*
X102510197Y-96389803D01*
X102526596Y-96398778D01*
X102719673Y-96592192D01*
X103063201Y-96734838D01*
X103110077Y-96734879D01*
X103140000Y-96764802D01*
X103140000Y-97450000D01*
X103197852Y-97740839D01*
X103362599Y-97987401D01*
X103812599Y-98437401D01*
X104059161Y-98602148D01*
X104129661Y-98616171D01*
X104102560Y-98750000D01*
X104102560Y-99450000D01*
X104138311Y-99640000D01*
X100462923Y-99640000D01*
X100393117Y-99471057D01*
X100130327Y-99207808D01*
X99786799Y-99065162D01*
X99414833Y-99064838D01*
X99071057Y-99206883D01*
X98807808Y-99469673D01*
X98665162Y-99813201D01*
X98664838Y-100185167D01*
X98806883Y-100528943D01*
X99069673Y-100792192D01*
X99413201Y-100934838D01*
X99460077Y-100934879D01*
X99462599Y-100937401D01*
X99709160Y-101102148D01*
X99747117Y-101109698D01*
X100000000Y-101160000D01*
X104120785Y-101160000D01*
X104102560Y-101250000D01*
X104102560Y-101950000D01*
X104138311Y-102140000D01*
X99962923Y-102140000D01*
X99893117Y-101971057D01*
X99630327Y-101707808D01*
X99286799Y-101565162D01*
X98914833Y-101564838D01*
X98571057Y-101706883D01*
X98307808Y-101969673D01*
X98165162Y-102313201D01*
X98164838Y-102685167D01*
X98173000Y-102704921D01*
X98173000Y-104315000D01*
X97499200Y-104315000D01*
X97237062Y-104367143D01*
X97014832Y-104515632D01*
X96014832Y-105515632D01*
X95866343Y-105737862D01*
X95814200Y-106000000D01*
X95814200Y-111416264D01*
X95215464Y-112015000D01*
X92782936Y-112015000D01*
X92184200Y-111416264D01*
X92184200Y-110523795D01*
X92363916Y-110523795D01*
X92612306Y-111124943D01*
X93071837Y-111585278D01*
X93672552Y-111834716D01*
X94322995Y-111835284D01*
X94924143Y-111586894D01*
X95384478Y-111127363D01*
X95633916Y-110526648D01*
X95634484Y-109876205D01*
X95386094Y-109275057D01*
X94926563Y-108814722D01*
X94325848Y-108565284D01*
X93675405Y-108564716D01*
X93074257Y-108813106D01*
X92613922Y-109272637D01*
X92364484Y-109873352D01*
X92363916Y-110523795D01*
X92184200Y-110523795D01*
X92184200Y-108700000D01*
X92132057Y-108437862D01*
X91983568Y-108215632D01*
X90983568Y-107215632D01*
X90761338Y-107067143D01*
X90499200Y-107015000D01*
X81500000Y-107015000D01*
X81237862Y-107067143D01*
X81015632Y-107215632D01*
X80015632Y-108215632D01*
X79867143Y-108437862D01*
X79815000Y-108700000D01*
X79815000Y-111416264D01*
X79216264Y-112015000D01*
X76783736Y-112015000D01*
X76185000Y-111416264D01*
X76185000Y-110523795D01*
X76364716Y-110523795D01*
X76613106Y-111124943D01*
X77072637Y-111585278D01*
X77673352Y-111834716D01*
X78323795Y-111835284D01*
X78924943Y-111586894D01*
X79385278Y-111127363D01*
X79634716Y-110526648D01*
X79635284Y-109876205D01*
X79386894Y-109275057D01*
X78927363Y-108814722D01*
X78326648Y-108565284D01*
X77676205Y-108564716D01*
X77075057Y-108813106D01*
X76614722Y-109272637D01*
X76365284Y-109873352D01*
X76364716Y-110523795D01*
X76185000Y-110523795D01*
X76185000Y-106000000D01*
X76132857Y-105737862D01*
X75984368Y-105515632D01*
X74984368Y-104515632D01*
X74776890Y-104377000D01*
X74800000Y-104377000D01*
X74846159Y-104368315D01*
X74888553Y-104341035D01*
X74916994Y-104299410D01*
X74927000Y-104250000D01*
X74927000Y-104130328D01*
X74946431Y-104101890D01*
X74997440Y-103850000D01*
X74997440Y-102984677D01*
X76814794Y-102984677D01*
X76823000Y-103004537D01*
X76823000Y-103994485D01*
X76815206Y-104013255D01*
X76814794Y-104484677D01*
X76994820Y-104920372D01*
X77327875Y-105254009D01*
X77763255Y-105434794D01*
X78234677Y-105435206D01*
X78670372Y-105255180D01*
X79004009Y-104922125D01*
X79184794Y-104486745D01*
X79185206Y-104015323D01*
X79177000Y-103995463D01*
X79177000Y-103005515D01*
X79184794Y-102986745D01*
X79184795Y-102984677D01*
X80814794Y-102984677D01*
X80823000Y-103004537D01*
X80823000Y-103994485D01*
X80815206Y-104013255D01*
X80814794Y-104484677D01*
X80994820Y-104920372D01*
X81327875Y-105254009D01*
X81763255Y-105434794D01*
X82234677Y-105435206D01*
X82670372Y-105255180D01*
X83004009Y-104922125D01*
X83184794Y-104486745D01*
X83185206Y-104015323D01*
X83177000Y-103995463D01*
X83177000Y-103005515D01*
X83184794Y-102986745D01*
X83185206Y-102515323D01*
X83005180Y-102079628D01*
X82824884Y-101899016D01*
X85280590Y-101899016D01*
X85336271Y-102129611D01*
X85819078Y-102297622D01*
X86329428Y-102268083D01*
X86663729Y-102129611D01*
X86719410Y-101899016D01*
X86000000Y-101179605D01*
X85280590Y-101899016D01*
X82824884Y-101899016D01*
X82672125Y-101745991D01*
X82236745Y-101565206D01*
X81765323Y-101564794D01*
X81329628Y-101744820D01*
X80995991Y-102077875D01*
X80815206Y-102513255D01*
X80814794Y-102984677D01*
X79184795Y-102984677D01*
X79185206Y-102515323D01*
X79005180Y-102079628D01*
X78672125Y-101745991D01*
X78236745Y-101565206D01*
X77765323Y-101564794D01*
X77329628Y-101744820D01*
X76995991Y-102077875D01*
X76815206Y-102513255D01*
X76814794Y-102984677D01*
X74997440Y-102984677D01*
X74997440Y-102150000D01*
X74953162Y-101914683D01*
X74927000Y-101874026D01*
X74927000Y-101700000D01*
X74918315Y-101653841D01*
X74891035Y-101611447D01*
X74849410Y-101583006D01*
X74800000Y-101573000D01*
X74630328Y-101573000D01*
X74601890Y-101553569D01*
X74350000Y-101502560D01*
X72650000Y-101502560D01*
X72414683Y-101546838D01*
X72374026Y-101573000D01*
X71397846Y-101573000D01*
X70960000Y-101485907D01*
X70522154Y-101573000D01*
X68811840Y-101573000D01*
X68776890Y-101558524D01*
X68749460Y-101573000D01*
X68090540Y-101573000D01*
X68063110Y-101558524D01*
X68028160Y-101573000D01*
X66271840Y-101573000D01*
X66236890Y-101558524D01*
X66209460Y-101573000D01*
X65550540Y-101573000D01*
X65523110Y-101558524D01*
X65488160Y-101573000D01*
X63731840Y-101573000D01*
X63696890Y-101558524D01*
X63669460Y-101573000D01*
X63010540Y-101573000D01*
X62983110Y-101558524D01*
X62948160Y-101573000D01*
X61685000Y-101573000D01*
X61685000Y-100819078D01*
X84702378Y-100819078D01*
X84731917Y-101329428D01*
X84870389Y-101663729D01*
X85100984Y-101719410D01*
X85820395Y-101000000D01*
X86179605Y-101000000D01*
X86899016Y-101719410D01*
X86906169Y-101717683D01*
X86909995Y-101726943D01*
X87271155Y-102088735D01*
X87743276Y-102284777D01*
X88254481Y-102285223D01*
X88274382Y-102277000D01*
X89724547Y-102277000D01*
X89743276Y-102284777D01*
X90254481Y-102285223D01*
X90726943Y-102090005D01*
X91088735Y-101728845D01*
X91284777Y-101256724D01*
X91285223Y-100745519D01*
X91090005Y-100273057D01*
X90728845Y-99911265D01*
X90256724Y-99715223D01*
X89745519Y-99714777D01*
X89725618Y-99723000D01*
X88275453Y-99723000D01*
X88256724Y-99715223D01*
X87745519Y-99714777D01*
X87273057Y-99909995D01*
X86911265Y-100271155D01*
X86906588Y-100282418D01*
X86899016Y-100280590D01*
X86179605Y-101000000D01*
X85820395Y-101000000D01*
X85100984Y-100280590D01*
X84870389Y-100336271D01*
X84702378Y-100819078D01*
X61685000Y-100819078D01*
X61685000Y-100100984D01*
X85280590Y-100100984D01*
X86000000Y-100820395D01*
X86719410Y-100100984D01*
X86663729Y-99870389D01*
X86180922Y-99702378D01*
X85670572Y-99731917D01*
X85336271Y-99870389D01*
X85280590Y-100100984D01*
X61685000Y-100100984D01*
X61685000Y-99000000D01*
X61632857Y-98737862D01*
X61484368Y-98515632D01*
X61262138Y-98367143D01*
X61127000Y-98340262D01*
X61127000Y-97356892D01*
X82018114Y-97356892D01*
X82264417Y-97881358D01*
X82692676Y-98271645D01*
X83102710Y-98441476D01*
X83332600Y-98320155D01*
X83332600Y-97127000D01*
X82138781Y-97127000D01*
X82018114Y-97356892D01*
X61127000Y-97356892D01*
X61127000Y-96659738D01*
X61262138Y-96632857D01*
X61484368Y-96484368D01*
X61632857Y-96262138D01*
X61685000Y-96000000D01*
X61685000Y-93285167D01*
X67064838Y-93285167D01*
X67206883Y-93628943D01*
X67469673Y-93892192D01*
X67813201Y-94034838D01*
X68185167Y-94035162D01*
X68528943Y-93893117D01*
X68792192Y-93630327D01*
X68934838Y-93286799D01*
X68934879Y-93239923D01*
X69114802Y-93060000D01*
X72600000Y-93060000D01*
X72890839Y-93002148D01*
X73137401Y-92837401D01*
X73937401Y-92037401D01*
X74102148Y-91790839D01*
X74160000Y-91500000D01*
X74160000Y-89923567D01*
X79353172Y-89923567D01*
X80000000Y-90570395D01*
X80646828Y-89923567D01*
X80603492Y-89703299D01*
X80156999Y-89552028D01*
X79686604Y-89583137D01*
X79396508Y-89703299D01*
X79353172Y-89923567D01*
X74160000Y-89923567D01*
X74160000Y-87662463D01*
X74192192Y-87630327D01*
X74334838Y-87286799D01*
X74335162Y-86914833D01*
X74193117Y-86571057D01*
X73930327Y-86307808D01*
X73586799Y-86165162D01*
X73214833Y-86164838D01*
X72871057Y-86306883D01*
X72607808Y-86569673D01*
X72465162Y-86913201D01*
X72464838Y-87285167D01*
X72606883Y-87628943D01*
X72640000Y-87662118D01*
X72640000Y-91185198D01*
X72285198Y-91540000D01*
X68800000Y-91540000D01*
X68509161Y-91597852D01*
X68262599Y-91762599D01*
X67860320Y-92164878D01*
X67814833Y-92164838D01*
X67471057Y-92306883D01*
X67207808Y-92569673D01*
X67065162Y-92913201D01*
X67064838Y-93285167D01*
X61685000Y-93285167D01*
X61685000Y-82000000D01*
X61632857Y-81737862D01*
X61484368Y-81515632D01*
X61262138Y-81367143D01*
X61127000Y-81340262D01*
X61127000Y-79659738D01*
X61262138Y-79632857D01*
X61484368Y-79484368D01*
X61632857Y-79262138D01*
X61685000Y-79000000D01*
X61685000Y-78234677D01*
X64714794Y-78234677D01*
X64894820Y-78670372D01*
X65227875Y-79004009D01*
X65663255Y-79184794D01*
X66134677Y-79185206D01*
X66473000Y-79045413D01*
X66473000Y-81954831D01*
X66136745Y-81815206D01*
X65665323Y-81814794D01*
X65229628Y-81994820D01*
X64895991Y-82327875D01*
X64715206Y-82763255D01*
X64714794Y-83234677D01*
X64894820Y-83670372D01*
X65224155Y-84000283D01*
X64895991Y-84327875D01*
X64715206Y-84763255D01*
X64714794Y-85234677D01*
X64894820Y-85670372D01*
X65227875Y-86004009D01*
X65663255Y-86184794D01*
X66134677Y-86185206D01*
X66473000Y-86045413D01*
X66473000Y-88954831D01*
X66136745Y-88815206D01*
X65665323Y-88814794D01*
X65229628Y-88994820D01*
X64895991Y-89327875D01*
X64715206Y-89763255D01*
X64714794Y-90234677D01*
X64894820Y-90670372D01*
X65227875Y-91004009D01*
X65663255Y-91184794D01*
X66134677Y-91185206D01*
X66570372Y-91005180D01*
X66904009Y-90672125D01*
X67084794Y-90236745D01*
X67084890Y-90127000D01*
X69500000Y-90127000D01*
X69546159Y-90118315D01*
X69588553Y-90091035D01*
X69616994Y-90049410D01*
X69627000Y-90000000D01*
X69627000Y-79385167D01*
X75764838Y-79385167D01*
X75874359Y-79650228D01*
X75765162Y-79913201D01*
X75764838Y-80285167D01*
X75874359Y-80550228D01*
X75765162Y-80813201D01*
X75764838Y-81185167D01*
X75895069Y-81500351D01*
X75765162Y-81813201D01*
X75764838Y-82185167D01*
X75874359Y-82450228D01*
X75765162Y-82713201D01*
X75764838Y-83085167D01*
X75906883Y-83428943D01*
X76169673Y-83692192D01*
X76513201Y-83834838D01*
X76885167Y-83835162D01*
X77150661Y-83725463D01*
X80264878Y-86839680D01*
X80264838Y-86885167D01*
X80406883Y-87228943D01*
X80669673Y-87492192D01*
X81013201Y-87634838D01*
X81385167Y-87635162D01*
X81728943Y-87493117D01*
X81782932Y-87439222D01*
X82013201Y-87534838D01*
X82385167Y-87535162D01*
X82656620Y-87423000D01*
X83772600Y-87423000D01*
X83772600Y-87403000D01*
X84026600Y-87403000D01*
X84026600Y-87423000D01*
X84046600Y-87423000D01*
X84046600Y-87677000D01*
X84026600Y-87677000D01*
X84026600Y-87697000D01*
X83772600Y-87697000D01*
X83772600Y-87677000D01*
X82523350Y-87677000D01*
X82364600Y-87835750D01*
X82364600Y-88355794D01*
X81643404Y-89076990D01*
X81571057Y-89106883D01*
X81307808Y-89369673D01*
X81165162Y-89713201D01*
X81165125Y-89755269D01*
X80710197Y-90210197D01*
X80691226Y-90238379D01*
X80179605Y-90750000D01*
X80193748Y-90764143D01*
X80014143Y-90943748D01*
X80000000Y-90929605D01*
X79985858Y-90943748D01*
X79806253Y-90764143D01*
X79820395Y-90750000D01*
X79173567Y-90103172D01*
X78953299Y-90146508D01*
X78802028Y-90593001D01*
X78820545Y-90873000D01*
X78800000Y-90873000D01*
X78753841Y-90881685D01*
X78711447Y-90908965D01*
X78683006Y-90950590D01*
X78673000Y-91000000D01*
X78673000Y-93400000D01*
X78681685Y-93446159D01*
X78708965Y-93488553D01*
X78750590Y-93516994D01*
X78800000Y-93527000D01*
X80694304Y-93527000D01*
X80640000Y-93800000D01*
X80640000Y-95237537D01*
X80607808Y-95269673D01*
X80465162Y-95613201D01*
X80464838Y-95985167D01*
X80606883Y-96328943D01*
X80869673Y-96592192D01*
X81213201Y-96734838D01*
X81585167Y-96735162D01*
X81928943Y-96593117D01*
X82074219Y-96448094D01*
X82111595Y-96444054D01*
X82018114Y-96643108D01*
X82138781Y-96873000D01*
X83332600Y-96873000D01*
X83332600Y-96853000D01*
X83586600Y-96853000D01*
X83586600Y-96873000D01*
X83606600Y-96873000D01*
X83606600Y-97127000D01*
X83586600Y-97127000D01*
X83586600Y-98095330D01*
X83583006Y-98100590D01*
X83573000Y-98150000D01*
X83573000Y-98400000D01*
X83581685Y-98446159D01*
X83608965Y-98488553D01*
X83650590Y-98516994D01*
X83700000Y-98527000D01*
X86000000Y-98527000D01*
X86029704Y-98523477D01*
X86030583Y-98523068D01*
X86050000Y-98527000D01*
X89950000Y-98527000D01*
X89996159Y-98518315D01*
X90038553Y-98491035D01*
X90066994Y-98449410D01*
X90077000Y-98400000D01*
X90077000Y-96260000D01*
X92300000Y-96260000D01*
X92590839Y-96202148D01*
X92837401Y-96037401D01*
X94214802Y-94660000D01*
X96000000Y-94660000D01*
X96290839Y-94602148D01*
X96537401Y-94437401D01*
X96639680Y-94335122D01*
X96685167Y-94335162D01*
X97028943Y-94193117D01*
X97292192Y-93930327D01*
X97326239Y-93848333D01*
X97569673Y-94092192D01*
X97913201Y-94234838D01*
X98285167Y-94235162D01*
X98628943Y-94093117D01*
X98892192Y-93830327D01*
X99034838Y-93486799D01*
X99034850Y-93473315D01*
X99228943Y-93393117D01*
X99492192Y-93130327D01*
X99634838Y-92786799D01*
X99635099Y-92486972D01*
X99892192Y-92230327D01*
X100034838Y-91886799D01*
X100035162Y-91514833D01*
X99925641Y-91249772D01*
X100034838Y-90986799D01*
X100035162Y-90614833D01*
X99893117Y-90271057D01*
X99630327Y-90007808D01*
X99286799Y-89865162D01*
X98914833Y-89864838D01*
X98571057Y-90006883D01*
X98537882Y-90040000D01*
X98200000Y-90040000D01*
X97964728Y-90086799D01*
X97909160Y-90097852D01*
X97662599Y-90262599D01*
X97485198Y-90440000D01*
X91714802Y-90440000D01*
X91660000Y-90385198D01*
X91660000Y-87885167D01*
X102564838Y-87885167D01*
X102706883Y-88228943D01*
X102969673Y-88492192D01*
X103313201Y-88634838D01*
X103360077Y-88634879D01*
X103462599Y-88737401D01*
X103709161Y-88902148D01*
X104000000Y-88960000D01*
X112685198Y-88960000D01*
X112740000Y-89014802D01*
X112740000Y-89137077D01*
X112571057Y-89206883D01*
X112307808Y-89469673D01*
X112165162Y-89813201D01*
X112164838Y-90185167D01*
X112306883Y-90528943D01*
X112569673Y-90792192D01*
X112913201Y-90934838D01*
X113285167Y-90935162D01*
X113628943Y-90793117D01*
X113892192Y-90530327D01*
X114034838Y-90186799D01*
X114034879Y-90139923D01*
X114037401Y-90137401D01*
X114202148Y-89890840D01*
X114227526Y-89763255D01*
X114260000Y-89600000D01*
X114260000Y-88700000D01*
X114202148Y-88409161D01*
X114037401Y-88162599D01*
X113537401Y-87662599D01*
X113290839Y-87497852D01*
X113000000Y-87440000D01*
X104404242Y-87440000D01*
X104293117Y-87171057D01*
X104030327Y-86907808D01*
X103686799Y-86765162D01*
X103314833Y-86764838D01*
X102971057Y-86906883D01*
X102707808Y-87169673D01*
X102565162Y-87513201D01*
X102564838Y-87885167D01*
X91660000Y-87885167D01*
X91660000Y-85100000D01*
X91627000Y-84934099D01*
X91627000Y-83400000D01*
X91617666Y-83352211D01*
X91589803Y-83310197D01*
X91323010Y-83043404D01*
X91293117Y-82971057D01*
X91030327Y-82707808D01*
X90956942Y-82677336D01*
X90664773Y-82385167D01*
X97464838Y-82385167D01*
X97606883Y-82728943D01*
X97869673Y-82992192D01*
X98213201Y-83134838D01*
X98585167Y-83135162D01*
X98928943Y-82993117D01*
X99192192Y-82730327D01*
X99334838Y-82386799D01*
X99335162Y-82014833D01*
X99193117Y-81671057D01*
X99160000Y-81637882D01*
X99160000Y-81412747D01*
X99213201Y-81434838D01*
X99585167Y-81435162D01*
X99928943Y-81293117D01*
X99962118Y-81260000D01*
X102785198Y-81260000D01*
X102940000Y-81414802D01*
X102940000Y-82237537D01*
X102907808Y-82269673D01*
X102765162Y-82613201D01*
X102764838Y-82985167D01*
X102906883Y-83328943D01*
X103169673Y-83592192D01*
X103513201Y-83734838D01*
X103885167Y-83735162D01*
X104228943Y-83593117D01*
X104492192Y-83330327D01*
X104634838Y-82986799D01*
X104635162Y-82614833D01*
X104493117Y-82271057D01*
X104460000Y-82237882D01*
X104460000Y-81260000D01*
X108200000Y-81260000D01*
X108490839Y-81202148D01*
X108737401Y-81037401D01*
X109537401Y-80237401D01*
X109702148Y-79990839D01*
X109760000Y-79700000D01*
X109760000Y-78862463D01*
X109792192Y-78830327D01*
X109934838Y-78486799D01*
X109935162Y-78114833D01*
X109793117Y-77771057D01*
X109530327Y-77507808D01*
X109186799Y-77365162D01*
X108814833Y-77364838D01*
X108471057Y-77506883D01*
X108207808Y-77769673D01*
X108065162Y-78113201D01*
X108064838Y-78485167D01*
X108206883Y-78828943D01*
X108240000Y-78862118D01*
X108240000Y-79385198D01*
X107885198Y-79740000D01*
X105234803Y-79740000D01*
X105437401Y-79537402D01*
X105569300Y-79340000D01*
X105602148Y-79290839D01*
X105660000Y-79000000D01*
X105660000Y-77962923D01*
X105828943Y-77893117D01*
X106092192Y-77630327D01*
X106234838Y-77286799D01*
X106235162Y-76914833D01*
X106093117Y-76571057D01*
X105830327Y-76307808D01*
X105486799Y-76165162D01*
X105114833Y-76164838D01*
X104771057Y-76306883D01*
X104507808Y-76569673D01*
X104365162Y-76913201D01*
X104365121Y-76960077D01*
X104362599Y-76962599D01*
X104197852Y-77209161D01*
X104140000Y-77500000D01*
X104140000Y-78685197D01*
X103885198Y-78940000D01*
X99100000Y-78940000D01*
X98809161Y-78997852D01*
X98798194Y-79005180D01*
X98562598Y-79162599D01*
X97862599Y-79862599D01*
X97697852Y-80109161D01*
X97640000Y-80400000D01*
X97640000Y-81637537D01*
X97607808Y-81669673D01*
X97465162Y-82013201D01*
X97464838Y-82385167D01*
X90664773Y-82385167D01*
X90037040Y-81757434D01*
X90037040Y-80150000D01*
X90027000Y-80096642D01*
X90027000Y-79700000D01*
X90018315Y-79653841D01*
X89991035Y-79611447D01*
X89949410Y-79583006D01*
X89900000Y-79573000D01*
X89669928Y-79573000D01*
X89641490Y-79553569D01*
X89389600Y-79502560D01*
X87689600Y-79502560D01*
X87454283Y-79546838D01*
X87413626Y-79573000D01*
X86437446Y-79573000D01*
X85999600Y-79485907D01*
X85561754Y-79573000D01*
X83897446Y-79573000D01*
X83459600Y-79485907D01*
X83021754Y-79573000D01*
X79547802Y-79573000D01*
X78637401Y-78662599D01*
X78390839Y-78497852D01*
X78100000Y-78440000D01*
X77262463Y-78440000D01*
X77230327Y-78407808D01*
X76886799Y-78265162D01*
X76514833Y-78264838D01*
X76171057Y-78406883D01*
X75907808Y-78669673D01*
X75765162Y-79013201D01*
X75764838Y-79385167D01*
X69627000Y-79385167D01*
X69627000Y-78100000D01*
X69618315Y-78053841D01*
X69591035Y-78011447D01*
X69549410Y-77983006D01*
X69500000Y-77973000D01*
X67085025Y-77973000D01*
X67085206Y-77765323D01*
X66905180Y-77329628D01*
X66572125Y-76995991D01*
X66136745Y-76815206D01*
X65665323Y-76814794D01*
X65229628Y-76994820D01*
X64895991Y-77327875D01*
X64715206Y-77763255D01*
X64714794Y-78234677D01*
X61685000Y-78234677D01*
X61685000Y-76427000D01*
X62902154Y-76427000D01*
X63340000Y-76514093D01*
X63777846Y-76427000D01*
X65442154Y-76427000D01*
X65880000Y-76514093D01*
X66317846Y-76427000D01*
X67982154Y-76427000D01*
X68420000Y-76514093D01*
X68857846Y-76427000D01*
X70522154Y-76427000D01*
X70960000Y-76514093D01*
X71397846Y-76427000D01*
X72369672Y-76427000D01*
X72398110Y-76446431D01*
X72650000Y-76497440D01*
X74350000Y-76497440D01*
X74585317Y-76453162D01*
X74625974Y-76427000D01*
X74800000Y-76427000D01*
X74846159Y-76418315D01*
X74888553Y-76391035D01*
X74916994Y-76349410D01*
X74927000Y-76300000D01*
X74927000Y-76130328D01*
X74946431Y-76101890D01*
X74997440Y-75850000D01*
X74997440Y-74150000D01*
X74953162Y-73914683D01*
X74927000Y-73874026D01*
X74927000Y-73700000D01*
X74918315Y-73653841D01*
X74891035Y-73611447D01*
X74849410Y-73583006D01*
X74839691Y-73581038D01*
X74984368Y-73484368D01*
X75984368Y-72484368D01*
X76132857Y-72262138D01*
X76185000Y-72000000D01*
X76185000Y-68123795D01*
X76364716Y-68123795D01*
X76613106Y-68724943D01*
X77072637Y-69185278D01*
X77673352Y-69434716D01*
X78323795Y-69435284D01*
X78924943Y-69186894D01*
X79385278Y-68727363D01*
X79634716Y-68126648D01*
X79635284Y-67476205D01*
X79386894Y-66875057D01*
X78927363Y-66414722D01*
X78326648Y-66165284D01*
X77676205Y-66164716D01*
X77075057Y-66413106D01*
X76614722Y-66872637D01*
X76365284Y-67473352D01*
X76364716Y-68123795D01*
X76185000Y-68123795D01*
X76185000Y-66583736D01*
X76783736Y-65985000D01*
X79216264Y-65985000D01*
X79815000Y-66583736D01*
X79815000Y-66583736D01*
G37*
X79815000Y-66583736D02*
X79815000Y-69300000D01*
X79867143Y-69562138D01*
X80015632Y-69784368D01*
X81015632Y-70784368D01*
X81237862Y-70932857D01*
X81500000Y-70985000D01*
X90499200Y-70985000D01*
X90761338Y-70932857D01*
X90983568Y-70784368D01*
X91983568Y-69784368D01*
X92132057Y-69562138D01*
X92184200Y-69300000D01*
X92184200Y-68123795D01*
X92363916Y-68123795D01*
X92612306Y-68724943D01*
X93071837Y-69185278D01*
X93672552Y-69434716D01*
X94322995Y-69435284D01*
X94924143Y-69186894D01*
X95384478Y-68727363D01*
X95633916Y-68126648D01*
X95634484Y-67476205D01*
X95386094Y-66875057D01*
X94926563Y-66414722D01*
X94325848Y-66165284D01*
X93675405Y-66164716D01*
X93074257Y-66413106D01*
X92613922Y-66872637D01*
X92364484Y-67473352D01*
X92363916Y-68123795D01*
X92184200Y-68123795D01*
X92184200Y-66583736D01*
X92782936Y-65985000D01*
X95215464Y-65985000D01*
X95814200Y-66583736D01*
X95814200Y-72000000D01*
X95866343Y-72262138D01*
X96014832Y-72484368D01*
X97014832Y-73484368D01*
X97237062Y-73632857D01*
X97499200Y-73685000D01*
X109715464Y-73685000D01*
X110314200Y-74283736D01*
X110314200Y-82000000D01*
X110366343Y-82262138D01*
X110514832Y-82484368D01*
X111514832Y-83484368D01*
X111737062Y-83632857D01*
X111999200Y-83685000D01*
X118975554Y-83685000D01*
X117795554Y-84865000D01*
X117787419Y-84865000D01*
X117730327Y-84807808D01*
X117386799Y-84665162D01*
X117014833Y-84664838D01*
X116671057Y-84806883D01*
X116407808Y-85069673D01*
X116265162Y-85413201D01*
X116264838Y-85785167D01*
X116406883Y-86128943D01*
X116669673Y-86392192D01*
X117013201Y-86534838D01*
X117385167Y-86535162D01*
X117728943Y-86393117D01*
X117787162Y-86335000D01*
X118100000Y-86335000D01*
X118381272Y-86279051D01*
X118486524Y-86208724D01*
X118669673Y-86392192D01*
X119013201Y-86534838D01*
X119385167Y-86535162D01*
X119565121Y-86460807D01*
X119564838Y-86785167D01*
X119706883Y-87128943D01*
X119969673Y-87392192D01*
X120313201Y-87534838D01*
X120573000Y-87535064D01*
X120573000Y-92144992D01*
X111170392Y-92144992D01*
X111029588Y-92173000D01*
X107600000Y-92173000D01*
X107553841Y-92181685D01*
X107511447Y-92208965D01*
X107483006Y-92250590D01*
X107473000Y-92300000D01*
X107473000Y-92400000D01*
X107477000Y-92421259D01*
X107477000Y-92995000D01*
X107497000Y-92995000D01*
X107497000Y-93042560D01*
X107203000Y-93042560D01*
X107203000Y-92995000D01*
X107223000Y-92995000D01*
X107223000Y-92519752D01*
X107227000Y-92500000D01*
X107227000Y-92000000D01*
X107218315Y-91953841D01*
X107191035Y-91911447D01*
X107149410Y-91883006D01*
X107100000Y-91873000D01*
X106300000Y-91873000D01*
X106229875Y-91894116D01*
X106194205Y-91929741D01*
X106175205Y-91976436D01*
X106175818Y-92022932D01*
X106125000Y-92073750D01*
X106125000Y-92773000D01*
X106147000Y-92773000D01*
X106147000Y-93027000D01*
X106125000Y-93027000D01*
X106125000Y-93047000D01*
X105897440Y-93047000D01*
X105897440Y-92550000D01*
X105875000Y-92430742D01*
X105875000Y-92073750D01*
X105716250Y-91915000D01*
X105623690Y-91915000D01*
X105512717Y-91960967D01*
X105501890Y-91953569D01*
X105250000Y-91902560D01*
X104750000Y-91902560D01*
X104514683Y-91946838D01*
X104298559Y-92085910D01*
X104261601Y-92140000D01*
X101300000Y-92140000D01*
X101173997Y-92165064D01*
X100914833Y-92164838D01*
X100571057Y-92306883D01*
X100307808Y-92569673D01*
X100165162Y-92913201D01*
X100164838Y-93285167D01*
X100306883Y-93628943D01*
X100377710Y-93699893D01*
X100307808Y-93769673D01*
X100165162Y-94113201D01*
X100164838Y-94485167D01*
X100306883Y-94828943D01*
X100569673Y-95092192D01*
X100913201Y-95234838D01*
X101285167Y-95235162D01*
X101334976Y-95214582D01*
X102510197Y-96389803D01*
X102526596Y-96398778D01*
X102719673Y-96592192D01*
X103063201Y-96734838D01*
X103110077Y-96734879D01*
X103140000Y-96764802D01*
X103140000Y-97450000D01*
X103197852Y-97740839D01*
X103362599Y-97987401D01*
X103812599Y-98437401D01*
X104059161Y-98602148D01*
X104129661Y-98616171D01*
X104102560Y-98750000D01*
X104102560Y-99450000D01*
X104138311Y-99640000D01*
X100462923Y-99640000D01*
X100393117Y-99471057D01*
X100130327Y-99207808D01*
X99786799Y-99065162D01*
X99414833Y-99064838D01*
X99071057Y-99206883D01*
X98807808Y-99469673D01*
X98665162Y-99813201D01*
X98664838Y-100185167D01*
X98806883Y-100528943D01*
X99069673Y-100792192D01*
X99413201Y-100934838D01*
X99460077Y-100934879D01*
X99462599Y-100937401D01*
X99709160Y-101102148D01*
X99747117Y-101109698D01*
X100000000Y-101160000D01*
X104120785Y-101160000D01*
X104102560Y-101250000D01*
X104102560Y-101950000D01*
X104138311Y-102140000D01*
X99962923Y-102140000D01*
X99893117Y-101971057D01*
X99630327Y-101707808D01*
X99286799Y-101565162D01*
X98914833Y-101564838D01*
X98571057Y-101706883D01*
X98307808Y-101969673D01*
X98165162Y-102313201D01*
X98164838Y-102685167D01*
X98173000Y-102704921D01*
X98173000Y-104315000D01*
X97499200Y-104315000D01*
X97237062Y-104367143D01*
X97014832Y-104515632D01*
X96014832Y-105515632D01*
X95866343Y-105737862D01*
X95814200Y-106000000D01*
X95814200Y-111416264D01*
X95215464Y-112015000D01*
X92782936Y-112015000D01*
X92184200Y-111416264D01*
X92184200Y-110523795D01*
X92363916Y-110523795D01*
X92612306Y-111124943D01*
X93071837Y-111585278D01*
X93672552Y-111834716D01*
X94322995Y-111835284D01*
X94924143Y-111586894D01*
X95384478Y-111127363D01*
X95633916Y-110526648D01*
X95634484Y-109876205D01*
X95386094Y-109275057D01*
X94926563Y-108814722D01*
X94325848Y-108565284D01*
X93675405Y-108564716D01*
X93074257Y-108813106D01*
X92613922Y-109272637D01*
X92364484Y-109873352D01*
X92363916Y-110523795D01*
X92184200Y-110523795D01*
X92184200Y-108700000D01*
X92132057Y-108437862D01*
X91983568Y-108215632D01*
X90983568Y-107215632D01*
X90761338Y-107067143D01*
X90499200Y-107015000D01*
X81500000Y-107015000D01*
X81237862Y-107067143D01*
X81015632Y-107215632D01*
X80015632Y-108215632D01*
X79867143Y-108437862D01*
X79815000Y-108700000D01*
X79815000Y-111416264D01*
X79216264Y-112015000D01*
X76783736Y-112015000D01*
X76185000Y-111416264D01*
X76185000Y-110523795D01*
X76364716Y-110523795D01*
X76613106Y-111124943D01*
X77072637Y-111585278D01*
X77673352Y-111834716D01*
X78323795Y-111835284D01*
X78924943Y-111586894D01*
X79385278Y-111127363D01*
X79634716Y-110526648D01*
X79635284Y-109876205D01*
X79386894Y-109275057D01*
X78927363Y-108814722D01*
X78326648Y-108565284D01*
X77676205Y-108564716D01*
X77075057Y-108813106D01*
X76614722Y-109272637D01*
X76365284Y-109873352D01*
X76364716Y-110523795D01*
X76185000Y-110523795D01*
X76185000Y-106000000D01*
X76132857Y-105737862D01*
X75984368Y-105515632D01*
X74984368Y-104515632D01*
X74776890Y-104377000D01*
X74800000Y-104377000D01*
X74846159Y-104368315D01*
X74888553Y-104341035D01*
X74916994Y-104299410D01*
X74927000Y-104250000D01*
X74927000Y-104130328D01*
X74946431Y-104101890D01*
X74997440Y-103850000D01*
X74997440Y-102984677D01*
X76814794Y-102984677D01*
X76823000Y-103004537D01*
X76823000Y-103994485D01*
X76815206Y-104013255D01*
X76814794Y-104484677D01*
X76994820Y-104920372D01*
X77327875Y-105254009D01*
X77763255Y-105434794D01*
X78234677Y-105435206D01*
X78670372Y-105255180D01*
X79004009Y-104922125D01*
X79184794Y-104486745D01*
X79185206Y-104015323D01*
X79177000Y-103995463D01*
X79177000Y-103005515D01*
X79184794Y-102986745D01*
X79184795Y-102984677D01*
X80814794Y-102984677D01*
X80823000Y-103004537D01*
X80823000Y-103994485D01*
X80815206Y-104013255D01*
X80814794Y-104484677D01*
X80994820Y-104920372D01*
X81327875Y-105254009D01*
X81763255Y-105434794D01*
X82234677Y-105435206D01*
X82670372Y-105255180D01*
X83004009Y-104922125D01*
X83184794Y-104486745D01*
X83185206Y-104015323D01*
X83177000Y-103995463D01*
X83177000Y-103005515D01*
X83184794Y-102986745D01*
X83185206Y-102515323D01*
X83005180Y-102079628D01*
X82824884Y-101899016D01*
X85280590Y-101899016D01*
X85336271Y-102129611D01*
X85819078Y-102297622D01*
X86329428Y-102268083D01*
X86663729Y-102129611D01*
X86719410Y-101899016D01*
X86000000Y-101179605D01*
X85280590Y-101899016D01*
X82824884Y-101899016D01*
X82672125Y-101745991D01*
X82236745Y-101565206D01*
X81765323Y-101564794D01*
X81329628Y-101744820D01*
X80995991Y-102077875D01*
X80815206Y-102513255D01*
X80814794Y-102984677D01*
X79184795Y-102984677D01*
X79185206Y-102515323D01*
X79005180Y-102079628D01*
X78672125Y-101745991D01*
X78236745Y-101565206D01*
X77765323Y-101564794D01*
X77329628Y-101744820D01*
X76995991Y-102077875D01*
X76815206Y-102513255D01*
X76814794Y-102984677D01*
X74997440Y-102984677D01*
X74997440Y-102150000D01*
X74953162Y-101914683D01*
X74927000Y-101874026D01*
X74927000Y-101700000D01*
X74918315Y-101653841D01*
X74891035Y-101611447D01*
X74849410Y-101583006D01*
X74800000Y-101573000D01*
X74630328Y-101573000D01*
X74601890Y-101553569D01*
X74350000Y-101502560D01*
X72650000Y-101502560D01*
X72414683Y-101546838D01*
X72374026Y-101573000D01*
X71397846Y-101573000D01*
X70960000Y-101485907D01*
X70522154Y-101573000D01*
X68811840Y-101573000D01*
X68776890Y-101558524D01*
X68749460Y-101573000D01*
X68090540Y-101573000D01*
X68063110Y-101558524D01*
X68028160Y-101573000D01*
X66271840Y-101573000D01*
X66236890Y-101558524D01*
X66209460Y-101573000D01*
X65550540Y-101573000D01*
X65523110Y-101558524D01*
X65488160Y-101573000D01*
X63731840Y-101573000D01*
X63696890Y-101558524D01*
X63669460Y-101573000D01*
X63010540Y-101573000D01*
X62983110Y-101558524D01*
X62948160Y-101573000D01*
X61685000Y-101573000D01*
X61685000Y-100819078D01*
X84702378Y-100819078D01*
X84731917Y-101329428D01*
X84870389Y-101663729D01*
X85100984Y-101719410D01*
X85820395Y-101000000D01*
X86179605Y-101000000D01*
X86899016Y-101719410D01*
X86906169Y-101717683D01*
X86909995Y-101726943D01*
X87271155Y-102088735D01*
X87743276Y-102284777D01*
X88254481Y-102285223D01*
X88274382Y-102277000D01*
X89724547Y-102277000D01*
X89743276Y-102284777D01*
X90254481Y-102285223D01*
X90726943Y-102090005D01*
X91088735Y-101728845D01*
X91284777Y-101256724D01*
X91285223Y-100745519D01*
X91090005Y-100273057D01*
X90728845Y-99911265D01*
X90256724Y-99715223D01*
X89745519Y-99714777D01*
X89725618Y-99723000D01*
X88275453Y-99723000D01*
X88256724Y-99715223D01*
X87745519Y-99714777D01*
X87273057Y-99909995D01*
X86911265Y-100271155D01*
X86906588Y-100282418D01*
X86899016Y-100280590D01*
X86179605Y-101000000D01*
X85820395Y-101000000D01*
X85100984Y-100280590D01*
X84870389Y-100336271D01*
X84702378Y-100819078D01*
X61685000Y-100819078D01*
X61685000Y-100100984D01*
X85280590Y-100100984D01*
X86000000Y-100820395D01*
X86719410Y-100100984D01*
X86663729Y-99870389D01*
X86180922Y-99702378D01*
X85670572Y-99731917D01*
X85336271Y-99870389D01*
X85280590Y-100100984D01*
X61685000Y-100100984D01*
X61685000Y-99000000D01*
X61632857Y-98737862D01*
X61484368Y-98515632D01*
X61262138Y-98367143D01*
X61127000Y-98340262D01*
X61127000Y-97356892D01*
X82018114Y-97356892D01*
X82264417Y-97881358D01*
X82692676Y-98271645D01*
X83102710Y-98441476D01*
X83332600Y-98320155D01*
X83332600Y-97127000D01*
X82138781Y-97127000D01*
X82018114Y-97356892D01*
X61127000Y-97356892D01*
X61127000Y-96659738D01*
X61262138Y-96632857D01*
X61484368Y-96484368D01*
X61632857Y-96262138D01*
X61685000Y-96000000D01*
X61685000Y-93285167D01*
X67064838Y-93285167D01*
X67206883Y-93628943D01*
X67469673Y-93892192D01*
X67813201Y-94034838D01*
X68185167Y-94035162D01*
X68528943Y-93893117D01*
X68792192Y-93630327D01*
X68934838Y-93286799D01*
X68934879Y-93239923D01*
X69114802Y-93060000D01*
X72600000Y-93060000D01*
X72890839Y-93002148D01*
X73137401Y-92837401D01*
X73937401Y-92037401D01*
X74102148Y-91790839D01*
X74160000Y-91500000D01*
X74160000Y-89923567D01*
X79353172Y-89923567D01*
X80000000Y-90570395D01*
X80646828Y-89923567D01*
X80603492Y-89703299D01*
X80156999Y-89552028D01*
X79686604Y-89583137D01*
X79396508Y-89703299D01*
X79353172Y-89923567D01*
X74160000Y-89923567D01*
X74160000Y-87662463D01*
X74192192Y-87630327D01*
X74334838Y-87286799D01*
X74335162Y-86914833D01*
X74193117Y-86571057D01*
X73930327Y-86307808D01*
X73586799Y-86165162D01*
X73214833Y-86164838D01*
X72871057Y-86306883D01*
X72607808Y-86569673D01*
X72465162Y-86913201D01*
X72464838Y-87285167D01*
X72606883Y-87628943D01*
X72640000Y-87662118D01*
X72640000Y-91185198D01*
X72285198Y-91540000D01*
X68800000Y-91540000D01*
X68509161Y-91597852D01*
X68262599Y-91762599D01*
X67860320Y-92164878D01*
X67814833Y-92164838D01*
X67471057Y-92306883D01*
X67207808Y-92569673D01*
X67065162Y-92913201D01*
X67064838Y-93285167D01*
X61685000Y-93285167D01*
X61685000Y-82000000D01*
X61632857Y-81737862D01*
X61484368Y-81515632D01*
X61262138Y-81367143D01*
X61127000Y-81340262D01*
X61127000Y-79659738D01*
X61262138Y-79632857D01*
X61484368Y-79484368D01*
X61632857Y-79262138D01*
X61685000Y-79000000D01*
X61685000Y-78234677D01*
X64714794Y-78234677D01*
X64894820Y-78670372D01*
X65227875Y-79004009D01*
X65663255Y-79184794D01*
X66134677Y-79185206D01*
X66473000Y-79045413D01*
X66473000Y-81954831D01*
X66136745Y-81815206D01*
X65665323Y-81814794D01*
X65229628Y-81994820D01*
X64895991Y-82327875D01*
X64715206Y-82763255D01*
X64714794Y-83234677D01*
X64894820Y-83670372D01*
X65224155Y-84000283D01*
X64895991Y-84327875D01*
X64715206Y-84763255D01*
X64714794Y-85234677D01*
X64894820Y-85670372D01*
X65227875Y-86004009D01*
X65663255Y-86184794D01*
X66134677Y-86185206D01*
X66473000Y-86045413D01*
X66473000Y-88954831D01*
X66136745Y-88815206D01*
X65665323Y-88814794D01*
X65229628Y-88994820D01*
X64895991Y-89327875D01*
X64715206Y-89763255D01*
X64714794Y-90234677D01*
X64894820Y-90670372D01*
X65227875Y-91004009D01*
X65663255Y-91184794D01*
X66134677Y-91185206D01*
X66570372Y-91005180D01*
X66904009Y-90672125D01*
X67084794Y-90236745D01*
X67084890Y-90127000D01*
X69500000Y-90127000D01*
X69546159Y-90118315D01*
X69588553Y-90091035D01*
X69616994Y-90049410D01*
X69627000Y-90000000D01*
X69627000Y-79385167D01*
X75764838Y-79385167D01*
X75874359Y-79650228D01*
X75765162Y-79913201D01*
X75764838Y-80285167D01*
X75874359Y-80550228D01*
X75765162Y-80813201D01*
X75764838Y-81185167D01*
X75895069Y-81500351D01*
X75765162Y-81813201D01*
X75764838Y-82185167D01*
X75874359Y-82450228D01*
X75765162Y-82713201D01*
X75764838Y-83085167D01*
X75906883Y-83428943D01*
X76169673Y-83692192D01*
X76513201Y-83834838D01*
X76885167Y-83835162D01*
X77150661Y-83725463D01*
X80264878Y-86839680D01*
X80264838Y-86885167D01*
X80406883Y-87228943D01*
X80669673Y-87492192D01*
X81013201Y-87634838D01*
X81385167Y-87635162D01*
X81728943Y-87493117D01*
X81782932Y-87439222D01*
X82013201Y-87534838D01*
X82385167Y-87535162D01*
X82656620Y-87423000D01*
X83772600Y-87423000D01*
X83772600Y-87403000D01*
X84026600Y-87403000D01*
X84026600Y-87423000D01*
X84046600Y-87423000D01*
X84046600Y-87677000D01*
X84026600Y-87677000D01*
X84026600Y-87697000D01*
X83772600Y-87697000D01*
X83772600Y-87677000D01*
X82523350Y-87677000D01*
X82364600Y-87835750D01*
X82364600Y-88355794D01*
X81643404Y-89076990D01*
X81571057Y-89106883D01*
X81307808Y-89369673D01*
X81165162Y-89713201D01*
X81165125Y-89755269D01*
X80710197Y-90210197D01*
X80691226Y-90238379D01*
X80179605Y-90750000D01*
X80193748Y-90764143D01*
X80014143Y-90943748D01*
X80000000Y-90929605D01*
X79985858Y-90943748D01*
X79806253Y-90764143D01*
X79820395Y-90750000D01*
X79173567Y-90103172D01*
X78953299Y-90146508D01*
X78802028Y-90593001D01*
X78820545Y-90873000D01*
X78800000Y-90873000D01*
X78753841Y-90881685D01*
X78711447Y-90908965D01*
X78683006Y-90950590D01*
X78673000Y-91000000D01*
X78673000Y-93400000D01*
X78681685Y-93446159D01*
X78708965Y-93488553D01*
X78750590Y-93516994D01*
X78800000Y-93527000D01*
X80694304Y-93527000D01*
X80640000Y-93800000D01*
X80640000Y-95237537D01*
X80607808Y-95269673D01*
X80465162Y-95613201D01*
X80464838Y-95985167D01*
X80606883Y-96328943D01*
X80869673Y-96592192D01*
X81213201Y-96734838D01*
X81585167Y-96735162D01*
X81928943Y-96593117D01*
X82074219Y-96448094D01*
X82111595Y-96444054D01*
X82018114Y-96643108D01*
X82138781Y-96873000D01*
X83332600Y-96873000D01*
X83332600Y-96853000D01*
X83586600Y-96853000D01*
X83586600Y-96873000D01*
X83606600Y-96873000D01*
X83606600Y-97127000D01*
X83586600Y-97127000D01*
X83586600Y-98095330D01*
X83583006Y-98100590D01*
X83573000Y-98150000D01*
X83573000Y-98400000D01*
X83581685Y-98446159D01*
X83608965Y-98488553D01*
X83650590Y-98516994D01*
X83700000Y-98527000D01*
X86000000Y-98527000D01*
X86029704Y-98523477D01*
X86030583Y-98523068D01*
X86050000Y-98527000D01*
X89950000Y-98527000D01*
X89996159Y-98518315D01*
X90038553Y-98491035D01*
X90066994Y-98449410D01*
X90077000Y-98400000D01*
X90077000Y-96260000D01*
X92300000Y-96260000D01*
X92590839Y-96202148D01*
X92837401Y-96037401D01*
X94214802Y-94660000D01*
X96000000Y-94660000D01*
X96290839Y-94602148D01*
X96537401Y-94437401D01*
X96639680Y-94335122D01*
X96685167Y-94335162D01*
X97028943Y-94193117D01*
X97292192Y-93930327D01*
X97326239Y-93848333D01*
X97569673Y-94092192D01*
X97913201Y-94234838D01*
X98285167Y-94235162D01*
X98628943Y-94093117D01*
X98892192Y-93830327D01*
X99034838Y-93486799D01*
X99034850Y-93473315D01*
X99228943Y-93393117D01*
X99492192Y-93130327D01*
X99634838Y-92786799D01*
X99635099Y-92486972D01*
X99892192Y-92230327D01*
X100034838Y-91886799D01*
X100035162Y-91514833D01*
X99925641Y-91249772D01*
X100034838Y-90986799D01*
X100035162Y-90614833D01*
X99893117Y-90271057D01*
X99630327Y-90007808D01*
X99286799Y-89865162D01*
X98914833Y-89864838D01*
X98571057Y-90006883D01*
X98537882Y-90040000D01*
X98200000Y-90040000D01*
X97964728Y-90086799D01*
X97909160Y-90097852D01*
X97662599Y-90262599D01*
X97485198Y-90440000D01*
X91714802Y-90440000D01*
X91660000Y-90385198D01*
X91660000Y-87885167D01*
X102564838Y-87885167D01*
X102706883Y-88228943D01*
X102969673Y-88492192D01*
X103313201Y-88634838D01*
X103360077Y-88634879D01*
X103462599Y-88737401D01*
X103709161Y-88902148D01*
X104000000Y-88960000D01*
X112685198Y-88960000D01*
X112740000Y-89014802D01*
X112740000Y-89137077D01*
X112571057Y-89206883D01*
X112307808Y-89469673D01*
X112165162Y-89813201D01*
X112164838Y-90185167D01*
X112306883Y-90528943D01*
X112569673Y-90792192D01*
X112913201Y-90934838D01*
X113285167Y-90935162D01*
X113628943Y-90793117D01*
X113892192Y-90530327D01*
X114034838Y-90186799D01*
X114034879Y-90139923D01*
X114037401Y-90137401D01*
X114202148Y-89890840D01*
X114227526Y-89763255D01*
X114260000Y-89600000D01*
X114260000Y-88700000D01*
X114202148Y-88409161D01*
X114037401Y-88162599D01*
X113537401Y-87662599D01*
X113290839Y-87497852D01*
X113000000Y-87440000D01*
X104404242Y-87440000D01*
X104293117Y-87171057D01*
X104030327Y-86907808D01*
X103686799Y-86765162D01*
X103314833Y-86764838D01*
X102971057Y-86906883D01*
X102707808Y-87169673D01*
X102565162Y-87513201D01*
X102564838Y-87885167D01*
X91660000Y-87885167D01*
X91660000Y-85100000D01*
X91627000Y-84934099D01*
X91627000Y-83400000D01*
X91617666Y-83352211D01*
X91589803Y-83310197D01*
X91323010Y-83043404D01*
X91293117Y-82971057D01*
X91030327Y-82707808D01*
X90956942Y-82677336D01*
X90664773Y-82385167D01*
X97464838Y-82385167D01*
X97606883Y-82728943D01*
X97869673Y-82992192D01*
X98213201Y-83134838D01*
X98585167Y-83135162D01*
X98928943Y-82993117D01*
X99192192Y-82730327D01*
X99334838Y-82386799D01*
X99335162Y-82014833D01*
X99193117Y-81671057D01*
X99160000Y-81637882D01*
X99160000Y-81412747D01*
X99213201Y-81434838D01*
X99585167Y-81435162D01*
X99928943Y-81293117D01*
X99962118Y-81260000D01*
X102785198Y-81260000D01*
X102940000Y-81414802D01*
X102940000Y-82237537D01*
X102907808Y-82269673D01*
X102765162Y-82613201D01*
X102764838Y-82985167D01*
X102906883Y-83328943D01*
X103169673Y-83592192D01*
X103513201Y-83734838D01*
X103885167Y-83735162D01*
X104228943Y-83593117D01*
X104492192Y-83330327D01*
X104634838Y-82986799D01*
X104635162Y-82614833D01*
X104493117Y-82271057D01*
X104460000Y-82237882D01*
X104460000Y-81260000D01*
X108200000Y-81260000D01*
X108490839Y-81202148D01*
X108737401Y-81037401D01*
X109537401Y-80237401D01*
X109702148Y-79990839D01*
X109760000Y-79700000D01*
X109760000Y-78862463D01*
X109792192Y-78830327D01*
X109934838Y-78486799D01*
X109935162Y-78114833D01*
X109793117Y-77771057D01*
X109530327Y-77507808D01*
X109186799Y-77365162D01*
X108814833Y-77364838D01*
X108471057Y-77506883D01*
X108207808Y-77769673D01*
X108065162Y-78113201D01*
X108064838Y-78485167D01*
X108206883Y-78828943D01*
X108240000Y-78862118D01*
X108240000Y-79385198D01*
X107885198Y-79740000D01*
X105234803Y-79740000D01*
X105437401Y-79537402D01*
X105569300Y-79340000D01*
X105602148Y-79290839D01*
X105660000Y-79000000D01*
X105660000Y-77962923D01*
X105828943Y-77893117D01*
X106092192Y-77630327D01*
X106234838Y-77286799D01*
X106235162Y-76914833D01*
X106093117Y-76571057D01*
X105830327Y-76307808D01*
X105486799Y-76165162D01*
X105114833Y-76164838D01*
X104771057Y-76306883D01*
X104507808Y-76569673D01*
X104365162Y-76913201D01*
X104365121Y-76960077D01*
X104362599Y-76962599D01*
X104197852Y-77209161D01*
X104140000Y-77500000D01*
X104140000Y-78685197D01*
X103885198Y-78940000D01*
X99100000Y-78940000D01*
X98809161Y-78997852D01*
X98798194Y-79005180D01*
X98562598Y-79162599D01*
X97862599Y-79862599D01*
X97697852Y-80109161D01*
X97640000Y-80400000D01*
X97640000Y-81637537D01*
X97607808Y-81669673D01*
X97465162Y-82013201D01*
X97464838Y-82385167D01*
X90664773Y-82385167D01*
X90037040Y-81757434D01*
X90037040Y-80150000D01*
X90027000Y-80096642D01*
X90027000Y-79700000D01*
X90018315Y-79653841D01*
X89991035Y-79611447D01*
X89949410Y-79583006D01*
X89900000Y-79573000D01*
X89669928Y-79573000D01*
X89641490Y-79553569D01*
X89389600Y-79502560D01*
X87689600Y-79502560D01*
X87454283Y-79546838D01*
X87413626Y-79573000D01*
X86437446Y-79573000D01*
X85999600Y-79485907D01*
X85561754Y-79573000D01*
X83897446Y-79573000D01*
X83459600Y-79485907D01*
X83021754Y-79573000D01*
X79547802Y-79573000D01*
X78637401Y-78662599D01*
X78390839Y-78497852D01*
X78100000Y-78440000D01*
X77262463Y-78440000D01*
X77230327Y-78407808D01*
X76886799Y-78265162D01*
X76514833Y-78264838D01*
X76171057Y-78406883D01*
X75907808Y-78669673D01*
X75765162Y-79013201D01*
X75764838Y-79385167D01*
X69627000Y-79385167D01*
X69627000Y-78100000D01*
X69618315Y-78053841D01*
X69591035Y-78011447D01*
X69549410Y-77983006D01*
X69500000Y-77973000D01*
X67085025Y-77973000D01*
X67085206Y-77765323D01*
X66905180Y-77329628D01*
X66572125Y-76995991D01*
X66136745Y-76815206D01*
X65665323Y-76814794D01*
X65229628Y-76994820D01*
X64895991Y-77327875D01*
X64715206Y-77763255D01*
X64714794Y-78234677D01*
X61685000Y-78234677D01*
X61685000Y-76427000D01*
X62902154Y-76427000D01*
X63340000Y-76514093D01*
X63777846Y-76427000D01*
X65442154Y-76427000D01*
X65880000Y-76514093D01*
X66317846Y-76427000D01*
X67982154Y-76427000D01*
X68420000Y-76514093D01*
X68857846Y-76427000D01*
X70522154Y-76427000D01*
X70960000Y-76514093D01*
X71397846Y-76427000D01*
X72369672Y-76427000D01*
X72398110Y-76446431D01*
X72650000Y-76497440D01*
X74350000Y-76497440D01*
X74585317Y-76453162D01*
X74625974Y-76427000D01*
X74800000Y-76427000D01*
X74846159Y-76418315D01*
X74888553Y-76391035D01*
X74916994Y-76349410D01*
X74927000Y-76300000D01*
X74927000Y-76130328D01*
X74946431Y-76101890D01*
X74997440Y-75850000D01*
X74997440Y-74150000D01*
X74953162Y-73914683D01*
X74927000Y-73874026D01*
X74927000Y-73700000D01*
X74918315Y-73653841D01*
X74891035Y-73611447D01*
X74849410Y-73583006D01*
X74839691Y-73581038D01*
X74984368Y-73484368D01*
X75984368Y-72484368D01*
X76132857Y-72262138D01*
X76185000Y-72000000D01*
X76185000Y-68123795D01*
X76364716Y-68123795D01*
X76613106Y-68724943D01*
X77072637Y-69185278D01*
X77673352Y-69434716D01*
X78323795Y-69435284D01*
X78924943Y-69186894D01*
X79385278Y-68727363D01*
X79634716Y-68126648D01*
X79635284Y-67476205D01*
X79386894Y-66875057D01*
X78927363Y-66414722D01*
X78326648Y-66165284D01*
X77676205Y-66164716D01*
X77075057Y-66413106D01*
X76614722Y-66872637D01*
X76365284Y-67473352D01*
X76364716Y-68123795D01*
X76185000Y-68123795D01*
X76185000Y-66583736D01*
X76783736Y-65985000D01*
X79216264Y-65985000D01*
X79815000Y-66583736D01*
G36*
X106125000Y-102773000D02*
X106147000Y-102773000D01*
X106147000Y-103027000D01*
X106125000Y-103027000D01*
X106125000Y-103047000D01*
X105897440Y-103047000D01*
X105897440Y-102753000D01*
X106125000Y-102753000D01*
X106125000Y-102773000D01*
X106125000Y-102773000D01*
G37*
X106125000Y-102773000D02*
X106147000Y-102773000D01*
X106147000Y-103027000D01*
X106125000Y-103027000D01*
X106125000Y-103047000D01*
X105897440Y-103047000D01*
X105897440Y-102753000D01*
X106125000Y-102753000D01*
X106125000Y-102773000D01*
G36*
X106125000Y-100273000D02*
X106147000Y-100273000D01*
X106147000Y-100527000D01*
X106125000Y-100527000D01*
X106125000Y-100547000D01*
X105897440Y-100547000D01*
X105897440Y-100253000D01*
X106125000Y-100253000D01*
X106125000Y-100273000D01*
X106125000Y-100273000D01*
G37*
X106125000Y-100273000D02*
X106147000Y-100273000D01*
X106147000Y-100527000D01*
X106125000Y-100527000D01*
X106125000Y-100547000D01*
X105897440Y-100547000D01*
X105897440Y-100253000D01*
X106125000Y-100253000D01*
X106125000Y-100273000D01*
G36*
X106125000Y-97773000D02*
X106147000Y-97773000D01*
X106147000Y-98027000D01*
X106125000Y-98027000D01*
X106125000Y-98047000D01*
X105897440Y-98047000D01*
X105897440Y-97753000D01*
X106125000Y-97753000D01*
X106125000Y-97773000D01*
X106125000Y-97773000D01*
G37*
X106125000Y-97773000D02*
X106147000Y-97773000D01*
X106147000Y-98027000D01*
X106125000Y-98027000D01*
X106125000Y-98047000D01*
X105897440Y-98047000D01*
X105897440Y-97753000D01*
X106125000Y-97753000D01*
X106125000Y-97773000D01*
G36*
X106125000Y-95273000D02*
X106147000Y-95273000D01*
X106147000Y-95527000D01*
X106125000Y-95527000D01*
X106125000Y-95547000D01*
X105897440Y-95547000D01*
X105897440Y-95253000D01*
X106125000Y-95253000D01*
X106125000Y-95273000D01*
X106125000Y-95273000D01*
G37*
X106125000Y-95273000D02*
X106147000Y-95273000D01*
X106147000Y-95527000D01*
X106125000Y-95527000D01*
X106125000Y-95547000D01*
X105897440Y-95547000D01*
X105897440Y-95253000D01*
X106125000Y-95253000D01*
X106125000Y-95273000D01*
M02*
