G04 #@! TF.FileFunction,Copper,L1,Top,Signal*
%FSLAX46Y46*%
G04 Gerber Fmt 4.6, Leading zero omitted, Abs format (unit mm)*
G04 Created by KiCad (PCBNEW 4.0.1-stable) date 2018/06/25 22:31:08*
%MOMM*%
G01*
G04 APERTURE LIST*
%ADD10C,0.100000*%
%ADD11C,1.500000*%
%ADD12R,3.400000X1.700000*%
%ADD13R,1.780000X0.720000*%
%ADD14R,0.500000X0.700000*%
%ADD15R,0.700000X0.500000*%
%ADD16R,0.800000X0.900000*%
%ADD17R,1.700000X3.400000*%
%ADD18R,0.900000X0.800000*%
%ADD19R,0.500000X1.100000*%
%ADD20R,1.600000X1.400000*%
%ADD21R,5.000000X1.200000*%
%ADD22R,0.700000X0.300000*%
%ADD23R,1.400000X0.300000*%
%ADD24R,0.300000X1.400000*%
%ADD25R,2.150000X3.250000*%
%ADD26R,2.150000X1.300000*%
%ADD27C,1.524000*%
%ADD28R,0.800000X1.200000*%
%ADD29R,1.700000X1.700000*%
%ADD30O,1.700000X1.700000*%
%ADD31C,1.600000*%
%ADD32C,1.100000*%
%ADD33C,1.300000*%
%ADD34C,0.600000*%
%ADD35C,0.250000*%
%ADD36C,0.200000*%
%ADD37C,1.500000*%
%ADD38C,1.000000*%
%ADD39C,0.500000*%
%ADD40C,0.400000*%
%ADD41C,0.700000*%
%ADD42C,0.800000*%
%ADD43C,0.254000*%
G04 APERTURE END LIST*
D10*
D11*
X68000000Y-81500000D03*
X68000000Y-79500000D03*
D12*
X75400000Y-95000000D03*
X70600000Y-95000000D03*
D13*
X73400000Y-82095000D03*
X73400000Y-83365000D03*
X73400000Y-84635000D03*
X73400000Y-85905000D03*
X78600000Y-85905000D03*
X78600000Y-84635000D03*
X78600000Y-83365000D03*
X78600000Y-82095000D03*
D14*
X111800000Y-90200000D03*
X111800000Y-91400000D03*
X110800000Y-90200000D03*
X110800000Y-91400000D03*
X108000000Y-93500000D03*
X108000000Y-94700000D03*
D15*
X103700000Y-83500000D03*
X104900000Y-83500000D03*
D14*
X105500000Y-97900000D03*
X105500000Y-99100000D03*
X101000000Y-76400000D03*
X101000000Y-75200000D03*
D16*
X79500000Y-72950000D03*
X79500000Y-74750000D03*
D15*
X94400000Y-84300000D03*
X95600000Y-84300000D03*
D17*
X92500000Y-77400000D03*
X92500000Y-72600000D03*
D15*
X95600000Y-85400000D03*
X94400000Y-85400000D03*
X93500000Y-97600000D03*
X94700000Y-97600000D03*
X94700000Y-96400000D03*
X93500000Y-96400000D03*
D18*
X98400000Y-80500000D03*
X96600000Y-80500000D03*
D14*
X68000000Y-95500000D03*
X68000000Y-96700000D03*
D15*
X102600000Y-76400000D03*
X103800000Y-76400000D03*
D14*
X109500000Y-101900000D03*
X109500000Y-103100000D03*
D15*
X103800000Y-75200000D03*
X102600000Y-75200000D03*
X73600000Y-88400000D03*
X72400000Y-88400000D03*
X94400000Y-83200000D03*
X95600000Y-83200000D03*
D14*
X94500000Y-99900000D03*
X94500000Y-101100000D03*
X96000000Y-99900000D03*
X96000000Y-101100000D03*
X97500000Y-99900000D03*
X97500000Y-101100000D03*
X119800000Y-70800000D03*
X119800000Y-69600000D03*
X125000000Y-84900000D03*
X125000000Y-83700000D03*
D15*
X108500000Y-59100000D03*
X107300000Y-59100000D03*
D19*
X98450000Y-75650000D03*
X97500000Y-75650000D03*
X96550000Y-75650000D03*
X96550000Y-78350000D03*
X98450000Y-78350000D03*
D20*
X102200000Y-101000000D03*
X102200000Y-104000000D03*
X107800000Y-101000000D03*
X107800000Y-104000000D03*
D21*
X64000000Y-93000000D03*
X64000000Y-95500000D03*
X64000000Y-98000000D03*
D22*
X105650000Y-75300000D03*
X105650000Y-75800000D03*
X105650000Y-76300000D03*
X107350000Y-76300000D03*
X107350000Y-75300000D03*
D23*
X106350000Y-95250000D03*
X106350000Y-94750000D03*
X106350000Y-94250000D03*
X106350000Y-93750000D03*
X106350000Y-93250000D03*
X106350000Y-92750000D03*
X106350000Y-92250000D03*
X106350000Y-91750000D03*
X106350000Y-91250000D03*
X106350000Y-90750000D03*
X106350000Y-90250000D03*
X106350000Y-89750000D03*
X106350000Y-89250000D03*
X106350000Y-88750000D03*
X106350000Y-88250000D03*
X106350000Y-87750000D03*
D24*
X104250000Y-85650000D03*
X103750000Y-85650000D03*
X103250000Y-85650000D03*
X102750000Y-85650000D03*
X102250000Y-85650000D03*
X101750000Y-85650000D03*
X101250000Y-85650000D03*
X100750000Y-85650000D03*
X100250000Y-85650000D03*
X99750000Y-85650000D03*
X99250000Y-85650000D03*
X98750000Y-85650000D03*
X98250000Y-85650000D03*
X97750000Y-85650000D03*
X97250000Y-85650000D03*
X96750000Y-85650000D03*
D23*
X94650000Y-87750000D03*
X94650000Y-88250000D03*
X94650000Y-88750000D03*
X94650000Y-89250000D03*
X94650000Y-89750000D03*
X94650000Y-90250000D03*
X94650000Y-90750000D03*
X94650000Y-91250000D03*
X94650000Y-91750000D03*
X94650000Y-92250000D03*
X94650000Y-92750000D03*
X94650000Y-93250000D03*
X94650000Y-93750000D03*
X94650000Y-94250000D03*
X94650000Y-94750000D03*
X94650000Y-95250000D03*
D24*
X96750000Y-97350000D03*
X97250000Y-97350000D03*
X97750000Y-97350000D03*
X98250000Y-97350000D03*
X98750000Y-97350000D03*
X99250000Y-97350000D03*
X99750000Y-97350000D03*
X100250000Y-97350000D03*
X100750000Y-97350000D03*
X101250000Y-97350000D03*
X101750000Y-97350000D03*
X102250000Y-97350000D03*
X102750000Y-97350000D03*
X103250000Y-97350000D03*
X103750000Y-97350000D03*
X104250000Y-97350000D03*
D25*
X87900000Y-75000000D03*
D26*
X82100000Y-75000000D03*
X82100000Y-77300000D03*
X82100000Y-72700000D03*
D27*
X120073203Y-64081505D03*
X118357204Y-62208820D03*
X118200518Y-65797504D03*
X116484519Y-63924819D03*
X116070666Y-60057861D03*
X114096716Y-58459387D03*
X114472192Y-62031811D03*
X112498242Y-60433337D03*
X111517362Y-56670026D03*
X109328824Y-55380878D03*
X110228214Y-58858564D03*
X108039676Y-57569416D03*
X127968695Y-79025442D03*
X127226071Y-76596428D03*
X125539681Y-79768066D03*
X124797057Y-77339052D03*
X126088288Y-73670623D03*
X124994790Y-71378057D03*
X123795722Y-74764121D03*
X122702224Y-72471555D03*
X123437043Y-68652566D03*
X122016693Y-66546810D03*
X121331287Y-70072916D03*
X119910937Y-67967160D03*
X128661519Y-95912716D03*
X129036955Y-93400616D03*
X126149419Y-95537280D03*
X126524855Y-93025180D03*
X129269600Y-90270000D03*
X129269600Y-87730000D03*
X126729600Y-90270000D03*
X126729600Y-87730000D03*
X129036955Y-84599384D03*
X128661519Y-82087284D03*
X126524855Y-84974820D03*
X126149419Y-82462720D03*
X122016693Y-111453370D03*
X123437043Y-109347614D03*
X119910937Y-110033020D03*
X121331287Y-107927264D03*
X124994790Y-106621943D03*
X126088288Y-104329377D03*
X122702224Y-105528445D03*
X123795722Y-103235879D03*
X127226071Y-101403572D03*
X127968695Y-98974558D03*
X124797057Y-100660948D03*
X125539681Y-98231934D03*
X109328824Y-122619122D03*
X111517362Y-121329974D03*
X108039676Y-120430584D03*
X110228214Y-119141436D03*
X114096716Y-119540613D03*
X116070666Y-117942139D03*
X112498242Y-117566663D03*
X114472192Y-115968189D03*
X118357204Y-115791180D03*
X120073203Y-113918495D03*
X116484519Y-114075181D03*
X118200518Y-112202496D03*
D28*
X78950000Y-97900000D03*
X77050000Y-97900000D03*
X78000000Y-100100000D03*
D14*
X80300000Y-94900000D03*
X80300000Y-96100000D03*
X79300000Y-96100000D03*
X79300000Y-94900000D03*
D29*
X73500000Y-75000000D03*
D30*
X70960000Y-75000000D03*
X68420000Y-75000000D03*
X65880000Y-75000000D03*
X63340000Y-75000000D03*
D29*
X50500000Y-75000000D03*
D30*
X47960000Y-75000000D03*
X45420000Y-75000000D03*
X42880000Y-75000000D03*
X40340000Y-75000000D03*
D29*
X50500000Y-103000000D03*
D30*
X47960000Y-103000000D03*
X45420000Y-103000000D03*
X42880000Y-103000000D03*
X40340000Y-103000000D03*
D29*
X73500000Y-103000000D03*
D30*
X70960000Y-103000000D03*
X68420000Y-103000000D03*
X65880000Y-103000000D03*
X63340000Y-103000000D03*
D31*
X43850000Y-98810000D03*
X46390000Y-98810000D03*
X48930000Y-98810000D03*
X51470000Y-98810000D03*
X54010000Y-98810000D03*
X56550000Y-98810000D03*
X56550000Y-91190000D03*
X54010000Y-91190000D03*
X51470000Y-91190000D03*
X48930000Y-91190000D03*
X46390000Y-91190000D03*
X43850000Y-91190000D03*
X43850000Y-86810000D03*
X46390000Y-86810000D03*
X48930000Y-86810000D03*
X51470000Y-86810000D03*
X54010000Y-86810000D03*
X56550000Y-86810000D03*
X56550000Y-79190000D03*
X54010000Y-79190000D03*
X51470000Y-79190000D03*
X48930000Y-79190000D03*
X46390000Y-79190000D03*
X43850000Y-79190000D03*
D27*
X69810000Y-118000000D03*
X69810000Y-120540000D03*
X69810000Y-123080000D03*
X69810000Y-115460000D03*
X69810000Y-112920000D03*
X62190000Y-112920000D03*
X62190000Y-115460000D03*
X62190000Y-118000000D03*
X62190000Y-120540000D03*
X62190000Y-123080000D03*
D32*
X78000000Y-104250000D03*
X78000000Y-102750000D03*
X82000000Y-104250000D03*
X82000000Y-102750000D03*
D11*
X68000000Y-88500000D03*
X68000000Y-86500000D03*
D29*
X88539600Y-81000000D03*
D30*
X85999600Y-81000000D03*
X83459600Y-81000000D03*
D29*
X68540000Y-110000000D03*
D30*
X66000000Y-110000000D03*
X63460000Y-110000000D03*
D29*
X68540000Y-126000000D03*
D30*
X66000000Y-126000000D03*
X63460000Y-126000000D03*
D29*
X88539600Y-97000000D03*
D30*
X85999600Y-97000000D03*
X83459600Y-97000000D03*
D11*
X40800000Y-84000000D03*
X40800000Y-82000000D03*
X40800000Y-96000000D03*
X40800000Y-94000000D03*
D33*
X90000000Y-101000000D03*
X88000000Y-101000000D03*
X86000000Y-101000000D03*
D16*
X93000000Y-102600000D03*
X93000000Y-104400000D03*
X94500000Y-102600000D03*
X94500000Y-104400000D03*
X96000000Y-102600000D03*
X96000000Y-104400000D03*
X97500000Y-102600000D03*
X97500000Y-104400000D03*
D14*
X93000000Y-99900000D03*
X93000000Y-101100000D03*
D32*
X80000000Y-92250000D03*
X80000000Y-90750000D03*
D16*
X73000000Y-89600000D03*
X73000000Y-91400000D03*
D34*
X113100000Y-90000000D03*
X103500000Y-87700000D03*
X103700000Y-82800000D03*
X81400000Y-95800000D03*
X109000000Y-78300000D03*
X125900000Y-89000000D03*
X99400000Y-80500000D03*
X76700000Y-82900000D03*
X82100000Y-89900000D03*
X81200000Y-86700000D03*
X102600000Y-89300000D03*
X103900000Y-90800000D03*
X98800000Y-87800000D03*
X100300000Y-88700000D03*
X101900000Y-87800000D03*
X93800000Y-98800000D03*
X94400000Y-82400000D03*
X86100000Y-104000000D03*
X87800000Y-105900000D03*
X89000000Y-104000000D03*
X77000000Y-107900000D03*
X79200000Y-107900000D03*
X84200000Y-105900000D03*
X77000000Y-106200000D03*
X79900000Y-106300000D03*
X92800000Y-108000000D03*
X95000000Y-108000000D03*
X95000000Y-106200000D03*
X91400000Y-105900000D03*
X91400000Y-102800000D03*
X83200000Y-100400000D03*
X80500000Y-100000000D03*
X80500000Y-101000000D03*
X84200000Y-102200000D03*
X108000000Y-102400000D03*
X103400000Y-99100000D03*
X77850000Y-93150000D03*
X77850000Y-91950000D03*
X77850000Y-90750000D03*
X80000000Y-89000000D03*
X67800000Y-98200000D03*
X69700000Y-97200000D03*
X67400000Y-101000000D03*
X63340000Y-101000000D03*
X69700000Y-99500000D03*
X71500000Y-101000000D03*
X71500000Y-97600000D03*
X71400000Y-91100000D03*
X68000000Y-91200000D03*
X84500000Y-72200000D03*
X84500000Y-75000000D03*
X84500000Y-73600000D03*
X85700000Y-72200000D03*
X85700000Y-73600000D03*
X90200000Y-75000000D03*
X90200000Y-72300000D03*
X85700000Y-75000000D03*
X87900000Y-72300000D03*
X95300000Y-80500000D03*
X124200000Y-79000000D03*
X89900000Y-92500000D03*
X120400000Y-85600000D03*
X119200000Y-85600000D03*
X117200000Y-85600000D03*
X123000000Y-87600000D03*
X122800000Y-86700000D03*
X120500000Y-86600000D03*
X125700000Y-91700000D03*
X123300000Y-88500000D03*
X117400000Y-109400000D03*
X106300000Y-119600000D03*
X110500000Y-115300000D03*
X99100000Y-91700000D03*
X99100000Y-90800000D03*
X98100000Y-93300000D03*
X98700000Y-92600000D03*
X121000000Y-73600000D03*
X121100000Y-72700000D03*
X125000000Y-88200000D03*
X68000000Y-93100000D03*
X73400000Y-87100000D03*
X98400000Y-82200000D03*
X105300000Y-77100000D03*
X96500000Y-93400000D03*
X90500000Y-83500000D03*
X101100000Y-94300000D03*
X101100000Y-93100000D03*
X103250000Y-95800000D03*
X99600000Y-100000000D03*
X99100000Y-102500000D03*
X114200000Y-112100000D03*
X76700000Y-79200000D03*
X82200000Y-83300000D03*
X76700000Y-80100000D03*
X82200000Y-84400000D03*
X82200000Y-85500000D03*
X76700000Y-81000000D03*
X76700000Y-82000000D03*
X82200000Y-86600000D03*
X52750000Y-88000000D03*
X52300000Y-83300000D03*
X85400000Y-94500000D03*
X92300000Y-94300000D03*
X49800000Y-94800000D03*
X50600000Y-93300000D03*
X56600000Y-94200000D03*
X54700000Y-95000000D03*
X48300000Y-93300000D03*
X52100000Y-94800000D03*
X56550000Y-96250000D03*
X39300000Y-88600000D03*
X39300000Y-97900000D03*
X41800000Y-97900000D03*
X42000000Y-100900000D03*
X39300000Y-100900000D03*
X39700000Y-92000000D03*
X39700000Y-90400000D03*
X40500000Y-99400000D03*
X123900000Y-95800000D03*
X120400000Y-105700000D03*
X122600000Y-100700000D03*
D35*
X98400000Y-80500000D02*
X99400000Y-80500000D01*
X113100000Y-90000000D02*
X112900000Y-90200000D01*
X111800000Y-90200000D02*
X112900000Y-90200000D01*
X103250000Y-87450000D02*
X103250000Y-85650000D01*
X103500000Y-87700000D02*
X103250000Y-87450000D01*
X103700000Y-82800000D02*
X103700000Y-83500000D01*
X103250000Y-85650000D02*
X103250000Y-83950000D01*
X103250000Y-83950000D02*
X103700000Y-83500000D01*
X106350000Y-95250000D02*
X104050000Y-95250000D01*
X98400000Y-90000000D02*
X97400000Y-89000000D01*
X100900000Y-90000000D02*
X98400000Y-90000000D01*
X103000000Y-92100000D02*
X100900000Y-90000000D01*
X103000000Y-94200000D02*
X103000000Y-92100000D01*
X104050000Y-95250000D02*
X103000000Y-94200000D01*
X97400000Y-89400000D02*
X97400000Y-94800000D01*
X95800000Y-96400000D02*
X94700000Y-96400000D01*
X97400000Y-94800000D02*
X95800000Y-96400000D01*
X97400000Y-89400000D02*
X97400000Y-89000000D01*
X97400000Y-89000000D02*
X97400000Y-88000000D01*
X96750000Y-87350000D02*
X96750000Y-85650000D01*
X97400000Y-88000000D02*
X96750000Y-87350000D01*
X94700000Y-96400000D02*
X94700000Y-95300000D01*
X94700000Y-95300000D02*
X94650000Y-95250000D01*
X95600000Y-85400000D02*
X96500000Y-85400000D01*
X96500000Y-85400000D02*
X96750000Y-85650000D01*
X93400000Y-85800000D02*
X93400000Y-86100000D01*
X94000000Y-81600000D02*
X93400000Y-82200000D01*
X93400000Y-82200000D02*
X93400000Y-85800000D01*
X95600000Y-86100000D02*
X95600000Y-85400000D01*
X95200000Y-86500000D02*
X95600000Y-86100000D01*
X93800000Y-86500000D02*
X95200000Y-86500000D01*
X93400000Y-86100000D02*
X93800000Y-86500000D01*
X88539600Y-98060400D02*
X88539600Y-97000000D01*
X87800000Y-98800000D02*
X88539600Y-98060400D01*
X82000000Y-98800000D02*
X87800000Y-98800000D01*
X81400000Y-98200000D02*
X82000000Y-98800000D01*
X81400000Y-97900000D02*
X81400000Y-98200000D01*
X81400000Y-95800000D02*
X81400000Y-97900000D01*
X81200000Y-86700000D02*
X81200000Y-80000000D01*
X82000000Y-79200000D02*
X89900000Y-79200000D01*
X89900000Y-79200000D02*
X91200000Y-80500000D01*
X91200000Y-80500000D02*
X92900000Y-80500000D01*
X92900000Y-80500000D02*
X94000000Y-81600000D01*
X81200000Y-80000000D02*
X82000000Y-79200000D01*
X108300000Y-75300000D02*
X107350000Y-75300000D01*
X109000000Y-76000000D02*
X108300000Y-75300000D01*
X109000000Y-78300000D02*
X109000000Y-76000000D01*
X110800000Y-90200000D02*
X111800000Y-90200000D01*
X106350000Y-89250000D02*
X108250000Y-89250000D01*
X109200000Y-90200000D02*
X110800000Y-90200000D01*
X108250000Y-89250000D02*
X109200000Y-90200000D01*
D36*
X124000000Y-85700000D02*
X124000000Y-88300000D01*
X116300000Y-84900000D02*
X123200000Y-84900000D01*
X123200000Y-84900000D02*
X124000000Y-85700000D01*
X99400000Y-80500000D02*
X100700000Y-79200000D01*
X111200000Y-84900000D02*
X116300000Y-84900000D01*
X109000000Y-82700000D02*
X111200000Y-84900000D01*
X109000000Y-81200000D02*
X109000000Y-82700000D01*
X106900000Y-79100000D02*
X109000000Y-81200000D01*
X100800000Y-79100000D02*
X106900000Y-79100000D01*
X100700000Y-79200000D02*
X100800000Y-79100000D01*
X124700000Y-89000000D02*
X125900000Y-89000000D01*
X124000000Y-88300000D02*
X124700000Y-89000000D01*
D35*
X98450000Y-78350000D02*
X98450000Y-80450000D01*
X98450000Y-80450000D02*
X98400000Y-80500000D01*
X98400000Y-80500000D02*
X98400000Y-81100000D01*
X97900000Y-81600000D02*
X94000000Y-81600000D01*
X98400000Y-81100000D02*
X97900000Y-81600000D01*
X63340000Y-75000000D02*
X64840000Y-76500000D01*
X67000000Y-76500000D02*
X64840000Y-76500000D01*
X68800000Y-78300000D02*
X67000000Y-76500000D01*
X71700000Y-78300000D02*
X68800000Y-78300000D01*
X76300000Y-82900000D02*
X71700000Y-78300000D01*
X76700000Y-82900000D02*
X76300000Y-82900000D01*
X82100000Y-87600000D02*
X82100000Y-89900000D01*
X81200000Y-86700000D02*
X82100000Y-87600000D01*
X106350000Y-95250000D02*
X106350000Y-96350000D01*
X106350000Y-96350000D02*
X106500000Y-96500000D01*
X106500000Y-96500000D02*
X106500000Y-97900000D01*
X104250000Y-97350000D02*
X104950000Y-97350000D01*
X104950000Y-97350000D02*
X105500000Y-97900000D01*
X106500000Y-97900000D02*
X107400000Y-97900000D01*
X107400000Y-97900000D02*
X107800000Y-98300000D01*
X107800000Y-98300000D02*
X107800000Y-101000000D01*
X105500000Y-97900000D02*
X106500000Y-97900000D01*
X102200000Y-101000000D02*
X104500000Y-101000000D01*
X104500000Y-101000000D02*
X107800000Y-101000000D01*
D36*
X116070666Y-117942139D02*
X116070666Y-118729334D01*
X112147336Y-120700000D02*
X111517362Y-121329974D01*
X114600000Y-120700000D02*
X112147336Y-120700000D01*
X115400000Y-119900000D02*
X114600000Y-120700000D01*
X115400000Y-119800000D02*
X115400000Y-119900000D01*
X115400000Y-119400000D02*
X115400000Y-119800000D01*
X116070666Y-118729334D02*
X115400000Y-119400000D01*
X120073203Y-113918495D02*
X120073203Y-115726797D01*
X117857861Y-117942139D02*
X116070666Y-117942139D01*
X120073203Y-115726797D02*
X117857861Y-117942139D01*
X123437043Y-109347614D02*
X123437043Y-109962957D01*
X123437043Y-109962957D02*
X123200000Y-110200000D01*
X121281505Y-113918495D02*
X120073203Y-113918495D01*
X123200000Y-112000000D02*
X121281505Y-113918495D01*
X123200000Y-110200000D02*
X123200000Y-112000000D01*
X126088288Y-104329377D02*
X126088288Y-105688288D01*
X126200000Y-107100000D02*
X123952386Y-109347614D01*
X126200000Y-105800000D02*
X126200000Y-107100000D01*
X126088288Y-105688288D02*
X126200000Y-105800000D01*
X123952386Y-109347614D02*
X123437043Y-109347614D01*
X127968695Y-98974558D02*
X127968695Y-100368695D01*
X128400000Y-101900000D02*
X126088288Y-104211712D01*
X128400000Y-100800000D02*
X128400000Y-101900000D01*
X127968695Y-100368695D02*
X128400000Y-100800000D01*
X126088288Y-104211712D02*
X126088288Y-104329377D01*
X129036955Y-93400616D02*
X129036955Y-94436955D01*
X129800000Y-96500000D02*
X127968695Y-98331305D01*
X129800000Y-95200000D02*
X129800000Y-96500000D01*
X129036955Y-94436955D02*
X129800000Y-95200000D01*
X127968695Y-98331305D02*
X127968695Y-98974558D01*
X129269600Y-87730000D02*
X129269600Y-88369600D01*
X129269600Y-88369600D02*
X130500000Y-89600000D01*
X129036955Y-92163045D02*
X129036955Y-93400616D01*
X130500000Y-90700000D02*
X129036955Y-92163045D01*
X130500000Y-89600000D02*
X130500000Y-90700000D01*
X128661519Y-82087284D02*
X128661519Y-82561519D01*
X128661519Y-82561519D02*
X130200000Y-84100000D01*
X130200000Y-86799600D02*
X129269600Y-87730000D01*
X130200000Y-84100000D02*
X130200000Y-86799600D01*
X127226071Y-76596428D02*
X127396428Y-76596428D01*
X127396428Y-76596428D02*
X129100000Y-78300000D01*
X129100000Y-78300000D02*
X129100000Y-81648803D01*
X129100000Y-81648803D02*
X128661519Y-82087284D01*
X124994790Y-71378057D02*
X125478057Y-71378057D01*
X125478057Y-71378057D02*
X127300000Y-73200000D01*
X127300000Y-73200000D02*
X127300000Y-76522499D01*
X127300000Y-76522499D02*
X127226071Y-76596428D01*
X122016693Y-66546810D02*
X123046810Y-66546810D01*
X124600000Y-68100000D02*
X124600000Y-70983267D01*
X123046810Y-66546810D02*
X124600000Y-68100000D01*
X124600000Y-70983267D02*
X124994790Y-71378057D01*
X118357204Y-62208820D02*
X119908820Y-62208820D01*
X121300000Y-65830117D02*
X122016693Y-66546810D01*
X121300000Y-63600000D02*
X121300000Y-65830117D01*
X119908820Y-62208820D02*
X121300000Y-63600000D01*
X114096716Y-58459387D02*
X116159387Y-58459387D01*
X118357204Y-60657204D02*
X118357204Y-62208820D01*
X116159387Y-58459387D02*
X118357204Y-60657204D01*
X109328824Y-55380878D02*
X111880878Y-55380878D01*
X114096716Y-57596716D02*
X114096716Y-58459387D01*
X111880878Y-55380878D02*
X114096716Y-57596716D01*
X104300000Y-97400000D02*
X104250000Y-97350000D01*
D35*
X102600000Y-89300000D02*
X102600000Y-89100000D01*
X103900000Y-90600000D02*
X102600000Y-89300000D01*
X106350000Y-89750000D02*
X104150000Y-89750000D01*
X103900000Y-90000000D02*
X103900000Y-90800000D01*
X104150000Y-89750000D02*
X103900000Y-90000000D01*
X103900000Y-90800000D02*
X103900000Y-90600000D01*
X99000000Y-87800000D02*
X98800000Y-87800000D01*
X100300000Y-88700000D02*
X99000000Y-87800000D01*
X101900000Y-88400000D02*
X101900000Y-87800000D01*
X102600000Y-89100000D02*
X101900000Y-88400000D01*
X103750000Y-85650000D02*
X103750000Y-86850000D01*
X104400000Y-87500000D02*
X104400000Y-89100000D01*
X103750000Y-86850000D02*
X104400000Y-87500000D01*
X106350000Y-89750000D02*
X104050000Y-89750000D01*
X104050000Y-89750000D02*
X104000000Y-89700000D01*
X103750000Y-85650000D02*
X103750000Y-84550000D01*
X104900000Y-84100000D02*
X104900000Y-83500000D01*
X104700000Y-84300000D02*
X104900000Y-84100000D01*
X104000000Y-84300000D02*
X104700000Y-84300000D01*
X103750000Y-84550000D02*
X104000000Y-84300000D01*
X94700000Y-97600000D02*
X94700000Y-97900000D01*
X94700000Y-97900000D02*
X93800000Y-98800000D01*
X93500000Y-96400000D02*
X94700000Y-97600000D01*
X94400000Y-83200000D02*
X94400000Y-82400000D01*
X94400000Y-84300000D02*
X94400000Y-83200000D01*
X94400000Y-85400000D02*
X94400000Y-84300000D01*
X86100000Y-104000000D02*
X89000000Y-104000000D01*
X77000000Y-106200000D02*
X77000000Y-107900000D01*
X86000000Y-101000000D02*
X86000000Y-101100000D01*
X86000000Y-101100000D02*
X87700000Y-102800000D01*
X95000000Y-108000000D02*
X92800000Y-108000000D01*
X91700000Y-106200000D02*
X95000000Y-106200000D01*
X91400000Y-105900000D02*
X91700000Y-106200000D01*
X87700000Y-102800000D02*
X91400000Y-102800000D01*
X82000000Y-101000000D02*
X83200000Y-100400000D01*
X80500000Y-101000000D02*
X82000000Y-101000000D01*
X109500000Y-101900000D02*
X109200000Y-101900000D01*
X108700000Y-102400000D02*
X109200000Y-101900000D01*
X108600000Y-102400000D02*
X108700000Y-102400000D01*
X108600000Y-102400000D02*
X108000000Y-102400000D01*
X105500000Y-99100000D02*
X103400000Y-99100000D01*
X103750000Y-98750000D02*
X103400000Y-99100000D01*
X103750000Y-98750000D02*
X103750000Y-97350000D01*
X77850000Y-91950000D02*
X77850000Y-90750000D01*
X77850000Y-90750000D02*
X80000000Y-90750000D01*
X80000000Y-90750000D02*
X80000000Y-89000000D01*
D37*
X70600000Y-95000000D02*
X70600000Y-98100000D01*
X70600000Y-98100000D02*
X70550000Y-98150000D01*
X68420000Y-103000000D02*
X68420000Y-100430000D01*
X68420000Y-100430000D02*
X68450000Y-100400000D01*
D35*
X68000000Y-96700000D02*
X68000000Y-98000000D01*
X70600000Y-101000000D02*
X67800000Y-98200000D01*
X70600000Y-101000000D02*
X71500000Y-101000000D01*
X68000000Y-98000000D02*
X67800000Y-98200000D01*
X68000000Y-96700000D02*
X69200000Y-96700000D01*
X69200000Y-96700000D02*
X69700000Y-97200000D01*
D37*
X65880000Y-103000000D02*
X65880000Y-101080000D01*
D35*
X63340000Y-101000000D02*
X63340000Y-101110000D01*
X70600000Y-97400000D02*
X70700000Y-97500000D01*
X71500000Y-101000000D02*
X71500000Y-97600000D01*
X70700000Y-97500000D02*
X71500000Y-97600000D01*
X70600000Y-95000000D02*
X70600000Y-97400000D01*
X68000000Y-91200000D02*
X71300000Y-91200000D01*
X71300000Y-91200000D02*
X71400000Y-91100000D01*
X68000000Y-88500000D02*
X68000000Y-91200000D01*
X84500000Y-73600000D02*
X84500000Y-72200000D01*
X84500000Y-75000000D02*
X82100000Y-75000000D01*
X84500000Y-72200000D02*
X84500000Y-75000000D01*
X85700000Y-72200000D02*
X85700000Y-73600000D01*
D38*
X90300000Y-75000000D02*
X87900000Y-75000000D01*
D35*
X90200000Y-75000000D02*
X90300000Y-75000000D01*
D38*
X90400000Y-72600000D02*
X92500000Y-72600000D01*
D35*
X90400000Y-72500000D02*
X90400000Y-72600000D01*
X90200000Y-72300000D02*
X90400000Y-72500000D01*
X85700000Y-75000000D02*
X87900000Y-75000000D01*
D38*
X87900000Y-75000000D02*
X87900000Y-72200000D01*
D35*
X87900000Y-72300000D02*
X87900000Y-72200000D01*
D37*
X63340000Y-103000000D02*
X65880000Y-103000000D01*
D39*
X80000000Y-90750000D02*
X81300000Y-90750000D01*
X80000000Y-90750000D02*
X78500000Y-90750000D01*
D35*
X101000000Y-76400000D02*
X100200000Y-76400000D01*
X99200000Y-74300000D02*
X97100000Y-74300000D01*
X99700000Y-74800000D02*
X99200000Y-74300000D01*
X99700000Y-74900000D02*
X99700000Y-74800000D01*
X99700000Y-75900000D02*
X99700000Y-74900000D01*
X100200000Y-76400000D02*
X99700000Y-75900000D01*
D40*
X97500000Y-75650000D02*
X97500000Y-74700000D01*
X97500000Y-74700000D02*
X97100000Y-74300000D01*
X95400000Y-72600000D02*
X92500000Y-72600000D01*
X97100000Y-74300000D02*
X95400000Y-72600000D01*
D38*
X87900000Y-75000000D02*
X84900000Y-75000000D01*
X84900000Y-75000000D02*
X82100000Y-75000000D01*
D35*
X96600000Y-80500000D02*
X95300000Y-80500000D01*
X109500000Y-101900000D02*
X109500000Y-98100000D01*
X109500000Y-98100000D02*
X108000000Y-96600000D01*
X108000000Y-96600000D02*
X108000000Y-94700000D01*
D37*
X70600000Y-95000000D02*
X70600000Y-92100000D01*
X68000000Y-88500000D02*
X68000000Y-91400000D01*
X65880000Y-101080000D02*
X65850000Y-101050000D01*
X63340000Y-103000000D02*
X63340000Y-101110000D01*
X63340000Y-101110000D02*
X63450000Y-101000000D01*
D36*
X110300000Y-80700000D02*
X107400000Y-77800000D01*
X110300000Y-80700000D02*
X110300000Y-82200000D01*
X124200000Y-79000000D02*
X121500000Y-81700000D01*
X121500000Y-81700000D02*
X121500000Y-82200000D01*
X121500000Y-82200000D02*
X120000000Y-83700000D01*
X120000000Y-83700000D02*
X111800000Y-83700000D01*
X111800000Y-83700000D02*
X110300000Y-82200000D01*
X104800000Y-77800000D02*
X104300000Y-77300000D01*
X107400000Y-77800000D02*
X104800000Y-77800000D01*
D35*
X110800000Y-91400000D02*
X109700000Y-91400000D01*
X108050000Y-89750000D02*
X106350000Y-89750000D01*
X109700000Y-91400000D02*
X108050000Y-89750000D01*
X110800000Y-91400000D02*
X111800000Y-91400000D01*
X102600000Y-76400000D02*
X102600000Y-77000000D01*
X102900000Y-77300000D02*
X104300000Y-77300000D01*
X102600000Y-77000000D02*
X102900000Y-77300000D01*
X104900000Y-75800000D02*
X105650000Y-75800000D01*
X104600000Y-76100000D02*
X104900000Y-75800000D01*
X104600000Y-77000000D02*
X104600000Y-76100000D01*
X104300000Y-77300000D02*
X104600000Y-77000000D01*
X101000000Y-76400000D02*
X102600000Y-76400000D01*
D41*
X82100000Y-75000000D02*
X79750000Y-75000000D01*
X79750000Y-75000000D02*
X79500000Y-74750000D01*
D35*
X96000000Y-104400000D02*
X97500000Y-104400000D01*
X94500000Y-104400000D02*
X96000000Y-104400000D01*
X93000000Y-104400000D02*
X94500000Y-104400000D01*
D37*
X65880000Y-103000000D02*
X68420000Y-103000000D01*
D35*
X106500000Y-99100000D02*
X105500000Y-99100000D01*
D36*
X106350000Y-92250000D02*
X107550000Y-92250000D01*
X108000000Y-92700000D02*
X108000000Y-93500000D01*
X107550000Y-92250000D02*
X108000000Y-92700000D01*
D35*
X101000000Y-75200000D02*
X101000000Y-74200000D01*
X82100000Y-71500000D02*
X82100000Y-72700000D01*
X82600000Y-71000000D02*
X82100000Y-71500000D01*
X90700000Y-71000000D02*
X82600000Y-71000000D01*
X91500000Y-70200000D02*
X90700000Y-71000000D01*
X91600000Y-70200000D02*
X91500000Y-70200000D01*
X93900000Y-70200000D02*
X91600000Y-70200000D01*
X97400000Y-73700000D02*
X93900000Y-70200000D01*
X100500000Y-73700000D02*
X97400000Y-73700000D01*
X101000000Y-74200000D02*
X100500000Y-73700000D01*
X101000000Y-75200000D02*
X102600000Y-75200000D01*
D41*
X78600000Y-82095000D02*
X78600000Y-78100000D01*
X78250000Y-72950000D02*
X79500000Y-72950000D01*
X77600000Y-73600000D02*
X78250000Y-72950000D01*
X77600000Y-77100000D02*
X77600000Y-73600000D01*
X78600000Y-78100000D02*
X77600000Y-77100000D01*
X82100000Y-72700000D02*
X79750000Y-72700000D01*
X79750000Y-72700000D02*
X79500000Y-72950000D01*
D37*
X78600000Y-82500000D02*
X78600000Y-83365000D01*
D35*
X78600000Y-82095000D02*
X78600000Y-82500000D01*
X73600000Y-88400000D02*
X77100000Y-88400000D01*
X76900000Y-88400000D02*
X76900000Y-88600000D01*
X77100000Y-88400000D02*
X76900000Y-88400000D01*
D41*
X78000000Y-104250000D02*
X76250000Y-104250000D01*
X75000000Y-103000000D02*
X73500000Y-103000000D01*
X76250000Y-104250000D02*
X75000000Y-103000000D01*
X78000000Y-104250000D02*
X82000000Y-104250000D01*
D37*
X73500000Y-103000000D02*
X70960000Y-103000000D01*
X75400000Y-95000000D02*
X75400000Y-97600000D01*
X75400000Y-97600000D02*
X73500000Y-99500000D01*
X73500000Y-99500000D02*
X73500000Y-103000000D01*
X75400000Y-90100000D02*
X75400000Y-95000000D01*
X78600000Y-84635000D02*
X78600000Y-83365000D01*
X78600000Y-85905000D02*
X78600000Y-86500000D01*
X78600000Y-86500000D02*
X78600000Y-84635000D01*
X78600000Y-85905000D02*
X78600000Y-86900000D01*
X78600000Y-86900000D02*
X76900000Y-88600000D01*
X76900000Y-88600000D02*
X75400000Y-90100000D01*
D35*
X95600000Y-84300000D02*
X97000000Y-84300000D01*
X97250000Y-84550000D02*
X97250000Y-85650000D01*
X97000000Y-84300000D02*
X97250000Y-84550000D01*
D39*
X100800000Y-78500000D02*
X107200000Y-78500000D01*
X99300000Y-77000000D02*
X100800000Y-78500000D01*
X109700000Y-82500000D02*
X111500000Y-84300000D01*
X111500000Y-84300000D02*
X120300000Y-84300000D01*
X124831934Y-79768066D02*
X120300000Y-84300000D01*
X99300000Y-77000000D02*
X98450000Y-77000000D01*
X109700000Y-81000000D02*
X109700000Y-82500000D01*
X107200000Y-78500000D02*
X109700000Y-81000000D01*
X124831934Y-79768066D02*
X125539681Y-79768066D01*
X98450000Y-75650000D02*
X98450000Y-77000000D01*
X98450000Y-77000000D02*
X98500000Y-77000000D01*
X96500000Y-77000000D02*
X98500000Y-77000000D01*
X96550000Y-75650000D02*
X96550000Y-77000000D01*
X96550000Y-77000000D02*
X96500000Y-77000000D01*
X92500000Y-77400000D02*
X94600000Y-77400000D01*
X95000000Y-77000000D02*
X96500000Y-77000000D01*
X94600000Y-77400000D02*
X95000000Y-77000000D01*
D41*
X82100000Y-77300000D02*
X84300000Y-77300000D01*
X91600000Y-78300000D02*
X92500000Y-77400000D01*
X85300000Y-78300000D02*
X91600000Y-78300000D01*
X84300000Y-77300000D02*
X85300000Y-78300000D01*
D35*
X119910937Y-110033020D02*
X117966980Y-110033020D01*
X108039676Y-118160324D02*
X108039676Y-120430584D01*
X110000000Y-116200000D02*
X108039676Y-118160324D01*
X111800000Y-116200000D02*
X110000000Y-116200000D01*
X117966980Y-110033020D02*
X111800000Y-116200000D01*
X126149419Y-95537280D02*
X125262720Y-95537280D01*
X119910937Y-107289063D02*
X119910937Y-110033020D01*
X121200000Y-106000000D02*
X119910937Y-107289063D01*
X121200000Y-104600000D02*
X121200000Y-106000000D01*
X122100000Y-103700000D02*
X121200000Y-104600000D01*
X122100000Y-102300000D02*
X122100000Y-103700000D01*
X123400000Y-101000000D02*
X122100000Y-102300000D01*
X123400000Y-100100000D02*
X123400000Y-101000000D01*
X123600000Y-99900000D02*
X123400000Y-100100000D01*
X123600000Y-97200000D02*
X123600000Y-99900000D01*
X125262720Y-95537280D02*
X123600000Y-97200000D01*
X128000000Y-86300000D02*
X128000000Y-91400000D01*
X128000000Y-91400000D02*
X127800000Y-91600000D01*
X127800000Y-91600000D02*
X127800000Y-94100000D01*
X127800000Y-94100000D02*
X126362720Y-95537280D01*
X125539681Y-79768066D02*
X126368066Y-79768066D01*
X127800000Y-86100000D02*
X128000000Y-86300000D01*
X127800000Y-83800000D02*
X127800000Y-86100000D01*
X127400000Y-83400000D02*
X127800000Y-83800000D01*
X127400000Y-80800000D02*
X127400000Y-83400000D01*
X126368066Y-79768066D02*
X127400000Y-80800000D01*
X126362720Y-95537280D02*
X126149419Y-95537280D01*
X128000000Y-91500000D02*
X127800000Y-91700000D01*
X125539681Y-79768066D02*
X125539681Y-78860319D01*
X119497504Y-65797504D02*
X118200518Y-65797504D01*
X121500000Y-67800000D02*
X119497504Y-65797504D01*
X121500000Y-68500000D02*
X121500000Y-67800000D01*
X123200000Y-70200000D02*
X121500000Y-68500000D01*
X123200000Y-71300000D02*
X123200000Y-70200000D01*
X124500000Y-72600000D02*
X123200000Y-71300000D01*
X124500000Y-73800000D02*
X124500000Y-72600000D01*
X126000000Y-75300000D02*
X124500000Y-73800000D01*
X126000000Y-78400000D02*
X126000000Y-75300000D01*
X125539681Y-78860319D02*
X126000000Y-78400000D01*
X72400000Y-88400000D02*
X72400000Y-89000000D01*
X72400000Y-89000000D02*
X73000000Y-89600000D01*
X94500000Y-102600000D02*
X94500000Y-101100000D01*
X96000000Y-101100000D02*
X96000000Y-102600000D01*
X97500000Y-101100000D02*
X97500000Y-102600000D01*
D37*
X68000000Y-81500000D02*
X68000000Y-86500000D01*
X73400000Y-84200000D02*
X73400000Y-83365000D01*
D35*
X73400000Y-84200000D02*
X73400000Y-84635000D01*
D37*
X73400000Y-82095000D02*
X73400000Y-83365000D01*
D35*
X64000000Y-80500000D02*
X64000000Y-93000000D01*
X65000000Y-79500000D02*
X64000000Y-80500000D01*
D37*
X68000000Y-79500000D02*
X70805000Y-79500000D01*
D35*
X68000000Y-79500000D02*
X65000000Y-79500000D01*
D37*
X70805000Y-79500000D02*
X73400000Y-82095000D01*
D36*
X107700000Y-81800000D02*
X106300000Y-80400000D01*
X106300000Y-80400000D02*
X102500000Y-80400000D01*
X102500000Y-80400000D02*
X100750000Y-82150000D01*
X100750000Y-85650000D02*
X100750000Y-82150000D01*
X110480002Y-85980002D02*
X107700000Y-83200000D01*
X107700000Y-83200000D02*
X107700000Y-81800000D01*
X110600000Y-86100000D02*
X110480002Y-85980002D01*
X115400000Y-86100000D02*
X110600000Y-86100000D01*
X116000000Y-86700000D02*
X115400000Y-86100000D01*
X119300000Y-86700000D02*
X116000000Y-86700000D01*
X120400000Y-85600000D02*
X119300000Y-86700000D01*
X108100000Y-81600000D02*
X106500000Y-80000000D01*
X106500000Y-80000000D02*
X102300000Y-80000000D01*
X102300000Y-80000000D02*
X100250000Y-82050000D01*
X100250000Y-82050000D02*
X100250000Y-85650000D01*
X110700000Y-85600000D02*
X108100000Y-83000000D01*
X108100000Y-83000000D02*
X108100000Y-81600000D01*
X110800000Y-85700000D02*
X110700000Y-85600000D01*
X115600000Y-85700000D02*
X110800000Y-85700000D01*
X116200000Y-86300000D02*
X115600000Y-85700000D01*
X118500000Y-86300000D02*
X116200000Y-86300000D01*
X119200000Y-85600000D02*
X118500000Y-86300000D01*
X108500000Y-82800000D02*
X108500000Y-81400000D01*
X110900000Y-85200000D02*
X108500000Y-82800000D01*
X99750000Y-81950000D02*
X99750000Y-85650000D01*
X102100000Y-79600000D02*
X99750000Y-81950000D01*
X106700000Y-79600000D02*
X102100000Y-79600000D01*
X108500000Y-81400000D02*
X106700000Y-79600000D01*
X111000000Y-85300000D02*
X110900000Y-85200000D01*
X115900000Y-85300000D02*
X111000000Y-85300000D01*
X116200000Y-85600000D02*
X115900000Y-85300000D01*
X117200000Y-85600000D02*
X116200000Y-85600000D01*
X123000000Y-87600000D02*
X122700000Y-87900000D01*
X103100000Y-81600000D02*
X102250000Y-82450000D01*
X102250000Y-85650000D02*
X102250000Y-82450000D01*
X106500000Y-82400000D02*
X105700000Y-81600000D01*
X106500000Y-83800000D02*
X106500000Y-82400000D01*
X109900000Y-87200000D02*
X106500000Y-83800000D01*
X105700000Y-81600000D02*
X103100000Y-81600000D01*
X110000000Y-87300000D02*
X109900000Y-87200000D01*
X114800000Y-87300000D02*
X110000000Y-87300000D01*
X115400000Y-87900000D02*
X114800000Y-87300000D01*
X122700000Y-87900000D02*
X115400000Y-87900000D01*
X122800000Y-86700000D02*
X122000000Y-87500000D01*
X102900000Y-81200000D02*
X101750000Y-82350000D01*
X101750000Y-85650000D02*
X101750000Y-82350000D01*
X110080002Y-86780002D02*
X106900000Y-83600000D01*
X106900000Y-83600000D02*
X106900000Y-82200000D01*
X106900000Y-82200000D02*
X105900000Y-81200000D01*
X105900000Y-81200000D02*
X102900000Y-81200000D01*
X110200000Y-86900000D02*
X110080002Y-86780002D01*
X115000000Y-86900000D02*
X110200000Y-86900000D01*
X115600000Y-87500000D02*
X115000000Y-86900000D01*
X122000000Y-87500000D02*
X115600000Y-87500000D01*
X107319998Y-82019998D02*
X106100000Y-80800000D01*
X106100000Y-80800000D02*
X102700000Y-80800000D01*
X102700000Y-80800000D02*
X101250000Y-82250000D01*
X101250000Y-85650000D02*
X101250000Y-82250000D01*
X110300000Y-86400000D02*
X107319998Y-83419998D01*
X107319998Y-83419998D02*
X107319998Y-82019998D01*
X110400000Y-86500000D02*
X110300000Y-86400000D01*
X115200000Y-86500000D02*
X110400000Y-86500000D01*
X115800000Y-87100000D02*
X115200000Y-86500000D01*
X120000000Y-87100000D02*
X115800000Y-87100000D01*
X120500000Y-86600000D02*
X120000000Y-87100000D01*
X125000000Y-91700000D02*
X124500000Y-91200000D01*
X107150000Y-85650000D02*
X109500000Y-88000000D01*
X104250000Y-85650000D02*
X107150000Y-85650000D01*
X125700000Y-91700000D02*
X125000000Y-91700000D01*
X109600000Y-88100000D02*
X109500000Y-88000000D01*
X114400000Y-88100000D02*
X109600000Y-88100000D01*
X115000000Y-88700000D02*
X114400000Y-88100000D01*
X121500000Y-88700000D02*
X115000000Y-88700000D01*
X122000000Y-89200000D02*
X121500000Y-88700000D01*
X124000000Y-89200000D02*
X122000000Y-89200000D01*
X124500000Y-89700000D02*
X124000000Y-89200000D01*
X124500000Y-91200000D02*
X124500000Y-89700000D01*
X103300000Y-82000000D02*
X102750000Y-82550000D01*
X102750000Y-85650000D02*
X102750000Y-82550000D01*
X106100000Y-82600000D02*
X105500000Y-82000000D01*
X106100000Y-84000000D02*
X106100000Y-82600000D01*
X109700000Y-87600000D02*
X106100000Y-84000000D01*
X105500000Y-82000000D02*
X103300000Y-82000000D01*
X109800000Y-87700000D02*
X109700000Y-87600000D01*
X114600000Y-87700000D02*
X109800000Y-87700000D01*
X115200000Y-88300000D02*
X114600000Y-87700000D01*
X121700000Y-88300000D02*
X115200000Y-88300000D01*
X121900000Y-88500000D02*
X121700000Y-88300000D01*
X123300000Y-88500000D02*
X121900000Y-88500000D01*
X122340006Y-95127794D02*
X122340006Y-93840006D01*
X118540006Y-107472206D02*
X117400000Y-108612212D01*
X117400000Y-108612212D02*
X117400000Y-109400000D01*
X118540006Y-106072206D02*
X118540006Y-107072206D01*
X121240006Y-103372206D02*
X118540006Y-106072206D01*
X121240006Y-100572206D02*
X121240006Y-103372206D01*
X122340006Y-99472206D02*
X121240006Y-100572206D01*
X122340006Y-95127794D02*
X122340006Y-99472206D01*
X118540006Y-107072206D02*
X118540006Y-107472206D01*
X107950000Y-90250000D02*
X106350000Y-90250000D01*
X110000000Y-92300000D02*
X107950000Y-90250000D01*
X120800000Y-92300000D02*
X110000000Y-92300000D01*
X122340006Y-93840006D02*
X120800000Y-92300000D01*
X121200000Y-95600000D02*
X121200000Y-94500000D01*
X117400000Y-107000000D02*
X106300000Y-118100000D01*
X106300000Y-118100000D02*
X106300000Y-119600000D01*
X121200000Y-95600000D02*
X121200000Y-99000000D01*
X121200000Y-99000000D02*
X120100000Y-100100000D01*
X120100000Y-100100000D02*
X120100000Y-102900000D01*
X120100000Y-102900000D02*
X117400000Y-105600000D01*
X117400000Y-105600000D02*
X117400000Y-106600000D01*
X117400000Y-106600000D02*
X117400000Y-107000000D01*
X107650000Y-91750000D02*
X106350000Y-91750000D01*
X109400000Y-93500000D02*
X107650000Y-91750000D01*
X120200000Y-93500000D02*
X109400000Y-93500000D01*
X121200000Y-94500000D02*
X120200000Y-93500000D01*
X121580002Y-95442598D02*
X121580002Y-94280002D01*
X117780002Y-107157402D02*
X110500000Y-114437404D01*
X110500000Y-114437404D02*
X110500000Y-115300000D01*
X117780002Y-105757402D02*
X117780002Y-106757402D01*
X120480002Y-103057402D02*
X117780002Y-105757402D01*
X120480002Y-100257402D02*
X120480002Y-103057402D01*
X121580002Y-99157402D02*
X120480002Y-100257402D01*
X121580002Y-95442598D02*
X121580002Y-99157402D01*
X117780002Y-106757402D02*
X117780002Y-107157402D01*
X107750000Y-91250000D02*
X106350000Y-91250000D01*
X109600000Y-93100000D02*
X107750000Y-91250000D01*
X120400000Y-93100000D02*
X109600000Y-93100000D01*
X121580002Y-94280002D02*
X120400000Y-93100000D01*
D35*
X101250000Y-95450000D02*
X101250000Y-97350000D01*
X102000000Y-94700000D02*
X101250000Y-95450000D01*
X102000000Y-92600000D02*
X102000000Y-94700000D01*
X101100000Y-91700000D02*
X102000000Y-92600000D01*
X99100000Y-91700000D02*
X101100000Y-91700000D01*
X101750000Y-95650000D02*
X102500000Y-94900000D01*
X102500000Y-94900000D02*
X102500000Y-92300000D01*
X102500000Y-92300000D02*
X101000000Y-90800000D01*
X101000000Y-90800000D02*
X99100000Y-90800000D01*
X101750000Y-95650000D02*
X101750000Y-97350000D01*
X97250000Y-97350000D02*
X97250000Y-95950000D01*
X97250000Y-95950000D02*
X98400000Y-94800000D01*
X98400000Y-94800000D02*
X98400000Y-93600000D01*
X98400000Y-93600000D02*
X98100000Y-93300000D01*
X99750000Y-93650000D02*
X98700000Y-92600000D01*
X99750000Y-97350000D02*
X99750000Y-93650000D01*
X51470000Y-77400000D02*
X56000000Y-77400000D01*
X56550000Y-77950000D02*
X56550000Y-79190000D01*
X56000000Y-77400000D02*
X56550000Y-77950000D01*
X50500000Y-75000000D02*
X50500000Y-76400000D01*
X51470000Y-77370000D02*
X51470000Y-77400000D01*
X51470000Y-77400000D02*
X51470000Y-79190000D01*
X50500000Y-76400000D02*
X51470000Y-77370000D01*
X48930000Y-79190000D02*
X48930000Y-80230000D01*
X54010000Y-80190000D02*
X54010000Y-79190000D01*
X53400000Y-80800000D02*
X54010000Y-80190000D01*
X49500000Y-80800000D02*
X53400000Y-80800000D01*
X48930000Y-80230000D02*
X49500000Y-80800000D01*
X47960000Y-75000000D02*
X47960000Y-76560000D01*
X48930000Y-77530000D02*
X48930000Y-79190000D01*
X47960000Y-76560000D02*
X48930000Y-77530000D01*
D38*
X47960000Y-103000000D02*
X47960000Y-101660000D01*
X43850000Y-99950000D02*
X43850000Y-98810000D01*
X44800000Y-100900000D02*
X43850000Y-99950000D01*
X47200000Y-100900000D02*
X44800000Y-100900000D01*
X47960000Y-101660000D02*
X47200000Y-100900000D01*
D37*
X47960000Y-103000000D02*
X50500000Y-103000000D01*
D36*
X121000000Y-73600000D02*
X108500000Y-61100000D01*
X108500000Y-61100000D02*
X108500000Y-59100000D01*
X121100000Y-72700000D02*
X119800000Y-71400000D01*
X119800000Y-70800000D02*
X119800000Y-71400000D01*
X125000000Y-84900000D02*
X125000000Y-88200000D01*
D35*
X73400000Y-85905000D02*
X73400000Y-87100000D01*
X68000000Y-93100000D02*
X68000000Y-95500000D01*
X64000000Y-95500000D02*
X68000000Y-95500000D01*
X103800000Y-75200000D02*
X103800000Y-76400000D01*
X105650000Y-75300000D02*
X104800000Y-75300000D01*
X104700000Y-75200000D02*
X103800000Y-75200000D01*
X104800000Y-75300000D02*
X104700000Y-75200000D01*
X107800000Y-104000000D02*
X108600000Y-104000000D01*
X108600000Y-104000000D02*
X109500000Y-103100000D01*
X102250000Y-97350000D02*
X102250000Y-98550000D01*
X100800000Y-102600000D02*
X102200000Y-104000000D01*
X100800000Y-100000000D02*
X100800000Y-102600000D01*
X102250000Y-98550000D02*
X100800000Y-100000000D01*
X102200000Y-104000000D02*
X107800000Y-104000000D01*
D36*
X102250000Y-97350000D02*
X102750000Y-97350000D01*
D35*
X98750000Y-85650000D02*
X98750000Y-84150000D01*
X97800000Y-83200000D02*
X95600000Y-83200000D01*
X98750000Y-84150000D02*
X97800000Y-83200000D01*
X92200000Y-95400000D02*
X92000000Y-95600000D01*
X93350000Y-94250000D02*
X92200000Y-95400000D01*
X92200000Y-98200000D02*
X93000000Y-99000000D01*
X93000000Y-99900000D02*
X93000000Y-99000000D01*
X93350000Y-94250000D02*
X94650000Y-94250000D01*
X92000000Y-98000000D02*
X92200000Y-98200000D01*
X92000000Y-95600000D02*
X92000000Y-98000000D01*
X96750000Y-97350000D02*
X96350000Y-97350000D01*
X94500000Y-99200000D02*
X94500000Y-99900000D01*
X96350000Y-97350000D02*
X94500000Y-99200000D01*
X97750000Y-97350000D02*
X97750000Y-98450000D01*
X96000000Y-99100000D02*
X96000000Y-99900000D01*
X96300000Y-98800000D02*
X96000000Y-99100000D01*
X97400000Y-98800000D02*
X96300000Y-98800000D01*
X97750000Y-98450000D02*
X97400000Y-98800000D01*
X98250000Y-97350000D02*
X98250000Y-99150000D01*
X98250000Y-99150000D02*
X97500000Y-99900000D01*
X105650000Y-76300000D02*
X105650000Y-76750000D01*
X99250000Y-83950000D02*
X99250000Y-85650000D01*
X98400000Y-83100000D02*
X99250000Y-83950000D01*
X98400000Y-82200000D02*
X98400000Y-83100000D01*
X105650000Y-76750000D02*
X105300000Y-77100000D01*
X105650000Y-76300000D02*
X107350000Y-76300000D01*
X94650000Y-87750000D02*
X96350000Y-87750000D01*
X96900000Y-93000000D02*
X96500000Y-93400000D01*
X96900000Y-88300000D02*
X96900000Y-93000000D01*
X96350000Y-87750000D02*
X96900000Y-88300000D01*
X94650000Y-88250000D02*
X92850000Y-88250000D01*
X91200000Y-84200000D02*
X90500000Y-83500000D01*
X91200000Y-86600000D02*
X91200000Y-84200000D01*
X92850000Y-88250000D02*
X91200000Y-86600000D01*
X94650000Y-88750000D02*
X92650000Y-88750000D01*
X88539600Y-84639600D02*
X88539600Y-81000000D01*
X92650000Y-88750000D02*
X88539600Y-84639600D01*
X94650000Y-89250000D02*
X92450000Y-89250000D01*
X85999600Y-82799600D02*
X85999600Y-81000000D01*
X92450000Y-89250000D02*
X85999600Y-82799600D01*
X100750000Y-97350000D02*
X100750000Y-94650000D01*
X100750000Y-94650000D02*
X101100000Y-94300000D01*
X100250000Y-97350000D02*
X100250000Y-93950000D01*
X100250000Y-93950000D02*
X101100000Y-93100000D01*
X103250000Y-97350000D02*
X103250000Y-95800000D01*
D36*
X119800000Y-69600000D02*
X119800000Y-68078097D01*
X119800000Y-68078097D02*
X119910937Y-67967160D01*
X126149419Y-82462720D02*
X125337280Y-82462720D01*
X125000000Y-82800000D02*
X125000000Y-83700000D01*
X125337280Y-82462720D02*
X125000000Y-82800000D01*
X107300000Y-59100000D02*
X107300000Y-58309092D01*
X107300000Y-58309092D02*
X108039676Y-57569416D01*
D35*
X99250000Y-97350000D02*
X99250000Y-99650000D01*
X99250000Y-99650000D02*
X99600000Y-100000000D01*
X98750000Y-97350000D02*
X98750000Y-102150000D01*
X98750000Y-102150000D02*
X99100000Y-102500000D01*
D36*
X121960004Y-95285196D02*
X121960004Y-94060004D01*
X118160004Y-107314804D02*
X114200000Y-111274808D01*
X114200000Y-111274808D02*
X114200000Y-112100000D01*
X118160004Y-105914804D02*
X118160004Y-106914804D01*
X120860004Y-103214804D02*
X118160004Y-105914804D01*
X120860004Y-100414804D02*
X120860004Y-103214804D01*
X121960004Y-99314804D02*
X120860004Y-100414804D01*
X121960004Y-95285196D02*
X121960004Y-99314804D01*
X118160004Y-106914804D02*
X118160004Y-107314804D01*
X107850000Y-90750000D02*
X106350000Y-90750000D01*
X109800000Y-92700000D02*
X107850000Y-90750000D01*
X120600000Y-92700000D02*
X109800000Y-92700000D01*
X121960004Y-94060004D02*
X120600000Y-92700000D01*
D35*
X116484519Y-63924819D02*
X114472192Y-62031811D01*
X112498242Y-60433337D02*
X110228214Y-58858564D01*
X124797057Y-77339052D02*
X123795722Y-74764121D01*
X122702224Y-72471555D02*
X121331287Y-70072916D01*
X126524855Y-93025180D02*
X126729600Y-90270000D01*
X126729600Y-87730000D02*
X126524855Y-84974820D01*
X121331287Y-107927264D02*
X122702224Y-105528445D01*
X123795722Y-103235879D02*
X124797057Y-100660948D01*
X110228214Y-119141436D02*
X112498242Y-117566663D01*
X114472192Y-115968189D02*
X116484519Y-114075181D01*
X78950000Y-97900000D02*
X78950000Y-96450000D01*
X78950000Y-96450000D02*
X79300000Y-96100000D01*
X79300000Y-96100000D02*
X80300000Y-96100000D01*
X80300000Y-94900000D02*
X81700000Y-94900000D01*
X88600000Y-95500000D02*
X92350000Y-91750000D01*
X92350000Y-91750000D02*
X94650000Y-91750000D01*
X88100000Y-95500000D02*
X82300000Y-95500000D01*
X82300000Y-95500000D02*
X81700000Y-94900000D01*
X88100000Y-95500000D02*
X88600000Y-95500000D01*
X91000000Y-94000000D02*
X91000000Y-93800000D01*
X91000000Y-94000000D02*
X91000000Y-98000000D01*
X91000000Y-98000000D02*
X90000000Y-99000000D01*
X90000000Y-99000000D02*
X89000000Y-99000000D01*
X89000000Y-99000000D02*
X88000000Y-100000000D01*
X88000000Y-101000000D02*
X88000000Y-100000000D01*
X92550000Y-92250000D02*
X94650000Y-92250000D01*
X91000000Y-93800000D02*
X92550000Y-92250000D01*
D41*
X78000000Y-102750000D02*
X82000000Y-102750000D01*
X78000000Y-102750000D02*
X78000000Y-100100000D01*
D35*
X73500000Y-77000000D02*
X73500000Y-75000000D01*
X76700000Y-79200000D02*
X75700000Y-79200000D01*
X75700000Y-79200000D02*
X73500000Y-77000000D01*
X94650000Y-89750000D02*
X88650000Y-89750000D01*
X88650000Y-89750000D02*
X82200000Y-83300000D01*
X75800000Y-80100000D02*
X70960000Y-75260000D01*
X76000000Y-80100000D02*
X75800000Y-80100000D01*
X76700000Y-80100000D02*
X76000000Y-80100000D01*
X70960000Y-75260000D02*
X70960000Y-75000000D01*
X70960000Y-75260000D02*
X70960000Y-75000000D01*
X94650000Y-90250000D02*
X88050000Y-90250000D01*
X88050000Y-90250000D02*
X82200000Y-84400000D01*
X94650000Y-90750000D02*
X87450000Y-90750000D01*
X87450000Y-90750000D02*
X82200000Y-85500000D01*
X68420000Y-76520000D02*
X68420000Y-75000000D01*
X69100000Y-77200000D02*
X68420000Y-76520000D01*
X72100000Y-77200000D02*
X69100000Y-77200000D01*
X75900000Y-81000000D02*
X72100000Y-77200000D01*
X76700000Y-81000000D02*
X75900000Y-81000000D01*
X94650000Y-91250000D02*
X86850000Y-91250000D01*
X86850000Y-91250000D02*
X82200000Y-86600000D01*
X71900000Y-77800000D02*
X69000000Y-77800000D01*
X76100000Y-82000000D02*
X71900000Y-77800000D01*
X76300000Y-82000000D02*
X76100000Y-82000000D01*
X76700000Y-82000000D02*
X76300000Y-82000000D01*
X69000000Y-77800000D02*
X66200000Y-75000000D01*
X66200000Y-75000000D02*
X65880000Y-75000000D01*
X56550000Y-91190000D02*
X56550000Y-92150000D01*
X51470000Y-92170000D02*
X51470000Y-91190000D01*
X52100000Y-92800000D02*
X51470000Y-92170000D01*
X55900000Y-92800000D02*
X52100000Y-92800000D01*
X56550000Y-92150000D02*
X55900000Y-92800000D01*
X45420000Y-75000000D02*
X45420000Y-76720000D01*
X56550000Y-89350000D02*
X56550000Y-91190000D01*
X55300000Y-88100000D02*
X56550000Y-89350000D01*
X55300000Y-83400000D02*
X55300000Y-88100000D01*
X53700000Y-81800000D02*
X55300000Y-83400000D01*
X49300000Y-81800000D02*
X53700000Y-81800000D01*
X47650000Y-80150000D02*
X49300000Y-81800000D01*
X47650000Y-77850000D02*
X47650000Y-80150000D01*
X47100000Y-77300000D02*
X47650000Y-77850000D01*
X46000000Y-77300000D02*
X47100000Y-77300000D01*
X45420000Y-76720000D02*
X46000000Y-77300000D01*
X52750000Y-88000000D02*
X51300000Y-89450000D01*
X50420000Y-89700000D02*
X48930000Y-91190000D01*
X51050000Y-89700000D02*
X50420000Y-89700000D01*
X51150000Y-89600000D02*
X51050000Y-89700000D01*
X51300000Y-89450000D02*
X51150000Y-89600000D01*
X42880000Y-75000000D02*
X42880000Y-76680000D01*
X54010000Y-89260000D02*
X54010000Y-91190000D01*
X52750000Y-88000000D02*
X54010000Y-89260000D01*
X51600000Y-82600000D02*
X52300000Y-83300000D01*
X48900000Y-82600000D02*
X51600000Y-82600000D01*
X48800000Y-82500000D02*
X48900000Y-82600000D01*
X47100000Y-80800000D02*
X48800000Y-82500000D01*
X45700000Y-80800000D02*
X47100000Y-80800000D01*
X45100000Y-80200000D02*
X45700000Y-80800000D01*
X45100000Y-77900000D02*
X45100000Y-80200000D01*
X44500000Y-77300000D02*
X45100000Y-77900000D01*
X43500000Y-77300000D02*
X44500000Y-77300000D01*
X42880000Y-76680000D02*
X43500000Y-77300000D01*
X40340000Y-75000000D02*
X40340000Y-77960000D01*
X39100000Y-86440000D02*
X43850000Y-91190000D01*
X39100000Y-79200000D02*
X39100000Y-86440000D01*
X40340000Y-77960000D02*
X39100000Y-79200000D01*
X40340000Y-75000000D02*
X40340000Y-75680000D01*
X40340000Y-75680000D02*
X43850000Y-79190000D01*
D42*
X46390000Y-86810000D02*
X46390000Y-87790000D01*
X51470000Y-87830000D02*
X51470000Y-86810000D01*
X50600000Y-88700000D02*
X51470000Y-87830000D01*
X47300000Y-88700000D02*
X50600000Y-88700000D01*
X46390000Y-87790000D02*
X47300000Y-88700000D01*
X40800000Y-84000000D02*
X45500000Y-84000000D01*
X46390000Y-84890000D02*
X46390000Y-85000000D01*
X46390000Y-85000000D02*
X46390000Y-86810000D01*
X45500000Y-84000000D02*
X46390000Y-84890000D01*
X48930000Y-84500000D02*
X53000000Y-84500000D01*
X54010000Y-85510000D02*
X54010000Y-86810000D01*
X53000000Y-84500000D02*
X54010000Y-85510000D01*
X40800000Y-82000000D02*
X46500000Y-82000000D01*
X48930000Y-84430000D02*
X48930000Y-84500000D01*
X48930000Y-84500000D02*
X48930000Y-86810000D01*
X46500000Y-82000000D02*
X48930000Y-84430000D01*
X40800000Y-96000000D02*
X45500000Y-96000000D01*
X46390000Y-96890000D02*
X46390000Y-98810000D01*
X45500000Y-96000000D02*
X46390000Y-96890000D01*
X48930000Y-96500000D02*
X53000000Y-96500000D01*
X54010000Y-97510000D02*
X54010000Y-98810000D01*
X53000000Y-96500000D02*
X54010000Y-97510000D01*
X40800000Y-94000000D02*
X46500000Y-94000000D01*
X48930000Y-96430000D02*
X48930000Y-96500000D01*
X48930000Y-96500000D02*
X48930000Y-98810000D01*
X46500000Y-94000000D02*
X48930000Y-96430000D01*
D35*
X68540000Y-110000000D02*
X68540000Y-111650000D01*
X68540000Y-111650000D02*
X69810000Y-112920000D01*
X66000000Y-110000000D02*
X66000000Y-111650000D01*
X66000000Y-111650000D02*
X69810000Y-115460000D01*
X63460000Y-110000000D02*
X63460000Y-111650000D01*
X63460000Y-111650000D02*
X69810000Y-118000000D01*
X68540000Y-126000000D02*
X68540000Y-124350000D01*
X69810000Y-123080000D02*
X69810000Y-120540000D01*
X68540000Y-124350000D02*
X69810000Y-123080000D01*
X66000000Y-126000000D02*
X66000000Y-116730000D01*
X66000000Y-116730000D02*
X62190000Y-112920000D01*
X63460000Y-126000000D02*
X63460000Y-124350000D01*
X63460000Y-124350000D02*
X62190000Y-123080000D01*
X91500000Y-94200000D02*
X91500000Y-94000000D01*
X91500000Y-94200000D02*
X91500000Y-98200000D01*
X91500000Y-98200000D02*
X90000000Y-99700000D01*
X90000000Y-101000000D02*
X90000000Y-99700000D01*
X92750000Y-92750000D02*
X94650000Y-92750000D01*
X91500000Y-94000000D02*
X92750000Y-92750000D01*
X93000000Y-101100000D02*
X93000000Y-102600000D01*
X94650000Y-93750000D02*
X92850000Y-93750000D01*
X83150000Y-92250000D02*
X80000000Y-92250000D01*
X85400000Y-94500000D02*
X83150000Y-92250000D01*
X92850000Y-93750000D02*
X92300000Y-94300000D01*
X52100000Y-94800000D02*
X49800000Y-94800000D01*
X48300000Y-93300000D02*
X50600000Y-93300000D01*
X52300000Y-95000000D02*
X50600000Y-93300000D01*
X56600000Y-94200000D02*
X55500000Y-94200000D01*
X56550000Y-94250000D02*
X56600000Y-94200000D01*
X56550000Y-94250000D02*
X56550000Y-96250000D01*
X55500000Y-94200000D02*
X54700000Y-95000000D01*
X54700000Y-95000000D02*
X52300000Y-95000000D01*
X49800000Y-94800000D02*
X48300000Y-93300000D01*
X56550000Y-98810000D02*
X56550000Y-96250000D01*
X39300000Y-88600000D02*
X39300000Y-90000000D01*
X39700000Y-89000000D02*
X39300000Y-88600000D01*
X39300000Y-97900000D02*
X39300000Y-97300000D01*
X42000000Y-100900000D02*
X42000000Y-98100000D01*
X42000000Y-100900000D02*
X39300000Y-100900000D01*
X42000000Y-98100000D02*
X41800000Y-97900000D01*
X41800000Y-97900000D02*
X39300000Y-97900000D01*
X39100000Y-92600000D02*
X39700000Y-92000000D01*
X39100000Y-97100000D02*
X39100000Y-92600000D01*
X39300000Y-97300000D02*
X39100000Y-97100000D01*
X39700000Y-92000000D02*
X39700000Y-89000000D01*
X39300000Y-90000000D02*
X39700000Y-90400000D01*
D37*
X56550000Y-96250000D02*
X56450000Y-96150000D01*
D35*
X41800000Y-97900000D02*
X41800000Y-98100000D01*
X41800000Y-98100000D02*
X40500000Y-99400000D01*
D38*
X42880000Y-103000000D02*
X42880000Y-101180000D01*
X42880000Y-101180000D02*
X42500000Y-100800000D01*
D37*
X40340000Y-103000000D02*
X40340000Y-100640000D01*
X40340000Y-100640000D02*
X40300000Y-100600000D01*
D39*
X46390000Y-91190000D02*
X46390000Y-92690000D01*
X46390000Y-92690000D02*
X46400000Y-92700000D01*
D37*
X42880000Y-103000000D02*
X45420000Y-103000000D01*
X40340000Y-103000000D02*
X42880000Y-103000000D01*
D36*
X108650000Y-87750000D02*
X106350000Y-87750000D01*
X109400000Y-88500000D02*
X108650000Y-87750000D01*
X114262596Y-88500000D02*
X109400000Y-88500000D01*
X114862596Y-89100000D02*
X114262596Y-88500000D01*
X121300000Y-89100000D02*
X114862596Y-89100000D01*
X123500000Y-91300000D02*
X121300000Y-89100000D01*
X123500000Y-95400000D02*
X123500000Y-91300000D01*
X123900000Y-95800000D02*
X123500000Y-95400000D01*
X122720008Y-94520008D02*
X122720008Y-91720008D01*
X121620008Y-100729608D02*
X121620008Y-103529608D01*
X122720008Y-99629608D02*
X121620008Y-100729608D01*
X122720008Y-94520008D02*
X122720008Y-99629608D01*
X120224808Y-105524808D02*
X120400000Y-105700000D01*
X120224808Y-104924808D02*
X120224808Y-105524808D01*
X120424808Y-104724808D02*
X120224808Y-104924808D01*
X120824808Y-104324808D02*
X120424808Y-104724808D01*
X120974808Y-104174808D02*
X120824808Y-104324808D01*
X121620008Y-103529608D02*
X120974808Y-104174808D01*
X108450000Y-88750000D02*
X106350000Y-88750000D01*
X109000000Y-89300000D02*
X108450000Y-88750000D01*
X113900000Y-89300000D02*
X109000000Y-89300000D01*
X114500000Y-89900000D02*
X113900000Y-89300000D01*
X120900000Y-89900000D02*
X114500000Y-89900000D01*
X122720008Y-91720008D02*
X120900000Y-89900000D01*
X123100010Y-99787010D02*
X123100010Y-91500010D01*
X122600000Y-100287020D02*
X122600000Y-100700000D01*
X123100010Y-99787010D02*
X122600000Y-100287020D01*
X108550000Y-88250000D02*
X106350000Y-88250000D01*
X109180002Y-88880002D02*
X108550000Y-88250000D01*
X114080002Y-88880002D02*
X109180002Y-88880002D01*
X114700000Y-89500000D02*
X114080002Y-88880002D01*
X121100000Y-89500000D02*
X114700000Y-89500000D01*
X123100010Y-91500010D02*
X121100000Y-89500000D01*
D35*
X93500000Y-97600000D02*
X92900000Y-97600000D01*
X93550000Y-94750000D02*
X94650000Y-94750000D01*
X92500000Y-95800000D02*
X93550000Y-94750000D01*
X92500000Y-97200000D02*
X92500000Y-95800000D01*
X92900000Y-97600000D02*
X92500000Y-97200000D01*
D43*
G36*
X82000000Y-99560000D02*
X87223000Y-99560000D01*
X87223000Y-99959965D01*
X86911265Y-100271155D01*
X86906588Y-100282418D01*
X86899016Y-100280590D01*
X86179605Y-101000000D01*
X86899016Y-101719410D01*
X86906169Y-101717683D01*
X86909995Y-101726943D01*
X87271155Y-102088735D01*
X87743276Y-102284777D01*
X88254481Y-102285223D01*
X88274382Y-102277000D01*
X89724547Y-102277000D01*
X89743276Y-102284777D01*
X90254481Y-102285223D01*
X90274382Y-102277000D01*
X91923000Y-102277000D01*
X91923000Y-104150000D01*
X91931685Y-104196159D01*
X91958965Y-104238553D01*
X92000590Y-104266994D01*
X92050000Y-104277000D01*
X92200000Y-104277000D01*
X92221259Y-104273000D01*
X92873000Y-104273000D01*
X92873000Y-104253000D01*
X93127000Y-104253000D01*
X93127000Y-104273000D01*
X93147000Y-104273000D01*
X93147000Y-104527000D01*
X93127000Y-104527000D01*
X93127000Y-105230248D01*
X93123000Y-105250000D01*
X93123000Y-105350000D01*
X93131685Y-105396159D01*
X93158965Y-105438553D01*
X93200590Y-105466994D01*
X93250000Y-105477000D01*
X93277750Y-105477000D01*
X93285750Y-105485000D01*
X93526310Y-105485000D01*
X93545624Y-105477000D01*
X93954376Y-105477000D01*
X93973690Y-105485000D01*
X94214250Y-105485000D01*
X94222250Y-105477000D01*
X94250000Y-105477000D01*
X94296159Y-105468315D01*
X94338553Y-105441035D01*
X94366994Y-105399410D01*
X94377000Y-105350000D01*
X94377000Y-105250000D01*
X94373000Y-105228741D01*
X94373000Y-104877000D01*
X94627000Y-104877000D01*
X94627000Y-105230248D01*
X94623000Y-105250000D01*
X94623000Y-105350000D01*
X94631685Y-105396159D01*
X94658965Y-105438553D01*
X94700590Y-105466994D01*
X94750000Y-105477000D01*
X94777750Y-105477000D01*
X94785750Y-105485000D01*
X95026310Y-105485000D01*
X95045624Y-105477000D01*
X95454376Y-105477000D01*
X95473690Y-105485000D01*
X95714250Y-105485000D01*
X95722250Y-105477000D01*
X95750000Y-105477000D01*
X95796159Y-105468315D01*
X95838553Y-105441035D01*
X95866994Y-105399410D01*
X95877000Y-105350000D01*
X95877000Y-105250000D01*
X95873000Y-105228741D01*
X95873000Y-104877000D01*
X96127000Y-104877000D01*
X96127000Y-105230248D01*
X96123000Y-105250000D01*
X96123000Y-105407464D01*
X96014832Y-105515632D01*
X95866343Y-105737862D01*
X95814200Y-106000000D01*
X95814200Y-111416264D01*
X95215464Y-112015000D01*
X92782936Y-112015000D01*
X92184200Y-111416264D01*
X92184200Y-110523795D01*
X92363916Y-110523795D01*
X92612306Y-111124943D01*
X93071837Y-111585278D01*
X93672552Y-111834716D01*
X94322995Y-111835284D01*
X94924143Y-111586894D01*
X95384478Y-111127363D01*
X95633916Y-110526648D01*
X95634484Y-109876205D01*
X95386094Y-109275057D01*
X94926563Y-108814722D01*
X94325848Y-108565284D01*
X93675405Y-108564716D01*
X93074257Y-108813106D01*
X92613922Y-109272637D01*
X92364484Y-109873352D01*
X92363916Y-110523795D01*
X92184200Y-110523795D01*
X92184200Y-108700000D01*
X92132057Y-108437862D01*
X91983568Y-108215632D01*
X90983568Y-107215632D01*
X90761338Y-107067143D01*
X90499200Y-107015000D01*
X81500000Y-107015000D01*
X81237862Y-107067143D01*
X81015632Y-107215632D01*
X80015632Y-108215632D01*
X79867143Y-108437862D01*
X79815000Y-108700000D01*
X79815000Y-111416264D01*
X79216264Y-112015000D01*
X76783736Y-112015000D01*
X76185000Y-111416264D01*
X76185000Y-110523795D01*
X76364716Y-110523795D01*
X76613106Y-111124943D01*
X77072637Y-111585278D01*
X77673352Y-111834716D01*
X78323795Y-111835284D01*
X78924943Y-111586894D01*
X79385278Y-111127363D01*
X79634716Y-110526648D01*
X79635284Y-109876205D01*
X79386894Y-109275057D01*
X78927363Y-108814722D01*
X78326648Y-108565284D01*
X77676205Y-108564716D01*
X77075057Y-108813106D01*
X76614722Y-109272637D01*
X76365284Y-109873352D01*
X76364716Y-110523795D01*
X76185000Y-110523795D01*
X76185000Y-106000000D01*
X76132857Y-105737862D01*
X75984368Y-105515632D01*
X75945736Y-105477000D01*
X76900000Y-105477000D01*
X76925919Y-105472123D01*
X76950000Y-105477000D01*
X78800000Y-105477000D01*
X78825919Y-105472123D01*
X78850000Y-105477000D01*
X81250000Y-105477000D01*
X81275919Y-105472123D01*
X81300000Y-105477000D01*
X83100000Y-105477000D01*
X83146159Y-105468315D01*
X83188553Y-105441035D01*
X83216994Y-105399410D01*
X83227000Y-105350000D01*
X83227000Y-104685750D01*
X91965000Y-104685750D01*
X91965000Y-104976309D01*
X92061673Y-105209698D01*
X92240301Y-105388327D01*
X92473690Y-105485000D01*
X92714250Y-105485000D01*
X92873000Y-105326250D01*
X92873000Y-104527000D01*
X92123750Y-104527000D01*
X91965000Y-104685750D01*
X83227000Y-104685750D01*
X83227000Y-101899016D01*
X85280590Y-101899016D01*
X85336271Y-102129611D01*
X85819078Y-102297622D01*
X86329428Y-102268083D01*
X86663729Y-102129611D01*
X86719410Y-101899016D01*
X86000000Y-101179605D01*
X85280590Y-101899016D01*
X83227000Y-101899016D01*
X83227000Y-101650000D01*
X83218315Y-101603841D01*
X83191035Y-101561447D01*
X83149410Y-101533006D01*
X83100000Y-101523000D01*
X80027000Y-101523000D01*
X80027000Y-100819078D01*
X84702378Y-100819078D01*
X84731917Y-101329428D01*
X84870389Y-101663729D01*
X85100984Y-101719410D01*
X85820395Y-101000000D01*
X85100984Y-100280590D01*
X84870389Y-100336271D01*
X84702378Y-100819078D01*
X80027000Y-100819078D01*
X80027000Y-100100984D01*
X85280590Y-100100984D01*
X86000000Y-100820395D01*
X86719410Y-100100984D01*
X86663729Y-99870389D01*
X86180922Y-99702378D01*
X85670572Y-99731917D01*
X85336271Y-99870389D01*
X85280590Y-100100984D01*
X80027000Y-100100984D01*
X80027000Y-99527000D01*
X81800000Y-99527000D01*
X81817524Y-99523703D01*
X82000000Y-99560000D01*
X82000000Y-99560000D01*
G37*
X82000000Y-99560000D02*
X87223000Y-99560000D01*
X87223000Y-99959965D01*
X86911265Y-100271155D01*
X86906588Y-100282418D01*
X86899016Y-100280590D01*
X86179605Y-101000000D01*
X86899016Y-101719410D01*
X86906169Y-101717683D01*
X86909995Y-101726943D01*
X87271155Y-102088735D01*
X87743276Y-102284777D01*
X88254481Y-102285223D01*
X88274382Y-102277000D01*
X89724547Y-102277000D01*
X89743276Y-102284777D01*
X90254481Y-102285223D01*
X90274382Y-102277000D01*
X91923000Y-102277000D01*
X91923000Y-104150000D01*
X91931685Y-104196159D01*
X91958965Y-104238553D01*
X92000590Y-104266994D01*
X92050000Y-104277000D01*
X92200000Y-104277000D01*
X92221259Y-104273000D01*
X92873000Y-104273000D01*
X92873000Y-104253000D01*
X93127000Y-104253000D01*
X93127000Y-104273000D01*
X93147000Y-104273000D01*
X93147000Y-104527000D01*
X93127000Y-104527000D01*
X93127000Y-105230248D01*
X93123000Y-105250000D01*
X93123000Y-105350000D01*
X93131685Y-105396159D01*
X93158965Y-105438553D01*
X93200590Y-105466994D01*
X93250000Y-105477000D01*
X93277750Y-105477000D01*
X93285750Y-105485000D01*
X93526310Y-105485000D01*
X93545624Y-105477000D01*
X93954376Y-105477000D01*
X93973690Y-105485000D01*
X94214250Y-105485000D01*
X94222250Y-105477000D01*
X94250000Y-105477000D01*
X94296159Y-105468315D01*
X94338553Y-105441035D01*
X94366994Y-105399410D01*
X94377000Y-105350000D01*
X94377000Y-105250000D01*
X94373000Y-105228741D01*
X94373000Y-104877000D01*
X94627000Y-104877000D01*
X94627000Y-105230248D01*
X94623000Y-105250000D01*
X94623000Y-105350000D01*
X94631685Y-105396159D01*
X94658965Y-105438553D01*
X94700590Y-105466994D01*
X94750000Y-105477000D01*
X94777750Y-105477000D01*
X94785750Y-105485000D01*
X95026310Y-105485000D01*
X95045624Y-105477000D01*
X95454376Y-105477000D01*
X95473690Y-105485000D01*
X95714250Y-105485000D01*
X95722250Y-105477000D01*
X95750000Y-105477000D01*
X95796159Y-105468315D01*
X95838553Y-105441035D01*
X95866994Y-105399410D01*
X95877000Y-105350000D01*
X95877000Y-105250000D01*
X95873000Y-105228741D01*
X95873000Y-104877000D01*
X96127000Y-104877000D01*
X96127000Y-105230248D01*
X96123000Y-105250000D01*
X96123000Y-105407464D01*
X96014832Y-105515632D01*
X95866343Y-105737862D01*
X95814200Y-106000000D01*
X95814200Y-111416264D01*
X95215464Y-112015000D01*
X92782936Y-112015000D01*
X92184200Y-111416264D01*
X92184200Y-110523795D01*
X92363916Y-110523795D01*
X92612306Y-111124943D01*
X93071837Y-111585278D01*
X93672552Y-111834716D01*
X94322995Y-111835284D01*
X94924143Y-111586894D01*
X95384478Y-111127363D01*
X95633916Y-110526648D01*
X95634484Y-109876205D01*
X95386094Y-109275057D01*
X94926563Y-108814722D01*
X94325848Y-108565284D01*
X93675405Y-108564716D01*
X93074257Y-108813106D01*
X92613922Y-109272637D01*
X92364484Y-109873352D01*
X92363916Y-110523795D01*
X92184200Y-110523795D01*
X92184200Y-108700000D01*
X92132057Y-108437862D01*
X91983568Y-108215632D01*
X90983568Y-107215632D01*
X90761338Y-107067143D01*
X90499200Y-107015000D01*
X81500000Y-107015000D01*
X81237862Y-107067143D01*
X81015632Y-107215632D01*
X80015632Y-108215632D01*
X79867143Y-108437862D01*
X79815000Y-108700000D01*
X79815000Y-111416264D01*
X79216264Y-112015000D01*
X76783736Y-112015000D01*
X76185000Y-111416264D01*
X76185000Y-110523795D01*
X76364716Y-110523795D01*
X76613106Y-111124943D01*
X77072637Y-111585278D01*
X77673352Y-111834716D01*
X78323795Y-111835284D01*
X78924943Y-111586894D01*
X79385278Y-111127363D01*
X79634716Y-110526648D01*
X79635284Y-109876205D01*
X79386894Y-109275057D01*
X78927363Y-108814722D01*
X78326648Y-108565284D01*
X77676205Y-108564716D01*
X77075057Y-108813106D01*
X76614722Y-109272637D01*
X76365284Y-109873352D01*
X76364716Y-110523795D01*
X76185000Y-110523795D01*
X76185000Y-106000000D01*
X76132857Y-105737862D01*
X75984368Y-105515632D01*
X75945736Y-105477000D01*
X76900000Y-105477000D01*
X76925919Y-105472123D01*
X76950000Y-105477000D01*
X78800000Y-105477000D01*
X78825919Y-105472123D01*
X78850000Y-105477000D01*
X81250000Y-105477000D01*
X81275919Y-105472123D01*
X81300000Y-105477000D01*
X83100000Y-105477000D01*
X83146159Y-105468315D01*
X83188553Y-105441035D01*
X83216994Y-105399410D01*
X83227000Y-105350000D01*
X83227000Y-104685750D01*
X91965000Y-104685750D01*
X91965000Y-104976309D01*
X92061673Y-105209698D01*
X92240301Y-105388327D01*
X92473690Y-105485000D01*
X92714250Y-105485000D01*
X92873000Y-105326250D01*
X92873000Y-104527000D01*
X92123750Y-104527000D01*
X91965000Y-104685750D01*
X83227000Y-104685750D01*
X83227000Y-101899016D01*
X85280590Y-101899016D01*
X85336271Y-102129611D01*
X85819078Y-102297622D01*
X86329428Y-102268083D01*
X86663729Y-102129611D01*
X86719410Y-101899016D01*
X86000000Y-101179605D01*
X85280590Y-101899016D01*
X83227000Y-101899016D01*
X83227000Y-101650000D01*
X83218315Y-101603841D01*
X83191035Y-101561447D01*
X83149410Y-101533006D01*
X83100000Y-101523000D01*
X80027000Y-101523000D01*
X80027000Y-100819078D01*
X84702378Y-100819078D01*
X84731917Y-101329428D01*
X84870389Y-101663729D01*
X85100984Y-101719410D01*
X85820395Y-101000000D01*
X85100984Y-100280590D01*
X84870389Y-100336271D01*
X84702378Y-100819078D01*
X80027000Y-100819078D01*
X80027000Y-100100984D01*
X85280590Y-100100984D01*
X86000000Y-100820395D01*
X86719410Y-100100984D01*
X86663729Y-99870389D01*
X86180922Y-99702378D01*
X85670572Y-99731917D01*
X85336271Y-99870389D01*
X85280590Y-100100984D01*
X80027000Y-100100984D01*
X80027000Y-99527000D01*
X81800000Y-99527000D01*
X81817524Y-99523703D01*
X82000000Y-99560000D01*
G36*
X69550590Y-90616994D02*
X69600000Y-90627000D01*
X71823000Y-90627000D01*
X71823000Y-91150000D01*
X71831685Y-91196159D01*
X71858965Y-91238553D01*
X71900590Y-91266994D01*
X71950000Y-91277000D01*
X72150000Y-91277000D01*
X72171259Y-91273000D01*
X72873000Y-91273000D01*
X72873000Y-91253000D01*
X73127000Y-91253000D01*
X73127000Y-91273000D01*
X73147000Y-91273000D01*
X73147000Y-91527000D01*
X73127000Y-91527000D01*
X73127000Y-92180248D01*
X73123000Y-92200000D01*
X73123000Y-92973000D01*
X71350000Y-92973000D01*
X71303841Y-92981685D01*
X71261447Y-93008965D01*
X71233006Y-93050590D01*
X71223000Y-93100000D01*
X71223000Y-93515000D01*
X70885750Y-93515000D01*
X70727000Y-93673750D01*
X70727000Y-94873000D01*
X70747000Y-94873000D01*
X70747000Y-95127000D01*
X70727000Y-95127000D01*
X70727000Y-96230248D01*
X70723000Y-96250000D01*
X70723000Y-96850000D01*
X70731685Y-96896159D01*
X70758965Y-96938553D01*
X70800590Y-96966994D01*
X70850000Y-96977000D01*
X71300000Y-96977000D01*
X71325919Y-96972123D01*
X71350000Y-96977000D01*
X72123000Y-96977000D01*
X72123000Y-99459781D01*
X72115000Y-99500000D01*
X72115000Y-101573000D01*
X71397846Y-101573000D01*
X70960000Y-101485907D01*
X70522154Y-101573000D01*
X68811840Y-101573000D01*
X68776890Y-101558524D01*
X68749460Y-101573000D01*
X68090540Y-101573000D01*
X68063110Y-101558524D01*
X68028160Y-101573000D01*
X66271840Y-101573000D01*
X66236890Y-101558524D01*
X66209460Y-101573000D01*
X65550540Y-101573000D01*
X65523110Y-101558524D01*
X65488160Y-101573000D01*
X63731840Y-101573000D01*
X63696890Y-101558524D01*
X63669460Y-101573000D01*
X63010540Y-101573000D01*
X62983110Y-101558524D01*
X62948160Y-101573000D01*
X61685000Y-101573000D01*
X61685000Y-101200000D01*
X63373000Y-101200000D01*
X63373000Y-101212500D01*
X63388324Y-101272978D01*
X63420652Y-101311661D01*
X63465483Y-101334719D01*
X63515752Y-101338519D01*
X63615752Y-101326019D01*
X63642873Y-101319545D01*
X63686005Y-101293446D01*
X63715584Y-101252623D01*
X63726952Y-101203509D01*
X63718315Y-101153841D01*
X63691035Y-101111447D01*
X63649410Y-101083006D01*
X63600000Y-101073000D01*
X63500000Y-101073000D01*
X63453841Y-101081685D01*
X63411447Y-101108965D01*
X63383006Y-101150590D01*
X63373000Y-101200000D01*
X61685000Y-101200000D01*
X61685000Y-100127000D01*
X66750000Y-100127000D01*
X66775919Y-100122123D01*
X66800000Y-100127000D01*
X67100000Y-100127000D01*
X67146159Y-100118315D01*
X67188553Y-100091035D01*
X67216994Y-100049410D01*
X67227000Y-100000000D01*
X67227000Y-97727000D01*
X67400000Y-97727000D01*
X67446159Y-97718315D01*
X67449437Y-97716206D01*
X67450590Y-97716994D01*
X67500000Y-97727000D01*
X68800000Y-97727000D01*
X68846159Y-97718315D01*
X68888553Y-97691035D01*
X68916994Y-97649410D01*
X68927000Y-97600000D01*
X68927000Y-96485000D01*
X70314250Y-96485000D01*
X70473000Y-96326250D01*
X70473000Y-95127000D01*
X70453000Y-95127000D01*
X70453000Y-94873000D01*
X70473000Y-94873000D01*
X70473000Y-93673750D01*
X70314250Y-93515000D01*
X68840080Y-93515000D01*
X68934838Y-93286799D01*
X68935162Y-92914833D01*
X68793117Y-92571057D01*
X68530327Y-92307808D01*
X68186799Y-92165162D01*
X67814833Y-92164838D01*
X67471057Y-92306883D01*
X67377000Y-92400776D01*
X67377000Y-91685750D01*
X71965000Y-91685750D01*
X71965000Y-91976309D01*
X72061673Y-92209698D01*
X72240301Y-92388327D01*
X72473690Y-92485000D01*
X72714250Y-92485000D01*
X72873000Y-92326250D01*
X72873000Y-91527000D01*
X72123750Y-91527000D01*
X71965000Y-91685750D01*
X67377000Y-91685750D01*
X67377000Y-90627000D01*
X69500000Y-90627000D01*
X69546159Y-90618315D01*
X69549437Y-90616206D01*
X69550590Y-90616994D01*
X69550590Y-90616994D01*
G37*
X69550590Y-90616994D02*
X69600000Y-90627000D01*
X71823000Y-90627000D01*
X71823000Y-91150000D01*
X71831685Y-91196159D01*
X71858965Y-91238553D01*
X71900590Y-91266994D01*
X71950000Y-91277000D01*
X72150000Y-91277000D01*
X72171259Y-91273000D01*
X72873000Y-91273000D01*
X72873000Y-91253000D01*
X73127000Y-91253000D01*
X73127000Y-91273000D01*
X73147000Y-91273000D01*
X73147000Y-91527000D01*
X73127000Y-91527000D01*
X73127000Y-92180248D01*
X73123000Y-92200000D01*
X73123000Y-92973000D01*
X71350000Y-92973000D01*
X71303841Y-92981685D01*
X71261447Y-93008965D01*
X71233006Y-93050590D01*
X71223000Y-93100000D01*
X71223000Y-93515000D01*
X70885750Y-93515000D01*
X70727000Y-93673750D01*
X70727000Y-94873000D01*
X70747000Y-94873000D01*
X70747000Y-95127000D01*
X70727000Y-95127000D01*
X70727000Y-96230248D01*
X70723000Y-96250000D01*
X70723000Y-96850000D01*
X70731685Y-96896159D01*
X70758965Y-96938553D01*
X70800590Y-96966994D01*
X70850000Y-96977000D01*
X71300000Y-96977000D01*
X71325919Y-96972123D01*
X71350000Y-96977000D01*
X72123000Y-96977000D01*
X72123000Y-99459781D01*
X72115000Y-99500000D01*
X72115000Y-101573000D01*
X71397846Y-101573000D01*
X70960000Y-101485907D01*
X70522154Y-101573000D01*
X68811840Y-101573000D01*
X68776890Y-101558524D01*
X68749460Y-101573000D01*
X68090540Y-101573000D01*
X68063110Y-101558524D01*
X68028160Y-101573000D01*
X66271840Y-101573000D01*
X66236890Y-101558524D01*
X66209460Y-101573000D01*
X65550540Y-101573000D01*
X65523110Y-101558524D01*
X65488160Y-101573000D01*
X63731840Y-101573000D01*
X63696890Y-101558524D01*
X63669460Y-101573000D01*
X63010540Y-101573000D01*
X62983110Y-101558524D01*
X62948160Y-101573000D01*
X61685000Y-101573000D01*
X61685000Y-101200000D01*
X63373000Y-101200000D01*
X63373000Y-101212500D01*
X63388324Y-101272978D01*
X63420652Y-101311661D01*
X63465483Y-101334719D01*
X63515752Y-101338519D01*
X63615752Y-101326019D01*
X63642873Y-101319545D01*
X63686005Y-101293446D01*
X63715584Y-101252623D01*
X63726952Y-101203509D01*
X63718315Y-101153841D01*
X63691035Y-101111447D01*
X63649410Y-101083006D01*
X63600000Y-101073000D01*
X63500000Y-101073000D01*
X63453841Y-101081685D01*
X63411447Y-101108965D01*
X63383006Y-101150590D01*
X63373000Y-101200000D01*
X61685000Y-101200000D01*
X61685000Y-100127000D01*
X66750000Y-100127000D01*
X66775919Y-100122123D01*
X66800000Y-100127000D01*
X67100000Y-100127000D01*
X67146159Y-100118315D01*
X67188553Y-100091035D01*
X67216994Y-100049410D01*
X67227000Y-100000000D01*
X67227000Y-97727000D01*
X67400000Y-97727000D01*
X67446159Y-97718315D01*
X67449437Y-97716206D01*
X67450590Y-97716994D01*
X67500000Y-97727000D01*
X68800000Y-97727000D01*
X68846159Y-97718315D01*
X68888553Y-97691035D01*
X68916994Y-97649410D01*
X68927000Y-97600000D01*
X68927000Y-96485000D01*
X70314250Y-96485000D01*
X70473000Y-96326250D01*
X70473000Y-95127000D01*
X70453000Y-95127000D01*
X70453000Y-94873000D01*
X70473000Y-94873000D01*
X70473000Y-93673750D01*
X70314250Y-93515000D01*
X68840080Y-93515000D01*
X68934838Y-93286799D01*
X68935162Y-92914833D01*
X68793117Y-92571057D01*
X68530327Y-92307808D01*
X68186799Y-92165162D01*
X67814833Y-92164838D01*
X67471057Y-92306883D01*
X67377000Y-92400776D01*
X67377000Y-91685750D01*
X71965000Y-91685750D01*
X71965000Y-91976309D01*
X72061673Y-92209698D01*
X72240301Y-92388327D01*
X72473690Y-92485000D01*
X72714250Y-92485000D01*
X72873000Y-92326250D01*
X72873000Y-91527000D01*
X72123750Y-91527000D01*
X71965000Y-91685750D01*
X67377000Y-91685750D01*
X67377000Y-90627000D01*
X69500000Y-90627000D01*
X69546159Y-90618315D01*
X69549437Y-90616206D01*
X69550590Y-90616994D01*
G36*
X81173000Y-89694325D02*
X81165162Y-89713201D01*
X81164838Y-90085167D01*
X81306883Y-90428943D01*
X81569673Y-90692192D01*
X81913201Y-90834838D01*
X82285167Y-90835162D01*
X82304921Y-90827000D01*
X85352198Y-90827000D01*
X86312599Y-91787401D01*
X86559161Y-91952148D01*
X86850000Y-92010000D01*
X91015198Y-92010000D01*
X89452198Y-93573000D01*
X85605675Y-93573000D01*
X85586799Y-93565162D01*
X85539923Y-93565121D01*
X83687401Y-91712599D01*
X83440839Y-91547852D01*
X83150000Y-91490000D01*
X81227000Y-91490000D01*
X81227000Y-90800000D01*
X81218315Y-90753841D01*
X81191035Y-90711447D01*
X81184756Y-90707157D01*
X81166863Y-90436604D01*
X81046701Y-90146508D01*
X80826433Y-90103172D01*
X80179605Y-90750000D01*
X80193748Y-90764143D01*
X80014143Y-90943748D01*
X80000000Y-90929605D01*
X79985858Y-90943748D01*
X79806253Y-90764143D01*
X79820395Y-90750000D01*
X79173567Y-90103172D01*
X78953299Y-90146508D01*
X78802028Y-90593001D01*
X78803822Y-90620125D01*
X78783006Y-90650590D01*
X78773000Y-90700000D01*
X78773000Y-93300000D01*
X78781685Y-93346159D01*
X78808965Y-93388553D01*
X78850590Y-93416994D01*
X78900000Y-93427000D01*
X79473000Y-93427000D01*
X79473000Y-94025750D01*
X79425000Y-94073750D01*
X79425000Y-94439188D01*
X79402560Y-94550000D01*
X79402560Y-95047000D01*
X79175000Y-95047000D01*
X79175000Y-95027000D01*
X78669752Y-95027000D01*
X78650000Y-95023000D01*
X78300000Y-95023000D01*
X78253841Y-95031685D01*
X78211447Y-95058965D01*
X78183006Y-95100590D01*
X78173000Y-95150000D01*
X78173000Y-96500000D01*
X78181685Y-96546159D01*
X78190000Y-96559081D01*
X78190000Y-96673000D01*
X77595624Y-96673000D01*
X77576310Y-96665000D01*
X77335750Y-96665000D01*
X77327750Y-96673000D01*
X77300000Y-96673000D01*
X77253841Y-96681685D01*
X77211447Y-96708965D01*
X77183006Y-96750590D01*
X77173000Y-96800000D01*
X77173000Y-96900000D01*
X77177000Y-96921259D01*
X77177000Y-97773000D01*
X77197000Y-97773000D01*
X77197000Y-98027000D01*
X77177000Y-98027000D01*
X77177000Y-98047000D01*
X76923000Y-98047000D01*
X76923000Y-98027000D01*
X76903000Y-98027000D01*
X76903000Y-97773000D01*
X76923000Y-97773000D01*
X76923000Y-96919752D01*
X76927000Y-96900000D01*
X76927000Y-96497440D01*
X77100000Y-96497440D01*
X77335317Y-96453162D01*
X77551441Y-96314090D01*
X77696431Y-96101890D01*
X77747440Y-95850000D01*
X77747440Y-94423691D01*
X78415000Y-94423691D01*
X78415000Y-94614250D01*
X78573750Y-94773000D01*
X79175000Y-94773000D01*
X79175000Y-94073750D01*
X79016250Y-93915000D01*
X78923690Y-93915000D01*
X78690301Y-94011673D01*
X78511673Y-94190302D01*
X78415000Y-94423691D01*
X77747440Y-94423691D01*
X77747440Y-94150000D01*
X77703162Y-93914683D01*
X77564090Y-93698559D01*
X77351890Y-93553569D01*
X77100000Y-93502560D01*
X76785000Y-93502560D01*
X76785000Y-90673686D01*
X77535119Y-89923567D01*
X79353172Y-89923567D01*
X80000000Y-90570395D01*
X80646828Y-89923567D01*
X80603492Y-89703299D01*
X80156999Y-89552028D01*
X79686604Y-89583137D01*
X79396508Y-89703299D01*
X79353172Y-89923567D01*
X77535119Y-89923567D01*
X79031686Y-88427000D01*
X81173000Y-88427000D01*
X81173000Y-89694325D01*
X81173000Y-89694325D01*
G37*
X81173000Y-89694325D02*
X81165162Y-89713201D01*
X81164838Y-90085167D01*
X81306883Y-90428943D01*
X81569673Y-90692192D01*
X81913201Y-90834838D01*
X82285167Y-90835162D01*
X82304921Y-90827000D01*
X85352198Y-90827000D01*
X86312599Y-91787401D01*
X86559161Y-91952148D01*
X86850000Y-92010000D01*
X91015198Y-92010000D01*
X89452198Y-93573000D01*
X85605675Y-93573000D01*
X85586799Y-93565162D01*
X85539923Y-93565121D01*
X83687401Y-91712599D01*
X83440839Y-91547852D01*
X83150000Y-91490000D01*
X81227000Y-91490000D01*
X81227000Y-90800000D01*
X81218315Y-90753841D01*
X81191035Y-90711447D01*
X81184756Y-90707157D01*
X81166863Y-90436604D01*
X81046701Y-90146508D01*
X80826433Y-90103172D01*
X80179605Y-90750000D01*
X80193748Y-90764143D01*
X80014143Y-90943748D01*
X80000000Y-90929605D01*
X79985858Y-90943748D01*
X79806253Y-90764143D01*
X79820395Y-90750000D01*
X79173567Y-90103172D01*
X78953299Y-90146508D01*
X78802028Y-90593001D01*
X78803822Y-90620125D01*
X78783006Y-90650590D01*
X78773000Y-90700000D01*
X78773000Y-93300000D01*
X78781685Y-93346159D01*
X78808965Y-93388553D01*
X78850590Y-93416994D01*
X78900000Y-93427000D01*
X79473000Y-93427000D01*
X79473000Y-94025750D01*
X79425000Y-94073750D01*
X79425000Y-94439188D01*
X79402560Y-94550000D01*
X79402560Y-95047000D01*
X79175000Y-95047000D01*
X79175000Y-95027000D01*
X78669752Y-95027000D01*
X78650000Y-95023000D01*
X78300000Y-95023000D01*
X78253841Y-95031685D01*
X78211447Y-95058965D01*
X78183006Y-95100590D01*
X78173000Y-95150000D01*
X78173000Y-96500000D01*
X78181685Y-96546159D01*
X78190000Y-96559081D01*
X78190000Y-96673000D01*
X77595624Y-96673000D01*
X77576310Y-96665000D01*
X77335750Y-96665000D01*
X77327750Y-96673000D01*
X77300000Y-96673000D01*
X77253841Y-96681685D01*
X77211447Y-96708965D01*
X77183006Y-96750590D01*
X77173000Y-96800000D01*
X77173000Y-96900000D01*
X77177000Y-96921259D01*
X77177000Y-97773000D01*
X77197000Y-97773000D01*
X77197000Y-98027000D01*
X77177000Y-98027000D01*
X77177000Y-98047000D01*
X76923000Y-98047000D01*
X76923000Y-98027000D01*
X76903000Y-98027000D01*
X76903000Y-97773000D01*
X76923000Y-97773000D01*
X76923000Y-96919752D01*
X76927000Y-96900000D01*
X76927000Y-96497440D01*
X77100000Y-96497440D01*
X77335317Y-96453162D01*
X77551441Y-96314090D01*
X77696431Y-96101890D01*
X77747440Y-95850000D01*
X77747440Y-94423691D01*
X78415000Y-94423691D01*
X78415000Y-94614250D01*
X78573750Y-94773000D01*
X79175000Y-94773000D01*
X79175000Y-94073750D01*
X79016250Y-93915000D01*
X78923690Y-93915000D01*
X78690301Y-94011673D01*
X78511673Y-94190302D01*
X78415000Y-94423691D01*
X77747440Y-94423691D01*
X77747440Y-94150000D01*
X77703162Y-93914683D01*
X77564090Y-93698559D01*
X77351890Y-93553569D01*
X77100000Y-93502560D01*
X76785000Y-93502560D01*
X76785000Y-90673686D01*
X77535119Y-89923567D01*
X79353172Y-89923567D01*
X80000000Y-90570395D01*
X80646828Y-89923567D01*
X80603492Y-89703299D01*
X80156999Y-89552028D01*
X79686604Y-89583137D01*
X79396508Y-89703299D01*
X79353172Y-89923567D01*
X77535119Y-89923567D01*
X79031686Y-88427000D01*
X81173000Y-88427000D01*
X81173000Y-89694325D01*
G36*
X83586600Y-96873000D02*
X83606600Y-96873000D01*
X83606600Y-97127000D01*
X83586600Y-97127000D01*
X83586600Y-97147000D01*
X83332600Y-97147000D01*
X83332600Y-97127000D01*
X83312600Y-97127000D01*
X83312600Y-96873000D01*
X83332600Y-96873000D01*
X83332600Y-96853000D01*
X83586600Y-96853000D01*
X83586600Y-96873000D01*
X83586600Y-96873000D01*
G37*
X83586600Y-96873000D02*
X83606600Y-96873000D01*
X83606600Y-97127000D01*
X83586600Y-97127000D01*
X83586600Y-97147000D01*
X83332600Y-97147000D01*
X83332600Y-97127000D01*
X83312600Y-97127000D01*
X83312600Y-96873000D01*
X83332600Y-96873000D01*
X83332600Y-96853000D01*
X83586600Y-96853000D01*
X83586600Y-96873000D01*
G36*
X102490000Y-87450000D02*
X102547852Y-87740839D01*
X102564941Y-87766415D01*
X102564838Y-87885167D01*
X102706883Y-88228943D01*
X102969673Y-88492192D01*
X103313201Y-88634838D01*
X103573000Y-88635064D01*
X103573000Y-88800000D01*
X103581685Y-88846159D01*
X103608965Y-88888553D01*
X103650590Y-88916994D01*
X103700000Y-88927000D01*
X104573000Y-88927000D01*
X104573000Y-91373000D01*
X103400000Y-91373000D01*
X103356068Y-91381266D01*
X101437401Y-89462599D01*
X101190839Y-89297852D01*
X100900000Y-89240000D01*
X98714802Y-89240000D01*
X98160000Y-88685198D01*
X98160000Y-88000000D01*
X98127000Y-87834099D01*
X98127000Y-87500000D01*
X98124562Y-87487041D01*
X98127000Y-87475000D01*
X98127000Y-87227000D01*
X102490000Y-87227000D01*
X102490000Y-87450000D01*
X102490000Y-87450000D01*
G37*
X102490000Y-87450000D02*
X102547852Y-87740839D01*
X102564941Y-87766415D01*
X102564838Y-87885167D01*
X102706883Y-88228943D01*
X102969673Y-88492192D01*
X103313201Y-88634838D01*
X103573000Y-88635064D01*
X103573000Y-88800000D01*
X103581685Y-88846159D01*
X103608965Y-88888553D01*
X103650590Y-88916994D01*
X103700000Y-88927000D01*
X104573000Y-88927000D01*
X104573000Y-91373000D01*
X103400000Y-91373000D01*
X103356068Y-91381266D01*
X101437401Y-89462599D01*
X101190839Y-89297852D01*
X100900000Y-89240000D01*
X98714802Y-89240000D01*
X98160000Y-88685198D01*
X98160000Y-88000000D01*
X98127000Y-87834099D01*
X98127000Y-87500000D01*
X98124562Y-87487041D01*
X98127000Y-87475000D01*
X98127000Y-87227000D01*
X102490000Y-87227000D01*
X102490000Y-87450000D01*
G36*
X97552560Y-75797000D02*
X97447440Y-75797000D01*
X97447440Y-75503000D01*
X97552560Y-75503000D01*
X97552560Y-75797000D01*
X97552560Y-75797000D01*
G37*
X97552560Y-75797000D02*
X97447440Y-75797000D01*
X97447440Y-75503000D01*
X97552560Y-75503000D01*
X97552560Y-75797000D01*
G36*
X90773000Y-72100000D02*
X90781685Y-72146159D01*
X90808965Y-72188553D01*
X90850590Y-72216994D01*
X90900000Y-72227000D01*
X91015000Y-72227000D01*
X91015000Y-72314250D01*
X91173750Y-72473000D01*
X92373000Y-72473000D01*
X92373000Y-72453000D01*
X92627000Y-72453000D01*
X92627000Y-72473000D01*
X92647000Y-72473000D01*
X92647000Y-72727000D01*
X92627000Y-72727000D01*
X92627000Y-72747000D01*
X92373000Y-72747000D01*
X92373000Y-72727000D01*
X91173750Y-72727000D01*
X91015000Y-72885750D01*
X91015000Y-72973000D01*
X90900000Y-72973000D01*
X90853841Y-72981685D01*
X90811447Y-73008965D01*
X90783006Y-73050590D01*
X90773000Y-73100000D01*
X90773000Y-75373000D01*
X89610000Y-75373000D01*
X89610000Y-75285750D01*
X89451250Y-75127000D01*
X88027000Y-75127000D01*
X88027000Y-75147000D01*
X87773000Y-75147000D01*
X87773000Y-75127000D01*
X86348750Y-75127000D01*
X86190000Y-75285750D01*
X86190000Y-75373000D01*
X83827000Y-75373000D01*
X83827000Y-75300000D01*
X83818315Y-75253841D01*
X83791035Y-75211447D01*
X83749410Y-75183006D01*
X83700000Y-75173000D01*
X83697250Y-75173000D01*
X83651250Y-75127000D01*
X82227000Y-75127000D01*
X82227000Y-75147000D01*
X81973000Y-75147000D01*
X81973000Y-75127000D01*
X81953000Y-75127000D01*
X81953000Y-74873000D01*
X81973000Y-74873000D01*
X81973000Y-74853000D01*
X82227000Y-74853000D01*
X82227000Y-74873000D01*
X83651250Y-74873000D01*
X83810000Y-74714250D01*
X83810000Y-74627000D01*
X83900000Y-74627000D01*
X83946159Y-74618315D01*
X83988553Y-74591035D01*
X84016994Y-74549410D01*
X84027000Y-74500000D01*
X84027000Y-73248690D01*
X86190000Y-73248690D01*
X86190000Y-74714250D01*
X86348750Y-74873000D01*
X87773000Y-74873000D01*
X87773000Y-72898750D01*
X88027000Y-72898750D01*
X88027000Y-74873000D01*
X89451250Y-74873000D01*
X89610000Y-74714250D01*
X89610000Y-73248690D01*
X89513327Y-73015301D01*
X89334698Y-72836673D01*
X89101309Y-72740000D01*
X88185750Y-72740000D01*
X88027000Y-72898750D01*
X87773000Y-72898750D01*
X87614250Y-72740000D01*
X86698691Y-72740000D01*
X86465302Y-72836673D01*
X86286673Y-73015301D01*
X86190000Y-73248690D01*
X84027000Y-73248690D01*
X84027000Y-71760000D01*
X90700000Y-71760000D01*
X90773000Y-71745479D01*
X90773000Y-72100000D01*
X90773000Y-72100000D01*
G37*
X90773000Y-72100000D02*
X90781685Y-72146159D01*
X90808965Y-72188553D01*
X90850590Y-72216994D01*
X90900000Y-72227000D01*
X91015000Y-72227000D01*
X91015000Y-72314250D01*
X91173750Y-72473000D01*
X92373000Y-72473000D01*
X92373000Y-72453000D01*
X92627000Y-72453000D01*
X92627000Y-72473000D01*
X92647000Y-72473000D01*
X92647000Y-72727000D01*
X92627000Y-72727000D01*
X92627000Y-72747000D01*
X92373000Y-72747000D01*
X92373000Y-72727000D01*
X91173750Y-72727000D01*
X91015000Y-72885750D01*
X91015000Y-72973000D01*
X90900000Y-72973000D01*
X90853841Y-72981685D01*
X90811447Y-73008965D01*
X90783006Y-73050590D01*
X90773000Y-73100000D01*
X90773000Y-75373000D01*
X89610000Y-75373000D01*
X89610000Y-75285750D01*
X89451250Y-75127000D01*
X88027000Y-75127000D01*
X88027000Y-75147000D01*
X87773000Y-75147000D01*
X87773000Y-75127000D01*
X86348750Y-75127000D01*
X86190000Y-75285750D01*
X86190000Y-75373000D01*
X83827000Y-75373000D01*
X83827000Y-75300000D01*
X83818315Y-75253841D01*
X83791035Y-75211447D01*
X83749410Y-75183006D01*
X83700000Y-75173000D01*
X83697250Y-75173000D01*
X83651250Y-75127000D01*
X82227000Y-75127000D01*
X82227000Y-75147000D01*
X81973000Y-75147000D01*
X81973000Y-75127000D01*
X81953000Y-75127000D01*
X81953000Y-74873000D01*
X81973000Y-74873000D01*
X81973000Y-74853000D01*
X82227000Y-74853000D01*
X82227000Y-74873000D01*
X83651250Y-74873000D01*
X83810000Y-74714250D01*
X83810000Y-74627000D01*
X83900000Y-74627000D01*
X83946159Y-74618315D01*
X83988553Y-74591035D01*
X84016994Y-74549410D01*
X84027000Y-74500000D01*
X84027000Y-73248690D01*
X86190000Y-73248690D01*
X86190000Y-74714250D01*
X86348750Y-74873000D01*
X87773000Y-74873000D01*
X87773000Y-72898750D01*
X88027000Y-72898750D01*
X88027000Y-74873000D01*
X89451250Y-74873000D01*
X89610000Y-74714250D01*
X89610000Y-73248690D01*
X89513327Y-73015301D01*
X89334698Y-72836673D01*
X89101309Y-72740000D01*
X88185750Y-72740000D01*
X88027000Y-72898750D01*
X87773000Y-72898750D01*
X87614250Y-72740000D01*
X86698691Y-72740000D01*
X86465302Y-72836673D01*
X86286673Y-73015301D01*
X86190000Y-73248690D01*
X84027000Y-73248690D01*
X84027000Y-71760000D01*
X90700000Y-71760000D01*
X90773000Y-71745479D01*
X90773000Y-72100000D01*
G36*
X79627000Y-74623000D02*
X79647000Y-74623000D01*
X79647000Y-74877000D01*
X79627000Y-74877000D01*
X79627000Y-74897000D01*
X79373000Y-74897000D01*
X79373000Y-74877000D01*
X79353000Y-74877000D01*
X79353000Y-74623000D01*
X79373000Y-74623000D01*
X79373000Y-74603000D01*
X79627000Y-74603000D01*
X79627000Y-74623000D01*
X79627000Y-74623000D01*
G37*
X79627000Y-74623000D02*
X79647000Y-74623000D01*
X79647000Y-74877000D01*
X79627000Y-74877000D01*
X79627000Y-74897000D01*
X79373000Y-74897000D01*
X79373000Y-74877000D01*
X79353000Y-74877000D01*
X79353000Y-74623000D01*
X79373000Y-74623000D01*
X79373000Y-74603000D01*
X79627000Y-74603000D01*
X79627000Y-74623000D01*
G36*
X42373000Y-90787802D02*
X42373000Y-92500000D01*
X42381685Y-92546159D01*
X42408965Y-92588553D01*
X42450590Y-92616994D01*
X42500000Y-92627000D01*
X46145499Y-92627000D01*
X46173223Y-92636965D01*
X46382233Y-92627000D01*
X50878877Y-92627000D01*
X50932599Y-92707401D01*
X51562599Y-93337401D01*
X51809161Y-93502148D01*
X52100000Y-93560000D01*
X55900000Y-93560000D01*
X55940218Y-93552000D01*
X57315000Y-93552000D01*
X57315000Y-96000000D01*
X57367143Y-96262138D01*
X57515632Y-96484368D01*
X57737862Y-96632857D01*
X57873000Y-96659738D01*
X57873000Y-98222904D01*
X57827000Y-98111850D01*
X57827000Y-97500000D01*
X57818315Y-97453841D01*
X57791035Y-97411447D01*
X57749410Y-97383006D01*
X57700000Y-97373000D01*
X56794501Y-97373000D01*
X56766777Y-97363035D01*
X56557767Y-97373000D01*
X55017750Y-97373000D01*
X54966215Y-97113923D01*
X54963725Y-97110197D01*
X54741856Y-96778144D01*
X54741853Y-96778142D01*
X53731856Y-95768144D01*
X53396077Y-95543785D01*
X53000000Y-95464999D01*
X52999995Y-95465000D01*
X49428711Y-95465000D01*
X47231856Y-93268144D01*
X46896077Y-93043785D01*
X46500000Y-92964999D01*
X46499995Y-92965000D01*
X41723784Y-92965000D01*
X41585564Y-92826539D01*
X41076702Y-92615241D01*
X40525715Y-92614760D01*
X40016485Y-92825169D01*
X39626539Y-93214436D01*
X39415241Y-93723298D01*
X39414760Y-94274285D01*
X39423000Y-94294227D01*
X39423000Y-95704612D01*
X39415241Y-95723298D01*
X39414760Y-96274285D01*
X39625169Y-96783515D01*
X40014436Y-97173461D01*
X40523298Y-97384759D01*
X41074285Y-97385240D01*
X41215237Y-97327000D01*
X42373000Y-97327000D01*
X42373000Y-100100000D01*
X42382334Y-100147789D01*
X42410197Y-100189803D01*
X43273000Y-101052606D01*
X43273000Y-101473000D01*
X38685000Y-101473000D01*
X38685000Y-87099802D01*
X42373000Y-90787802D01*
X42373000Y-90787802D01*
G37*
X42373000Y-90787802D02*
X42373000Y-92500000D01*
X42381685Y-92546159D01*
X42408965Y-92588553D01*
X42450590Y-92616994D01*
X42500000Y-92627000D01*
X46145499Y-92627000D01*
X46173223Y-92636965D01*
X46382233Y-92627000D01*
X50878877Y-92627000D01*
X50932599Y-92707401D01*
X51562599Y-93337401D01*
X51809161Y-93502148D01*
X52100000Y-93560000D01*
X55900000Y-93560000D01*
X55940218Y-93552000D01*
X57315000Y-93552000D01*
X57315000Y-96000000D01*
X57367143Y-96262138D01*
X57515632Y-96484368D01*
X57737862Y-96632857D01*
X57873000Y-96659738D01*
X57873000Y-98222904D01*
X57827000Y-98111850D01*
X57827000Y-97500000D01*
X57818315Y-97453841D01*
X57791035Y-97411447D01*
X57749410Y-97383006D01*
X57700000Y-97373000D01*
X56794501Y-97373000D01*
X56766777Y-97363035D01*
X56557767Y-97373000D01*
X55017750Y-97373000D01*
X54966215Y-97113923D01*
X54963725Y-97110197D01*
X54741856Y-96778144D01*
X54741853Y-96778142D01*
X53731856Y-95768144D01*
X53396077Y-95543785D01*
X53000000Y-95464999D01*
X52999995Y-95465000D01*
X49428711Y-95465000D01*
X47231856Y-93268144D01*
X46896077Y-93043785D01*
X46500000Y-92964999D01*
X46499995Y-92965000D01*
X41723784Y-92965000D01*
X41585564Y-92826539D01*
X41076702Y-92615241D01*
X40525715Y-92614760D01*
X40016485Y-92825169D01*
X39626539Y-93214436D01*
X39415241Y-93723298D01*
X39414760Y-94274285D01*
X39423000Y-94294227D01*
X39423000Y-95704612D01*
X39415241Y-95723298D01*
X39414760Y-96274285D01*
X39625169Y-96783515D01*
X40014436Y-97173461D01*
X40523298Y-97384759D01*
X41074285Y-97385240D01*
X41215237Y-97327000D01*
X42373000Y-97327000D01*
X42373000Y-100100000D01*
X42382334Y-100147789D01*
X42410197Y-100189803D01*
X43273000Y-101052606D01*
X43273000Y-101473000D01*
X38685000Y-101473000D01*
X38685000Y-87099802D01*
X42373000Y-90787802D01*
G36*
X56743748Y-86795858D02*
X56729605Y-86810000D01*
X56743748Y-86824142D01*
X56564142Y-87003748D01*
X56550000Y-86989605D01*
X56535858Y-87003748D01*
X56356253Y-86824143D01*
X56370395Y-86810000D01*
X56356253Y-86795858D01*
X56535858Y-86616252D01*
X56550000Y-86630395D01*
X56564142Y-86616252D01*
X56743748Y-86795858D01*
X56743748Y-86795858D01*
G37*
X56743748Y-86795858D02*
X56729605Y-86810000D01*
X56743748Y-86824142D01*
X56564142Y-87003748D01*
X56550000Y-86989605D01*
X56535858Y-87003748D01*
X56356253Y-86824143D01*
X56370395Y-86810000D01*
X56356253Y-86795858D01*
X56535858Y-86616252D01*
X56550000Y-86630395D01*
X56564142Y-86616252D01*
X56743748Y-86795858D01*
G36*
X46583748Y-79175858D02*
X46569605Y-79190000D01*
X46583748Y-79204143D01*
X46404142Y-79383748D01*
X46390000Y-79369605D01*
X46375858Y-79383748D01*
X46196253Y-79204143D01*
X46210395Y-79190000D01*
X46196253Y-79175858D01*
X46375858Y-78996252D01*
X46390000Y-79010395D01*
X46404142Y-78996252D01*
X46583748Y-79175858D01*
X46583748Y-79175858D01*
G37*
X46583748Y-79175858D02*
X46569605Y-79190000D01*
X46583748Y-79204143D01*
X46404142Y-79383748D01*
X46390000Y-79369605D01*
X46375858Y-79383748D01*
X46196253Y-79204143D01*
X46210395Y-79190000D01*
X46196253Y-79175858D01*
X46375858Y-78996252D01*
X46390000Y-79010395D01*
X46404142Y-78996252D01*
X46583748Y-79175858D01*
M02*
