M48
;DRILL file {KiCad 4.0.1-stable} date 2018/06/25 22:31:20
;FORMAT={-:-/ absolute / metric / decimal}
FMAT,2
METRIC,TZ
T1C0.400
T2C0.600
T3C0.700
T4C0.762
T5C0.800
T6C1.000
%
G90
G05
M71
T1
X39.3Y-88.6
X39.3Y-97.9
X39.3Y-100.9
X39.7Y-90.4
X39.7Y-92.
X40.5Y-99.4
X41.8Y-97.9
X42.Y-100.9
X48.3Y-93.3
X49.8Y-94.8
X50.6Y-93.3
X52.1Y-94.8
X52.3Y-83.3
X52.75Y-88.
X54.7Y-95.
X56.55Y-96.25
X56.6Y-94.2
X63.34Y-101.
X67.4Y-101.
X67.8Y-98.2
X68.Y-91.2
X68.Y-93.1
X69.7Y-97.2
X69.7Y-99.5
X71.4Y-91.1
X71.5Y-97.6
X71.5Y-101.
X73.4Y-87.1
X76.7Y-79.2
X76.7Y-80.1
X76.7Y-81.
X76.7Y-82.
X76.7Y-82.9
X77.Y-106.2
X77.Y-107.9
X77.85Y-90.75
X77.85Y-91.95
X77.85Y-93.15
X79.2Y-107.9
X79.9Y-106.3
X80.Y-89.
X80.5Y-100.
X80.5Y-101.
X81.2Y-86.7
X81.4Y-95.8
X82.1Y-89.9
X82.2Y-83.3
X82.2Y-84.4
X82.2Y-85.5
X82.2Y-86.6
X83.2Y-100.4
X84.2Y-102.2
X84.2Y-105.9
X84.5Y-72.2
X84.5Y-73.6
X84.5Y-75.
X85.4Y-94.5
X85.7Y-72.2
X85.7Y-73.6
X85.7Y-75.
X86.1Y-104.
X87.8Y-105.9
X87.9Y-72.3
X89.Y-104.
X89.9Y-92.5
X90.2Y-72.3
X90.2Y-75.
X90.5Y-83.5
X91.4Y-102.8
X91.4Y-105.9
X92.3Y-94.3
X92.8Y-108.
X93.8Y-98.8
X94.4Y-82.4
X95.Y-106.2
X95.Y-108.
X95.3Y-80.5
X96.5Y-93.4
X98.1Y-93.3
X98.4Y-82.2
X98.7Y-92.6
X98.8Y-87.8
X99.1Y-90.8
X99.1Y-91.7
X99.1Y-102.5
X99.4Y-80.5
X99.6Y-100.
X100.3Y-88.7
X101.1Y-93.1
X101.1Y-94.3
X101.9Y-87.8
X102.6Y-89.3
X103.25Y-95.8
X103.4Y-99.1
X103.5Y-87.7
X103.7Y-82.8
X103.9Y-90.8
X105.3Y-77.1
X106.3Y-119.6
X108.Y-102.4
X109.Y-78.3
X110.5Y-115.3
X113.1Y-90.
X114.2Y-112.1
X117.2Y-85.6
X117.4Y-109.4
X119.2Y-85.6
X120.4Y-85.6
X120.4Y-105.7
X120.5Y-86.6
X121.Y-73.6
X121.1Y-72.7
X122.6Y-100.7
X122.8Y-86.7
X123.Y-87.6
X123.3Y-88.5
X123.9Y-95.8
X124.2Y-79.
X125.Y-88.2
X125.7Y-91.7
X125.9Y-89.
T2
X78.Y-102.75
X78.Y-104.25
X80.Y-90.75
X80.Y-92.25
X82.Y-102.75
X82.Y-104.25
T3
X40.8Y-82.
X40.8Y-84.
X40.8Y-94.
X40.8Y-96.
X68.Y-79.5
X68.Y-81.5
X68.Y-86.5
X68.Y-88.5
X86.Y-101.
X88.Y-101.
X90.Y-101.
T4
X62.19Y-112.92
X62.19Y-115.46
X62.19Y-118.
X62.19Y-120.54
X62.19Y-123.08
X69.81Y-112.92
X69.81Y-115.46
X69.81Y-118.
X69.81Y-120.54
X69.81Y-123.08
X108.04Y-57.569
X108.04Y-120.431
X109.329Y-55.381
X109.329Y-122.619
X110.228Y-58.859
X110.228Y-119.141
X111.517Y-56.67
X111.517Y-121.33
X112.498Y-60.433
X112.498Y-117.567
X114.097Y-58.459
X114.097Y-119.541
X114.472Y-62.032
X114.472Y-115.968
X116.071Y-60.058
X116.071Y-117.942
X116.485Y-63.925
X116.485Y-114.075
X118.201Y-65.798
X118.201Y-112.202
X118.357Y-62.209
X118.357Y-115.791
X119.911Y-67.967
X119.911Y-110.033
X120.073Y-64.082
X120.073Y-113.918
X121.331Y-70.073
X121.331Y-107.927
X122.017Y-66.547
X122.017Y-111.453
X122.702Y-72.472
X122.702Y-105.528
X123.437Y-68.653
X123.437Y-109.348
X123.796Y-74.764
X123.796Y-103.236
X124.797Y-77.339
X124.797Y-100.661
X124.995Y-71.378
X124.995Y-106.622
X125.54Y-79.768
X125.54Y-98.232
X126.088Y-73.671
X126.088Y-104.329
X126.149Y-82.463
X126.149Y-95.537
X126.525Y-84.975
X126.525Y-93.025
X126.73Y-87.73
X126.73Y-90.27
X127.226Y-76.596
X127.226Y-101.404
X127.969Y-79.025
X127.969Y-98.975
X128.662Y-82.087
X128.662Y-95.913
X129.037Y-84.599
X129.037Y-93.401
X129.27Y-87.73
X129.27Y-90.27
T5
X43.85Y-79.19
X43.85Y-86.81
X43.85Y-91.19
X43.85Y-98.81
X46.39Y-79.19
X46.39Y-86.81
X46.39Y-91.19
X46.39Y-98.81
X48.93Y-79.19
X48.93Y-86.81
X48.93Y-91.19
X48.93Y-98.81
X51.47Y-79.19
X51.47Y-86.81
X51.47Y-91.19
X51.47Y-98.81
X54.01Y-79.19
X54.01Y-86.81
X54.01Y-91.19
X54.01Y-98.81
X56.55Y-79.19
X56.55Y-86.81
X56.55Y-91.19
X56.55Y-98.81
T6
X40.34Y-75.
X40.34Y-103.
X42.88Y-75.
X42.88Y-103.
X45.42Y-75.
X45.42Y-103.
X47.96Y-75.
X47.96Y-103.
X50.5Y-75.
X50.5Y-103.
X63.34Y-75.
X63.34Y-103.
X63.46Y-110.
X63.46Y-126.
X65.88Y-75.
X65.88Y-103.
X66.Y-110.
X66.Y-126.
X68.42Y-75.
X68.42Y-103.
X68.54Y-110.
X68.54Y-126.
X70.96Y-75.
X70.96Y-103.
X73.5Y-75.
X73.5Y-103.
X83.46Y-81.
X83.46Y-97.
X86.Y-81.
X86.Y-97.
X88.54Y-81.
X88.54Y-97.
T0
M30
