%FSLAX45Y45*%
G04 Gerber Fmt 4.5, Leading zero omitted, Abs format (unit mm)*
G04 Created by KiCad (PCBNEW 4.0.1-stable) date 2018/06/25 22:31:21*
%MOMM*%
G01*
G04 APERTURE LIST*
%ADD10C,0.127000*%
%ADD11C,0.100000*%
%ADD12C,0.200000*%
%ADD13C,0.300000*%
G04 APERTURE END LIST*
D10*
D11*
X6750000Y-10500000D02*
X7450000Y-10500000D01*
X6750000Y-10800000D02*
X6750000Y-10500000D01*
X7000000Y-10800000D02*
X6750000Y-10800000D01*
X6450000Y-10500000D02*
X6200000Y-10500000D01*
X6450000Y-10800000D02*
X6450000Y-10500000D01*
X6200000Y-10800000D02*
X6450000Y-10800000D01*
X6100000Y-9600000D02*
X6100000Y-8200000D01*
X5800000Y-9600000D02*
X6100000Y-9600000D01*
X5800000Y-8200000D02*
X5800000Y-9600000D01*
X5800000Y-8200000D02*
X6100000Y-8200000D01*
X6100000Y-7900000D02*
X6100000Y-7400000D01*
X5800000Y-7900000D02*
X6100000Y-7900000D01*
X5800000Y-7400000D02*
X5800000Y-7900000D01*
X6100000Y-9900000D02*
X6100000Y-10400000D01*
X5800000Y-9900000D02*
X6100000Y-9900000D01*
X5800000Y-10400000D02*
X5800000Y-9900000D01*
X6100000Y-10900000D02*
X6200000Y-10800000D01*
X6100000Y-12700000D02*
X6100000Y-10900000D01*
X6200000Y-12800000D02*
X6100000Y-12700000D01*
X7000000Y-12800000D02*
X6200000Y-12800000D01*
X7100000Y-12700000D02*
X7000000Y-12800000D01*
X7100000Y-10900000D02*
X7100000Y-12700000D01*
X7000000Y-10800000D02*
X7100000Y-10900000D01*
X5700000Y-7300000D02*
X3900000Y-7300000D01*
X5800000Y-7400000D02*
X5700000Y-7300000D01*
X5700000Y-10500000D02*
X5800000Y-10400000D01*
X3900000Y-10500000D02*
X5700000Y-10500000D01*
X3800000Y-10400000D02*
X3900000Y-10500000D01*
X3800000Y-7400000D02*
X3800000Y-10400000D01*
X3900000Y-7300000D02*
X3800000Y-7400000D01*
X10170129Y-6037474D02*
G75*
G02X12069068Y-8176320I-1070169J-2862526D01*
G01*
X12069068Y-9623680D02*
G75*
G02X10170129Y-11762526I-2969108J723680D01*
G01*
X10149920Y-5030000D02*
G75*
G02X10149920Y-12770000I-1049960J-3870000D01*
G01*
X8849920Y-12670000D02*
X8849920Y-12370000D01*
X8949920Y-12770000D02*
X8849920Y-12670000D01*
X10149920Y-12770000D02*
X8949920Y-12770000D01*
X8949920Y-5030000D02*
X10149920Y-5030000D01*
X8849920Y-5130000D02*
X8949920Y-5030000D01*
X8849920Y-5430000D02*
X8849920Y-5130000D01*
X8949920Y-5530000D02*
X8849920Y-5430000D01*
X9608499Y-5530000D02*
X8949920Y-5530000D01*
X9679209Y-5559289D02*
X9608499Y-5530000D01*
X10134437Y-6014517D02*
X9679209Y-5559289D01*
X10170129Y-6037474D02*
X10134437Y-6014517D01*
X11971912Y-8300000D02*
X12069068Y-8176320D01*
X11199920Y-8300000D02*
X11971912Y-8300000D01*
X11099920Y-8200000D02*
X11199920Y-8300000D01*
X11099920Y-7400000D02*
X11099920Y-8200000D01*
X10999920Y-7300000D02*
X11099920Y-7400000D01*
X9749920Y-7300000D02*
X10999920Y-7300000D01*
X9649920Y-7200000D02*
X9749920Y-7300000D01*
X9649920Y-6630000D02*
X9649920Y-7200000D01*
X9549920Y-6530000D02*
X9649920Y-6630000D01*
X9249920Y-6530000D02*
X9549920Y-6530000D01*
X9149920Y-6630000D02*
X9249920Y-6530000D01*
X9149920Y-6930000D02*
X9149920Y-6630000D01*
X9049920Y-7030000D02*
X9149920Y-6930000D01*
X8150000Y-7030000D02*
X9049920Y-7030000D01*
X8050000Y-6930000D02*
X8150000Y-7030000D01*
X8050000Y-6630000D02*
X8050000Y-6930000D01*
X7950000Y-6530000D02*
X8050000Y-6630000D01*
X7650000Y-6530000D02*
X7950000Y-6530000D01*
X7550000Y-6630000D02*
X7650000Y-6530000D01*
X7550000Y-7200000D02*
X7550000Y-6630000D01*
X7450000Y-7300000D02*
X7550000Y-7200000D01*
X6200000Y-7300000D02*
X7450000Y-7300000D01*
X6100000Y-7400000D02*
X6200000Y-7300000D01*
X6200000Y-10500000D02*
X6100000Y-10400000D01*
X7550000Y-10600000D02*
X7450000Y-10500000D01*
X7550000Y-11170000D02*
X7550000Y-10600000D01*
X7650000Y-11270000D02*
X7550000Y-11170000D01*
X7950000Y-11270000D02*
X7650000Y-11270000D01*
X8050000Y-11170000D02*
X7950000Y-11270000D01*
X8050000Y-10870000D02*
X8050000Y-11170000D01*
X8150000Y-10770000D02*
X8050000Y-10870000D01*
X9049920Y-10770000D02*
X8150000Y-10770000D01*
X9149920Y-10870000D02*
X9049920Y-10770000D01*
X9149920Y-11170000D02*
X9149920Y-10870000D01*
X9249920Y-11270000D02*
X9149920Y-11170000D01*
X9549920Y-11270000D02*
X9249920Y-11270000D01*
X9649920Y-11170000D02*
X9549920Y-11270000D01*
X9649920Y-10600000D02*
X9649920Y-11170000D01*
X9749920Y-10500000D02*
X9649920Y-10600000D01*
X10999920Y-10500000D02*
X9749920Y-10500000D01*
X11099920Y-10400000D02*
X10999920Y-10500000D01*
X11099920Y-9600000D02*
X11099920Y-10400000D01*
X11199920Y-9500000D02*
X11099920Y-9600000D01*
X11971912Y-9500000D02*
X11199920Y-9500000D01*
X12069068Y-9623680D02*
X11971912Y-9500000D01*
X10134437Y-11785483D02*
X10170129Y-11762526D01*
X9679209Y-12240711D02*
X10134437Y-11785483D01*
X9608499Y-12270000D02*
X9679209Y-12240711D01*
X8949920Y-12270000D02*
X9608499Y-12270000D01*
X8849920Y-12370000D02*
X8949920Y-12270000D01*
D12*
X3910000Y-8840000D02*
X3950000Y-8880000D01*
X3950000Y-8840000D02*
X3910000Y-8880000D01*
X3910000Y-9770000D02*
X3950000Y-9810000D01*
X3950000Y-9770000D02*
X3910000Y-9810000D01*
X3910000Y-10070000D02*
X3950000Y-10110000D01*
X3950000Y-10070000D02*
X3910000Y-10110000D01*
X3950000Y-9020000D02*
X3990000Y-9060000D01*
X3990000Y-9020000D02*
X3950000Y-9060000D01*
X3950000Y-9180000D02*
X3990000Y-9220000D01*
X3990000Y-9180000D02*
X3950000Y-9220000D01*
X4030000Y-9920000D02*
X4070000Y-9960000D01*
X4070000Y-9920000D02*
X4030000Y-9960000D01*
X4160000Y-9770000D02*
X4200000Y-9810000D01*
X4200000Y-9770000D02*
X4160000Y-9810000D01*
X4180000Y-10070000D02*
X4220000Y-10110000D01*
X4220000Y-10070000D02*
X4180000Y-10110000D01*
X4810000Y-9310000D02*
X4850000Y-9350000D01*
X4850000Y-9310000D02*
X4810000Y-9350000D01*
X4960000Y-9460000D02*
X5000000Y-9500000D01*
X5000000Y-9460000D02*
X4960000Y-9500000D01*
X5040000Y-9310000D02*
X5080000Y-9350000D01*
X5080000Y-9310000D02*
X5040000Y-9350000D01*
X5190000Y-9460000D02*
X5230000Y-9500000D01*
X5230000Y-9460000D02*
X5190000Y-9500000D01*
X5210000Y-8310000D02*
X5250000Y-8350000D01*
X5250000Y-8310000D02*
X5210000Y-8350000D01*
X5255000Y-8780000D02*
X5295000Y-8820000D01*
X5295000Y-8780000D02*
X5255000Y-8820000D01*
X5450000Y-9480000D02*
X5490000Y-9520000D01*
X5490000Y-9480000D02*
X5450000Y-9520000D01*
X5635000Y-9605000D02*
X5675000Y-9645000D01*
X5675000Y-9605000D02*
X5635000Y-9645000D01*
X5640000Y-9400000D02*
X5680000Y-9440000D01*
X5680000Y-9400000D02*
X5640000Y-9440000D01*
X6314000Y-10080000D02*
X6354000Y-10120000D01*
X6354000Y-10080000D02*
X6314000Y-10120000D01*
X6720000Y-10080000D02*
X6760000Y-10120000D01*
X6760000Y-10080000D02*
X6720000Y-10120000D01*
X6760000Y-9800000D02*
X6800000Y-9840000D01*
X6800000Y-9800000D02*
X6760000Y-9840000D01*
X6780000Y-9100000D02*
X6820000Y-9140000D01*
X6820000Y-9100000D02*
X6780000Y-9140000D01*
X6780000Y-9290000D02*
X6820000Y-9330000D01*
X6820000Y-9290000D02*
X6780000Y-9330000D01*
X6950000Y-9700000D02*
X6990000Y-9740000D01*
X6990000Y-9700000D02*
X6950000Y-9740000D01*
X6950000Y-9930000D02*
X6990000Y-9970000D01*
X6990000Y-9930000D02*
X6950000Y-9970000D01*
X7120000Y-9090000D02*
X7160000Y-9130000D01*
X7160000Y-9090000D02*
X7120000Y-9130000D01*
X7130000Y-9740000D02*
X7170000Y-9780000D01*
X7170000Y-9740000D02*
X7130000Y-9780000D01*
X7130000Y-10080000D02*
X7170000Y-10120000D01*
X7170000Y-10080000D02*
X7130000Y-10120000D01*
X7320000Y-8690000D02*
X7360000Y-8730000D01*
X7360000Y-8690000D02*
X7320000Y-8730000D01*
X7650000Y-7900000D02*
X7690000Y-7940000D01*
X7690000Y-7900000D02*
X7650000Y-7940000D01*
X7650000Y-7990000D02*
X7690000Y-8030000D01*
X7690000Y-7990000D02*
X7650000Y-8030000D01*
X7650000Y-8080000D02*
X7690000Y-8120000D01*
X7690000Y-8080000D02*
X7650000Y-8120000D01*
X7650000Y-8180000D02*
X7690000Y-8220000D01*
X7690000Y-8180000D02*
X7650000Y-8220000D01*
X7650000Y-8270000D02*
X7690000Y-8310000D01*
X7690000Y-8270000D02*
X7650000Y-8310000D01*
X7680000Y-10600000D02*
X7720000Y-10640000D01*
X7720000Y-10600000D02*
X7680000Y-10640000D01*
X7680000Y-10770000D02*
X7720000Y-10810000D01*
X7720000Y-10770000D02*
X7680000Y-10810000D01*
X7765000Y-9055000D02*
X7805000Y-9095000D01*
X7805000Y-9055000D02*
X7765000Y-9095000D01*
X7765000Y-9175000D02*
X7805000Y-9215000D01*
X7805000Y-9175000D02*
X7765000Y-9215000D01*
X7765000Y-9295000D02*
X7805000Y-9335000D01*
X7805000Y-9295000D02*
X7765000Y-9335000D01*
X7900000Y-10770000D02*
X7940000Y-10810000D01*
X7940000Y-10770000D02*
X7900000Y-10810000D01*
X7970000Y-10610000D02*
X8010000Y-10650000D01*
X8010000Y-10610000D02*
X7970000Y-10650000D01*
X7980000Y-8880000D02*
X8020000Y-8920000D01*
X8020000Y-8880000D02*
X7980000Y-8920000D01*
X8030000Y-9980000D02*
X8070000Y-10020000D01*
X8070000Y-9980000D02*
X8030000Y-10020000D01*
X8030000Y-10080000D02*
X8070000Y-10120000D01*
X8070000Y-10080000D02*
X8030000Y-10120000D01*
X8100000Y-8650000D02*
X8140000Y-8690000D01*
X8140000Y-8650000D02*
X8100000Y-8690000D01*
X8120000Y-9560000D02*
X8160000Y-9600000D01*
X8160000Y-9560000D02*
X8120000Y-9600000D01*
X8190000Y-8970000D02*
X8230000Y-9010000D01*
X8230000Y-8970000D02*
X8190000Y-9010000D01*
X8200000Y-8310000D02*
X8240000Y-8350000D01*
X8240000Y-8310000D02*
X8200000Y-8350000D01*
X8200000Y-8420000D02*
X8240000Y-8460000D01*
X8240000Y-8420000D02*
X8200000Y-8460000D01*
X8200000Y-8530000D02*
X8240000Y-8570000D01*
X8240000Y-8530000D02*
X8200000Y-8570000D01*
X8200000Y-8640000D02*
X8240000Y-8680000D01*
X8240000Y-8640000D02*
X8200000Y-8680000D01*
X8300000Y-10020000D02*
X8340000Y-10060000D01*
X8340000Y-10020000D02*
X8300000Y-10060000D01*
X8400000Y-10200000D02*
X8440000Y-10240000D01*
X8440000Y-10200000D02*
X8400000Y-10240000D01*
X8400000Y-10570000D02*
X8440000Y-10610000D01*
X8440000Y-10570000D02*
X8400000Y-10610000D01*
X8430000Y-7200000D02*
X8470000Y-7240000D01*
X8470000Y-7200000D02*
X8430000Y-7240000D01*
X8430000Y-7340000D02*
X8470000Y-7380000D01*
X8470000Y-7340000D02*
X8430000Y-7380000D01*
X8430000Y-7480000D02*
X8470000Y-7520000D01*
X8470000Y-7480000D02*
X8430000Y-7520000D01*
X8520000Y-9430000D02*
X8560000Y-9470000D01*
X8560000Y-9430000D02*
X8520000Y-9470000D01*
X8550000Y-7200000D02*
X8590000Y-7240000D01*
X8590000Y-7200000D02*
X8550000Y-7240000D01*
X8550000Y-7340000D02*
X8590000Y-7380000D01*
X8590000Y-7340000D02*
X8550000Y-7380000D01*
X8550000Y-7480000D02*
X8590000Y-7520000D01*
X8590000Y-7480000D02*
X8550000Y-7520000D01*
X8590000Y-10380000D02*
X8630000Y-10420000D01*
X8630000Y-10380000D02*
X8590000Y-10420000D01*
X8760000Y-10570000D02*
X8800000Y-10610000D01*
X8800000Y-10570000D02*
X8760000Y-10610000D01*
X8770000Y-7210000D02*
X8810000Y-7250000D01*
X8810000Y-7210000D02*
X8770000Y-7250000D01*
X8880000Y-10380000D02*
X8920000Y-10420000D01*
X8920000Y-10380000D02*
X8880000Y-10420000D01*
X8970000Y-9230000D02*
X9010000Y-9270000D01*
X9010000Y-9230000D02*
X8970000Y-9270000D01*
X9000000Y-7210000D02*
X9040000Y-7250000D01*
X9040000Y-7210000D02*
X9000000Y-7250000D01*
X9000000Y-7480000D02*
X9040000Y-7520000D01*
X9040000Y-7480000D02*
X9000000Y-7520000D01*
X9030000Y-8330000D02*
X9070000Y-8370000D01*
X9070000Y-8330000D02*
X9030000Y-8370000D01*
X9120000Y-10260000D02*
X9160000Y-10300000D01*
X9160000Y-10260000D02*
X9120000Y-10300000D01*
X9120000Y-10570000D02*
X9160000Y-10610000D01*
X9160000Y-10570000D02*
X9120000Y-10610000D01*
X9210000Y-9410000D02*
X9250000Y-9450000D01*
X9250000Y-9410000D02*
X9210000Y-9450000D01*
X9260000Y-10780000D02*
X9300000Y-10820000D01*
X9300000Y-10780000D02*
X9260000Y-10820000D01*
X9360000Y-9860000D02*
X9400000Y-9900000D01*
X9400000Y-9860000D02*
X9360000Y-9900000D01*
X9420000Y-8220000D02*
X9460000Y-8260000D01*
X9460000Y-8220000D02*
X9420000Y-8260000D01*
X9480000Y-10600000D02*
X9520000Y-10640000D01*
X9520000Y-10600000D02*
X9480000Y-10640000D01*
X9480000Y-10780000D02*
X9520000Y-10820000D01*
X9520000Y-10780000D02*
X9480000Y-10820000D01*
X9510000Y-8030000D02*
X9550000Y-8070000D01*
X9550000Y-8030000D02*
X9510000Y-8070000D01*
X9630000Y-9320000D02*
X9670000Y-9360000D01*
X9670000Y-9320000D02*
X9630000Y-9360000D01*
X9790000Y-9310000D02*
X9830000Y-9350000D01*
X9830000Y-9310000D02*
X9790000Y-9350000D01*
X9820000Y-8200000D02*
X9860000Y-8240000D01*
X9860000Y-8200000D02*
X9820000Y-8240000D01*
X9850000Y-9240000D02*
X9890000Y-9280000D01*
X9890000Y-9240000D02*
X9850000Y-9280000D01*
X9860000Y-8760000D02*
X9900000Y-8800000D01*
X9900000Y-8760000D02*
X9860000Y-8800000D01*
X9890000Y-9060000D02*
X9930000Y-9100000D01*
X9930000Y-9060000D02*
X9890000Y-9100000D01*
X9890000Y-9150000D02*
X9930000Y-9190000D01*
X9930000Y-9150000D02*
X9890000Y-9190000D01*
X9890000Y-10230000D02*
X9930000Y-10270000D01*
X9930000Y-10230000D02*
X9890000Y-10270000D01*
X9920000Y-8030000D02*
X9960000Y-8070000D01*
X9960000Y-8030000D02*
X9920000Y-8070000D01*
X9940000Y-9980000D02*
X9980000Y-10020000D01*
X9980000Y-9980000D02*
X9940000Y-10020000D01*
X10010000Y-8850000D02*
X10050000Y-8890000D01*
X10050000Y-8850000D02*
X10010000Y-8890000D01*
X10090000Y-9290000D02*
X10130000Y-9330000D01*
X10130000Y-9290000D02*
X10090000Y-9330000D01*
X10090000Y-9410000D02*
X10130000Y-9450000D01*
X10130000Y-9410000D02*
X10090000Y-9450000D01*
X10170000Y-8760000D02*
X10210000Y-8800000D01*
X10210000Y-8760000D02*
X10170000Y-8800000D01*
X10240000Y-8910000D02*
X10280000Y-8950000D01*
X10280000Y-8910000D02*
X10240000Y-8950000D01*
X10305000Y-9560000D02*
X10345000Y-9600000D01*
X10345000Y-9560000D02*
X10305000Y-9600000D01*
X10320000Y-9890000D02*
X10360000Y-9930000D01*
X10360000Y-9890000D02*
X10320000Y-9930000D01*
X10330000Y-8750000D02*
X10370000Y-8790000D01*
X10370000Y-8750000D02*
X10330000Y-8790000D01*
X10350000Y-8260000D02*
X10390000Y-8300000D01*
X10390000Y-8260000D02*
X10350000Y-8300000D01*
X10370000Y-9060000D02*
X10410000Y-9100000D01*
X10410000Y-9060000D02*
X10370000Y-9100000D01*
X10510000Y-7690000D02*
X10550000Y-7730000D01*
X10550000Y-7690000D02*
X10510000Y-7730000D01*
X10610000Y-11940000D02*
X10650000Y-11980000D01*
X10650000Y-11940000D02*
X10610000Y-11980000D01*
X10780000Y-10220000D02*
X10820000Y-10260000D01*
X10820000Y-10220000D02*
X10780000Y-10260000D01*
X10880000Y-7810000D02*
X10920000Y-7850000D01*
X10920000Y-7810000D02*
X10880000Y-7850000D01*
X11030000Y-11510000D02*
X11070000Y-11550000D01*
X11070000Y-11510000D02*
X11030000Y-11550000D01*
X11290000Y-8980000D02*
X11330000Y-9020000D01*
X11330000Y-8980000D02*
X11290000Y-9020000D01*
X11400000Y-11190000D02*
X11440000Y-11230000D01*
X11440000Y-11190000D02*
X11400000Y-11230000D01*
X11700000Y-8540000D02*
X11740000Y-8580000D01*
X11740000Y-8540000D02*
X11700000Y-8580000D01*
X11720000Y-10920000D02*
X11760000Y-10960000D01*
X11760000Y-10920000D02*
X11720000Y-10960000D01*
X11900000Y-8540000D02*
X11940000Y-8580000D01*
X11940000Y-8540000D02*
X11900000Y-8580000D01*
X12020000Y-8540000D02*
X12060000Y-8580000D01*
X12060000Y-8540000D02*
X12020000Y-8580000D01*
X12020000Y-10550000D02*
X12060000Y-10590000D01*
X12060000Y-10550000D02*
X12020000Y-10590000D01*
X12030000Y-8640000D02*
X12070000Y-8680000D01*
X12070000Y-8640000D02*
X12030000Y-8680000D01*
X12080000Y-7340000D02*
X12120000Y-7380000D01*
X12120000Y-7340000D02*
X12080000Y-7380000D01*
X12090000Y-7250000D02*
X12130000Y-7290000D01*
X12130000Y-7250000D02*
X12090000Y-7290000D01*
X12240000Y-10050000D02*
X12280000Y-10090000D01*
X12280000Y-10050000D02*
X12240000Y-10090000D01*
X12260000Y-8650000D02*
X12300000Y-8690000D01*
X12300000Y-8650000D02*
X12260000Y-8690000D01*
X12280000Y-8740000D02*
X12320000Y-8780000D01*
X12320000Y-8740000D02*
X12280000Y-8780000D01*
X12310000Y-8830000D02*
X12350000Y-8870000D01*
X12350000Y-8830000D02*
X12310000Y-8870000D01*
X12370000Y-9560000D02*
X12410000Y-9600000D01*
X12410000Y-9560000D02*
X12370000Y-9600000D01*
X12400000Y-7880000D02*
X12440000Y-7920000D01*
X12440000Y-7880000D02*
X12400000Y-7920000D01*
X12480000Y-8800000D02*
X12520000Y-8840000D01*
X12520000Y-8800000D02*
X12480000Y-8840000D01*
X12550000Y-9150000D02*
X12590000Y-9190000D01*
X12590000Y-9150000D02*
X12550000Y-9190000D01*
X12570000Y-8880000D02*
X12610000Y-8920000D01*
X12610000Y-8880000D02*
X12570000Y-8920000D01*
X7830000Y-10275000D02*
G75*
G03X7830000Y-10275000I-30000J0D01*
G01*
X7830000Y-10425000D02*
G75*
G03X7830000Y-10425000I-30000J0D01*
G01*
X8030000Y-9075000D02*
G75*
G03X8030000Y-9075000I-30000J0D01*
G01*
X8030000Y-9225000D02*
G75*
G03X8030000Y-9225000I-30000J0D01*
G01*
X8230000Y-10275000D02*
G75*
G03X8230000Y-10275000I-30000J0D01*
G01*
X8230000Y-10425000D02*
G75*
G03X8230000Y-10425000I-30000J0D01*
G01*
X4080000Y-8165000D02*
X4080000Y-8235000D01*
X4045000Y-8200000D02*
X4115000Y-8200000D01*
X4080000Y-8365000D02*
X4080000Y-8435000D01*
X4045000Y-8400000D02*
X4115000Y-8400000D01*
X4080000Y-9365000D02*
X4080000Y-9435000D01*
X4045000Y-9400000D02*
X4115000Y-9400000D01*
X4080000Y-9565000D02*
X4080000Y-9635000D01*
X4045000Y-9600000D02*
X4115000Y-9600000D01*
X6800000Y-7915000D02*
X6800000Y-7985000D01*
X6765000Y-7950000D02*
X6835000Y-7950000D01*
X6800000Y-8115000D02*
X6800000Y-8185000D01*
X6765000Y-8150000D02*
X6835000Y-8150000D01*
X6800000Y-8615000D02*
X6800000Y-8685000D01*
X6765000Y-8650000D02*
X6835000Y-8650000D01*
X6800000Y-8815000D02*
X6800000Y-8885000D01*
X6765000Y-8850000D02*
X6835000Y-8850000D01*
X8600000Y-10065000D02*
X8600000Y-10135000D01*
X8565000Y-10100000D02*
X8635000Y-10100000D01*
X8800000Y-10065000D02*
X8800000Y-10135000D01*
X8765000Y-10100000D02*
X8835000Y-10100000D01*
X9000000Y-10065000D02*
X9000000Y-10135000D01*
X8965000Y-10100000D02*
X9035000Y-10100000D01*
X6245941Y-11318941D02*
X6245941Y-11265059D01*
X6192059Y-11265059D01*
X6192059Y-11318941D01*
X6245941Y-11318941D01*
X6245941Y-11572941D02*
X6245941Y-11519059D01*
X6192059Y-11519059D01*
X6192059Y-11572941D01*
X6245941Y-11572941D01*
X6245941Y-11826941D02*
X6245941Y-11773059D01*
X6192059Y-11773059D01*
X6192059Y-11826941D01*
X6245941Y-11826941D01*
X6245941Y-12080941D02*
X6245941Y-12027059D01*
X6192059Y-12027059D01*
X6192059Y-12080941D01*
X6245941Y-12080941D01*
X6245941Y-12334941D02*
X6245941Y-12281059D01*
X6192059Y-12281059D01*
X6192059Y-12334941D01*
X6245941Y-12334941D01*
X7007941Y-11318941D02*
X7007941Y-11265059D01*
X6954059Y-11265059D01*
X6954059Y-11318941D01*
X7007941Y-11318941D01*
X7007941Y-11572941D02*
X7007941Y-11519059D01*
X6954059Y-11519059D01*
X6954059Y-11572941D01*
X7007941Y-11572941D01*
X7007941Y-11826941D02*
X7007941Y-11773059D01*
X6954059Y-11773059D01*
X6954059Y-11826941D01*
X7007941Y-11826941D01*
X7007941Y-12080941D02*
X7007941Y-12027059D01*
X6954059Y-12027059D01*
X6954059Y-12080941D01*
X7007941Y-12080941D01*
X7007941Y-12334941D02*
X7007941Y-12281059D01*
X6954059Y-12281059D01*
X6954059Y-12334941D01*
X7007941Y-12334941D01*
X10830909Y-5783883D02*
X10830909Y-5730001D01*
X10777027Y-5730001D01*
X10777027Y-5783883D01*
X10830909Y-5783883D01*
X10830909Y-12069999D02*
X10830909Y-12016117D01*
X10777027Y-12016117D01*
X10777027Y-12069999D01*
X10830909Y-12069999D01*
X10959823Y-5565029D02*
X10959823Y-5511147D01*
X10905941Y-5511147D01*
X10905941Y-5565029D01*
X10959823Y-5565029D01*
X10959823Y-12288853D02*
X10959823Y-12234971D01*
X10905941Y-12234971D01*
X10905941Y-12288853D01*
X10959823Y-12288853D01*
X11049762Y-5912797D02*
X11049762Y-5858915D01*
X10995880Y-5858915D01*
X10995880Y-5912797D01*
X11049762Y-5912797D01*
X11049762Y-11941085D02*
X11049762Y-11887203D01*
X10995880Y-11887203D01*
X10995880Y-11941085D01*
X11049762Y-11941085D01*
X11178677Y-5693944D02*
X11178677Y-5640062D01*
X11124795Y-5640062D01*
X11124795Y-5693944D01*
X11178677Y-5693944D01*
X11178677Y-12159938D02*
X11178677Y-12106056D01*
X11124795Y-12106056D01*
X11124795Y-12159938D01*
X11178677Y-12159938D01*
X11276765Y-6070275D02*
X11276765Y-6016393D01*
X11222883Y-6016393D01*
X11222883Y-6070275D01*
X11276765Y-6070275D01*
X11276765Y-11783607D02*
X11276765Y-11729725D01*
X11222883Y-11729725D01*
X11222883Y-11783607D01*
X11276765Y-11783607D01*
X11436613Y-5872880D02*
X11436613Y-5818998D01*
X11382731Y-5818998D01*
X11382731Y-5872880D01*
X11436613Y-5872880D01*
X11436613Y-11981002D02*
X11436613Y-11927120D01*
X11382731Y-11927120D01*
X11382731Y-11981002D01*
X11436613Y-11981002D01*
X11474160Y-6230122D02*
X11474160Y-6176240D01*
X11420278Y-6176240D01*
X11420278Y-6230122D01*
X11474160Y-6230122D01*
X11474160Y-11623760D02*
X11474160Y-11569878D01*
X11420278Y-11569878D01*
X11420278Y-11623760D01*
X11474160Y-11623760D01*
X11634008Y-6032727D02*
X11634008Y-5978845D01*
X11580126Y-5978845D01*
X11580126Y-6032727D01*
X11634008Y-6032727D01*
X11634008Y-11821155D02*
X11634008Y-11767273D01*
X11580126Y-11767273D01*
X11580126Y-11821155D01*
X11634008Y-11821155D01*
X11675393Y-6419423D02*
X11675393Y-6365541D01*
X11621511Y-6365541D01*
X11621511Y-6419423D01*
X11675393Y-6419423D01*
X11675393Y-11434459D02*
X11675393Y-11380577D01*
X11621511Y-11380577D01*
X11621511Y-11434459D01*
X11675393Y-11434459D01*
X11846993Y-6606691D02*
X11846993Y-6552809D01*
X11793111Y-6552809D01*
X11793111Y-6606691D01*
X11846993Y-6606691D01*
X11846993Y-11247191D02*
X11846993Y-11193309D01*
X11793111Y-11193309D01*
X11793111Y-11247191D01*
X11846993Y-11247191D01*
X11862661Y-6247823D02*
X11862661Y-6193941D01*
X11808779Y-6193941D01*
X11808779Y-6247823D01*
X11862661Y-6247823D01*
X11862661Y-11606059D02*
X11862661Y-11552177D01*
X11808779Y-11552177D01*
X11808779Y-11606059D01*
X11862661Y-11606059D01*
X12018035Y-6823657D02*
X12018035Y-6769775D01*
X11964153Y-6769775D01*
X11964153Y-6823657D01*
X12018035Y-6823657D01*
X12018035Y-11030243D02*
X12018035Y-10976361D01*
X11964153Y-10976361D01*
X11964153Y-11030243D01*
X12018035Y-11030243D01*
X12034261Y-6435091D02*
X12034261Y-6381209D01*
X11980379Y-6381209D01*
X11980379Y-6435091D01*
X12034261Y-6435091D01*
X12034261Y-11418790D02*
X12034261Y-11364908D01*
X11980379Y-11364908D01*
X11980379Y-11418790D01*
X12034261Y-11418790D01*
X12160070Y-7034233D02*
X12160070Y-6980351D01*
X12106188Y-6980351D01*
X12106188Y-7034233D01*
X12160070Y-7034233D01*
X12160070Y-10819667D02*
X12160070Y-10765785D01*
X12106188Y-10765785D01*
X12106188Y-10819667D01*
X12160070Y-10819667D01*
X12228610Y-6681622D02*
X12228610Y-6627740D01*
X12174728Y-6627740D01*
X12174728Y-6681622D01*
X12228610Y-6681622D01*
X12228610Y-11172278D02*
X12228610Y-11118396D01*
X12174728Y-11118396D01*
X12174728Y-11172278D01*
X12228610Y-11172278D01*
X12297163Y-7274096D02*
X12297163Y-7220214D01*
X12243281Y-7220214D01*
X12243281Y-7274096D01*
X12297163Y-7274096D01*
X12297163Y-10579786D02*
X12297163Y-10525904D01*
X12243281Y-10525904D01*
X12243281Y-10579786D01*
X12297163Y-10579786D01*
X12370645Y-6892198D02*
X12370645Y-6838316D01*
X12316763Y-6838316D01*
X12316763Y-6892198D01*
X12370645Y-6892198D01*
X12370645Y-10961702D02*
X12370645Y-10907820D01*
X12316763Y-10907820D01*
X12316763Y-10961702D01*
X12370645Y-10961702D01*
X12406513Y-7503353D02*
X12406513Y-7449471D01*
X12352631Y-7449471D01*
X12352631Y-7503353D01*
X12406513Y-7503353D01*
X12406513Y-10350529D02*
X12406513Y-10296647D01*
X12352631Y-10296647D01*
X12352631Y-10350529D01*
X12406513Y-10350529D01*
X12506647Y-7760846D02*
X12506647Y-7706964D01*
X12452765Y-7706964D01*
X12452765Y-7760846D01*
X12506647Y-7760846D01*
X12506647Y-10093036D02*
X12506647Y-10039154D01*
X12452765Y-10039154D01*
X12452765Y-10093036D01*
X12506647Y-10093036D01*
X12526420Y-7164747D02*
X12526420Y-7110865D01*
X12472538Y-7110865D01*
X12472538Y-7164747D01*
X12526420Y-7164747D01*
X12526420Y-10689135D02*
X12526420Y-10635253D01*
X12472538Y-10635253D01*
X12472538Y-10689135D01*
X12526420Y-10689135D01*
X12580909Y-8003748D02*
X12580909Y-7949866D01*
X12527027Y-7949866D01*
X12527027Y-8003748D01*
X12580909Y-8003748D01*
X12580909Y-9850134D02*
X12580909Y-9796252D01*
X12527027Y-9796252D01*
X12527027Y-9850134D01*
X12580909Y-9850134D01*
X12635770Y-7394003D02*
X12635770Y-7340121D01*
X12581888Y-7340121D01*
X12581888Y-7394003D01*
X12635770Y-7394003D01*
X12635770Y-10459879D02*
X12635770Y-10405997D01*
X12581888Y-10405997D01*
X12581888Y-10459879D01*
X12635770Y-10459879D01*
X12641883Y-8273213D02*
X12641883Y-8219331D01*
X12588001Y-8219331D01*
X12588001Y-8273213D01*
X12641883Y-8273213D01*
X12641883Y-9580669D02*
X12641883Y-9526787D01*
X12588001Y-9526787D01*
X12588001Y-9580669D01*
X12641883Y-9580669D01*
X12679426Y-8524423D02*
X12679426Y-8470541D01*
X12625544Y-8470541D01*
X12625544Y-8524423D01*
X12679426Y-8524423D01*
X12679426Y-9329459D02*
X12679426Y-9275577D01*
X12625544Y-9275577D01*
X12625544Y-9329459D01*
X12679426Y-9329459D01*
X12699901Y-8799941D02*
X12699901Y-8746059D01*
X12646019Y-8746059D01*
X12646019Y-8799941D01*
X12699901Y-8799941D01*
X12699901Y-9053941D02*
X12699901Y-9000059D01*
X12646019Y-9000059D01*
X12646019Y-9053941D01*
X12699901Y-9053941D01*
X12749548Y-7686584D02*
X12749548Y-7632702D01*
X12695666Y-7632702D01*
X12695666Y-7686584D01*
X12749548Y-7686584D01*
X12749548Y-10167298D02*
X12749548Y-10113416D01*
X12695666Y-10113416D01*
X12695666Y-10167298D01*
X12749548Y-10167298D01*
X12823810Y-7929485D02*
X12823810Y-7875603D01*
X12769928Y-7875603D01*
X12769928Y-7929485D01*
X12823810Y-7929485D01*
X12823810Y-9924397D02*
X12823810Y-9870515D01*
X12769928Y-9870515D01*
X12769928Y-9924397D01*
X12823810Y-9924397D01*
X12893093Y-8235669D02*
X12893093Y-8181787D01*
X12839211Y-8181787D01*
X12839211Y-8235669D01*
X12893093Y-8235669D01*
X12893093Y-9618213D02*
X12893093Y-9564331D01*
X12839211Y-9564331D01*
X12839211Y-9618213D01*
X12893093Y-9618213D01*
X12930636Y-8486879D02*
X12930636Y-8432997D01*
X12876754Y-8432997D01*
X12876754Y-8486879D01*
X12930636Y-8486879D01*
X12930636Y-9367003D02*
X12930636Y-9313121D01*
X12876754Y-9313121D01*
X12876754Y-9367003D01*
X12930636Y-9367003D01*
X12953901Y-8799941D02*
X12953901Y-8746059D01*
X12900019Y-8746059D01*
X12900019Y-8799941D01*
X12953901Y-8799941D01*
X12953901Y-9053941D02*
X12953901Y-9000059D01*
X12900019Y-9000059D01*
X12900019Y-9053941D01*
X12953901Y-9053941D01*
X4385000Y-7959000D02*
X4425000Y-7919000D01*
X4385000Y-7879000D01*
X4345000Y-7919000D01*
X4385000Y-7959000D01*
X4385000Y-8721000D02*
X4425000Y-8681000D01*
X4385000Y-8641000D01*
X4345000Y-8681000D01*
X4385000Y-8721000D01*
X4385000Y-9159000D02*
X4425000Y-9119000D01*
X4385000Y-9079000D01*
X4345000Y-9119000D01*
X4385000Y-9159000D01*
X4385000Y-9921000D02*
X4425000Y-9881000D01*
X4385000Y-9841000D01*
X4345000Y-9881000D01*
X4385000Y-9921000D01*
X4639000Y-7959000D02*
X4679000Y-7919000D01*
X4639000Y-7879000D01*
X4599000Y-7919000D01*
X4639000Y-7959000D01*
X4639000Y-8721000D02*
X4679000Y-8681000D01*
X4639000Y-8641000D01*
X4599000Y-8681000D01*
X4639000Y-8721000D01*
X4639000Y-9159000D02*
X4679000Y-9119000D01*
X4639000Y-9079000D01*
X4599000Y-9119000D01*
X4639000Y-9159000D01*
X4639000Y-9921000D02*
X4679000Y-9881000D01*
X4639000Y-9841000D01*
X4599000Y-9881000D01*
X4639000Y-9921000D01*
X4893000Y-7959000D02*
X4933000Y-7919000D01*
X4893000Y-7879000D01*
X4853000Y-7919000D01*
X4893000Y-7959000D01*
X4893000Y-8721000D02*
X4933000Y-8681000D01*
X4893000Y-8641000D01*
X4853000Y-8681000D01*
X4893000Y-8721000D01*
X4893000Y-9159000D02*
X4933000Y-9119000D01*
X4893000Y-9079000D01*
X4853000Y-9119000D01*
X4893000Y-9159000D01*
X4893000Y-9921000D02*
X4933000Y-9881000D01*
X4893000Y-9841000D01*
X4853000Y-9881000D01*
X4893000Y-9921000D01*
X5147000Y-7959000D02*
X5187000Y-7919000D01*
X5147000Y-7879000D01*
X5107000Y-7919000D01*
X5147000Y-7959000D01*
X5147000Y-8721000D02*
X5187000Y-8681000D01*
X5147000Y-8641000D01*
X5107000Y-8681000D01*
X5147000Y-8721000D01*
X5147000Y-9159000D02*
X5187000Y-9119000D01*
X5147000Y-9079000D01*
X5107000Y-9119000D01*
X5147000Y-9159000D01*
X5147000Y-9921000D02*
X5187000Y-9881000D01*
X5147000Y-9841000D01*
X5107000Y-9881000D01*
X5147000Y-9921000D01*
X5401000Y-7959000D02*
X5441000Y-7919000D01*
X5401000Y-7879000D01*
X5361000Y-7919000D01*
X5401000Y-7959000D01*
X5401000Y-8721000D02*
X5441000Y-8681000D01*
X5401000Y-8641000D01*
X5361000Y-8681000D01*
X5401000Y-8721000D01*
X5401000Y-9159000D02*
X5441000Y-9119000D01*
X5401000Y-9079000D01*
X5361000Y-9119000D01*
X5401000Y-9159000D01*
X5401000Y-9921000D02*
X5441000Y-9881000D01*
X5401000Y-9841000D01*
X5361000Y-9881000D01*
X5401000Y-9921000D01*
X5655000Y-7959000D02*
X5695000Y-7919000D01*
X5655000Y-7879000D01*
X5615000Y-7919000D01*
X5655000Y-7959000D01*
X5655000Y-8721000D02*
X5695000Y-8681000D01*
X5655000Y-8641000D01*
X5615000Y-8681000D01*
X5655000Y-8721000D01*
X5655000Y-9159000D02*
X5695000Y-9119000D01*
X5655000Y-9079000D01*
X5615000Y-9119000D01*
X5655000Y-9159000D01*
X5655000Y-9921000D02*
X5695000Y-9881000D01*
X5655000Y-9841000D01*
X5615000Y-9881000D01*
X5655000Y-9921000D01*
X3984000Y-7450000D02*
X4084000Y-7550000D01*
X4084000Y-7450000D02*
X3984000Y-7550000D01*
X4084000Y-7500000D02*
G75*
G03X4084000Y-7500000I-50000J0D01*
G01*
X3984000Y-10250000D02*
X4084000Y-10350000D01*
X4084000Y-10250000D02*
X3984000Y-10350000D01*
X4084000Y-10300000D02*
G75*
G03X4084000Y-10300000I-50000J0D01*
G01*
X4238000Y-7450000D02*
X4338000Y-7550000D01*
X4338000Y-7450000D02*
X4238000Y-7550000D01*
X4338000Y-7500000D02*
G75*
G03X4338000Y-7500000I-50000J0D01*
G01*
X4238000Y-10250000D02*
X4338000Y-10350000D01*
X4338000Y-10250000D02*
X4238000Y-10350000D01*
X4338000Y-10300000D02*
G75*
G03X4338000Y-10300000I-50000J0D01*
G01*
X4492000Y-7450000D02*
X4592000Y-7550000D01*
X4592000Y-7450000D02*
X4492000Y-7550000D01*
X4592000Y-7500000D02*
G75*
G03X4592000Y-7500000I-50000J0D01*
G01*
X4492000Y-10250000D02*
X4592000Y-10350000D01*
X4592000Y-10250000D02*
X4492000Y-10350000D01*
X4592000Y-10300000D02*
G75*
G03X4592000Y-10300000I-50000J0D01*
G01*
X4746000Y-7450000D02*
X4846000Y-7550000D01*
X4846000Y-7450000D02*
X4746000Y-7550000D01*
X4846000Y-7500000D02*
G75*
G03X4846000Y-7500000I-50000J0D01*
G01*
X4746000Y-10250000D02*
X4846000Y-10350000D01*
X4846000Y-10250000D02*
X4746000Y-10350000D01*
X4846000Y-10300000D02*
G75*
G03X4846000Y-10300000I-50000J0D01*
G01*
X5000000Y-7450000D02*
X5100000Y-7550000D01*
X5100000Y-7450000D02*
X5000000Y-7550000D01*
X5100000Y-7500000D02*
G75*
G03X5100000Y-7500000I-50000J0D01*
G01*
X5000000Y-10250000D02*
X5100000Y-10350000D01*
X5100000Y-10250000D02*
X5000000Y-10350000D01*
X5100000Y-10300000D02*
G75*
G03X5100000Y-10300000I-50000J0D01*
G01*
X6284000Y-7450000D02*
X6384000Y-7550000D01*
X6384000Y-7450000D02*
X6284000Y-7550000D01*
X6384000Y-7500000D02*
G75*
G03X6384000Y-7500000I-50000J0D01*
G01*
X6284000Y-10250000D02*
X6384000Y-10350000D01*
X6384000Y-10250000D02*
X6284000Y-10350000D01*
X6384000Y-10300000D02*
G75*
G03X6384000Y-10300000I-50000J0D01*
G01*
X6296000Y-10950000D02*
X6396000Y-11050000D01*
X6396000Y-10950000D02*
X6296000Y-11050000D01*
X6396000Y-11000000D02*
G75*
G03X6396000Y-11000000I-50000J0D01*
G01*
X6296000Y-12550000D02*
X6396000Y-12650000D01*
X6396000Y-12550000D02*
X6296000Y-12650000D01*
X6396000Y-12600000D02*
G75*
G03X6396000Y-12600000I-50000J0D01*
G01*
X6538000Y-7450000D02*
X6638000Y-7550000D01*
X6638000Y-7450000D02*
X6538000Y-7550000D01*
X6638000Y-7500000D02*
G75*
G03X6638000Y-7500000I-50000J0D01*
G01*
X6538000Y-10250000D02*
X6638000Y-10350000D01*
X6638000Y-10250000D02*
X6538000Y-10350000D01*
X6638000Y-10300000D02*
G75*
G03X6638000Y-10300000I-50000J0D01*
G01*
X6550000Y-10950000D02*
X6650000Y-11050000D01*
X6650000Y-10950000D02*
X6550000Y-11050000D01*
X6650000Y-11000000D02*
G75*
G03X6650000Y-11000000I-50000J0D01*
G01*
X6550000Y-12550000D02*
X6650000Y-12650000D01*
X6650000Y-12550000D02*
X6550000Y-12650000D01*
X6650000Y-12600000D02*
G75*
G03X6650000Y-12600000I-50000J0D01*
G01*
X6792000Y-7450000D02*
X6892000Y-7550000D01*
X6892000Y-7450000D02*
X6792000Y-7550000D01*
X6892000Y-7500000D02*
G75*
G03X6892000Y-7500000I-50000J0D01*
G01*
X6792000Y-10250000D02*
X6892000Y-10350000D01*
X6892000Y-10250000D02*
X6792000Y-10350000D01*
X6892000Y-10300000D02*
G75*
G03X6892000Y-10300000I-50000J0D01*
G01*
X6804000Y-10950000D02*
X6904000Y-11050000D01*
X6904000Y-10950000D02*
X6804000Y-11050000D01*
X6904000Y-11000000D02*
G75*
G03X6904000Y-11000000I-50000J0D01*
G01*
X6804000Y-12550000D02*
X6904000Y-12650000D01*
X6904000Y-12550000D02*
X6804000Y-12650000D01*
X6904000Y-12600000D02*
G75*
G03X6904000Y-12600000I-50000J0D01*
G01*
X7046000Y-7450000D02*
X7146000Y-7550000D01*
X7146000Y-7450000D02*
X7046000Y-7550000D01*
X7146000Y-7500000D02*
G75*
G03X7146000Y-7500000I-50000J0D01*
G01*
X7046000Y-10250000D02*
X7146000Y-10350000D01*
X7146000Y-10250000D02*
X7046000Y-10350000D01*
X7146000Y-10300000D02*
G75*
G03X7146000Y-10300000I-50000J0D01*
G01*
X7300000Y-7450000D02*
X7400000Y-7550000D01*
X7400000Y-7450000D02*
X7300000Y-7550000D01*
X7400000Y-7500000D02*
G75*
G03X7400000Y-7500000I-50000J0D01*
G01*
X7300000Y-10250000D02*
X7400000Y-10350000D01*
X7400000Y-10250000D02*
X7300000Y-10350000D01*
X7400000Y-10300000D02*
G75*
G03X7400000Y-10300000I-50000J0D01*
G01*
X8295960Y-8050000D02*
X8395960Y-8150000D01*
X8395960Y-8050000D02*
X8295960Y-8150000D01*
X8395960Y-8100000D02*
G75*
G03X8395960Y-8100000I-50000J0D01*
G01*
X8295960Y-9650000D02*
X8395960Y-9750000D01*
X8395960Y-9650000D02*
X8295960Y-9750000D01*
X8395960Y-9700000D02*
G75*
G03X8395960Y-9700000I-50000J0D01*
G01*
X8549960Y-8050000D02*
X8649960Y-8150000D01*
X8649960Y-8050000D02*
X8549960Y-8150000D01*
X8649960Y-8100000D02*
G75*
G03X8649960Y-8100000I-50000J0D01*
G01*
X8549960Y-9650000D02*
X8649960Y-9750000D01*
X8649960Y-9650000D02*
X8549960Y-9750000D01*
X8649960Y-9700000D02*
G75*
G03X8649960Y-9700000I-50000J0D01*
G01*
X8803960Y-8050000D02*
X8903960Y-8150000D01*
X8903960Y-8050000D02*
X8803960Y-8150000D01*
X8903960Y-8100000D02*
G75*
G03X8903960Y-8100000I-50000J0D01*
G01*
X8803960Y-9650000D02*
X8903960Y-9750000D01*
X8903960Y-9650000D02*
X8803960Y-9750000D01*
X8903960Y-9700000D02*
G75*
G03X8903960Y-9700000I-50000J0D01*
G01*
D13*
X4066428Y-13270714D02*
X4066428Y-12970714D01*
X4137857Y-12970714D01*
X4180714Y-12985000D01*
X4209286Y-13013571D01*
X4223571Y-13042143D01*
X4237857Y-13099286D01*
X4237857Y-13142143D01*
X4223571Y-13199286D01*
X4209286Y-13227857D01*
X4180714Y-13256429D01*
X4137857Y-13270714D01*
X4066428Y-13270714D01*
X4366429Y-13270714D02*
X4366429Y-13070714D01*
X4366429Y-13127857D02*
X4380714Y-13099286D01*
X4395000Y-13085000D01*
X4423571Y-13070714D01*
X4452143Y-13070714D01*
X4552143Y-13270714D02*
X4552143Y-13070714D01*
X4552143Y-12970714D02*
X4537857Y-12985000D01*
X4552143Y-12999286D01*
X4566429Y-12985000D01*
X4552143Y-12970714D01*
X4552143Y-12999286D01*
X4737857Y-13270714D02*
X4709286Y-13256429D01*
X4695000Y-13227857D01*
X4695000Y-12970714D01*
X4895000Y-13270714D02*
X4866429Y-13256429D01*
X4852143Y-13227857D01*
X4852143Y-12970714D01*
X5237857Y-13270714D02*
X5237857Y-12970714D01*
X5337857Y-13185000D01*
X5437857Y-12970714D01*
X5437857Y-13270714D01*
X5709286Y-13270714D02*
X5709286Y-13113571D01*
X5695000Y-13085000D01*
X5666428Y-13070714D01*
X5609286Y-13070714D01*
X5580714Y-13085000D01*
X5709286Y-13256429D02*
X5680714Y-13270714D01*
X5609286Y-13270714D01*
X5580714Y-13256429D01*
X5566429Y-13227857D01*
X5566429Y-13199286D01*
X5580714Y-13170714D01*
X5609286Y-13156429D01*
X5680714Y-13156429D01*
X5709286Y-13142143D01*
X5852143Y-13070714D02*
X5852143Y-13370714D01*
X5852143Y-13085000D02*
X5880714Y-13070714D01*
X5937857Y-13070714D01*
X5966428Y-13085000D01*
X5980714Y-13099286D01*
X5995000Y-13127857D01*
X5995000Y-13213571D01*
X5980714Y-13242143D01*
X5966428Y-13256429D01*
X5937857Y-13270714D01*
X5880714Y-13270714D01*
X5852143Y-13256429D01*
X6123571Y-13242143D02*
X6137857Y-13256429D01*
X6123571Y-13270714D01*
X6109286Y-13256429D01*
X6123571Y-13242143D01*
X6123571Y-13270714D01*
X6123571Y-13085000D02*
X6137857Y-13099286D01*
X6123571Y-13113571D01*
X6109286Y-13099286D01*
X6123571Y-13085000D01*
X6123571Y-13113571D01*
X3755000Y-13745000D02*
X3795000Y-13785000D01*
X3795000Y-13745000D02*
X3755000Y-13785000D01*
X4123571Y-13600714D02*
X4152143Y-13600714D01*
X4180714Y-13615000D01*
X4195000Y-13629286D01*
X4209286Y-13657857D01*
X4223571Y-13715000D01*
X4223571Y-13786429D01*
X4209286Y-13843571D01*
X4195000Y-13872143D01*
X4180714Y-13886429D01*
X4152143Y-13900714D01*
X4123571Y-13900714D01*
X4095000Y-13886429D01*
X4080714Y-13872143D01*
X4066428Y-13843571D01*
X4052143Y-13786429D01*
X4052143Y-13715000D01*
X4066428Y-13657857D01*
X4080714Y-13629286D01*
X4095000Y-13615000D01*
X4123571Y-13600714D01*
X4352143Y-13872143D02*
X4366429Y-13886429D01*
X4352143Y-13900714D01*
X4337857Y-13886429D01*
X4352143Y-13872143D01*
X4352143Y-13900714D01*
X4623571Y-13700714D02*
X4623571Y-13900714D01*
X4552143Y-13586429D02*
X4480714Y-13800714D01*
X4666428Y-13800714D01*
X4837857Y-13600714D02*
X4866429Y-13600714D01*
X4895000Y-13615000D01*
X4909286Y-13629286D01*
X4923571Y-13657857D01*
X4937857Y-13715000D01*
X4937857Y-13786429D01*
X4923571Y-13843571D01*
X4909286Y-13872143D01*
X4895000Y-13886429D01*
X4866429Y-13900714D01*
X4837857Y-13900714D01*
X4809286Y-13886429D01*
X4795000Y-13872143D01*
X4780714Y-13843571D01*
X4766429Y-13786429D01*
X4766429Y-13715000D01*
X4780714Y-13657857D01*
X4795000Y-13629286D01*
X4809286Y-13615000D01*
X4837857Y-13600714D01*
X5066429Y-13900714D02*
X5066429Y-13700714D01*
X5066429Y-13729286D02*
X5080714Y-13715000D01*
X5109286Y-13700714D01*
X5152143Y-13700714D01*
X5180714Y-13715000D01*
X5195000Y-13743571D01*
X5195000Y-13900714D01*
X5195000Y-13743571D02*
X5209286Y-13715000D01*
X5237857Y-13700714D01*
X5280714Y-13700714D01*
X5309286Y-13715000D01*
X5323571Y-13743571D01*
X5323571Y-13900714D01*
X5466429Y-13900714D02*
X5466429Y-13700714D01*
X5466429Y-13729286D02*
X5480714Y-13715000D01*
X5509286Y-13700714D01*
X5552143Y-13700714D01*
X5580714Y-13715000D01*
X5595000Y-13743571D01*
X5595000Y-13900714D01*
X5595000Y-13743571D02*
X5609286Y-13715000D01*
X5637857Y-13700714D01*
X5680714Y-13700714D01*
X5709286Y-13715000D01*
X5723571Y-13743571D01*
X5723571Y-13900714D01*
X6309286Y-13586429D02*
X6052143Y-13972143D01*
X6695000Y-13600714D02*
X6723571Y-13600714D01*
X6752143Y-13615000D01*
X6766428Y-13629286D01*
X6780714Y-13657857D01*
X6795000Y-13715000D01*
X6795000Y-13786429D01*
X6780714Y-13843571D01*
X6766428Y-13872143D01*
X6752143Y-13886429D01*
X6723571Y-13900714D01*
X6695000Y-13900714D01*
X6666428Y-13886429D01*
X6652143Y-13872143D01*
X6637857Y-13843571D01*
X6623571Y-13786429D01*
X6623571Y-13715000D01*
X6637857Y-13657857D01*
X6652143Y-13629286D01*
X6666428Y-13615000D01*
X6695000Y-13600714D01*
X6923571Y-13872143D02*
X6937857Y-13886429D01*
X6923571Y-13900714D01*
X6909286Y-13886429D01*
X6923571Y-13872143D01*
X6923571Y-13900714D01*
X7123571Y-13600714D02*
X7152143Y-13600714D01*
X7180714Y-13615000D01*
X7195000Y-13629286D01*
X7209285Y-13657857D01*
X7223571Y-13715000D01*
X7223571Y-13786429D01*
X7209285Y-13843571D01*
X7195000Y-13872143D01*
X7180714Y-13886429D01*
X7152143Y-13900714D01*
X7123571Y-13900714D01*
X7095000Y-13886429D01*
X7080714Y-13872143D01*
X7066428Y-13843571D01*
X7052143Y-13786429D01*
X7052143Y-13715000D01*
X7066428Y-13657857D01*
X7080714Y-13629286D01*
X7095000Y-13615000D01*
X7123571Y-13600714D01*
X7509285Y-13900714D02*
X7337857Y-13900714D01*
X7423571Y-13900714D02*
X7423571Y-13600714D01*
X7395000Y-13643571D01*
X7366428Y-13672143D01*
X7337857Y-13686429D01*
X7766428Y-13600714D02*
X7709285Y-13600714D01*
X7680714Y-13615000D01*
X7666428Y-13629286D01*
X7637857Y-13672143D01*
X7623571Y-13729286D01*
X7623571Y-13843571D01*
X7637857Y-13872143D01*
X7652143Y-13886429D01*
X7680714Y-13900714D01*
X7737857Y-13900714D01*
X7766428Y-13886429D01*
X7780714Y-13872143D01*
X7795000Y-13843571D01*
X7795000Y-13772143D01*
X7780714Y-13743571D01*
X7766428Y-13729286D01*
X7737857Y-13715000D01*
X7680714Y-13715000D01*
X7652143Y-13729286D01*
X7637857Y-13743571D01*
X7623571Y-13772143D01*
X7909286Y-13600714D02*
X7909286Y-13657857D01*
X8023571Y-13600714D02*
X8023571Y-13657857D01*
X8466428Y-14015000D02*
X8452143Y-14000714D01*
X8423571Y-13957857D01*
X8409286Y-13929286D01*
X8395000Y-13886429D01*
X8380714Y-13815000D01*
X8380714Y-13757857D01*
X8395000Y-13686429D01*
X8409286Y-13643571D01*
X8423571Y-13615000D01*
X8452143Y-13572143D01*
X8466428Y-13557857D01*
X8737857Y-13900714D02*
X8566428Y-13900714D01*
X8652143Y-13900714D02*
X8652143Y-13600714D01*
X8623571Y-13643571D01*
X8595000Y-13672143D01*
X8566428Y-13686429D01*
X8852143Y-13629286D02*
X8866428Y-13615000D01*
X8895000Y-13600714D01*
X8966428Y-13600714D01*
X8995000Y-13615000D01*
X9009286Y-13629286D01*
X9023571Y-13657857D01*
X9023571Y-13686429D01*
X9009286Y-13729286D01*
X8837857Y-13900714D01*
X9023571Y-13900714D01*
X9309286Y-13900714D02*
X9137857Y-13900714D01*
X9223571Y-13900714D02*
X9223571Y-13600714D01*
X9195000Y-13643571D01*
X9166428Y-13672143D01*
X9137857Y-13686429D01*
X9666428Y-13900714D02*
X9666428Y-13600714D01*
X9795000Y-13900714D02*
X9795000Y-13743571D01*
X9780714Y-13715000D01*
X9752143Y-13700714D01*
X9709286Y-13700714D01*
X9680714Y-13715000D01*
X9666428Y-13729286D01*
X9980714Y-13900714D02*
X9952143Y-13886429D01*
X9937857Y-13872143D01*
X9923571Y-13843571D01*
X9923571Y-13757857D01*
X9937857Y-13729286D01*
X9952143Y-13715000D01*
X9980714Y-13700714D01*
X10023571Y-13700714D01*
X10052143Y-13715000D01*
X10066428Y-13729286D01*
X10080714Y-13757857D01*
X10080714Y-13843571D01*
X10066428Y-13872143D01*
X10052143Y-13886429D01*
X10023571Y-13900714D01*
X9980714Y-13900714D01*
X10252143Y-13900714D02*
X10223571Y-13886429D01*
X10209286Y-13857857D01*
X10209286Y-13600714D01*
X10480714Y-13886429D02*
X10452143Y-13900714D01*
X10395000Y-13900714D01*
X10366429Y-13886429D01*
X10352143Y-13857857D01*
X10352143Y-13743571D01*
X10366429Y-13715000D01*
X10395000Y-13700714D01*
X10452143Y-13700714D01*
X10480714Y-13715000D01*
X10495000Y-13743571D01*
X10495000Y-13772143D01*
X10352143Y-13800714D01*
X10609286Y-13886429D02*
X10637857Y-13900714D01*
X10695000Y-13900714D01*
X10723571Y-13886429D01*
X10737857Y-13857857D01*
X10737857Y-13843571D01*
X10723571Y-13815000D01*
X10695000Y-13800714D01*
X10652143Y-13800714D01*
X10623571Y-13786429D01*
X10609286Y-13757857D01*
X10609286Y-13743571D01*
X10623571Y-13715000D01*
X10652143Y-13700714D01*
X10695000Y-13700714D01*
X10723571Y-13715000D01*
X10837857Y-14015000D02*
X10852143Y-14000714D01*
X10880714Y-13957857D01*
X10895000Y-13929286D01*
X10909286Y-13886429D01*
X10923571Y-13815000D01*
X10923571Y-13757857D01*
X10909286Y-13686429D01*
X10895000Y-13643571D01*
X10880714Y-13615000D01*
X10852143Y-13572143D01*
X10837857Y-13557857D01*
X3795000Y-14161000D02*
G75*
G03X3795000Y-14161000I-30000J0D01*
G01*
X4123571Y-13996714D02*
X4152143Y-13996714D01*
X4180714Y-14011000D01*
X4195000Y-14025286D01*
X4209286Y-14053857D01*
X4223571Y-14111000D01*
X4223571Y-14182429D01*
X4209286Y-14239571D01*
X4195000Y-14268143D01*
X4180714Y-14282429D01*
X4152143Y-14296714D01*
X4123571Y-14296714D01*
X4095000Y-14282429D01*
X4080714Y-14268143D01*
X4066428Y-14239571D01*
X4052143Y-14182429D01*
X4052143Y-14111000D01*
X4066428Y-14053857D01*
X4080714Y-14025286D01*
X4095000Y-14011000D01*
X4123571Y-13996714D01*
X4352143Y-14268143D02*
X4366429Y-14282429D01*
X4352143Y-14296714D01*
X4337857Y-14282429D01*
X4352143Y-14268143D01*
X4352143Y-14296714D01*
X4623571Y-13996714D02*
X4566428Y-13996714D01*
X4537857Y-14011000D01*
X4523571Y-14025286D01*
X4495000Y-14068143D01*
X4480714Y-14125286D01*
X4480714Y-14239571D01*
X4495000Y-14268143D01*
X4509286Y-14282429D01*
X4537857Y-14296714D01*
X4595000Y-14296714D01*
X4623571Y-14282429D01*
X4637857Y-14268143D01*
X4652143Y-14239571D01*
X4652143Y-14168143D01*
X4637857Y-14139571D01*
X4623571Y-14125286D01*
X4595000Y-14111000D01*
X4537857Y-14111000D01*
X4509286Y-14125286D01*
X4495000Y-14139571D01*
X4480714Y-14168143D01*
X4837857Y-13996714D02*
X4866429Y-13996714D01*
X4895000Y-14011000D01*
X4909286Y-14025286D01*
X4923571Y-14053857D01*
X4937857Y-14111000D01*
X4937857Y-14182429D01*
X4923571Y-14239571D01*
X4909286Y-14268143D01*
X4895000Y-14282429D01*
X4866429Y-14296714D01*
X4837857Y-14296714D01*
X4809286Y-14282429D01*
X4795000Y-14268143D01*
X4780714Y-14239571D01*
X4766429Y-14182429D01*
X4766429Y-14111000D01*
X4780714Y-14053857D01*
X4795000Y-14025286D01*
X4809286Y-14011000D01*
X4837857Y-13996714D01*
X5066429Y-14296714D02*
X5066429Y-14096714D01*
X5066429Y-14125286D02*
X5080714Y-14111000D01*
X5109286Y-14096714D01*
X5152143Y-14096714D01*
X5180714Y-14111000D01*
X5195000Y-14139571D01*
X5195000Y-14296714D01*
X5195000Y-14139571D02*
X5209286Y-14111000D01*
X5237857Y-14096714D01*
X5280714Y-14096714D01*
X5309286Y-14111000D01*
X5323571Y-14139571D01*
X5323571Y-14296714D01*
X5466429Y-14296714D02*
X5466429Y-14096714D01*
X5466429Y-14125286D02*
X5480714Y-14111000D01*
X5509286Y-14096714D01*
X5552143Y-14096714D01*
X5580714Y-14111000D01*
X5595000Y-14139571D01*
X5595000Y-14296714D01*
X5595000Y-14139571D02*
X5609286Y-14111000D01*
X5637857Y-14096714D01*
X5680714Y-14096714D01*
X5709286Y-14111000D01*
X5723571Y-14139571D01*
X5723571Y-14296714D01*
X6309286Y-13982429D02*
X6052143Y-14368143D01*
X6695000Y-13996714D02*
X6723571Y-13996714D01*
X6752143Y-14011000D01*
X6766428Y-14025286D01*
X6780714Y-14053857D01*
X6795000Y-14111000D01*
X6795000Y-14182429D01*
X6780714Y-14239571D01*
X6766428Y-14268143D01*
X6752143Y-14282429D01*
X6723571Y-14296714D01*
X6695000Y-14296714D01*
X6666428Y-14282429D01*
X6652143Y-14268143D01*
X6637857Y-14239571D01*
X6623571Y-14182429D01*
X6623571Y-14111000D01*
X6637857Y-14053857D01*
X6652143Y-14025286D01*
X6666428Y-14011000D01*
X6695000Y-13996714D01*
X6923571Y-14268143D02*
X6937857Y-14282429D01*
X6923571Y-14296714D01*
X6909286Y-14282429D01*
X6923571Y-14268143D01*
X6923571Y-14296714D01*
X7123571Y-13996714D02*
X7152143Y-13996714D01*
X7180714Y-14011000D01*
X7195000Y-14025286D01*
X7209285Y-14053857D01*
X7223571Y-14111000D01*
X7223571Y-14182429D01*
X7209285Y-14239571D01*
X7195000Y-14268143D01*
X7180714Y-14282429D01*
X7152143Y-14296714D01*
X7123571Y-14296714D01*
X7095000Y-14282429D01*
X7080714Y-14268143D01*
X7066428Y-14239571D01*
X7052143Y-14182429D01*
X7052143Y-14111000D01*
X7066428Y-14053857D01*
X7080714Y-14025286D01*
X7095000Y-14011000D01*
X7123571Y-13996714D01*
X7337857Y-14025286D02*
X7352143Y-14011000D01*
X7380714Y-13996714D01*
X7452143Y-13996714D01*
X7480714Y-14011000D01*
X7495000Y-14025286D01*
X7509285Y-14053857D01*
X7509285Y-14082429D01*
X7495000Y-14125286D01*
X7323571Y-14296714D01*
X7509285Y-14296714D01*
X7766428Y-14096714D02*
X7766428Y-14296714D01*
X7695000Y-13982429D02*
X7623571Y-14196714D01*
X7809285Y-14196714D01*
X7909286Y-13996714D02*
X7909286Y-14053857D01*
X8023571Y-13996714D02*
X8023571Y-14053857D01*
X8466428Y-14411000D02*
X8452143Y-14396714D01*
X8423571Y-14353857D01*
X8409286Y-14325286D01*
X8395000Y-14282429D01*
X8380714Y-14211000D01*
X8380714Y-14153857D01*
X8395000Y-14082429D01*
X8409286Y-14039571D01*
X8423571Y-14011000D01*
X8452143Y-13968143D01*
X8466428Y-13953857D01*
X8709286Y-13996714D02*
X8652143Y-13996714D01*
X8623571Y-14011000D01*
X8609286Y-14025286D01*
X8580714Y-14068143D01*
X8566428Y-14125286D01*
X8566428Y-14239571D01*
X8580714Y-14268143D01*
X8595000Y-14282429D01*
X8623571Y-14296714D01*
X8680714Y-14296714D01*
X8709286Y-14282429D01*
X8723571Y-14268143D01*
X8737857Y-14239571D01*
X8737857Y-14168143D01*
X8723571Y-14139571D01*
X8709286Y-14125286D01*
X8680714Y-14111000D01*
X8623571Y-14111000D01*
X8595000Y-14125286D01*
X8580714Y-14139571D01*
X8566428Y-14168143D01*
X9095000Y-14296714D02*
X9095000Y-13996714D01*
X9223571Y-14296714D02*
X9223571Y-14139571D01*
X9209286Y-14111000D01*
X9180714Y-14096714D01*
X9137857Y-14096714D01*
X9109286Y-14111000D01*
X9095000Y-14125286D01*
X9409286Y-14296714D02*
X9380714Y-14282429D01*
X9366428Y-14268143D01*
X9352143Y-14239571D01*
X9352143Y-14153857D01*
X9366428Y-14125286D01*
X9380714Y-14111000D01*
X9409286Y-14096714D01*
X9452143Y-14096714D01*
X9480714Y-14111000D01*
X9495000Y-14125286D01*
X9509286Y-14153857D01*
X9509286Y-14239571D01*
X9495000Y-14268143D01*
X9480714Y-14282429D01*
X9452143Y-14296714D01*
X9409286Y-14296714D01*
X9680714Y-14296714D02*
X9652143Y-14282429D01*
X9637857Y-14253857D01*
X9637857Y-13996714D01*
X9909286Y-14282429D02*
X9880714Y-14296714D01*
X9823571Y-14296714D01*
X9795000Y-14282429D01*
X9780714Y-14253857D01*
X9780714Y-14139571D01*
X9795000Y-14111000D01*
X9823571Y-14096714D01*
X9880714Y-14096714D01*
X9909286Y-14111000D01*
X9923571Y-14139571D01*
X9923571Y-14168143D01*
X9780714Y-14196714D01*
X10037857Y-14282429D02*
X10066429Y-14296714D01*
X10123571Y-14296714D01*
X10152143Y-14282429D01*
X10166429Y-14253857D01*
X10166429Y-14239571D01*
X10152143Y-14211000D01*
X10123571Y-14196714D01*
X10080714Y-14196714D01*
X10052143Y-14182429D01*
X10037857Y-14153857D01*
X10037857Y-14139571D01*
X10052143Y-14111000D01*
X10080714Y-14096714D01*
X10123571Y-14096714D01*
X10152143Y-14111000D01*
X10266428Y-14411000D02*
X10280714Y-14396714D01*
X10309286Y-14353857D01*
X10323571Y-14325286D01*
X10337857Y-14282429D01*
X10352143Y-14211000D01*
X10352143Y-14153857D01*
X10337857Y-14082429D01*
X10323571Y-14039571D01*
X10309286Y-14011000D01*
X10280714Y-13968143D01*
X10266428Y-13953857D01*
X3760000Y-14522000D02*
X3760000Y-14592000D01*
X3725000Y-14557000D02*
X3795000Y-14557000D01*
X4123571Y-14392714D02*
X4152143Y-14392714D01*
X4180714Y-14407000D01*
X4195000Y-14421286D01*
X4209286Y-14449857D01*
X4223571Y-14507000D01*
X4223571Y-14578429D01*
X4209286Y-14635571D01*
X4195000Y-14664143D01*
X4180714Y-14678429D01*
X4152143Y-14692714D01*
X4123571Y-14692714D01*
X4095000Y-14678429D01*
X4080714Y-14664143D01*
X4066428Y-14635571D01*
X4052143Y-14578429D01*
X4052143Y-14507000D01*
X4066428Y-14449857D01*
X4080714Y-14421286D01*
X4095000Y-14407000D01*
X4123571Y-14392714D01*
X4352143Y-14664143D02*
X4366429Y-14678429D01*
X4352143Y-14692714D01*
X4337857Y-14678429D01*
X4352143Y-14664143D01*
X4352143Y-14692714D01*
X4466428Y-14392714D02*
X4666428Y-14392714D01*
X4537857Y-14692714D01*
X4837857Y-14392714D02*
X4866429Y-14392714D01*
X4895000Y-14407000D01*
X4909286Y-14421286D01*
X4923571Y-14449857D01*
X4937857Y-14507000D01*
X4937857Y-14578429D01*
X4923571Y-14635571D01*
X4909286Y-14664143D01*
X4895000Y-14678429D01*
X4866429Y-14692714D01*
X4837857Y-14692714D01*
X4809286Y-14678429D01*
X4795000Y-14664143D01*
X4780714Y-14635571D01*
X4766429Y-14578429D01*
X4766429Y-14507000D01*
X4780714Y-14449857D01*
X4795000Y-14421286D01*
X4809286Y-14407000D01*
X4837857Y-14392714D01*
X5066429Y-14692714D02*
X5066429Y-14492714D01*
X5066429Y-14521286D02*
X5080714Y-14507000D01*
X5109286Y-14492714D01*
X5152143Y-14492714D01*
X5180714Y-14507000D01*
X5195000Y-14535571D01*
X5195000Y-14692714D01*
X5195000Y-14535571D02*
X5209286Y-14507000D01*
X5237857Y-14492714D01*
X5280714Y-14492714D01*
X5309286Y-14507000D01*
X5323571Y-14535571D01*
X5323571Y-14692714D01*
X5466429Y-14692714D02*
X5466429Y-14492714D01*
X5466429Y-14521286D02*
X5480714Y-14507000D01*
X5509286Y-14492714D01*
X5552143Y-14492714D01*
X5580714Y-14507000D01*
X5595000Y-14535571D01*
X5595000Y-14692714D01*
X5595000Y-14535571D02*
X5609286Y-14507000D01*
X5637857Y-14492714D01*
X5680714Y-14492714D01*
X5709286Y-14507000D01*
X5723571Y-14535571D01*
X5723571Y-14692714D01*
X6309286Y-14378429D02*
X6052143Y-14764143D01*
X6695000Y-14392714D02*
X6723571Y-14392714D01*
X6752143Y-14407000D01*
X6766428Y-14421286D01*
X6780714Y-14449857D01*
X6795000Y-14507000D01*
X6795000Y-14578429D01*
X6780714Y-14635571D01*
X6766428Y-14664143D01*
X6752143Y-14678429D01*
X6723571Y-14692714D01*
X6695000Y-14692714D01*
X6666428Y-14678429D01*
X6652143Y-14664143D01*
X6637857Y-14635571D01*
X6623571Y-14578429D01*
X6623571Y-14507000D01*
X6637857Y-14449857D01*
X6652143Y-14421286D01*
X6666428Y-14407000D01*
X6695000Y-14392714D01*
X6923571Y-14664143D02*
X6937857Y-14678429D01*
X6923571Y-14692714D01*
X6909286Y-14678429D01*
X6923571Y-14664143D01*
X6923571Y-14692714D01*
X7123571Y-14392714D02*
X7152143Y-14392714D01*
X7180714Y-14407000D01*
X7195000Y-14421286D01*
X7209285Y-14449857D01*
X7223571Y-14507000D01*
X7223571Y-14578429D01*
X7209285Y-14635571D01*
X7195000Y-14664143D01*
X7180714Y-14678429D01*
X7152143Y-14692714D01*
X7123571Y-14692714D01*
X7095000Y-14678429D01*
X7080714Y-14664143D01*
X7066428Y-14635571D01*
X7052143Y-14578429D01*
X7052143Y-14507000D01*
X7066428Y-14449857D01*
X7080714Y-14421286D01*
X7095000Y-14407000D01*
X7123571Y-14392714D01*
X7337857Y-14421286D02*
X7352143Y-14407000D01*
X7380714Y-14392714D01*
X7452143Y-14392714D01*
X7480714Y-14407000D01*
X7495000Y-14421286D01*
X7509285Y-14449857D01*
X7509285Y-14478429D01*
X7495000Y-14521286D01*
X7323571Y-14692714D01*
X7509285Y-14692714D01*
X7680714Y-14521286D02*
X7652143Y-14507000D01*
X7637857Y-14492714D01*
X7623571Y-14464143D01*
X7623571Y-14449857D01*
X7637857Y-14421286D01*
X7652143Y-14407000D01*
X7680714Y-14392714D01*
X7737857Y-14392714D01*
X7766428Y-14407000D01*
X7780714Y-14421286D01*
X7795000Y-14449857D01*
X7795000Y-14464143D01*
X7780714Y-14492714D01*
X7766428Y-14507000D01*
X7737857Y-14521286D01*
X7680714Y-14521286D01*
X7652143Y-14535571D01*
X7637857Y-14549857D01*
X7623571Y-14578429D01*
X7623571Y-14635571D01*
X7637857Y-14664143D01*
X7652143Y-14678429D01*
X7680714Y-14692714D01*
X7737857Y-14692714D01*
X7766428Y-14678429D01*
X7780714Y-14664143D01*
X7795000Y-14635571D01*
X7795000Y-14578429D01*
X7780714Y-14549857D01*
X7766428Y-14535571D01*
X7737857Y-14521286D01*
X7909286Y-14392714D02*
X7909286Y-14449857D01*
X8023571Y-14392714D02*
X8023571Y-14449857D01*
X8466428Y-14807000D02*
X8452143Y-14792714D01*
X8423571Y-14749857D01*
X8409286Y-14721286D01*
X8395000Y-14678429D01*
X8380714Y-14607000D01*
X8380714Y-14549857D01*
X8395000Y-14478429D01*
X8409286Y-14435571D01*
X8423571Y-14407000D01*
X8452143Y-14364143D01*
X8466428Y-14349857D01*
X8737857Y-14692714D02*
X8566428Y-14692714D01*
X8652143Y-14692714D02*
X8652143Y-14392714D01*
X8623571Y-14435571D01*
X8595000Y-14464143D01*
X8566428Y-14478429D01*
X9023571Y-14692714D02*
X8852143Y-14692714D01*
X8937857Y-14692714D02*
X8937857Y-14392714D01*
X8909286Y-14435571D01*
X8880714Y-14464143D01*
X8852143Y-14478429D01*
X9380714Y-14692714D02*
X9380714Y-14392714D01*
X9509286Y-14692714D02*
X9509286Y-14535571D01*
X9495000Y-14507000D01*
X9466428Y-14492714D01*
X9423571Y-14492714D01*
X9395000Y-14507000D01*
X9380714Y-14521286D01*
X9695000Y-14692714D02*
X9666428Y-14678429D01*
X9652143Y-14664143D01*
X9637857Y-14635571D01*
X9637857Y-14549857D01*
X9652143Y-14521286D01*
X9666428Y-14507000D01*
X9695000Y-14492714D01*
X9737857Y-14492714D01*
X9766428Y-14507000D01*
X9780714Y-14521286D01*
X9795000Y-14549857D01*
X9795000Y-14635571D01*
X9780714Y-14664143D01*
X9766428Y-14678429D01*
X9737857Y-14692714D01*
X9695000Y-14692714D01*
X9966428Y-14692714D02*
X9937857Y-14678429D01*
X9923571Y-14649857D01*
X9923571Y-14392714D01*
X10195000Y-14678429D02*
X10166429Y-14692714D01*
X10109286Y-14692714D01*
X10080714Y-14678429D01*
X10066429Y-14649857D01*
X10066429Y-14535571D01*
X10080714Y-14507000D01*
X10109286Y-14492714D01*
X10166429Y-14492714D01*
X10195000Y-14507000D01*
X10209286Y-14535571D01*
X10209286Y-14564143D01*
X10066429Y-14592714D01*
X10323571Y-14678429D02*
X10352143Y-14692714D01*
X10409286Y-14692714D01*
X10437857Y-14678429D01*
X10452143Y-14649857D01*
X10452143Y-14635571D01*
X10437857Y-14607000D01*
X10409286Y-14592714D01*
X10366429Y-14592714D01*
X10337857Y-14578429D01*
X10323571Y-14549857D01*
X10323571Y-14535571D01*
X10337857Y-14507000D01*
X10366429Y-14492714D01*
X10409286Y-14492714D01*
X10437857Y-14507000D01*
X10552143Y-14807000D02*
X10566429Y-14792714D01*
X10595000Y-14749857D01*
X10609286Y-14721286D01*
X10623571Y-14678429D01*
X10637857Y-14607000D01*
X10637857Y-14549857D01*
X10623571Y-14478429D01*
X10609286Y-14435571D01*
X10595000Y-14407000D01*
X10566429Y-14364143D01*
X10552143Y-14349857D01*
X3783841Y-14979941D02*
X3783841Y-14926059D01*
X3729959Y-14926059D01*
X3729959Y-14979941D01*
X3783841Y-14979941D01*
X4123571Y-14788714D02*
X4152143Y-14788714D01*
X4180714Y-14803000D01*
X4195000Y-14817286D01*
X4209286Y-14845857D01*
X4223571Y-14903000D01*
X4223571Y-14974429D01*
X4209286Y-15031571D01*
X4195000Y-15060143D01*
X4180714Y-15074429D01*
X4152143Y-15088714D01*
X4123571Y-15088714D01*
X4095000Y-15074429D01*
X4080714Y-15060143D01*
X4066428Y-15031571D01*
X4052143Y-14974429D01*
X4052143Y-14903000D01*
X4066428Y-14845857D01*
X4080714Y-14817286D01*
X4095000Y-14803000D01*
X4123571Y-14788714D01*
X4352143Y-15060143D02*
X4366429Y-15074429D01*
X4352143Y-15088714D01*
X4337857Y-15074429D01*
X4352143Y-15060143D01*
X4352143Y-15088714D01*
X4466428Y-14788714D02*
X4666428Y-14788714D01*
X4537857Y-15088714D01*
X4909286Y-14788714D02*
X4852143Y-14788714D01*
X4823571Y-14803000D01*
X4809286Y-14817286D01*
X4780714Y-14860143D01*
X4766429Y-14917286D01*
X4766429Y-15031571D01*
X4780714Y-15060143D01*
X4795000Y-15074429D01*
X4823571Y-15088714D01*
X4880714Y-15088714D01*
X4909286Y-15074429D01*
X4923571Y-15060143D01*
X4937857Y-15031571D01*
X4937857Y-14960143D01*
X4923571Y-14931571D01*
X4909286Y-14917286D01*
X4880714Y-14903000D01*
X4823571Y-14903000D01*
X4795000Y-14917286D01*
X4780714Y-14931571D01*
X4766429Y-14960143D01*
X5066429Y-15088714D02*
X5066429Y-14888714D01*
X5066429Y-14917286D02*
X5080714Y-14903000D01*
X5109286Y-14888714D01*
X5152143Y-14888714D01*
X5180714Y-14903000D01*
X5195000Y-14931571D01*
X5195000Y-15088714D01*
X5195000Y-14931571D02*
X5209286Y-14903000D01*
X5237857Y-14888714D01*
X5280714Y-14888714D01*
X5309286Y-14903000D01*
X5323571Y-14931571D01*
X5323571Y-15088714D01*
X5466429Y-15088714D02*
X5466429Y-14888714D01*
X5466429Y-14917286D02*
X5480714Y-14903000D01*
X5509286Y-14888714D01*
X5552143Y-14888714D01*
X5580714Y-14903000D01*
X5595000Y-14931571D01*
X5595000Y-15088714D01*
X5595000Y-14931571D02*
X5609286Y-14903000D01*
X5637857Y-14888714D01*
X5680714Y-14888714D01*
X5709286Y-14903000D01*
X5723571Y-14931571D01*
X5723571Y-15088714D01*
X6309286Y-14774429D02*
X6052143Y-15160143D01*
X6695000Y-14788714D02*
X6723571Y-14788714D01*
X6752143Y-14803000D01*
X6766428Y-14817286D01*
X6780714Y-14845857D01*
X6795000Y-14903000D01*
X6795000Y-14974429D01*
X6780714Y-15031571D01*
X6766428Y-15060143D01*
X6752143Y-15074429D01*
X6723571Y-15088714D01*
X6695000Y-15088714D01*
X6666428Y-15074429D01*
X6652143Y-15060143D01*
X6637857Y-15031571D01*
X6623571Y-14974429D01*
X6623571Y-14903000D01*
X6637857Y-14845857D01*
X6652143Y-14817286D01*
X6666428Y-14803000D01*
X6695000Y-14788714D01*
X6923571Y-15060143D02*
X6937857Y-15074429D01*
X6923571Y-15088714D01*
X6909286Y-15074429D01*
X6923571Y-15060143D01*
X6923571Y-15088714D01*
X7123571Y-14788714D02*
X7152143Y-14788714D01*
X7180714Y-14803000D01*
X7195000Y-14817286D01*
X7209285Y-14845857D01*
X7223571Y-14903000D01*
X7223571Y-14974429D01*
X7209285Y-15031571D01*
X7195000Y-15060143D01*
X7180714Y-15074429D01*
X7152143Y-15088714D01*
X7123571Y-15088714D01*
X7095000Y-15074429D01*
X7080714Y-15060143D01*
X7066428Y-15031571D01*
X7052143Y-14974429D01*
X7052143Y-14903000D01*
X7066428Y-14845857D01*
X7080714Y-14817286D01*
X7095000Y-14803000D01*
X7123571Y-14788714D01*
X7323571Y-14788714D02*
X7509285Y-14788714D01*
X7409285Y-14903000D01*
X7452143Y-14903000D01*
X7480714Y-14917286D01*
X7495000Y-14931571D01*
X7509285Y-14960143D01*
X7509285Y-15031571D01*
X7495000Y-15060143D01*
X7480714Y-15074429D01*
X7452143Y-15088714D01*
X7366428Y-15088714D01*
X7337857Y-15074429D01*
X7323571Y-15060143D01*
X7695000Y-14788714D02*
X7723571Y-14788714D01*
X7752143Y-14803000D01*
X7766428Y-14817286D01*
X7780714Y-14845857D01*
X7795000Y-14903000D01*
X7795000Y-14974429D01*
X7780714Y-15031571D01*
X7766428Y-15060143D01*
X7752143Y-15074429D01*
X7723571Y-15088714D01*
X7695000Y-15088714D01*
X7666428Y-15074429D01*
X7652143Y-15060143D01*
X7637857Y-15031571D01*
X7623571Y-14974429D01*
X7623571Y-14903000D01*
X7637857Y-14845857D01*
X7652143Y-14817286D01*
X7666428Y-14803000D01*
X7695000Y-14788714D01*
X7909286Y-14788714D02*
X7909286Y-14845857D01*
X8023571Y-14788714D02*
X8023571Y-14845857D01*
X8466428Y-15203000D02*
X8452143Y-15188714D01*
X8423571Y-15145857D01*
X8409286Y-15117286D01*
X8395000Y-15074429D01*
X8380714Y-15003000D01*
X8380714Y-14945857D01*
X8395000Y-14874429D01*
X8409286Y-14831571D01*
X8423571Y-14803000D01*
X8452143Y-14760143D01*
X8466428Y-14745857D01*
X8552143Y-14788714D02*
X8752143Y-14788714D01*
X8623571Y-15088714D01*
X8923571Y-14788714D02*
X8952143Y-14788714D01*
X8980714Y-14803000D01*
X8995000Y-14817286D01*
X9009286Y-14845857D01*
X9023571Y-14903000D01*
X9023571Y-14974429D01*
X9009286Y-15031571D01*
X8995000Y-15060143D01*
X8980714Y-15074429D01*
X8952143Y-15088714D01*
X8923571Y-15088714D01*
X8895000Y-15074429D01*
X8880714Y-15060143D01*
X8866428Y-15031571D01*
X8852143Y-14974429D01*
X8852143Y-14903000D01*
X8866428Y-14845857D01*
X8880714Y-14817286D01*
X8895000Y-14803000D01*
X8923571Y-14788714D01*
X9380714Y-15088714D02*
X9380714Y-14788714D01*
X9509286Y-15088714D02*
X9509286Y-14931571D01*
X9495000Y-14903000D01*
X9466428Y-14888714D01*
X9423571Y-14888714D01*
X9395000Y-14903000D01*
X9380714Y-14917286D01*
X9695000Y-15088714D02*
X9666428Y-15074429D01*
X9652143Y-15060143D01*
X9637857Y-15031571D01*
X9637857Y-14945857D01*
X9652143Y-14917286D01*
X9666428Y-14903000D01*
X9695000Y-14888714D01*
X9737857Y-14888714D01*
X9766428Y-14903000D01*
X9780714Y-14917286D01*
X9795000Y-14945857D01*
X9795000Y-15031571D01*
X9780714Y-15060143D01*
X9766428Y-15074429D01*
X9737857Y-15088714D01*
X9695000Y-15088714D01*
X9966428Y-15088714D02*
X9937857Y-15074429D01*
X9923571Y-15045857D01*
X9923571Y-14788714D01*
X10195000Y-15074429D02*
X10166429Y-15088714D01*
X10109286Y-15088714D01*
X10080714Y-15074429D01*
X10066429Y-15045857D01*
X10066429Y-14931571D01*
X10080714Y-14903000D01*
X10109286Y-14888714D01*
X10166429Y-14888714D01*
X10195000Y-14903000D01*
X10209286Y-14931571D01*
X10209286Y-14960143D01*
X10066429Y-14988714D01*
X10323571Y-15074429D02*
X10352143Y-15088714D01*
X10409286Y-15088714D01*
X10437857Y-15074429D01*
X10452143Y-15045857D01*
X10452143Y-15031571D01*
X10437857Y-15003000D01*
X10409286Y-14988714D01*
X10366429Y-14988714D01*
X10337857Y-14974429D01*
X10323571Y-14945857D01*
X10323571Y-14931571D01*
X10337857Y-14903000D01*
X10366429Y-14888714D01*
X10409286Y-14888714D01*
X10437857Y-14903000D01*
X10552143Y-15203000D02*
X10566429Y-15188714D01*
X10595000Y-15145857D01*
X10609286Y-15117286D01*
X10623571Y-15074429D01*
X10637857Y-15003000D01*
X10637857Y-14945857D01*
X10623571Y-14874429D01*
X10609286Y-14831571D01*
X10595000Y-14803000D01*
X10566429Y-14760143D01*
X10552143Y-14745857D01*
X3755000Y-15389000D02*
X3795000Y-15349000D01*
X3755000Y-15309000D01*
X3715000Y-15349000D01*
X3755000Y-15389000D01*
X4123571Y-15184714D02*
X4152143Y-15184714D01*
X4180714Y-15199000D01*
X4195000Y-15213286D01*
X4209286Y-15241857D01*
X4223571Y-15299000D01*
X4223571Y-15370429D01*
X4209286Y-15427571D01*
X4195000Y-15456143D01*
X4180714Y-15470429D01*
X4152143Y-15484714D01*
X4123571Y-15484714D01*
X4095000Y-15470429D01*
X4080714Y-15456143D01*
X4066428Y-15427571D01*
X4052143Y-15370429D01*
X4052143Y-15299000D01*
X4066428Y-15241857D01*
X4080714Y-15213286D01*
X4095000Y-15199000D01*
X4123571Y-15184714D01*
X4352143Y-15456143D02*
X4366429Y-15470429D01*
X4352143Y-15484714D01*
X4337857Y-15470429D01*
X4352143Y-15456143D01*
X4352143Y-15484714D01*
X4537857Y-15313286D02*
X4509286Y-15299000D01*
X4495000Y-15284714D01*
X4480714Y-15256143D01*
X4480714Y-15241857D01*
X4495000Y-15213286D01*
X4509286Y-15199000D01*
X4537857Y-15184714D01*
X4595000Y-15184714D01*
X4623571Y-15199000D01*
X4637857Y-15213286D01*
X4652143Y-15241857D01*
X4652143Y-15256143D01*
X4637857Y-15284714D01*
X4623571Y-15299000D01*
X4595000Y-15313286D01*
X4537857Y-15313286D01*
X4509286Y-15327571D01*
X4495000Y-15341857D01*
X4480714Y-15370429D01*
X4480714Y-15427571D01*
X4495000Y-15456143D01*
X4509286Y-15470429D01*
X4537857Y-15484714D01*
X4595000Y-15484714D01*
X4623571Y-15470429D01*
X4637857Y-15456143D01*
X4652143Y-15427571D01*
X4652143Y-15370429D01*
X4637857Y-15341857D01*
X4623571Y-15327571D01*
X4595000Y-15313286D01*
X4837857Y-15184714D02*
X4866429Y-15184714D01*
X4895000Y-15199000D01*
X4909286Y-15213286D01*
X4923571Y-15241857D01*
X4937857Y-15299000D01*
X4937857Y-15370429D01*
X4923571Y-15427571D01*
X4909286Y-15456143D01*
X4895000Y-15470429D01*
X4866429Y-15484714D01*
X4837857Y-15484714D01*
X4809286Y-15470429D01*
X4795000Y-15456143D01*
X4780714Y-15427571D01*
X4766429Y-15370429D01*
X4766429Y-15299000D01*
X4780714Y-15241857D01*
X4795000Y-15213286D01*
X4809286Y-15199000D01*
X4837857Y-15184714D01*
X5066429Y-15484714D02*
X5066429Y-15284714D01*
X5066429Y-15313286D02*
X5080714Y-15299000D01*
X5109286Y-15284714D01*
X5152143Y-15284714D01*
X5180714Y-15299000D01*
X5195000Y-15327571D01*
X5195000Y-15484714D01*
X5195000Y-15327571D02*
X5209286Y-15299000D01*
X5237857Y-15284714D01*
X5280714Y-15284714D01*
X5309286Y-15299000D01*
X5323571Y-15327571D01*
X5323571Y-15484714D01*
X5466429Y-15484714D02*
X5466429Y-15284714D01*
X5466429Y-15313286D02*
X5480714Y-15299000D01*
X5509286Y-15284714D01*
X5552143Y-15284714D01*
X5580714Y-15299000D01*
X5595000Y-15327571D01*
X5595000Y-15484714D01*
X5595000Y-15327571D02*
X5609286Y-15299000D01*
X5637857Y-15284714D01*
X5680714Y-15284714D01*
X5709286Y-15299000D01*
X5723571Y-15327571D01*
X5723571Y-15484714D01*
X6309286Y-15170429D02*
X6052143Y-15556143D01*
X6695000Y-15184714D02*
X6723571Y-15184714D01*
X6752143Y-15199000D01*
X6766428Y-15213286D01*
X6780714Y-15241857D01*
X6795000Y-15299000D01*
X6795000Y-15370429D01*
X6780714Y-15427571D01*
X6766428Y-15456143D01*
X6752143Y-15470429D01*
X6723571Y-15484714D01*
X6695000Y-15484714D01*
X6666428Y-15470429D01*
X6652143Y-15456143D01*
X6637857Y-15427571D01*
X6623571Y-15370429D01*
X6623571Y-15299000D01*
X6637857Y-15241857D01*
X6652143Y-15213286D01*
X6666428Y-15199000D01*
X6695000Y-15184714D01*
X6923571Y-15456143D02*
X6937857Y-15470429D01*
X6923571Y-15484714D01*
X6909286Y-15470429D01*
X6923571Y-15456143D01*
X6923571Y-15484714D01*
X7123571Y-15184714D02*
X7152143Y-15184714D01*
X7180714Y-15199000D01*
X7195000Y-15213286D01*
X7209285Y-15241857D01*
X7223571Y-15299000D01*
X7223571Y-15370429D01*
X7209285Y-15427571D01*
X7195000Y-15456143D01*
X7180714Y-15470429D01*
X7152143Y-15484714D01*
X7123571Y-15484714D01*
X7095000Y-15470429D01*
X7080714Y-15456143D01*
X7066428Y-15427571D01*
X7052143Y-15370429D01*
X7052143Y-15299000D01*
X7066428Y-15241857D01*
X7080714Y-15213286D01*
X7095000Y-15199000D01*
X7123571Y-15184714D01*
X7323571Y-15184714D02*
X7509285Y-15184714D01*
X7409285Y-15299000D01*
X7452143Y-15299000D01*
X7480714Y-15313286D01*
X7495000Y-15327571D01*
X7509285Y-15356143D01*
X7509285Y-15427571D01*
X7495000Y-15456143D01*
X7480714Y-15470429D01*
X7452143Y-15484714D01*
X7366428Y-15484714D01*
X7337857Y-15470429D01*
X7323571Y-15456143D01*
X7795000Y-15484714D02*
X7623571Y-15484714D01*
X7709285Y-15484714D02*
X7709285Y-15184714D01*
X7680714Y-15227571D01*
X7652143Y-15256143D01*
X7623571Y-15270429D01*
X7909286Y-15184714D02*
X7909286Y-15241857D01*
X8023571Y-15184714D02*
X8023571Y-15241857D01*
X8466428Y-15599000D02*
X8452143Y-15584714D01*
X8423571Y-15541857D01*
X8409286Y-15513286D01*
X8395000Y-15470429D01*
X8380714Y-15399000D01*
X8380714Y-15341857D01*
X8395000Y-15270429D01*
X8409286Y-15227571D01*
X8423571Y-15199000D01*
X8452143Y-15156143D01*
X8466428Y-15141857D01*
X8566428Y-15213286D02*
X8580714Y-15199000D01*
X8609286Y-15184714D01*
X8680714Y-15184714D01*
X8709286Y-15199000D01*
X8723571Y-15213286D01*
X8737857Y-15241857D01*
X8737857Y-15270429D01*
X8723571Y-15313286D01*
X8552143Y-15484714D01*
X8737857Y-15484714D01*
X8995000Y-15284714D02*
X8995000Y-15484714D01*
X8923571Y-15170429D02*
X8852143Y-15384714D01*
X9037857Y-15384714D01*
X9380714Y-15484714D02*
X9380714Y-15184714D01*
X9509286Y-15484714D02*
X9509286Y-15327571D01*
X9495000Y-15299000D01*
X9466428Y-15284714D01*
X9423571Y-15284714D01*
X9395000Y-15299000D01*
X9380714Y-15313286D01*
X9695000Y-15484714D02*
X9666428Y-15470429D01*
X9652143Y-15456143D01*
X9637857Y-15427571D01*
X9637857Y-15341857D01*
X9652143Y-15313286D01*
X9666428Y-15299000D01*
X9695000Y-15284714D01*
X9737857Y-15284714D01*
X9766428Y-15299000D01*
X9780714Y-15313286D01*
X9795000Y-15341857D01*
X9795000Y-15427571D01*
X9780714Y-15456143D01*
X9766428Y-15470429D01*
X9737857Y-15484714D01*
X9695000Y-15484714D01*
X9966428Y-15484714D02*
X9937857Y-15470429D01*
X9923571Y-15441857D01*
X9923571Y-15184714D01*
X10195000Y-15470429D02*
X10166429Y-15484714D01*
X10109286Y-15484714D01*
X10080714Y-15470429D01*
X10066429Y-15441857D01*
X10066429Y-15327571D01*
X10080714Y-15299000D01*
X10109286Y-15284714D01*
X10166429Y-15284714D01*
X10195000Y-15299000D01*
X10209286Y-15327571D01*
X10209286Y-15356143D01*
X10066429Y-15384714D01*
X10323571Y-15470429D02*
X10352143Y-15484714D01*
X10409286Y-15484714D01*
X10437857Y-15470429D01*
X10452143Y-15441857D01*
X10452143Y-15427571D01*
X10437857Y-15399000D01*
X10409286Y-15384714D01*
X10366429Y-15384714D01*
X10337857Y-15370429D01*
X10323571Y-15341857D01*
X10323571Y-15327571D01*
X10337857Y-15299000D01*
X10366429Y-15284714D01*
X10409286Y-15284714D01*
X10437857Y-15299000D01*
X10552143Y-15599000D02*
X10566429Y-15584714D01*
X10595000Y-15541857D01*
X10609286Y-15513286D01*
X10623571Y-15470429D01*
X10637857Y-15399000D01*
X10637857Y-15341857D01*
X10623571Y-15270429D01*
X10609286Y-15227571D01*
X10595000Y-15199000D01*
X10566429Y-15156143D01*
X10552143Y-15141857D01*
X3695000Y-15695000D02*
X3795000Y-15795000D01*
X3795000Y-15695000D02*
X3695000Y-15795000D01*
X3795000Y-15745000D02*
G75*
G03X3795000Y-15745000I-50000J0D01*
G01*
X4223571Y-15880714D02*
X4052143Y-15880714D01*
X4137857Y-15880714D02*
X4137857Y-15580714D01*
X4109286Y-15623571D01*
X4080714Y-15652143D01*
X4052143Y-15666429D01*
X4352143Y-15852143D02*
X4366429Y-15866429D01*
X4352143Y-15880714D01*
X4337857Y-15866429D01*
X4352143Y-15852143D01*
X4352143Y-15880714D01*
X4552143Y-15580714D02*
X4580714Y-15580714D01*
X4609286Y-15595000D01*
X4623571Y-15609286D01*
X4637857Y-15637857D01*
X4652143Y-15695000D01*
X4652143Y-15766429D01*
X4637857Y-15823571D01*
X4623571Y-15852143D01*
X4609286Y-15866429D01*
X4580714Y-15880714D01*
X4552143Y-15880714D01*
X4523571Y-15866429D01*
X4509286Y-15852143D01*
X4495000Y-15823571D01*
X4480714Y-15766429D01*
X4480714Y-15695000D01*
X4495000Y-15637857D01*
X4509286Y-15609286D01*
X4523571Y-15595000D01*
X4552143Y-15580714D01*
X4837857Y-15580714D02*
X4866429Y-15580714D01*
X4895000Y-15595000D01*
X4909286Y-15609286D01*
X4923571Y-15637857D01*
X4937857Y-15695000D01*
X4937857Y-15766429D01*
X4923571Y-15823571D01*
X4909286Y-15852143D01*
X4895000Y-15866429D01*
X4866429Y-15880714D01*
X4837857Y-15880714D01*
X4809286Y-15866429D01*
X4795000Y-15852143D01*
X4780714Y-15823571D01*
X4766429Y-15766429D01*
X4766429Y-15695000D01*
X4780714Y-15637857D01*
X4795000Y-15609286D01*
X4809286Y-15595000D01*
X4837857Y-15580714D01*
X5066429Y-15880714D02*
X5066429Y-15680714D01*
X5066429Y-15709286D02*
X5080714Y-15695000D01*
X5109286Y-15680714D01*
X5152143Y-15680714D01*
X5180714Y-15695000D01*
X5195000Y-15723571D01*
X5195000Y-15880714D01*
X5195000Y-15723571D02*
X5209286Y-15695000D01*
X5237857Y-15680714D01*
X5280714Y-15680714D01*
X5309286Y-15695000D01*
X5323571Y-15723571D01*
X5323571Y-15880714D01*
X5466429Y-15880714D02*
X5466429Y-15680714D01*
X5466429Y-15709286D02*
X5480714Y-15695000D01*
X5509286Y-15680714D01*
X5552143Y-15680714D01*
X5580714Y-15695000D01*
X5595000Y-15723571D01*
X5595000Y-15880714D01*
X5595000Y-15723571D02*
X5609286Y-15695000D01*
X5637857Y-15680714D01*
X5680714Y-15680714D01*
X5709286Y-15695000D01*
X5723571Y-15723571D01*
X5723571Y-15880714D01*
X6309286Y-15566429D02*
X6052143Y-15952143D01*
X6695000Y-15580714D02*
X6723571Y-15580714D01*
X6752143Y-15595000D01*
X6766428Y-15609286D01*
X6780714Y-15637857D01*
X6795000Y-15695000D01*
X6795000Y-15766429D01*
X6780714Y-15823571D01*
X6766428Y-15852143D01*
X6752143Y-15866429D01*
X6723571Y-15880714D01*
X6695000Y-15880714D01*
X6666428Y-15866429D01*
X6652143Y-15852143D01*
X6637857Y-15823571D01*
X6623571Y-15766429D01*
X6623571Y-15695000D01*
X6637857Y-15637857D01*
X6652143Y-15609286D01*
X6666428Y-15595000D01*
X6695000Y-15580714D01*
X6923571Y-15852143D02*
X6937857Y-15866429D01*
X6923571Y-15880714D01*
X6909286Y-15866429D01*
X6923571Y-15852143D01*
X6923571Y-15880714D01*
X7123571Y-15580714D02*
X7152143Y-15580714D01*
X7180714Y-15595000D01*
X7195000Y-15609286D01*
X7209285Y-15637857D01*
X7223571Y-15695000D01*
X7223571Y-15766429D01*
X7209285Y-15823571D01*
X7195000Y-15852143D01*
X7180714Y-15866429D01*
X7152143Y-15880714D01*
X7123571Y-15880714D01*
X7095000Y-15866429D01*
X7080714Y-15852143D01*
X7066428Y-15823571D01*
X7052143Y-15766429D01*
X7052143Y-15695000D01*
X7066428Y-15637857D01*
X7080714Y-15609286D01*
X7095000Y-15595000D01*
X7123571Y-15580714D01*
X7323571Y-15580714D02*
X7509285Y-15580714D01*
X7409285Y-15695000D01*
X7452143Y-15695000D01*
X7480714Y-15709286D01*
X7495000Y-15723571D01*
X7509285Y-15752143D01*
X7509285Y-15823571D01*
X7495000Y-15852143D01*
X7480714Y-15866429D01*
X7452143Y-15880714D01*
X7366428Y-15880714D01*
X7337857Y-15866429D01*
X7323571Y-15852143D01*
X7652143Y-15880714D02*
X7709285Y-15880714D01*
X7737857Y-15866429D01*
X7752143Y-15852143D01*
X7780714Y-15809286D01*
X7795000Y-15752143D01*
X7795000Y-15637857D01*
X7780714Y-15609286D01*
X7766428Y-15595000D01*
X7737857Y-15580714D01*
X7680714Y-15580714D01*
X7652143Y-15595000D01*
X7637857Y-15609286D01*
X7623571Y-15637857D01*
X7623571Y-15709286D01*
X7637857Y-15737857D01*
X7652143Y-15752143D01*
X7680714Y-15766429D01*
X7737857Y-15766429D01*
X7766428Y-15752143D01*
X7780714Y-15737857D01*
X7795000Y-15709286D01*
X7909286Y-15580714D02*
X7909286Y-15637857D01*
X8023571Y-15580714D02*
X8023571Y-15637857D01*
X8466428Y-15995000D02*
X8452143Y-15980714D01*
X8423571Y-15937857D01*
X8409286Y-15909286D01*
X8395000Y-15866429D01*
X8380714Y-15795000D01*
X8380714Y-15737857D01*
X8395000Y-15666429D01*
X8409286Y-15623571D01*
X8423571Y-15595000D01*
X8452143Y-15552143D01*
X8466428Y-15537857D01*
X8552143Y-15580714D02*
X8737857Y-15580714D01*
X8637857Y-15695000D01*
X8680714Y-15695000D01*
X8709286Y-15709286D01*
X8723571Y-15723571D01*
X8737857Y-15752143D01*
X8737857Y-15823571D01*
X8723571Y-15852143D01*
X8709286Y-15866429D01*
X8680714Y-15880714D01*
X8595000Y-15880714D01*
X8566428Y-15866429D01*
X8552143Y-15852143D01*
X8852143Y-15609286D02*
X8866428Y-15595000D01*
X8895000Y-15580714D01*
X8966428Y-15580714D01*
X8995000Y-15595000D01*
X9009286Y-15609286D01*
X9023571Y-15637857D01*
X9023571Y-15666429D01*
X9009286Y-15709286D01*
X8837857Y-15880714D01*
X9023571Y-15880714D01*
X9380714Y-15880714D02*
X9380714Y-15580714D01*
X9509286Y-15880714D02*
X9509286Y-15723571D01*
X9495000Y-15695000D01*
X9466428Y-15680714D01*
X9423571Y-15680714D01*
X9395000Y-15695000D01*
X9380714Y-15709286D01*
X9695000Y-15880714D02*
X9666428Y-15866429D01*
X9652143Y-15852143D01*
X9637857Y-15823571D01*
X9637857Y-15737857D01*
X9652143Y-15709286D01*
X9666428Y-15695000D01*
X9695000Y-15680714D01*
X9737857Y-15680714D01*
X9766428Y-15695000D01*
X9780714Y-15709286D01*
X9795000Y-15737857D01*
X9795000Y-15823571D01*
X9780714Y-15852143D01*
X9766428Y-15866429D01*
X9737857Y-15880714D01*
X9695000Y-15880714D01*
X9966428Y-15880714D02*
X9937857Y-15866429D01*
X9923571Y-15837857D01*
X9923571Y-15580714D01*
X10195000Y-15866429D02*
X10166429Y-15880714D01*
X10109286Y-15880714D01*
X10080714Y-15866429D01*
X10066429Y-15837857D01*
X10066429Y-15723571D01*
X10080714Y-15695000D01*
X10109286Y-15680714D01*
X10166429Y-15680714D01*
X10195000Y-15695000D01*
X10209286Y-15723571D01*
X10209286Y-15752143D01*
X10066429Y-15780714D01*
X10323571Y-15866429D02*
X10352143Y-15880714D01*
X10409286Y-15880714D01*
X10437857Y-15866429D01*
X10452143Y-15837857D01*
X10452143Y-15823571D01*
X10437857Y-15795000D01*
X10409286Y-15780714D01*
X10366429Y-15780714D01*
X10337857Y-15766429D01*
X10323571Y-15737857D01*
X10323571Y-15723571D01*
X10337857Y-15695000D01*
X10366429Y-15680714D01*
X10409286Y-15680714D01*
X10437857Y-15695000D01*
X10552143Y-15995000D02*
X10566429Y-15980714D01*
X10595000Y-15937857D01*
X10609286Y-15909286D01*
X10623571Y-15866429D01*
X10637857Y-15795000D01*
X10637857Y-15737857D01*
X10623571Y-15666429D01*
X10609286Y-15623571D01*
X10595000Y-15595000D01*
X10566429Y-15552143D01*
X10552143Y-15537857D01*
M02*
