G04 #@! TF.FileFunction,Soldermask,Top*
%FSLAX46Y46*%
G04 Gerber Fmt 4.6, Leading zero omitted, Abs format (unit mm)*
G04 Created by KiCad (PCBNEW 4.0.1-stable) date 2018/06/25 22:31:08*
%MOMM*%
G01*
G04 APERTURE LIST*
%ADD10C,0.100000*%
%ADD11C,1.700000*%
%ADD12C,1.300000*%
%ADD13R,3.600000X1.900000*%
%ADD14R,1.980000X0.920000*%
%ADD15R,0.700000X0.900000*%
%ADD16R,0.900000X0.700000*%
%ADD17R,1.000000X1.100000*%
%ADD18R,1.900000X3.600000*%
%ADD19R,1.100000X1.000000*%
%ADD20R,0.700000X1.300000*%
%ADD21R,1.800000X1.600000*%
%ADD22R,5.200000X1.400000*%
%ADD23R,0.900000X0.500000*%
%ADD24R,1.600000X0.500000*%
%ADD25R,0.500000X1.600000*%
%ADD26R,2.350000X3.450000*%
%ADD27R,2.350000X1.500000*%
%ADD28C,1.724000*%
%ADD29R,1.000000X1.400000*%
%ADD30R,1.900000X1.900000*%
%ADD31O,1.900000X1.900000*%
%ADD32C,1.800000*%
%ADD33C,1.500000*%
%ADD34C,2.200000*%
G04 APERTURE END LIST*
D10*
D11*
X68000000Y-81500000D03*
X68000000Y-79500000D03*
D12*
X65900000Y-83000000D03*
X65900000Y-78000000D03*
D13*
X75400000Y-95000000D03*
X70600000Y-95000000D03*
D14*
X73400000Y-82095000D03*
X73400000Y-83365000D03*
X73400000Y-84635000D03*
X73400000Y-85905000D03*
X78600000Y-85905000D03*
X78600000Y-84635000D03*
X78600000Y-83365000D03*
X78600000Y-82095000D03*
D15*
X111800000Y-90200000D03*
X111800000Y-91400000D03*
X110800000Y-90200000D03*
X110800000Y-91400000D03*
X108000000Y-93500000D03*
X108000000Y-94700000D03*
D16*
X103700000Y-83500000D03*
X104900000Y-83500000D03*
D15*
X105500000Y-97900000D03*
X105500000Y-99100000D03*
X101000000Y-76400000D03*
X101000000Y-75200000D03*
D17*
X79500000Y-72950000D03*
X79500000Y-74750000D03*
D16*
X94400000Y-84300000D03*
X95600000Y-84300000D03*
D18*
X92500000Y-77400000D03*
X92500000Y-72600000D03*
D16*
X95600000Y-85400000D03*
X94400000Y-85400000D03*
X93500000Y-97600000D03*
X94700000Y-97600000D03*
X94700000Y-96400000D03*
X93500000Y-96400000D03*
D19*
X98400000Y-80500000D03*
X96600000Y-80500000D03*
D15*
X68000000Y-95500000D03*
X68000000Y-96700000D03*
D16*
X102600000Y-76400000D03*
X103800000Y-76400000D03*
D15*
X109500000Y-101900000D03*
X109500000Y-103100000D03*
D16*
X103800000Y-75200000D03*
X102600000Y-75200000D03*
X73600000Y-88400000D03*
X72400000Y-88400000D03*
X94400000Y-83200000D03*
X95600000Y-83200000D03*
D15*
X94500000Y-99900000D03*
X94500000Y-101100000D03*
X96000000Y-99900000D03*
X96000000Y-101100000D03*
X97500000Y-99900000D03*
X97500000Y-101100000D03*
X119800000Y-70800000D03*
X119800000Y-69600000D03*
X125000000Y-84900000D03*
X125000000Y-83700000D03*
D16*
X108500000Y-59100000D03*
X107300000Y-59100000D03*
D20*
X98450000Y-75650000D03*
X97500000Y-75650000D03*
X96550000Y-75650000D03*
X96550000Y-78350000D03*
X98450000Y-78350000D03*
D21*
X102200000Y-101000000D03*
X102200000Y-104000000D03*
X107800000Y-101000000D03*
X107800000Y-104000000D03*
D22*
X64000000Y-93000000D03*
X64000000Y-95500000D03*
X64000000Y-98000000D03*
D23*
X105650000Y-75300000D03*
X105650000Y-75800000D03*
X105650000Y-76300000D03*
X107350000Y-76300000D03*
X107350000Y-75300000D03*
D24*
X106350000Y-95250000D03*
X106350000Y-94750000D03*
X106350000Y-94250000D03*
X106350000Y-93750000D03*
X106350000Y-93250000D03*
X106350000Y-92750000D03*
X106350000Y-92250000D03*
X106350000Y-91750000D03*
X106350000Y-91250000D03*
X106350000Y-90750000D03*
X106350000Y-90250000D03*
X106350000Y-89750000D03*
X106350000Y-89250000D03*
X106350000Y-88750000D03*
X106350000Y-88250000D03*
X106350000Y-87750000D03*
D25*
X104250000Y-85650000D03*
X103750000Y-85650000D03*
X103250000Y-85650000D03*
X102750000Y-85650000D03*
X102250000Y-85650000D03*
X101750000Y-85650000D03*
X101250000Y-85650000D03*
X100750000Y-85650000D03*
X100250000Y-85650000D03*
X99750000Y-85650000D03*
X99250000Y-85650000D03*
X98750000Y-85650000D03*
X98250000Y-85650000D03*
X97750000Y-85650000D03*
X97250000Y-85650000D03*
X96750000Y-85650000D03*
D24*
X94650000Y-87750000D03*
X94650000Y-88250000D03*
X94650000Y-88750000D03*
X94650000Y-89250000D03*
X94650000Y-89750000D03*
X94650000Y-90250000D03*
X94650000Y-90750000D03*
X94650000Y-91250000D03*
X94650000Y-91750000D03*
X94650000Y-92250000D03*
X94650000Y-92750000D03*
X94650000Y-93250000D03*
X94650000Y-93750000D03*
X94650000Y-94250000D03*
X94650000Y-94750000D03*
X94650000Y-95250000D03*
D25*
X96750000Y-97350000D03*
X97250000Y-97350000D03*
X97750000Y-97350000D03*
X98250000Y-97350000D03*
X98750000Y-97350000D03*
X99250000Y-97350000D03*
X99750000Y-97350000D03*
X100250000Y-97350000D03*
X100750000Y-97350000D03*
X101250000Y-97350000D03*
X101750000Y-97350000D03*
X102250000Y-97350000D03*
X102750000Y-97350000D03*
X103250000Y-97350000D03*
X103750000Y-97350000D03*
X104250000Y-97350000D03*
D26*
X87900000Y-75000000D03*
D27*
X82100000Y-75000000D03*
X82100000Y-77300000D03*
X82100000Y-72700000D03*
D28*
X120073203Y-64081505D03*
X118357204Y-62208820D03*
X118200518Y-65797504D03*
X116484519Y-63924819D03*
X116070666Y-60057861D03*
X114096716Y-58459387D03*
X114472192Y-62031811D03*
X112498242Y-60433337D03*
X111517362Y-56670026D03*
X109328824Y-55380878D03*
X110228214Y-58858564D03*
X108039676Y-57569416D03*
X127968695Y-79025442D03*
X127226071Y-76596428D03*
X125539681Y-79768066D03*
X124797057Y-77339052D03*
X126088288Y-73670623D03*
X124994790Y-71378057D03*
X123795722Y-74764121D03*
X122702224Y-72471555D03*
X123437043Y-68652566D03*
X122016693Y-66546810D03*
X121331287Y-70072916D03*
X119910937Y-67967160D03*
X128661519Y-95912716D03*
X129036955Y-93400616D03*
X126149419Y-95537280D03*
X126524855Y-93025180D03*
X129269600Y-90270000D03*
X129269600Y-87730000D03*
X126729600Y-90270000D03*
X126729600Y-87730000D03*
X129036955Y-84599384D03*
X128661519Y-82087284D03*
X126524855Y-84974820D03*
X126149419Y-82462720D03*
X122016693Y-111453370D03*
X123437043Y-109347614D03*
X119910937Y-110033020D03*
X121331287Y-107927264D03*
X124994790Y-106621943D03*
X126088288Y-104329377D03*
X122702224Y-105528445D03*
X123795722Y-103235879D03*
X127226071Y-101403572D03*
X127968695Y-98974558D03*
X124797057Y-100660948D03*
X125539681Y-98231934D03*
X109328824Y-122619122D03*
X111517362Y-121329974D03*
X108039676Y-120430584D03*
X110228214Y-119141436D03*
X114096716Y-119540613D03*
X116070666Y-117942139D03*
X112498242Y-117566663D03*
X114472192Y-115968189D03*
X118357204Y-115791180D03*
X120073203Y-113918495D03*
X116484519Y-114075181D03*
X118200518Y-112202496D03*
D29*
X78950000Y-97900000D03*
X77050000Y-97900000D03*
X78000000Y-100100000D03*
D15*
X80300000Y-94900000D03*
X80300000Y-96100000D03*
X79300000Y-96100000D03*
X79300000Y-94900000D03*
D30*
X73500000Y-75000000D03*
D31*
X70960000Y-75000000D03*
X68420000Y-75000000D03*
X65880000Y-75000000D03*
X63340000Y-75000000D03*
D30*
X50500000Y-75000000D03*
D31*
X47960000Y-75000000D03*
X45420000Y-75000000D03*
X42880000Y-75000000D03*
X40340000Y-75000000D03*
D30*
X50500000Y-103000000D03*
D31*
X47960000Y-103000000D03*
X45420000Y-103000000D03*
X42880000Y-103000000D03*
X40340000Y-103000000D03*
D30*
X73500000Y-103000000D03*
D31*
X70960000Y-103000000D03*
X68420000Y-103000000D03*
X65880000Y-103000000D03*
X63340000Y-103000000D03*
D32*
X43850000Y-98810000D03*
X46390000Y-98810000D03*
X48930000Y-98810000D03*
X51470000Y-98810000D03*
X54010000Y-98810000D03*
X56550000Y-98810000D03*
X56550000Y-91190000D03*
X54010000Y-91190000D03*
X51470000Y-91190000D03*
X48930000Y-91190000D03*
X46390000Y-91190000D03*
X43850000Y-91190000D03*
X43850000Y-86810000D03*
X46390000Y-86810000D03*
X48930000Y-86810000D03*
X51470000Y-86810000D03*
X54010000Y-86810000D03*
X56550000Y-86810000D03*
X56550000Y-79190000D03*
X54010000Y-79190000D03*
X51470000Y-79190000D03*
X48930000Y-79190000D03*
X46390000Y-79190000D03*
X43850000Y-79190000D03*
D28*
X69810000Y-118000000D03*
X69810000Y-120540000D03*
X69810000Y-123080000D03*
X69810000Y-115460000D03*
X69810000Y-112920000D03*
X62190000Y-112920000D03*
X62190000Y-115460000D03*
X62190000Y-118000000D03*
X62190000Y-120540000D03*
X62190000Y-123080000D03*
D12*
X78000000Y-104250000D03*
X78000000Y-102750000D03*
X82000000Y-104250000D03*
X82000000Y-102750000D03*
D11*
X68000000Y-88500000D03*
X68000000Y-86500000D03*
D12*
X65900000Y-90000000D03*
X65900000Y-85000000D03*
D30*
X88539600Y-81000000D03*
D31*
X85999600Y-81000000D03*
X83459600Y-81000000D03*
D30*
X68540000Y-110000000D03*
D31*
X66000000Y-110000000D03*
X63460000Y-110000000D03*
D30*
X68540000Y-126000000D03*
D31*
X66000000Y-126000000D03*
X63460000Y-126000000D03*
D30*
X88539600Y-97000000D03*
D31*
X85999600Y-97000000D03*
X83459600Y-97000000D03*
D11*
X40800000Y-84000000D03*
X40800000Y-82000000D03*
X40800000Y-96000000D03*
X40800000Y-94000000D03*
D33*
X90000000Y-101000000D03*
X88000000Y-101000000D03*
X86000000Y-101000000D03*
D17*
X93000000Y-102600000D03*
X93000000Y-104400000D03*
X94500000Y-102600000D03*
X94500000Y-104400000D03*
X96000000Y-102600000D03*
X96000000Y-104400000D03*
X97500000Y-102600000D03*
X97500000Y-104400000D03*
D15*
X93000000Y-99900000D03*
X93000000Y-101100000D03*
D12*
X80000000Y-92250000D03*
X80000000Y-90750000D03*
D17*
X73000000Y-89600000D03*
X73000000Y-91400000D03*
D34*
X93999200Y-67800000D03*
X78000000Y-67800000D03*
X92799200Y-125200000D03*
X93999200Y-110200000D03*
X78000000Y-110200000D03*
X92799200Y-52800000D03*
M02*
